0
SECTION
2
HEADER
9
$INSUNITS
70
4
9
$ACADVER
1
AC1014
9
$HANDSEED
5
FFFF
0
ENDSEC
0
SECTION
2
TABLES
0
TABLE
2
VPORT
5
8
100
AcDbSymbolTable
0
ENDTAB
0
TABLE
2
LTYPE
5
5
100
AcDbSymbolTable
0
LTYPE
5
14
100
AcDbSymbolTableRecord
100
AcDbLinetypeTableRecord
2
BYBLOCK
70
0
0
LTYPE
5
15
100
AcDbSymbolTableRecord
100
AcDbLinetypeTableRecord
2
BYLAYER
70
0
0
ENDTAB
0
TABLE
2
LAYER
5
2
100
AcDbSymbolTable
70
2
0
LAYER
5
50
100
AcDbSymbolTableRecord
100
AcDbLayerTableRecord
2
0
70
0
6
CONTINUOUS
0
ENDTAB
0
TABLE
2
STYLE
5
3
100
AcDbSymbolTable
70
1
0
STYLE
5
11
100
AcDbSymbolTableRecord
100
AcDbTextStyleTableRecord
2
STANDARD
70
0
0
ENDTAB
0
TABLE
2
VIEW
5
6
100
AcDbSymbolTable
70
0
0
ENDTAB
0
TABLE
2
UCS
5
7
100
AcDbSymbolTable
70
0
0
ENDTAB
0
TABLE
2
APPID
5
9
100
AcDbSymbolTable
70
2
0
APPID
5
12
100
AcDbSymbolTableRecord
100
AcDbRegAppTableRecord
2
ACAD
70
0
0
ENDTAB
0
TABLE
2
DIMSTYLE
5
A
100
AcDbSymbolTable
70
1
0
ENDTAB
0
TABLE
2
BLOCK_RECORD
5
1
100
AcDbSymbolTable
70
1
0
BLOCK_RECORD
5
1F
100
AcDbSymbolTableRecord
100
AcDbBlockTableRecord
2
*MODEL_SPACE
0
BLOCK_RECORD
5
1B
100
AcDbSymbolTableRecord
100
AcDbBlockTableRecord
2
*PAPER_SPACE
0
ENDTAB
0
ENDSEC
0
SECTION
2
BLOCKS
0
BLOCK
5
20
100
AcDbEntity
100
AcDbBlockBegin
2
*MODEL_SPACE
0
ENDBLK
5
21
100
AcDbEntity
100
AcDbBlockEnd
0
BLOCK
5
1C
100
AcDbEntity
100
AcDbBlockBegin
2
*PAPER_SPACE
0
ENDBLK
5
1D
100
AcDbEntity
100
AcDbBlockEnd
0
ENDSEC
0
SECTION
2
ENTITIES
0
LWPOLYLINE
5
100
100
AcDbEntity
8
0
100
AcDbPolyline
90
8
70
1
43
0.0
10
16.524999999999999
20
-16.024999999999999
10
16.525000000000002
20
-3.0249999999999999
42
0.41421356237309503
10
16.024999999999999
20
-2.5249999999999999
10
3.0249999999999999
20
-2.5249999999999999
42
0.41421356237309503
10
2.5249999999999999
20
-3.0249999999999999
10
2.5249999999999999
20
-16.024999999999999
42
0.41421356237309503
10
3.0249999999999999
20
-16.524999999999999
10
16.024999999999999
20
-16.525000000000002
42
0.41421356237309503
0
LWPOLYLINE
5
101
100
AcDbEntity
8
0
100
AcDbPolyline
90
8
70
1
43
0.0
10
54.125000000000007
20
-2.5249999999999999
10
41.125
20
-2.5249999999999999
42
0.41421356237309503
10
40.625
20
-3.0249999999999999
10
40.625
20
-16.024999999999999
42
0.41421356237309503
10
41.125
20
-16.524999999999999
10
54.125000000000007
20
-16.525000000000002
42
0.41421356237309503
10
54.625
20
-16.024999999999999
10
54.625
20
-3.0249999999999999
42
0.41421356237309503
0
LWPOLYLINE
5
102
100
AcDbEntity
8
0
100
AcDbPolyline
90
8
70
1
43
0.0
10
111.77500000000002
20
-16.024999999999999
10
111.77500000000002
20
-3.0249999999999999
42
0.41421356237309503
10
111.27500000000001
20
-2.5249999999999999
10
98.275000000000006
20
-2.5249999999999999
42
0.41421356237309503
10
97.77500000000002
20
-3.0249999999999999
10
97.775000000000006
20
-16.024999999999999
42
0.41421356237309503
10
98.275000000000006
20
-16.524999999999999
10
111.27500000000001
20
-16.525000000000002
42
0.41421356237309503
0
LWPOLYLINE
5
103
100
AcDbEntity
8
0
100
AcDbPolyline
90
8
70
1
43
0.0
10
178.44999999999999
20
-16.024999999999999
42
-0.41421356237309503
10
177.94999999999999
20
-16.525000000000002
10
164.95000000000002
20
-16.525000000000006
42
-0.41421356237309503
10
164.44999999999999
20
-16.024999999999999
10
164.44999999999999
20
-3.0249999999999999
42
-0.41421356237309503
10
164.95000000000002
20
-2.5249999999999999
10
177.94999999999999
20
-2.5249999999999928
42
-0.41421356237309503
10
178.44999999999999
20
-3.0249999999999999
0
LWPOLYLINE
5
104
100
AcDbEntity
8
0
100
AcDbPolyline
90
8
70
1
43
0.0
10
158.90000000000001
20
-16.524999999999999
10
145.90000000000001
20
-16.525000000000006
42
-0.41421356237309503
10
145.40000000000001
20
-16.024999999999999
10
145.40000000000001
20
-3.0249999999999999
42
-0.41421356237309503
10
145.90000000000001
20
-2.5249999999999999
10
158.90000000000001
20
-2.5249999999999928
42
-0.41421356237309503
10
159.40000000000001
20
-3.0249999999999999
10
159.40000000000001
20
-16.024999999999999
42
-0.41421356237309503
0
LWPOLYLINE
5
105
100
AcDbEntity
8
0
100
AcDbPolyline
90
8
70
1
43
0.0
10
197.50000000000003
20
-16.024999999999999
42
-0.41421356237309503
10
197.00000000000003
20
-16.525000000000002
10
184.00000000000003
20
-16.525000000000006
42
-0.41421356237309503
10
183.5
20
-16.024999999999999
10
183.5
20
-3.0249999999999999
42
-0.41421356237309503
10
184.00000000000003
20
-2.5249999999999999
10
197.00000000000003
20
-2.5249999999999928
42
-0.41421356237309503
10
197.50000000000003
20
-3.0249999999999999
0
LWPOLYLINE
5
106
100
AcDbEntity
8
0
100
AcDbPolyline
90
8
70
1
43
0.0
10
73.674999999999997
20
-16.024999999999999
42
-0.41421356237309503
10
73.174999999999997
20
-16.525000000000002
10
60.174999999999997
20
-16.524999999999999
42
-0.41421356237309503
10
59.675000000000004
20
-16.024999999999999
10
59.675000000000004
20
-3.0249999999999999
42
-0.41421356237309503
10
60.174999999999997
20
-2.5249999999999999
10
73.174999999999997
20
-2.5250000000000017
42
-0.41421356237309503
10
73.674999999999997
20
-3.0249999999999999
0
LWPOLYLINE
5
107
100
AcDbEntity
8
0
100
AcDbPolyline
90
8
70
1
43
0.0
10
226.07500000000002
20
-16.024999999999999
10
226.07500000000002
20
-3.0249999999999999
42
0.41421356237309503
10
225.57500000000002
20
-2.5249999999999999
10
212.57499999999999
20
-2.5249999999999999
42
0.41421356237309503
10
212.07499999999999
20
-3.0249999999999999
10
212.07499999999999
20
-16.024999999999999
42
0.41421356237309503
10
212.57499999999999
20
-16.525000000000002
10
225.57500000000002
20
-16.525000000000002
42
0.41421356237309503
0
LWPOLYLINE
5
108
100
AcDbEntity
8
0
100
AcDbPolyline
90
8
70
1
43
0.0
10
139.84999999999999
20
-2.5249999999999928
42
-0.41421356237309503
10
140.34999999999999
20
-3.0249999999999999
10
140.34999999999999
20
-16.024999999999999
42
-0.41421356237309503
10
139.84999999999999
20
-16.525000000000002
10
126.85000000000001
20
-16.525000000000006
42
-0.41421356237309503
10
126.34999999999999
20
-16.024999999999999
10
126.34999999999999
20
-3.0249999999999999
42
-0.41421356237309503
10
126.85000000000001
20
-2.5249999999999999
0
LWPOLYLINE
5
109
100
AcDbEntity
8
0
100
AcDbPolyline
90
8
70
1
43
0.0
10
244.62500000000003
20
-2.5249999999999999
10
231.625
20
-2.5249999999999999
42
0.41421356237309503
10
231.125
20
-3.0249999999999999
10
231.125
20
-16.024999999999999
42
0.41421356237309503
10
231.625
20
-16.524999999999999
10
244.62500000000003
20
-16.525000000000002
42
0.41421356237309503
10
245.12500000000003
20
-16.024999999999999
10
245.12500000000003
20
-3.0249999999999999
42
0.41421356237309503
0
LWPOLYLINE
5
110
100
AcDbEntity
8
0
100
AcDbPolyline
90
8
70
1
43
0.0
10
92.725000000000009
20
-16.024999999999999
42
-0.41421356237309503
10
92.224999999999994
20
-16.525000000000002
10
79.224999999999994
20
-16.524999999999999
42
-0.41421356237309503
10
78.724999999999994
20
-16.024999999999999
10
78.724999999999994
20
-3.0249999999999999
42
-0.41421356237309503
10
79.224999999999994
20
-2.5249999999999999
10
92.224999999999994
20
-2.5249999999999928
42
-0.41421356237309503
10
92.724999999999994
20
-3.0249999999999999
0
LWPOLYLINE
5
111
100
AcDbEntity
8
0
100
AcDbPolyline
90
8
70
1
43
0.0
10
387.5
20
-2.5249999999999999
10
374.5
20
-2.5249999999999999
42
0.41421356237309503
10
374
20
-3.0249999999999999
10
374.00000000000006
20
-16.024999999999999
42
0.41421356237309503
10
374.5
20
-16.525000000000002
10
387.5
20
-16.525000000000002
42
0.41421356237309503
10
388.00000000000006
20
-16.024999999999999
10
388
20
-3.0249999999999999
42
0.41421356237309503
0
LWPOLYLINE
5
112
100
AcDbEntity
8
0
100
AcDbPolyline
90
8
70
1
43
0.0
10
393.05000000000007
20
-16.024999999999999
10
393.05000000000007
20
-3.0249999999999999
42
-0.41421356237309503
10
393.55000000000007
20
-2.5249999999999999
10
406.55000000000001
20
-2.5250000000000283
42
-0.41421356237309503
10
407.05000000000007
20
-3.0249999999999999
10
407.04999999999995
20
-16.024999999999999
42
-0.41421356237309503
10
406.55000000000001
20
-16.525000000000002
10
393.55000000000007
20
-16.52499999999997
42
-0.41421356237309503
0
LWPOLYLINE
5
113
100
AcDbEntity
8
0
100
AcDbPolyline
90
8
70
1
43
0.0
10
306.53750000000002
20
-2.5249999999999928
42
-0.41421356237309503
10
307.03750000000002
20
-3.0249999999999999
10
307.03750000000002
20
-16.024999999999999
42
-0.41421356237309503
10
306.53750000000002
20
-16.525000000000002
10
293.53750000000002
20
-16.525000000000006
42
-0.41421356237309503
10
293.03750000000002
20
-16.024999999999999
10
293.03750000000002
20
-3.0249999999999999
42
-0.41421356237309503
10
293.53750000000002
20
-2.5249999999999999
0
LWPOLYLINE
5
114
100
AcDbEntity
8
0
100
AcDbPolyline
90
8
70
1
43
0.0
10
368.94999999999993
20
-16.024999999999999
42
-0.41421356237309503
10
368.44999999999999
20
-16.525000000000002
10
355.45000000000005
20
-16.52499999999997
42
-0.41421356237309503
10
354.95000000000005
20
-16.024999999999999
10
354.95000000000005
20
-3.0249999999999999
42
-0.41421356237309503
10
355.45000000000005
20
-2.5249999999999999
10
368.44999999999999
20
-2.5250000000000283
42
-0.41421356237309503
10
368.95000000000005
20
-3.0249999999999999
0
LWPOLYLINE
5
115
100
AcDbEntity
8
0
100
AcDbPolyline
90
8
70
1
43
0.0
10
344.63749999999999
20
-16.524999999999999
10
331.63749999999999
20
-16.52499999999997
42
-0.41421356237309503
10
331.13750000000005
20
-16.024999999999999
10
331.13750000000005
20
-3.0249999999999999
42
-0.41421356237309503
10
331.63749999999999
20
-2.5249999999999999
10
344.63749999999999
20
-2.5250000000000283
42
-0.41421356237309503
10
345.13750000000005
20
-3.0249999999999999
10
345.13749999999993
20
-16.024999999999999
42
-0.41421356237309503
0
LWPOLYLINE
5
116
100
AcDbEntity
8
0
100
AcDbPolyline
90
8
70
1
43
0.0
10
264.17500000000007
20
-16.024999999999999
42
-0.41421356237309503
10
263.67500000000001
20
-16.525000000000002
10
250.67500000000001
20
-16.525000000000006
42
-0.41421356237309503
10
250.17500000000001
20
-16.024999999999999
10
250.17500000000001
20
-3.0249999999999999
42
-0.41421356237309503
10
250.67500000000001
20
-2.5249999999999999
10
263.67500000000001
20
-2.5249999999999928
42
-0.41421356237309503
10
264.17500000000007
20
-3.0249999999999999
0
LWPOLYLINE
5
117
100
AcDbEntity
8
0
100
AcDbPolyline
90
8
70
1
43
0.0
10
326.08749999999992
20
-16.024999999999999
42
-0.41421356237309503
10
325.58749999999998
20
-16.525000000000002
10
312.58749999999998
20
-16.525000000000006
42
-0.41421356237309503
10
312.08749999999998
20
-16.024999999999999
10
312.08749999999998
20
-3.0249999999999999
42
-0.41421356237309503
10
312.58749999999998
20
-2.5249999999999999
10
325.58749999999998
20
-2.5250000000000283
42
-0.41421356237309503
10
326.08749999999998
20
-3.0249999999999999
0
LWPOLYLINE
5
118
100
AcDbEntity
8
0
100
AcDbPolyline
90
8
70
1
43
0.0
10
282.72500000000002
20
-2.5249999999999999
10
269.72500000000002
20
-2.5249999999999999
42
0.41421356237309503
10
269.22500000000002
20
-3.0249999999999999
10
269.22500000000002
20
-16.024999999999999
42
0.41421356237309503
10
269.72500000000002
20
-16.525000000000002
10
282.72500000000002
20
-16.525000000000002
42
0.41421356237309503
10
283.22500000000002
20
-16.024999999999999
10
283.22500000000002
20
-3.0249999999999999
42
0.41421356237309503
0
LWPOLYLINE
5
119
100
AcDbEntity
8
0
100
AcDbPolyline
90
8
70
1
43
0.0
10
149.375
20
-45.100000000000009
10
136.375
20
-45.100000000000009
42
-0.41421356237309503
10
135.875
20
-44.600000000000001
10
135.87500000000003
20
-31.600000000000001
42
-0.41421356237309503
10
136.375
20
-31.100000000000001
10
149.375
20
-31.099999999999994
42
-0.41421356237309503
10
149.875
20
-31.600000000000001
10
149.875
20
-44.600000000000001
42
-0.41421356237309503
0
LWPOLYLINE
5
120
100
AcDbEntity
8
0
100
AcDbPolyline
90
8
70
1
43
0.0
10
60.174999999999997
20
-45.099999999999994
42
-0.41421356237309503
10
59.675000000000004
20
-44.600000000000001
10
59.675000000000004
20
-31.600000000000001
42
-0.41421356237309503
10
60.174999999999997
20
-31.100000000000001
10
73.174999999999997
20
-31.100000000000001
42
-0.41421356237309503
10
73.674999999999997
20
-31.600000000000001
10
73.674999999999997
20
-44.600000000000001
42
-0.41421356237309503
10
73.174999999999997
20
-45.099999999999994
0
LWPOLYLINE
5
121
100
AcDbEntity
8
0
100
AcDbPolyline
90
8
70
1
43
0.0
10
54.625
20
-44.600000000000001
42
-0.41421356237309503
10
54.125000000000007
20
-45.099999999999994
10
41.125
20
-45.099999999999994
42
-0.41421356237309503
10
40.625
20
-44.600000000000001
10
40.625
20
-31.600000000000001
42
-0.41421356237309503
10
41.125
20
-31.100000000000001
10
54.125000000000007
20
-31.100000000000001
42
-0.41421356237309503
10
54.625
20
-31.600000000000001
0
LWPOLYLINE
5
122
100
AcDbEntity
8
0
100
AcDbPolyline
90
8
70
1
43
0.0
10
130.32499999999999
20
-31.099999999999994
42
-0.41421356237309503
10
130.82499999999999
20
-31.600000000000001
10
130.82499999999999
20
-44.600000000000001
42
-0.41421356237309503
10
130.32499999999999
20
-45.100000000000009
10
117.32500000000002
20
-45.100000000000009
42
-0.41421356237309503
10
116.82500000000002
20
-44.600000000000001
10
116.82500000000002
20
-31.600000000000001
42
-0.41421356237309503
10
117.32500000000002
20
-31.100000000000001
0
LWPOLYLINE
5
123
100
AcDbEntity
8
0
100
AcDbPolyline
90
8
70
1
43
0.0
10
79.224999999999994
20
-45.099999999999994
42
-0.41421356237309503
10
78.724999999999994
20
-44.600000000000001
10
78.724999999999994
20
-31.600000000000001
42
-0.41421356237309503
10
79.224999999999994
20
-31.100000000000001
10
92.224999999999994
20
-31.099999999999994
42
-0.41421356237309503
10
92.725000000000009
20
-31.600000000000001
10
92.725000000000009
20
-44.600000000000001
42
-0.41421356237309503
10
92.224999999999994
20
-45.099999999999994
0
LWPOLYLINE
5
124
100
AcDbEntity
8
0
100
AcDbPolyline
90
8
70
1
43
0.0
10
2.5249999999999999
20
-44.600000000000001
10
2.5250000000000017
20
-31.600000000000001
42
-0.41421356237309503
10
3.0249999999999999
20
-31.100000000000001
10
16.024999999999999
20
-31.100000000000001
42
-0.41421356237309503
10
16.525000000000002
20
-31.600000000000001
10
16.524999999999999
20
-44.600000000000001
42
-0.41421356237309503
10
16.024999999999999
20
-45.099999999999994
10
3.0249999999999999
20
-45.099999999999994
42
-0.41421356237309503
0
LWPOLYLINE
5
125
100
AcDbEntity
8
0
100
AcDbPolyline
90
8
70
1
43
0.0
10
21.575000000000003
20
-31.600000000000001
42
-0.41421356237309503
10
22.074999999999999
20
-31.100000000000001
10
35.075000000000003
20
-31.100000000000001
42
-0.41421356237309503
10
35.575000000000003
20
-31.600000000000001
10
35.575000000000003
20
-44.600000000000001
42
-0.41421356237309503
10
35.075000000000003
20
-45.100000000000009
10
22.074999999999999
20
-45.099999999999994
42
-0.41421356237309503
10
21.575000000000003
20
-44.600000000000001
0
LWPOLYLINE
5
126
100
AcDbEntity
8
0
100
AcDbPolyline
90
8
70
1
43
0.0
10
111.27500000000001
20
-31.100000000000001
10
98.275000000000006
20
-31.100000000000001
42
0.41421356237309503
10
97.77500000000002
20
-31.600000000000001
10
97.775000000000006
20
-44.600000000000001
42
0.41421356237309503
10
98.275000000000006
20
-45.099999999999994
10
111.27500000000001
20
-45.099999999999994
42
0.41421356237309503
10
111.77500000000002
20
-44.600000000000001
10
111.77500000000002
20
-31.600000000000001
42
0.41421356237309503
0
LWPOLYLINE
5
127
100
AcDbEntity
8
0
100
AcDbPolyline
90
8
70
1
43
0.0
10
225.57500000000002
20
-31.099999999999994
42
-0.41421356237309503
10
226.07500000000002
20
-31.600000000000001
10
226.07500000000002
20
-44.600000000000001
42
-0.41421356237309503
10
225.57500000000002
20
-45.100000000000009
10
212.57499999999999
20
-45.100000000000009
42
-0.41421356237309503
10
212.07499999999999
20
-44.600000000000001
10
212.07499999999999
20
-31.600000000000001
42
-0.41421356237309503
10
212.57499999999999
20
-31.100000000000001
0
LWPOLYLINE
5
128
100
AcDbEntity
8
0
100
AcDbPolyline
90
8
70
1
43
0.0
10
168.92500000000001
20
-44.600000000000001
42
-0.41421356237309503
10
168.42500000000001
20
-45.099999999999994
10
155.42500000000001
20
-45.100000000000009
42
-0.41421356237309503
10
154.92500000000001
20
-44.600000000000001
10
154.92500000000004
20
-31.600000000000001
42
-0.41421356237309503
10
155.42500000000001
20
-31.100000000000001
10
168.42500000000001
20
-31.099999999999994
42
-0.41421356237309503
10
168.92500000000001
20
-31.600000000000001
0
LWPOLYLINE
5
129
100
AcDbEntity
8
0
100
AcDbPolyline
90
8
70
1
43
0.0
10
193.02500000000003
20
-31.600000000000001
42
-0.41421356237309503
10
193.52500000000003
20
-31.100000000000001
10
206.52500000000003
20
-31.099999999999994
42
-0.41421356237309503
10
207.02500000000001
20
-31.600000000000001
10
207.02500000000003
20
-44.600000000000001
42
-0.41421356237309503
10
206.52500000000003
20
-45.100000000000009
10
193.52500000000003
20
-45.100000000000009
42
-0.41421356237309503
10
193.02500000000003
20
-44.600000000000001
0
LWPOLYLINE
5
130
100
AcDbEntity
8
0
100
AcDbPolyline
90
8
70
1
43
0.0
10
231.125
20
-44.600000000000001
10
231.125
20
-31.600000000000001
42
-0.41421356237309503
10
231.625
20
-31.100000000000001
10
244.62500000000003
20
-31.099999999999994
42
-0.41421356237309503
10
245.12500000000003
20
-31.600000000000001
10
245.12500000000003
20
-44.600000000000001
42
-0.41421356237309503
10
244.62500000000003
20
-45.099999999999994
10
231.625
20
-45.100000000000009
42
-0.41421356237309503
0
LWPOLYLINE
5
131
100
AcDbEntity
8
0
100
AcDbPolyline
90
8
70
1
43
0.0
10
173.97500000000002
20
-44.600000000000001
10
173.97500000000002
20
-31.600000000000001
42
-0.41421356237309503
10
174.47500000000002
20
-31.100000000000001
10
187.47499999999999
20
-31.099999999999994
42
-0.41421356237309503
10
187.97499999999999
20
-31.600000000000001
10
187.97499999999999
20
-44.600000000000001
42
-0.41421356237309503
10
187.47499999999999
20
-45.100000000000009
10
174.47500000000002
20
-45.100000000000009
42
-0.41421356237309503
0
LWPOLYLINE
5
132
100
AcDbEntity
8
0
100
AcDbPolyline
90
8
70
1
43
0.0
10
282.13799999999998
20
-46.600000000000001
10
282.13799999999998
20
-32.600000000000001
42
0.41421356237309503
10
281.63799999999998
20
-32.100000000000001
10
275.63800000000003
20
-32.100000000000001
42
0.41421356237309503
10
275.13799999999998
20
-32.600000000000001
10
275.13799999999998
20
-46.600000000000001
42
0.41421356237309503
10
275.63800000000003
20
-47.100000000000001
10
281.63799999999998
20
-47.100000000000001
42
0.41421356237309503
0
LWPOLYLINE
5
133
100
AcDbEntity
8
0
100
AcDbPolyline
90
8
70
1
43
0.0
10
260.19999999999999
20
-45.100000000000009
42
-0.41421356237309503
10
259.69999999999999
20
-44.600000000000001
10
259.69999999999999
20
-31.600000000000001
42
-0.41421356237309503
10
260.19999999999999
20
-31.100000000000001
10
273.19999999999999
20
-31.099999999999994
42
-0.41421356237309503
10
273.69999999999999
20
-31.600000000000001
10
273.69999999999999
20
-44.600000000000001
42
-0.41421356237309503
10
273.19999999999999
20
-45.099999999999994
0
LWPOLYLINE
5
134
100
AcDbEntity
8
0
100
AcDbPolyline
90
8
70
1
43
0.0
10
257.76200000000006
20
-32.100000000000001
10
251.762
20
-32.100000000000001
42
0.41421356237309503
10
251.262
20
-32.600000000000001
10
251.262
20
-46.600000000000001
42
0.41421356237309503
10
251.762
20
-47.100000000000001
10
257.76200000000006
20
-47.100000000000001
42
0.41421356237309503
10
258.262
20
-46.600000000000001
10
258.26200000000006
20
-32.600000000000001
42
0.41421356237309503
0
LWPOLYLINE
5
135
100
AcDbEntity
8
0
100
AcDbPolyline
90
8
70
1
43
0.0
10
306.53750000000002
20
-31.100000000000001
10
293.53750000000002
20
-31.100000000000001
42
0.41421356237309503
10
293.03750000000002
20
-31.600000000000001
10
293.03750000000002
20
-44.600000000000001
42
0.41421356237309503
10
293.53750000000002
20
-45.099999999999994
10
306.53750000000002
20
-45.099999999999994
42
0.41421356237309503
10
307.03750000000002
20
-44.600000000000001
10
307.03750000000002
20
-31.600000000000001
42
0.41421356237309503
0
LWPOLYLINE
5
136
100
AcDbEntity
8
0
100
AcDbPolyline
90
8
70
1
43
0.0
10
406.55000000000001
20
-31.10000000000003
42
-0.41421356237309503
10
407.04999999999995
20
-31.600000000000001
10
407.04999999999995
20
-44.600000000000001
42
-0.41421356237309503
10
406.55000000000001
20
-45.099999999999994
10
393.55000000000007
20
-45.099999999999973
42
-0.41421356237309503
10
393.05000000000007
20
-44.600000000000001
10
393.05000000000007
20
-31.600000000000001
42
-0.41421356237309503
10
393.55000000000007
20
-31.100000000000001
0
LWPOLYLINE
5
137
100
AcDbEntity
8
0
100
AcDbPolyline
90
8
70
1
43
0.0
10
388.00000000000006
20
-44.600000000000001
10
388
20
-31.600000000000001
42
0.41421356237309503
10
387.5
20
-31.100000000000001
10
374.5
20
-31.100000000000001
42
0.41421356237309503
10
374.00000000000006
20
-31.600000000000001
10
374.00000000000006
20
-44.600000000000001
42
0.41421356237309503
10
374.5
20
-45.099999999999994
10
387.5
20
-45.099999999999994
42
0.41421356237309503
0
LWPOLYLINE
5
138
100
AcDbEntity
8
0
100
AcDbPolyline
90
8
70
1
43
0.0
10
412.60000000000002
20
-45.099999999999973
42
-0.41421356237309503
10
412.10000000000008
20
-44.600000000000001
10
412.10000000000008
20
-31.600000000000001
42
-0.41421356237309503
10
412.60000000000002
20
-31.100000000000001
10
425.60000000000002
20
-31.10000000000003
42
-0.41421356237309503
10
426.10000000000008
20
-31.600000000000001
10
426.10000000000002
20
-44.600000000000001
42
-0.41421356237309503
10
425.60000000000002
20
-45.100000000000009
0
LWPOLYLINE
5
139
100
AcDbEntity
8
0
100
AcDbPolyline
90
8
70
1
43
0.0
10
312.58749999999998
20
-45.100000000000009
42
-0.41421356237309503
10
312.08749999999998
20
-44.600000000000001
10
312.08749999999998
20
-31.600000000000001
42
-0.41421356237309503
10
312.58749999999998
20
-31.100000000000001
10
325.58749999999998
20
-31.10000000000003
42
-0.41421356237309503
10
326.08749999999998
20
-31.600000000000001
10
326.08749999999992
20
-44.600000000000001
42
-0.41421356237309503
10
325.58749999999998
20
-45.099999999999994
0
LWPOLYLINE
5
140
100
AcDbEntity
8
0
100
AcDbPolyline
90
8
70
1
43
0.0
10
368.44999999999999
20
-45.100000000000009
10
355.45000000000005
20
-45.099999999999973
42
-0.41421356237309503
10
354.94999999999999
20
-44.600000000000001
10
354.95000000000005
20
-31.600000000000001
42
-0.41421356237309503
10
355.45000000000005
20
-31.100000000000001
10
368.44999999999999
20
-31.10000000000003
42
-0.41421356237309503
10
368.94999999999993
20
-31.600000000000001
10
368.94999999999993
20
-44.600000000000001
42
-0.41421356237309503
0
LWPOLYLINE
5
141
100
AcDbEntity
8
0
100
AcDbPolyline
90
8
70
1
43
0.0
10
345.13750000000005
20
-44.600000000000001
10
345.13749999999993
20
-31.600000000000001
42
0.41421356237309503
10
344.63749999999999
20
-31.100000000000001
10
331.63749999999999
20
-31.100000000000001
42
0.41421356237309503
10
331.13750000000005
20
-31.600000000000001
10
331.13750000000005
20
-44.600000000000001
42
0.41421356237309503
10
331.63749999999999
20
-45.100000000000009
10
344.63749999999999
20
-45.099999999999994
42
0.41421356237309503
0
LWPOLYLINE
5
142
100
AcDbEntity
8
0
100
AcDbPolyline
90
8
70
1
43
0.0
10
20.787500000000001
20
-64.150000000000006
10
7.7875000000000005
20
-64.150000000000006
42
-0.41421356237309503
10
7.2874999999999996
20
-63.650000000000006
10
7.2875000000000023
20
-50.650000000000006
42
-0.41421356237309503
10
7.7875000000000005
20
-50.150000000000006
10
20.787500000000001
20
-50.150000000000006
42
-0.41421356237309503
10
21.287500000000001
20
-50.650000000000006
10
21.287500000000001
20
-63.650000000000006
42
-0.41421356237309503
0
LWPOLYLINE
5
143
100
AcDbEntity
8
0
100
AcDbPolyline
90
8
70
1
43
0.0
10
88.75
20
-64.150000000000006
42
-0.41421356237309503
10
88.25
20
-63.650000000000006
10
88.25
20
-50.650000000000006
42
-0.41421356237309503
10
88.75
20
-50.150000000000006
10
101.75
20
-50.149999999999999
42
-0.41421356237309503
10
102.25000000000001
20
-50.650000000000006
10
102.25000000000001
20
-63.650000000000006
42
-0.41421356237309503
10
101.75
20
-64.150000000000006
0
LWPOLYLINE
5
144
100
AcDbEntity
8
0
100
AcDbPolyline
90
8
70
1
43
0.0
10
26.387499999999999
20
-64.150000000000006
10
25.387500000000003
20
-64.150000000000006
42
-0.41421356237309503
10
24.887500000000003
20
-63.650000000000006
10
24.887500000000003
20
-50.650000000000006
42
-0.41421356237309503
10
25.387500000000003
20
-50.150000000000006
10
26.387499999999999
20
-50.150000000000006
42
-0.41421356237309503
10
26.887500000000003
20
-50.650000000000006
10
26.887499999999996
20
-63.650000000000006
42
-0.41421356237309503
0
LWPOLYLINE
5
145
100
AcDbEntity
8
0
100
AcDbPolyline
90
8
70
1
43
0.0
10
50.650000000000006
20
-64.150000000000006
42
-0.41421356237309503
10
50.150000000000006
20
-63.650000000000006
10
50.150000000000006
20
-50.650000000000006
42
-0.41421356237309503
10
50.650000000000006
20
-50.150000000000006
10
63.650000000000006
20
-50.150000000000006
42
-0.41421356237309503
10
64.150000000000006
20
-50.650000000000006
10
64.150000000000006
20
-63.650000000000006
42
-0.41421356237309503
10
63.650000000000006
20
-64.150000000000006
0
LWPOLYLINE
5
146
100
AcDbEntity
8
0
100
AcDbPolyline
90
8
70
1
43
0.0
10
3.6875
20
-63.650000000000006
10
3.6875000000000009
20
-50.650000000000006
42
0.41421356237309503
10
3.1875000000000009
20
-50.150000000000006
10
2.1875000000000004
20
-50.150000000000006
42
0.41421356237309503
10
1.6875000000000007
20
-50.650000000000006
10
1.6875000000000007
20
-63.650000000000006
42
0.41421356237309503
10
2.1875000000000004
20
-64.150000000000006
10
3.1875000000000009
20
-64.150000000000006
42
0.41421356237309503
0
LWPOLYLINE
5
147
100
AcDbEntity
8
0
100
AcDbPolyline
90
8
70
1
43
0.0
10
82.700000000000017
20
-64.150000000000006
10
69.700000000000003
20
-64.150000000000006
42
-0.41421356237309503
10
69.200000000000003
20
-63.650000000000006
10
69.200000000000003
20
-50.650000000000006
42
-0.41421356237309503
10
69.700000000000003
20
-50.150000000000006
10
82.700000000000017
20
-50.149999999999999
42
-0.41421356237309503
10
83.200000000000003
20
-50.650000000000006
10
83.200000000000003
20
-63.650000000000006
42
-0.41421356237309503
0
LWPOLYLINE
5
148
100
AcDbEntity
8
0
100
AcDbPolyline
90
8
70
1
43
0.0
10
31.100000000000001
20
-63.650000000000006
10
31.100000000000001
20
-50.650000000000006
42
-0.41421356237309503
10
31.600000000000001
20
-50.150000000000006
10
44.600000000000001
20
-50.150000000000006
42
-0.41421356237309503
10
45.099999999999994
20
-50.650000000000006
10
45.099999999999994
20
-63.650000000000006
42
-0.41421356237309503
10
44.600000000000001
20
-64.150000000000006
10
31.600000000000001
20
-64.150000000000006
42
-0.41421356237309503
0
LWPOLYLINE
5
149
100
AcDbEntity
8
0
100
AcDbPolyline
90
8
70
1
43
0.0
10
120.8
20
-64.150000000000006
10
107.80000000000001
20
-64.150000000000006
42
-0.41421356237309503
10
107.30000000000001
20
-63.650000000000006
10
107.30000000000001
20
-50.650000000000006
42
-0.41421356237309503
10
107.80000000000001
20
-50.150000000000006
10
120.8
20
-50.149999999999999
42
-0.41421356237309503
10
121.30000000000001
20
-50.650000000000006
10
121.29999999999998
20
-63.650000000000006
42
-0.41421356237309503
0
LWPOLYLINE
5
150
100
AcDbEntity
8
0
100
AcDbPolyline
90
8
70
1
43
0.0
10
139.84999999999999
20
-50.150000000000006
10
126.85000000000001
20
-50.150000000000006
42
0.41421356237309503
10
126.34999999999999
20
-50.650000000000006
10
126.34999999999999
20
-63.650000000000006
42
0.41421356237309503
10
126.85000000000001
20
-64.150000000000006
10
139.84999999999999
20
-64.150000000000006
42
0.41421356237309503
10
140.34999999999999
20
-63.650000000000006
10
140.34999999999999
20
-50.650000000000006
42
0.41421356237309503
0
LWPOLYLINE
5
151
100
AcDbEntity
8
0
100
AcDbPolyline
90
8
70
1
43
0.0
10
158.90000000000001
20
-50.149999999999999
42
-0.41421356237309503
10
159.40000000000001
20
-50.650000000000006
10
159.40000000000001
20
-63.650000000000006
42
-0.41421356237309503
10
158.90000000000001
20
-64.150000000000006
10
145.90000000000001
20
-64.150000000000006
42
-0.41421356237309503
10
145.40000000000001
20
-63.650000000000006
10
145.40000000000003
20
-50.650000000000006
42
-0.41421356237309503
10
145.90000000000001
20
-50.150000000000006
0
LWPOLYLINE
5
152
100
AcDbEntity
8
0
100
AcDbPolyline
90
8
70
1
43
0.0
10
178.44999999999999
20
-63.650000000000006
10
178.44999999999999
20
-50.650000000000006
42
0.41421356237309503
10
177.94999999999999
20
-50.150000000000006
10
164.95000000000002
20
-50.150000000000006
42
0.41421356237309503
10
164.44999999999999
20
-50.650000000000006
10
164.44999999999999
20
-63.650000000000006
42
0.41421356237309503
10
164.95000000000002
20
-64.150000000000006
10
177.94999999999999
20
-64.150000000000006
42
0.41421356237309503
0
LWPOLYLINE
5
153
100
AcDbEntity
8
0
100
AcDbPolyline
90
8
70
1
43
0.0
10
235.60000000000002
20
-63.650000000000006
10
235.60000000000002
20
-50.650000000000006
42
0.41421356237309503
10
235.10000000000002
20
-50.150000000000006
10
222.10000000000002
20
-50.150000000000006
42
0.41421356237309503
10
221.59999999999999
20
-50.650000000000006
10
221.59999999999999
20
-63.650000000000006
42
0.41421356237309503
10
222.10000000000002
20
-64.150000000000006
10
235.10000000000002
20
-64.150000000000006
42
0.41421356237309503
0
LWPOLYLINE
5
154
100
AcDbEntity
8
0
100
AcDbPolyline
90
8
70
1
43
0.0
10
183.5
20
-50.650000000000006
42
-0.41421356237309503
10
184.00000000000003
20
-50.150000000000006
10
197.00000000000003
20
-50.149999999999999
42
-0.41421356237309503
10
197.5
20
-50.650000000000006
10
197.50000000000003
20
-63.650000000000006
42
-0.41421356237309503
10
197.00000000000003
20
-64.150000000000006
10
184.00000000000003
20
-64.150000000000006
42
-0.41421356237309503
10
183.5
20
-63.650000000000006
0
LWPOLYLINE
5
155
100
AcDbEntity
8
0
100
AcDbPolyline
90
8
70
1
43
0.0
10
254.15000000000003
20
-50.149999999999999
42
-0.41421356237309503
10
254.65000000000003
20
-50.650000000000006
10
254.65000000000003
20
-63.650000000000006
42
-0.41421356237309503
10
254.15000000000003
20
-64.150000000000006
10
241.15000000000003
20
-64.150000000000006
42
-0.41421356237309503
10
240.65000000000001
20
-63.650000000000006
10
240.65000000000001
20
-50.650000000000006
42
-0.41421356237309503
10
241.15000000000003
20
-50.150000000000006
0
LWPOLYLINE
5
156
100
AcDbEntity
8
0
100
AcDbPolyline
90
8
70
1
43
0.0
10
277.96249999999998
20
-50.150000000000006
10
264.96249999999998
20
-50.150000000000006
42
0.41421356237309503
10
264.46249999999998
20
-50.650000000000006
10
264.46249999999998
20
-63.650000000000006
42
0.41421356237309503
10
264.96249999999998
20
-64.150000000000006
10
277.96249999999998
20
-64.150000000000006
42
0.41421356237309503
10
278.46249999999998
20
-63.650000000000006
10
278.46250000000003
20
-50.650000000000006
42
0.41421356237309503
0
LWPOLYLINE
5
157
100
AcDbEntity
8
0
100
AcDbPolyline
90
8
70
1
43
0.0
10
284.06250000000006
20
-63.650000000000006
42
-0.41421356237309503
10
283.5625
20
-64.150000000000006
10
282.5625
20
-64.150000000000006
42
-0.41421356237309503
10
282.0625
20
-63.650000000000006
10
282.0625
20
-50.650000000000006
42
-0.41421356237309503
10
282.5625
20
-50.150000000000006
10
283.5625
20
-50.149999999999999
42
-0.41421356237309503
10
284.0625
20
-50.650000000000006
0
LWPOLYLINE
5
158
100
AcDbEntity
8
0
100
AcDbPolyline
90
8
70
1
43
0.0
10
203.05000000000004
20
-64.150000000000006
42
-0.41421356237309503
10
202.55000000000001
20
-63.650000000000006
10
202.55000000000001
20
-50.650000000000006
42
-0.41421356237309503
10
203.05000000000004
20
-50.150000000000006
10
216.05000000000004
20
-50.149999999999999
42
-0.41421356237309503
10
216.55000000000001
20
-50.650000000000006
10
216.55000000000004
20
-63.650000000000006
42
-0.41421356237309503
10
216.05000000000004
20
-64.150000000000006
0
LWPOLYLINE
5
159
100
AcDbEntity
8
0
100
AcDbPolyline
90
8
70
1
43
0.0
10
374.00000000000006
20
-50.650000000000006
42
-0.41421356237309503
10
374.5
20
-50.150000000000006
10
387.5
20
-50.150000000000034
42
-0.41421356237309503
10
388.00000000000006
20
-50.650000000000006
10
388
20
-63.650000000000006
42
-0.41421356237309503
10
387.5
20
-64.150000000000006
10
374.5
20
-64.149999999999977
42
-0.41421356237309503
10
374.00000000000006
20
-63.650000000000006
0
LWPOLYLINE
5
160
100
AcDbEntity
8
0
100
AcDbPolyline
90
8
70
1
43
0.0
10
293.03750000000002
20
-50.650000000000006
42
-0.41421356237309503
10
293.53750000000002
20
-50.150000000000006
10
306.53750000000002
20
-50.149999999999999
42
-0.41421356237309503
10
307.03750000000002
20
-50.650000000000006
10
307.03750000000002
20
-63.650000000000006
42
-0.41421356237309503
10
306.53750000000002
20
-64.150000000000006
10
293.53750000000002
20
-64.150000000000006
42
-0.41421356237309503
10
293.03750000000002
20
-63.650000000000006
0
LWPOLYLINE
5
161
100
AcDbEntity
8
0
100
AcDbPolyline
90
8
70
1
43
0.0
10
354.95000000000005
20
-50.650000000000006
42
-0.41421356237309503
10
355.45000000000005
20
-50.150000000000006
10
368.44999999999999
20
-50.150000000000034
42
-0.41421356237309503
10
368.95000000000005
20
-50.650000000000006
10
368.94999999999993
20
-63.650000000000006
42
-0.41421356237309503
10
368.44999999999999
20
-64.150000000000006
10
355.45000000000005
20
-64.149999999999977
42
-0.41421356237309503
10
354.94999999999999
20
-63.650000000000006
0
LWPOLYLINE
5
162
100
AcDbEntity
8
0
100
AcDbPolyline
90
8
70
1
43
0.0
10
260.36250000000001
20
-50.149999999999999
42
-0.41421356237309503
10
260.86250000000001
20
-50.650000000000006
10
260.86250000000001
20
-63.650000000000006
42
-0.41421356237309503
10
260.36250000000001
20
-64.150000000000006
10
259.36250000000001
20
-64.150000000000006
42
-0.41421356237309503
10
258.86250000000001
20
-63.650000000000006
10
258.86250000000001
20
-50.650000000000006
42
-0.41421356237309503
10
259.36250000000001
20
-50.150000000000006
0
LWPOLYLINE
5
163
100
AcDbEntity
8
0
100
AcDbPolyline
90
8
70
1
43
0.0
10
345.13749999999993
20
-63.650000000000006
42
-0.41421356237309503
10
344.63749999999999
20
-64.150000000000006
10
331.63749999999999
20
-64.149999999999977
42
-0.41421356237309503
10
331.13750000000005
20
-63.650000000000006
10
331.13750000000005
20
-50.650000000000006
42
-0.41421356237309503
10
331.63749999999999
20
-50.150000000000006
10
344.63749999999999
20
-50.150000000000034
42
-0.41421356237309503
10
345.13749999999993
20
-50.650000000000006
0
LWPOLYLINE
5
164
100
AcDbEntity
8
0
100
AcDbPolyline
90
8
70
1
43
0.0
10
326.08749999999998
20
-63.650000000000006
10
326.08749999999992
20
-50.650000000000006
42
0.41421356237309503
10
325.58749999999998
20
-50.150000000000006
10
312.58749999999998
20
-50.150000000000006
42
0.41421356237309503
10
312.08749999999998
20
-50.650000000000006
10
312.08749999999998
20
-63.650000000000006
42
0.41421356237309503
10
312.58749999999998
20
-64.150000000000006
10
325.58749999999998
20
-64.150000000000006
42
0.41421356237309503
0
LWPOLYLINE
5
165
100
AcDbEntity
8
0
100
AcDbPolyline
90
8
70
1
43
0.0
10
393.05000000000007
20
-63.650000000000006
10
393.05000000000007
20
-50.650000000000006
42
-0.41421356237309503
10
393.55000000000007
20
-50.150000000000006
10
406.55000000000001
20
-50.150000000000034
42
-0.41421356237309503
10
407.04999999999995
20
-50.650000000000006
10
407.04999999999995
20
-63.650000000000006
42
-0.41421356237309503
10
406.55000000000001
20
-64.150000000000006
10
393.55000000000007
20
-64.149999999999977
42
-0.41421356237309503
0
LWPOLYLINE
5
166
100
AcDbEntity
8
0
100
AcDbPolyline
90
8
70
1
43
0.0
10
426.10000000000008
20
-73.174999999999997
10
426.10000000000002
20
-60.174999999999997
42
0.41421356237309503
10
425.60000000000002
20
-59.675000000000004
10
412.60000000000002
20
-59.675000000000004
42
0.41421356237309503
10
412.10000000000008
20
-60.174999999999997
10
412.10000000000008
20
-73.174999999999997
42
0.41421356237309503
10
412.60000000000002
20
-73.674999999999997
10
425.60000000000002
20
-73.674999999999997
42
0.41421356237309503
0
LWPOLYLINE
5
167
100
AcDbEntity
8
0
100
AcDbPolyline
90
8
70
1
43
0.0
10
410.10000000000002
20
-81.613
10
410.10000000000002
20
-75.613
42
-0.41421356237309503
10
410.60000000000002
20
-75.113
10
424.60000000000008
20
-75.113000000000028
42
-0.41421356237309503
10
425.10000000000002
20
-75.613
10
425.10000000000002
20
-81.613
42
-0.41421356237309503
10
424.60000000000008
20
-82.113000000000014
10
410.60000000000002
20
-82.112999999999971
42
-0.41421356237309503
0
LWPOLYLINE
5
168
100
AcDbEntity
8
0
100
AcDbPolyline
90
8
70
1
43
0.0
10
410.10000000000002
20
-57.736999999999995
10
410.10000000000002
20
-51.737000000000002
42
-0.41421356237309503
10
410.60000000000002
20
-51.236999999999995
10
424.60000000000008
20
-51.23700000000003
42
-0.41421356237309503
10
425.10000000000002
20
-51.737000000000002
10
425.10000000000002
20
-57.736999999999995
42
-0.41421356237309503
10
424.60000000000008
20
-58.236999999999995
10
410.60000000000002
20
-58.236999999999966
42
-0.41421356237309503
0
LWPOLYLINE
5
169
100
AcDbEntity
8
0
100
AcDbPolyline
90
8
70
1
43
0.0
10
29.268750000000004
20
-82.700000000000017
10
29.268749999999997
20
-69.700000000000003
42
0.41421356237309503
10
28.768750000000001
20
-69.200000000000003
10
27.768750000000004
20
-69.200000000000003
42
0.41421356237309503
10
27.268750000000001
20
-69.700000000000003
10
27.268750000000004
20
-82.700000000000017
42
0.41421356237309503
10
27.768750000000004
20
-83.200000000000017
10
28.768750000000001
20
-83.200000000000017
42
0.41421356237309503
0
LWPOLYLINE
5
170
100
AcDbEntity
8
0
100
AcDbPolyline
90
8
70
1
43
0.0
10
23.168749999999999
20
-69.200000000000003
10
10.168749999999999
20
-69.200000000000003
42
0.41421356237309503
10
9.6687499999999993
20
-69.700000000000003
10
9.6687499999999993
20
-82.700000000000017
42
0.41421356237309503
10
10.168749999999999
20
-83.200000000000017
10
23.168749999999999
20
-83.200000000000017
42
0.41421356237309503
10
23.668749999999999
20
-82.700000000000017
10
23.668749999999999
20
-69.700000000000003
42
0.41421356237309503
0
LWPOLYLINE
5
171
100
AcDbEntity
8
0
100
AcDbPolyline
90
8
70
1
43
0.0
10
87.96250000000002
20
-82.700000000000017
42
-0.41421356237309503
10
87.46250000000002
20
-83.200000000000017
10
74.462500000000006
20
-83.200000000000003
42
-0.41421356237309503
10
73.962500000000006
20
-82.700000000000017
10
73.962500000000006
20
-69.700000000000003
42
-0.41421356237309503
10
74.462500000000006
20
-69.200000000000003
10
87.46250000000002
20
-69.200000000000003
42
-0.41421356237309503
10
87.96250000000002
20
-69.700000000000003
0
LWPOLYLINE
5
172
100
AcDbEntity
8
0
100
AcDbPolyline
90
8
70
1
43
0.0
10
4.5687500000000005
20
-83.200000000000017
42
-0.41421356237309503
10
4.0687500000000014
20
-82.700000000000017
10
4.0687500000000023
20
-69.700000000000003
42
-0.41421356237309503
10
4.5687500000000005
20
-69.200000000000003
10
5.5687500000000014
20
-69.200000000000003
42
-0.41421356237309503
10
6.0687500000000005
20
-69.700000000000003
10
6.0687500000000085
20
-82.700000000000017
42
-0.41421356237309503
10
5.5687500000000014
20
-83.200000000000017
0
LWPOLYLINE
5
173
100
AcDbEntity
8
0
100
AcDbPolyline
90
8
70
1
43
0.0
10
49.862499999999997
20
-82.700000000000017
10
49.862499999999997
20
-69.700000000000003
42
0.41421356237309503
10
49.362500000000004
20
-69.200000000000003
10
36.362499999999997
20
-69.200000000000003
42
0.41421356237309503
10
35.862499999999997
20
-69.700000000000003
10
35.862500000000004
20
-82.700000000000017
42
0.41421356237309503
10
36.362499999999997
20
-83.200000000000003
10
49.362500000000004
20
-83.200000000000017
42
0.41421356237309503
0
LWPOLYLINE
5
174
100
AcDbEntity
8
0
100
AcDbPolyline
90
8
70
1
43
0.0
10
68.912499999999994
20
-82.700000000000017
10
68.912499999999994
20
-69.700000000000003
42
0.41421356237309503
10
68.412499999999994
20
-69.200000000000003
10
55.412500000000009
20
-69.200000000000003
42
0.41421356237309503
10
54.912500000000009
20
-69.700000000000003
10
54.912500000000009
20
-82.700000000000017
42
0.41421356237309503
10
55.412500000000009
20
-83.200000000000017
10
68.412499999999994
20
-83.200000000000017
42
0.41421356237309503
0
LWPOLYLINE
5
175
100
AcDbEntity
8
0
100
AcDbPolyline
90
8
70
1
43
0.0
10
107.01250000000002
20
-82.700000000000017
42
-0.41421356237309503
10
106.51250000000002
20
-83.200000000000017
10
93.512500000000003
20
-83.200000000000017
42
-0.41421356237309503
10
93.012499999999989
20
-82.700000000000017
10
93.012499999999989
20
-69.700000000000003
42
-0.41421356237309503
10
93.512500000000003
20
-69.200000000000003
10
106.51250000000002
20
-69.200000000000003
42
-0.41421356237309503
10
107.01250000000002
20
-69.700000000000003
0
LWPOLYLINE
5
176
100
AcDbEntity
8
0
100
AcDbPolyline
90
8
70
1
43
0.0
10
182.71250000000003
20
-69.200000000000003
42
-0.41421356237309503
10
183.21250000000003
20
-69.700000000000003
10
183.21250000000003
20
-82.700000000000017
42
-0.41421356237309503
10
182.71250000000003
20
-83.200000000000017
10
169.71250000000001
20
-83.200000000000017
42
-0.41421356237309503
10
169.21250000000001
20
-82.700000000000017
10
169.21250000000001
20
-69.700000000000003
42
-0.41421356237309503
10
169.71250000000001
20
-69.200000000000003
0
LWPOLYLINE
5
177
100
AcDbEntity
8
0
100
AcDbPolyline
90
8
70
1
43
0.0
10
163.66250000000002
20
-69.200000000000003
10
150.66249999999999
20
-69.200000000000003
42
0.41421356237309503
10
150.16249999999999
20
-69.700000000000003
10
150.16249999999999
20
-82.700000000000017
42
0.41421356237309503
10
150.66249999999999
20
-83.200000000000017
10
163.66250000000002
20
-83.200000000000017
42
0.41421356237309503
10
164.16250000000002
20
-82.700000000000017
10
164.16250000000002
20
-69.700000000000003
42
0.41421356237309503
0
LWPOLYLINE
5
178
100
AcDbEntity
8
0
100
AcDbPolyline
90
8
70
1
43
0.0
10
220.8125
20
-69.200000000000003
10
207.8125
20
-69.200000000000003
42
0.41421356237309503
10
207.3125
20
-69.700000000000003
10
207.3125
20
-82.700000000000017
42
0.41421356237309503
10
207.8125
20
-83.200000000000017
10
220.8125
20
-83.200000000000017
42
0.41421356237309503
10
221.3125
20
-82.700000000000017
10
221.3125
20
-69.700000000000003
42
0.41421356237309503
0
LWPOLYLINE
5
179
100
AcDbEntity
8
0
100
AcDbPolyline
90
8
70
1
43
0.0
10
112.0625
20
-69.700000000000003
42
-0.41421356237309503
10
112.56250000000001
20
-69.200000000000003
10
125.5625
20
-69.200000000000003
42
-0.41421356237309503
10
126.06250000000001
20
-69.700000000000003
10
126.06250000000001
20
-82.700000000000017
42
-0.41421356237309503
10
125.5625
20
-83.200000000000017
10
112.56250000000001
20
-83.200000000000017
42
-0.41421356237309503
10
112.0625
20
-82.700000000000017
0
LWPOLYLINE
5
180
100
AcDbEntity
8
0
100
AcDbPolyline
90
8
70
1
43
0.0
10
239.86250000000001
20
-69.200000000000003
42
-0.41421356237309503
10
240.36250000000001
20
-69.700000000000003
10
240.36250000000001
20
-82.700000000000017
42
-0.41421356237309503
10
239.86250000000001
20
-83.200000000000017
10
226.86250000000001
20
-83.200000000000017
42
-0.41421356237309503
10
226.36250000000001
20
-82.700000000000017
10
226.36250000000001
20
-69.700000000000003
42
-0.41421356237309503
10
226.86250000000001
20
-69.200000000000003
0
LWPOLYLINE
5
181
100
AcDbEntity
8
0
100
AcDbPolyline
90
8
70
1
43
0.0
10
188.26249999999999
20
-69.700000000000003
42
-0.41421356237309503
10
188.76249999999999
20
-69.200000000000003
10
201.76249999999999
20
-69.200000000000003
42
-0.41421356237309503
10
202.26249999999999
20
-69.700000000000003
10
202.26249999999999
20
-82.700000000000017
42
-0.41421356237309503
10
201.76249999999999
20
-83.200000000000003
10
188.76249999999999
20
-83.200000000000017
42
-0.41421356237309503
10
188.26249999999999
20
-82.700000000000017
0
LWPOLYLINE
5
182
100
AcDbEntity
8
0
100
AcDbPolyline
90
8
70
1
43
0.0
10
131.11250000000001
20
-82.700000000000017
10
131.11250000000001
20
-69.700000000000003
42
-0.41421356237309503
10
131.61250000000001
20
-69.200000000000003
10
144.61250000000001
20
-69.200000000000003
42
-0.41421356237309503
10
145.11250000000001
20
-69.700000000000003
10
145.11250000000001
20
-82.700000000000017
42
-0.41421356237309503
10
144.61250000000001
20
-83.200000000000003
10
131.61250000000001
20
-83.200000000000017
42
-0.41421356237309503
0
LWPOLYLINE
5
183
100
AcDbEntity
8
0
100
AcDbPolyline
90
8
70
1
43
0.0
10
255.38075000000003
20
-85.200000000000017
10
249.38075000000001
20
-85.200000000000017
42
-0.41421356237309503
10
248.88075000000001
20
-84.700000000000003
10
248.88075000000001
20
-70.700000000000003
42
-0.41421356237309503
10
249.38075000000001
20
-70.200000000000003
10
255.38075000000003
20
-70.199999999999989
42
-0.41421356237309503
10
255.88075000000003
20
-70.700000000000003
10
255.88075000000003
20
-84.700000000000003
42
-0.41421356237309503
0
LWPOLYLINE
5
184
100
AcDbEntity
8
0
100
AcDbPolyline
90
8
70
1
43
0.0
10
28.431250000000006
20
-101.75
42
-0.41421356237309503
10
27.931249999999999
20
-102.25000000000001
10
14.93125
20
-102.25000000000001
42
-0.41421356237309503
10
14.431250000000002
20
-101.75
10
14.431249999999993
20
-88.75
42
-0.41421356237309503
10
14.93125
20
-88.25
10
27.931249999999999
20
-88.25
42
-0.41421356237309503
10
28.431250000000002
20
-88.75
0
LWPOLYLINE
5
185
100
AcDbEntity
8
0
100
AcDbPolyline
90
8
70
1
43
0.0
10
368.94999999999993
20
-82.700000000000017
42
-0.41421356237309503
10
368.44999999999999
20
-83.200000000000017
10
355.45000000000005
20
-83.199999999999989
42
-0.41421356237309503
10
354.94999999999999
20
-82.700000000000017
10
354.95000000000005
20
-69.700000000000003
42
-0.41421356237309503
10
355.45000000000005
20
-69.200000000000003
10
368.44999999999999
20
-69.200000000000031
42
-0.41421356237309503
10
368.94999999999993
20
-69.700000000000003
0
LWPOLYLINE
5
186
100
AcDbEntity
8
0
100
AcDbPolyline
90
8
70
1
43
0.0
10
271.31875000000002
20
-82.700000000000017
42
-0.41421356237309503
10
270.81875000000002
20
-83.200000000000017
10
257.81875000000002
20
-83.200000000000017
42
-0.41421356237309503
10
257.31875000000002
20
-82.700000000000017
10
257.31875000000002
20
-69.700000000000003
42
-0.41421356237309503
10
257.81875000000002
20
-69.200000000000003
10
270.81875000000002
20
-69.200000000000003
42
-0.41421356237309503
10
271.31875000000002
20
-69.700000000000003
0
LWPOLYLINE
5
187
100
AcDbEntity
8
0
100
AcDbPolyline
90
8
70
1
43
0.0
10
406.55000000000001
20
-69.200000000000031
42
-0.41421356237309503
10
407.04999999999995
20
-69.700000000000003
10
407.04999999999995
20
-82.700000000000017
42
-0.41421356237309503
10
406.55000000000001
20
-83.200000000000017
10
393.55000000000007
20
-83.199999999999989
42
-0.41421356237309503
10
393.05000000000007
20
-82.700000000000017
10
393.05000000000007
20
-69.700000000000003
42
-0.41421356237309503
10
393.55000000000007
20
-69.200000000000003
0
LWPOLYLINE
5
188
100
AcDbEntity
8
0
100
AcDbPolyline
90
8
70
1
43
0.0
10
273.25675000000001
20
-85.200000000000017
42
-0.41421356237309503
10
272.75675000000001
20
-84.700000000000003
10
272.75675000000001
20
-70.700000000000003
42
-0.41421356237309503
10
273.25675000000001
20
-70.200000000000003
10
279.25675000000001
20
-70.199999999999989
42
-0.41421356237309503
10
279.75675000000001
20
-70.700000000000003
10
279.75675000000001
20
-84.700000000000003
42
-0.41421356237309503
10
279.25675000000001
20
-85.200000000000017
0
LWPOLYLINE
5
189
100
AcDbEntity
8
0
100
AcDbPolyline
90
8
70
1
43
0.0
10
387.5
20
-69.200000000000031
42
-0.41421356237309503
10
388
20
-69.700000000000003
10
388
20
-82.700000000000017
42
-0.41421356237309503
10
387.5
20
-83.200000000000017
10
374.5
20
-83.199999999999989
42
-0.41421356237309503
10
374
20
-82.700000000000017
10
374.00000000000006
20
-69.700000000000003
42
-0.41421356237309503
10
374.5
20
-69.200000000000003
0
LWPOLYLINE
5
190
100
AcDbEntity
8
0
100
AcDbPolyline
90
8
70
1
43
0.0
10
30.369250000000001
20
-104.25
42
-0.41421356237309503
10
29.869250000000001
20
-103.75
10
29.869249999999994
20
-89.75
42
-0.41421356237309503
10
30.369250000000001
20
-89.249999999999986
10
36.369250000000001
20
-89.25
42
-0.41421356237309503
10
36.869250000000001
20
-89.75
10
36.869250000000008
20
-103.75
42
-0.41421356237309503
10
36.369250000000001
20
-104.25
0
LWPOLYLINE
5
191
100
AcDbEntity
8
0
100
AcDbPolyline
90
8
70
1
43
0.0
10
12.49325
20
-89.25
10
6.4932500000000006
20
-89.249999999999986
42
0.41421356237309503
10
5.9932499999999997
20
-89.75
10
5.9932499999999997
20
-103.75
42
0.41421356237309503
10
6.4932500000000006
20
-104.25
10
12.49325
20
-104.25
42
0.41421356237309503
10
12.99325
20
-103.75
10
12.99325
20
-89.75
42
0.41421356237309503
0
LWPOLYLINE
5
192
100
AcDbEntity
8
0
100
AcDbPolyline
90
8
70
1
43
0.0
10
83.487500000000011
20
-101.75
10
83.487499999999983
20
-88.75
42
-0.41421356237309503
10
83.987499999999997
20
-88.25
10
96.987500000000011
20
-88.25
42
-0.41421356237309503
10
97.487500000000011
20
-88.75
10
97.487500000000011
20
-101.75
42
-0.41421356237309503
10
96.987500000000011
20
-102.25000000000001
10
83.987499999999997
20
-102.25000000000001
42
-0.41421356237309503
0
LWPOLYLINE
5
193
100
AcDbEntity
8
0
100
AcDbPolyline
90
8
70
1
43
0.0
10
173.1875
20
-102.25000000000001
10
160.1875
20
-102.25000000000001
42
-0.41421356237309503
10
159.6875
20
-101.75
10
159.6875
20
-88.75
42
-0.41421356237309503
10
160.1875
20
-88.25
10
173.1875
20
-88.25
42
-0.41421356237309503
10
173.68750000000003
20
-88.75
10
173.68750000000003
20
-101.75
42
-0.41421356237309503
0
LWPOLYLINE
5
194
100
AcDbEntity
8
0
100
AcDbPolyline
90
8
70
1
43
0.0
10
122.08750000000002
20
-102.25000000000001
42
-0.41421356237309503
10
121.58750000000001
20
-101.75
10
121.58750000000001
20
-88.75
42
-0.41421356237309503
10
122.08750000000002
20
-88.250000000000014
10
135.08750000000001
20
-88.25
42
-0.41421356237309503
10
135.58750000000001
20
-88.75
10
135.58750000000001
20
-101.75
42
-0.41421356237309503
10
135.08750000000001
20
-102.25000000000001
0
LWPOLYLINE
5
195
100
AcDbEntity
8
0
100
AcDbPolyline
90
8
70
1
43
0.0
10
154.13749999999999
20
-88.250000000000014
10
141.13749999999999
20
-88.25
42
0.41421356237309503
10
140.63749999999999
20
-88.75
10
140.63749999999999
20
-101.75
42
0.41421356237309503
10
141.13749999999999
20
-102.25000000000001
10
154.13749999999999
20
-102.25000000000001
42
0.41421356237309503
10
154.63749999999999
20
-101.75
10
154.63750000000002
20
-88.75
42
0.41421356237309503
0
LWPOLYLINE
5
196
100
AcDbEntity
8
0
100
AcDbPolyline
90
8
70
1
43
0.0
10
103.03750000000001
20
-102.25000000000001
42
-0.41421356237309503
10
102.53749999999999
20
-101.75
10
102.53749999999999
20
-88.75
42
-0.41421356237309503
10
103.03750000000001
20
-88.250000000000014
10
116.03749999999999
20
-88.25
42
-0.41421356237309503
10
116.53750000000001
20
-88.75
10
116.53750000000001
20
-101.75
42
-0.41421356237309503
10
116.03749999999999
20
-102.25000000000001
0
LWPOLYLINE
5
197
100
AcDbEntity
8
0
100
AcDbPolyline
90
8
70
1
43
0.0
10
64.9375
20
-102.25000000000001
42
-0.41421356237309503
10
64.4375
20
-101.75
10
64.4375
20
-88.75
42
-0.41421356237309503
10
64.9375
20
-88.25
10
77.9375
20
-88.25
42
-0.41421356237309503
10
78.4375
20
-88.75
10
78.437500000000014
20
-101.75
42
-0.41421356237309503
10
77.9375
20
-102.25000000000001
0
LWPOLYLINE
5
198
100
AcDbEntity
8
0
100
AcDbPolyline
90
8
70
1
43
0.0
10
58.88750000000001
20
-88.250000000000014
10
45.887500000000003
20
-88.25
42
0.41421356237309503
10
45.387500000000003
20
-88.75
10
45.387500000000003
20
-101.75
42
0.41421356237309503
10
45.887500000000003
20
-102.25000000000001
10
58.88750000000001
20
-102.25000000000001
42
0.41421356237309503
10
59.387500000000003
20
-101.75
10
59.387500000000003
20
-88.75
42
0.41421356237309503
0
LWPOLYLINE
5
199
100
AcDbEntity
8
0
100
AcDbPolyline
90
8
70
1
43
0.0
10
211.28749999999999
20
-88.25
42
-0.41421356237309503
10
211.78750000000002
20
-88.75
10
211.78750000000002
20
-101.75
42
-0.41421356237309503
10
211.28749999999999
20
-102.25000000000001
10
198.28749999999999
20
-102.25000000000001
42
-0.41421356237309503
10
197.78749999999999
20
-101.75
10
197.78749999999999
20
-88.75
42
-0.41421356237309503
10
198.28749999999999
20
-88.250000000000014
0
LWPOLYLINE
5
200
100
AcDbEntity
8
0
100
AcDbPolyline
90
8
70
1
43
0.0
10
266.55624999999998
20
-101.75
10
266.55624999999998
20
-88.75
42
0.41421356237309503
10
266.05624999999998
20
-88.250000000000014
10
253.05625000000003
20
-88.25
42
0.41421356237309503
10
252.55625000000003
20
-88.75
10
252.55625000000003
20
-101.75
42
0.41421356237309503
10
253.05625000000003
20
-102.25000000000001
10
266.05624999999998
20
-102.25000000000001
42
0.41421356237309503
0
LWPOLYLINE
5
201
100
AcDbEntity
8
0
100
AcDbPolyline
90
8
70
1
43
0.0
10
312.08749999999998
20
-88.75
42
-0.41421356237309503
10
312.58749999999998
20
-88.25
10
325.58749999999998
20
-88.250000000000028
42
-0.41421356237309503
10
326.08749999999998
20
-88.75
10
326.08749999999998
20
-101.75
42
-0.41421356237309503
10
325.58749999999998
20
-102.25000000000001
10
312.58749999999998
20
-102.25000000000001
42
-0.41421356237309503
10
312.08749999999998
20
-101.75
0
LWPOLYLINE
5
202
100
AcDbEntity
8
0
100
AcDbPolyline
90
8
70
1
43
0.0
10
192.23750000000001
20
-88.25
42
-0.41421356237309503
10
192.73750000000004
20
-88.75
10
192.73750000000004
20
-101.75
42
-0.41421356237309503
10
192.23750000000001
20
-102.25000000000001
10
179.23750000000001
20
-102.25000000000001
42
-0.41421356237309503
10
178.73750000000001
20
-101.75
10
178.73750000000001
20
-88.75
42
-0.41421356237309503
10
179.23750000000001
20
-88.250000000000014
0
LWPOLYLINE
5
203
100
AcDbEntity
8
0
100
AcDbPolyline
90
8
70
1
43
0.0
10
368.44999999999999
20
-102.25000000000001
10
355.45000000000005
20
-102.24999999999997
42
-0.41421356237309503
10
354.95000000000005
20
-101.75
10
354.95000000000005
20
-88.75
42
-0.41421356237309503
10
355.45000000000005
20
-88.250000000000014
10
368.44999999999999
20
-88.250000000000028
42
-0.41421356237309503
10
368.94999999999993
20
-88.75
10
368.94999999999993
20
-101.75
42
-0.41421356237309503
0
LWPOLYLINE
5
204
100
AcDbEntity
8
0
100
AcDbPolyline
90
8
70
1
43
0.0
10
267.99425000000002
20
-89.75
42
-0.41421356237309503
10
268.49425000000002
20
-89.249999999999986
10
274.49425000000008
20
-89.249999999999986
42
-0.41421356237309503
10
274.99425000000002
20
-89.75
10
274.99425000000008
20
-103.75
42
-0.41421356237309503
10
274.49425000000008
20
-104.25
10
268.49425000000002
20
-104.25
42
-0.41421356237309503
10
267.99425000000002
20
-103.75
0
LWPOLYLINE
5
205
100
AcDbEntity
8
0
100
AcDbPolyline
90
8
70
1
43
0.0
10
251.11824999999999
20
-103.75
10
251.11824999999999
20
-89.75
42
0.41421356237309503
10
250.61824999999999
20
-89.249999999999986
10
244.61825000000002
20
-89.249999999999986
42
0.41421356237309503
10
244.11824999999999
20
-89.75
10
244.11824999999999
20
-103.75
42
0.41421356237309503
10
244.61825000000002
20
-104.25
10
250.61824999999999
20
-104.25
42
0.41421356237309503
0
LWPOLYLINE
5
206
100
AcDbEntity
8
0
100
AcDbPolyline
90
8
70
1
43
0.0
10
217.33750000000001
20
-102.25000000000001
42
-0.41421356237309503
10
216.83750000000001
20
-101.75
10
216.83750000000001
20
-88.75
42
-0.41421356237309503
10
217.33750000000001
20
-88.25
10
230.33750000000001
20
-88.25
42
-0.41421356237309503
10
230.83750000000003
20
-88.75
10
230.83750000000003
20
-101.75
42
-0.41421356237309503
10
230.33750000000001
20
-102.25000000000001
0
LWPOLYLINE
5
207
100
AcDbEntity
8
0
100
AcDbPolyline
90
8
70
1
43
0.0
10
66.03125
20
-107.30000000000001
10
53.031250000000007
20
-107.30000000000001
42
0.41421356237309503
10
52.531250000000007
20
-107.80000000000001
10
52.531250000000007
20
-120.8
42
0.41421356237309503
10
53.031250000000007
20
-121.30000000000001
10
66.03125
20
-121.30000000000001
42
0.41421356237309503
10
66.53125
20
-120.8
10
66.53125
20
-107.80000000000001
42
0.41421356237309503
0
LWPOLYLINE
5
208
100
AcDbEntity
8
0
100
AcDbPolyline
90
8
70
1
43
0.0
10
374
20
-101.75
10
374.00000000000006
20
-88.75
42
-0.41421356237309503
10
374.5
20
-88.250000000000014
10
387.5
20
-88.250000000000028
42
-0.41421356237309503
10
388.00000000000006
20
-88.75
10
388
20
-101.75
42
-0.41421356237309503
10
387.5
20
-102.25000000000001
10
374.5
20
-102.24999999999997
42
-0.41421356237309503
0
LWPOLYLINE
5
209
100
AcDbEntity
8
0
100
AcDbPolyline
90
8
70
1
43
0.0
10
410.60000000000002
20
-113.21300000000001
10
424.60000000000008
20
-113.21300000000002
42
-0.41421356237309503
10
425.10000000000002
20
-113.71299999999999
10
425.10000000000002
20
-119.71299999999999
42
-0.41421356237309503
10
424.60000000000008
20
-120.21299999999999
10
410.60000000000002
20
-120.21299999999997
42
-0.41421356237309503
10
410.10000000000002
20
-119.71299999999999
10
410.10000000000002
20
-113.71299999999999
42
-0.41421356237309503
0
LWPOLYLINE
5
210
100
AcDbEntity
8
0
100
AcDbPolyline
90
8
70
1
43
0.0
10
407.04999999999995
20
-101.75
42
-0.41421356237309503
10
406.55000000000001
20
-102.25000000000001
10
393.55000000000007
20
-102.24999999999997
42
-0.41421356237309503
10
393.05000000000007
20
-101.75
10
393.05000000000007
20
-88.75
42
-0.41421356237309503
10
393.55000000000007
20
-88.25
10
406.55000000000001
20
-88.250000000000028
42
-0.41421356237309503
10
407.04999999999995
20
-88.75
0
LWPOLYLINE
5
211
100
AcDbEntity
8
0
100
AcDbPolyline
90
8
70
1
43
0.0
10
4.9062499999999929
20
-107.80000000000001
42
-0.41421356237309503
10
5.4062499999999991
20
-107.30000000000001
10
18.40625
20
-107.30000000000001
42
-0.41421356237309503
10
18.906250000000004
20
-107.80000000000001
10
18.906250000000007
20
-120.8
42
-0.41421356237309503
10
18.40625
20
-121.30000000000001
10
5.40625
20
-121.30000000000001
42
-0.41421356237309503
10
4.90625
20
-120.8
0
LWPOLYLINE
5
212
100
AcDbEntity
8
0
100
AcDbPolyline
90
8
70
1
43
0.0
10
42.21875
20
-107.30000000000001
10
29.21875
20
-107.30000000000001
42
0.41421356237309503
10
28.71875
20
-107.80000000000001
10
28.71875
20
-120.8
42
0.41421356237309503
10
29.21875
20
-121.30000000000001
10
42.21875
20
-121.30000000000001
42
0.41421356237309503
10
42.718750000000007
20
-120.8
10
42.71875
20
-107.80000000000001
42
0.41421356237309503
0
LWPOLYLINE
5
213
100
AcDbEntity
8
0
100
AcDbPolyline
90
8
70
1
43
0.0
10
412.60000000000002
20
-97.77500000000002
10
425.60000000000002
20
-97.775000000000034
42
-0.41421356237309503
10
426.10000000000008
20
-98.275000000000006
10
426.10000000000002
20
-111.27500000000001
42
-0.41421356237309503
10
425.60000000000002
20
-111.77500000000002
10
412.60000000000002
20
-111.77499999999998
42
-0.41421356237309503
10
412.10000000000008
20
-111.27500000000001
10
412.10000000000008
20
-98.275000000000006
42
-0.41421356237309503
0
LWPOLYLINE
5
214
100
AcDbEntity
8
0
100
AcDbPolyline
90
8
70
1
43
0.0
10
410.60000000000002
20
-89.337000000000003
10
424.60000000000008
20
-89.337000000000032
42
-0.41421356237309503
10
425.10000000000002
20
-89.837000000000003
10
425.10000000000002
20
-95.837000000000003
42
-0.41421356237309503
10
424.60000000000008
20
-96.337000000000018
10
410.60000000000002
20
-96.336999999999975
42
-0.41421356237309503
10
410.10000000000002
20
-95.837000000000003
10
410.10000000000002
20
-89.837000000000003
42
-0.41421356237309503
0
LWPOLYLINE
5
215
100
AcDbEntity
8
0
100
AcDbPolyline
90
8
70
1
43
0.0
10
177.46875
20
-122.80000000000001
10
177.46875
20
-108.80000000000001
42
-0.41421356237309503
10
177.96875
20
-108.3
10
183.96875
20
-108.3
42
-0.41421356237309503
10
184.46875000000003
20
-108.80000000000001
10
184.46875000000003
20
-122.80000000000001
42
-0.41421356237309503
10
183.96875
20
-123.3
10
177.96875
20
-123.30000000000001
42
-0.41421356237309503
0
LWPOLYLINE
5
216
100
AcDbEntity
8
0
100
AcDbPolyline
90
8
70
1
43
0.0
10
232.71875
20
-121.30000000000001
10
219.71875
20
-121.30000000000001
42
-0.41421356237309503
10
219.21875
20
-120.8
10
219.21875
20
-107.80000000000001
42
-0.41421356237309503
10
219.71875
20
-107.30000000000001
10
232.71875
20
-107.30000000000001
42
-0.41421356237309503
10
233.21875000000003
20
-107.80000000000001
10
233.21875000000003
20
-120.8
42
-0.41421356237309503
0
LWPOLYLINE
5
217
100
AcDbEntity
8
0
100
AcDbPolyline
90
8
70
1
43
0.0
10
137.96875000000003
20
-120.8
42
-0.41421356237309503
10
137.46875
20
-121.30000000000001
10
124.46875
20
-121.30000000000001
42
-0.41421356237309503
10
123.96875000000001
20
-120.8
10
123.96875
20
-107.80000000000001
42
-0.41421356237309503
10
124.46875
20
-107.30000000000001
10
137.46875
20
-107.30000000000001
42
-0.41421356237309503
10
137.96875000000003
20
-107.80000000000001
0
LWPOLYLINE
5
218
100
AcDbEntity
8
0
100
AcDbPolyline
90
8
70
1
43
0.0
10
83.96875
20
-108.3
42
-0.41421356237309503
10
84.46875
20
-108.80000000000001
10
84.46875
20
-122.80000000000001
42
-0.41421356237309503
10
83.96875
20
-123.30000000000001
10
77.96875
20
-123.30000000000001
42
-0.41421356237309503
10
77.46875
20
-122.80000000000001
10
77.46875
20
-108.80000000000001
42
-0.41421356237309503
10
77.96875
20
-108.3
0
LWPOLYLINE
5
219
100
AcDbEntity
8
0
100
AcDbPolyline
90
8
70
1
43
0.0
10
243.53125000000003
20
-121.30000000000001
42
-0.41421356237309503
10
243.03125
20
-120.8
10
243.03125
20
-107.80000000000001
42
-0.41421356237309503
10
243.53125000000003
20
-107.30000000000001
10
256.53125
20
-107.30000000000001
42
-0.41421356237309503
10
257.03125000000006
20
-107.80000000000001
10
257.03125000000006
20
-120.8
42
-0.41421356237309503
10
256.53125
20
-121.30000000000001
0
LWPOLYLINE
5
220
100
AcDbEntity
8
0
100
AcDbPolyline
90
8
70
1
43
0.0
10
208.90625
20
-107.30000000000001
10
195.90625000000003
20
-107.30000000000001
42
0.41421356237309503
10
195.40625000000003
20
-107.80000000000001
10
195.40625000000003
20
-120.8
42
0.41421356237309503
10
195.90625000000003
20
-121.30000000000001
10
208.90625
20
-121.30000000000001
42
0.41421356237309503
10
209.40625
20
-120.8
10
209.40625
20
-107.80000000000001
42
0.41421356237309503
0
LWPOLYLINE
5
221
100
AcDbEntity
8
0
100
AcDbPolyline
90
8
70
1
43
0.0
10
280.84375
20
-120.8
42
-0.41421356237309503
10
280.34375
20
-121.30000000000001
10
267.34375
20
-121.30000000000001
42
-0.41421356237309503
10
266.84375
20
-120.8
10
266.84375
20
-107.80000000000001
42
-0.41421356237309503
10
267.34375
20
-107.30000000000001
10
280.34375
20
-107.30000000000001
42
-0.41421356237309503
10
280.84375
20
-107.80000000000001
0
LWPOLYLINE
5
222
100
AcDbEntity
8
0
100
AcDbPolyline
90
8
70
1
43
0.0
10
293.03750000000002
20
-120.8
10
293.03750000000002
20
-107.80000000000001
42
-0.41421356237309503
10
293.53750000000002
20
-107.30000000000001
10
306.53750000000002
20
-107.30000000000001
42
-0.41421356237309503
10
307.03750000000002
20
-107.80000000000001
10
307.03750000000002
20
-120.8
42
-0.41421356237309503
10
306.53750000000002
20
-121.30000000000001
10
293.53750000000002
20
-121.30000000000001
42
-0.41421356237309503
0
LWPOLYLINE
5
223
100
AcDbEntity
8
0
100
AcDbPolyline
90
8
70
1
43
0.0
10
393.05000000000007
20
-107.80000000000001
42
-0.41421356237309503
10
393.55000000000007
20
-107.30000000000001
10
406.55000000000001
20
-107.30000000000004
42
-0.41421356237309503
10
407.05000000000007
20
-107.80000000000001
10
407.04999999999995
20
-120.8
42
-0.41421356237309503
10
406.55000000000001
20
-121.30000000000001
10
393.55000000000007
20
-121.29999999999997
42
-0.41421356237309503
10
393.05000000000007
20
-120.8
0
LWPOLYLINE
5
224
100
AcDbEntity
8
0
100
AcDbPolyline
90
8
70
1
43
0.0
10
345.13750000000005
20
-120.8
10
345.13749999999993
20
-107.80000000000001
42
0.41421356237309503
10
344.63749999999999
20
-107.30000000000001
10
331.63749999999999
20
-107.30000000000001
42
0.41421356237309503
10
331.13750000000005
20
-107.80000000000001
10
331.13750000000005
20
-120.8
42
0.41421356237309503
10
331.63749999999999
20
-121.30000000000001
10
344.63749999999999
20
-121.30000000000001
42
0.41421356237309503
0
LWPOLYLINE
5
225
100
AcDbEntity
8
0
100
AcDbPolyline
90
8
70
1
43
0.0
10
364.47500000000002
20
-107.80000000000001
42
-0.41421356237309503
10
364.97500000000002
20
-107.30000000000001
10
377.97500000000008
20
-107.30000000000004
42
-0.41421356237309503
10
378.47500000000002
20
-107.80000000000001
10
378.47500000000014
20
-120.8
42
-0.41421356237309503
10
377.97500000000008
20
-121.30000000000001
10
364.97500000000002
20
-121.29999999999997
42
-0.41421356237309503
10
364.47500000000002
20
-120.8
0
LWPOLYLINE
5
226
100
AcDbEntity
8
0
100
AcDbPolyline
90
8
70
1
43
0.0
10
379.91299999999995
20
-108.80000000000001
42
-0.41421356237309503
10
380.41300000000001
20
-108.3
10
386.41300000000001
20
-108.30000000000004
42
-0.41421356237309503
10
386.91300000000007
20
-108.80000000000001
10
386.91300000000001
20
-122.80000000000001
42
-0.41421356237309503
10
386.41300000000001
20
-123.3
10
380.41300000000001
20
-123.29999999999998
42
-0.41421356237309503
10
379.91300000000001
20
-122.80000000000001
0
LWPOLYLINE
5
227
100
AcDbEntity
8
0
100
AcDbPolyline
90
8
70
1
43
0.0
10
312.08749999999998
20
-107.80000000000001
42
-0.41421356237309503
10
312.58749999999998
20
-107.30000000000001
10
325.58749999999998
20
-107.30000000000004
42
-0.41421356237309503
10
326.08749999999992
20
-107.80000000000001
10
326.08749999999998
20
-120.8
42
-0.41421356237309503
10
325.58749999999998
20
-121.30000000000001
10
312.58749999999998
20
-121.30000000000001
42
-0.41421356237309503
10
312.08749999999998
20
-120.8
0
LWPOLYLINE
5
228
100
AcDbEntity
8
0
100
AcDbPolyline
90
8
70
1
43
0.0
10
363.03699999999998
20
-122.80000000000001
10
363.03699999999998
20
-108.80000000000001
42
0.41421356237309503
10
362.53700000000003
20
-108.3
10
356.53700000000003
20
-108.3
42
0.41421356237309503
10
356.03699999999998
20
-108.80000000000001
10
356.03700000000003
20
-122.80000000000001
42
0.41421356237309503
10
356.53700000000003
20
-123.30000000000001
10
362.53700000000003
20
-123.30000000000001
42
0.41421356237309503
0
LWPOLYLINE
5
229
100
AcDbEntity
8
0
100
AcDbPolyline
90
5
70
1
43
0.0
10
433.62500000000006
20
-128.82499999999999
10
-5
20
-128.82499999999999
10
-5
20
5
10
411.07957147951367
20
4.9999999999999956
42
-1.1469542106833233
10
433.62500000000006
20
-27.648525642393977
0
CIRCLE
5
230
100
AcDbEntity
8
0
100
AcDbCircle
10
424.59752340448568
20
-9.7738146987887333
30
0
40
12.5
210
0
220
0
230
1
0
LINE
5
231
100
AcDbEntity
8
0
100
AcDbLine
10
419.10000000000002
20
-31.100000000000001
30
0
11
419.10000000000002
21
-21.000000000000007
31
0
0
LINE
5
232
100
AcDbEntity
8
0
100
AcDbLine
10
407.05000000000007
20
-9.5250000000000004
30
0
11
412.10000000000008
21
-9.5250000000000021
31
0
0
CIRCLE
5
233
100
AcDbEntity
8
0
100
AcDbCircle
10
424.59752340448568
20
-9.7738146987887333
30
0
40
3.6250000000000004
210
0
220
0
230
1
0
ENDSEC
0
SECTION
2
OBJECTS
0
DICTIONARY
5
C
100
AcDbDictionary
3
ACAD_GROUP
350
D
3
ACAD_MLINESTYLE
350
17
0
DICTIONARY
5
D
100
AcDbDictionary
0
DICTIONARY
5
1A
330
C
100
AcDbDictionary
0
DICTIONARY
5
17
100
AcDbDictionary
0
ENDSEC
0
EOF
