%TF.GenerationSoftware,KiCad,Pcbnew,(5.1.8)-1*%
%TF.CreationDate,2021-04-14T20:46:23-04:00*%
%TF.ProjectId,694200101,36393432-3030-4313-9031-2e6b69636164,rev?*%
%TF.SameCoordinates,Original*%
%TF.FileFunction,Legend,Bot*%
%TF.FilePolarity,Positive*%
%FSLAX46Y46*%
G04 Gerber Fmt 4.6, Leading zero omitted, Abs format (unit mm)*
G04 Created by KiCad (PCBNEW (5.1.8)-1) date 2021-04-14 20:46:23*
%MOMM*%
%LPD*%
G01*
G04 APERTURE LIST*
%ADD10C,0.127000*%
%ADD11C,0.200000*%
%ADD12C,0.120000*%
%ADD13C,0.150000*%
%ADD14C,0.152400*%
%ADD15C,0.250000*%
%ADD16C,0.015000*%
%ADD17C,0.100000*%
G04 APERTURE END LIST*
D10*
%TO.C,U2*%
X355845400Y-8341600D02*
X355845400Y-9641600D01*
X354135400Y-8341600D02*
X354135400Y-9641600D01*
D11*
X355590400Y-10791600D02*
G75*
G03*
X355590400Y-10791600I-100000J0D01*
G01*
D12*
%TO.C,C25*%
X379991252Y-12473000D02*
X379468748Y-12473000D01*
X379991252Y-13943000D02*
X379468748Y-13943000D01*
%TO.C,U6*%
X347451999Y-90262400D02*
X347451999Y-89412400D01*
X347451999Y-89412400D02*
X346601999Y-89412400D01*
X340551999Y-90262400D02*
X340551999Y-89412400D01*
X340551999Y-89412400D02*
X341401999Y-89412400D01*
X340551999Y-95462400D02*
X340551999Y-96312400D01*
X340551999Y-96312400D02*
X341401999Y-96312400D01*
X347451999Y-95462400D02*
X347451999Y-96537400D01*
%TO.C,U5*%
X33334000Y-22373000D02*
X34184000Y-22373000D01*
X34184000Y-22373000D02*
X34184000Y-21523000D01*
X33334000Y-15473000D02*
X34184000Y-15473000D01*
X34184000Y-15473000D02*
X34184000Y-16323000D01*
X28134000Y-15473000D02*
X27284000Y-15473000D01*
X27284000Y-15473000D02*
X27284000Y-16323000D01*
X28134000Y-22373000D02*
X27059000Y-22373000D01*
%TO.C,D108*%
X413450000Y-107000000D02*
X417750000Y-107000000D01*
X413450000Y-109000000D02*
X413450000Y-107000000D01*
X417750000Y-109000000D02*
X413450000Y-109000000D01*
%TO.C,D107*%
X413700000Y-68750000D02*
X418000000Y-68750000D01*
X413700000Y-70750000D02*
X413700000Y-68750000D01*
X418000000Y-70750000D02*
X413700000Y-70750000D01*
%TO.C,D106*%
X427250000Y-49050000D02*
X427250000Y-44750000D01*
X429250000Y-49050000D02*
X427250000Y-49050000D01*
X429250000Y-44750000D02*
X429250000Y-49050000D01*
%TO.C,D105*%
X406250000Y-119600000D02*
X410550000Y-119600000D01*
X406250000Y-121600000D02*
X406250000Y-119600000D01*
X410550000Y-121600000D02*
X406250000Y-121600000D01*
%TO.C,D104*%
X408250000Y-106050000D02*
X408250000Y-101750000D01*
X410250000Y-106050000D02*
X408250000Y-106050000D01*
X410250000Y-101750000D02*
X410250000Y-106050000D01*
%TO.C,D103*%
X407750000Y-86550000D02*
X407750000Y-82250000D01*
X409750000Y-86550000D02*
X407750000Y-86550000D01*
X409750000Y-82250000D02*
X409750000Y-86550000D01*
%TO.C,D102*%
X407750000Y-67800000D02*
X407750000Y-63500000D01*
X409750000Y-67800000D02*
X407750000Y-67800000D01*
X409750000Y-63500000D02*
X409750000Y-67800000D01*
%TO.C,D101*%
X407962500Y-49050000D02*
X407962500Y-44750000D01*
X409962500Y-49050000D02*
X407962500Y-49050000D01*
X409962500Y-44750000D02*
X409962500Y-49050000D01*
%TO.C,D100*%
X408287500Y-19950000D02*
X408287500Y-15650000D01*
X410287500Y-19950000D02*
X408287500Y-19950000D01*
X410287500Y-15650000D02*
X410287500Y-19950000D01*
%TO.C,D99*%
X392065000Y-104785000D02*
X392065000Y-100485000D01*
X394065000Y-104785000D02*
X392065000Y-104785000D01*
X394065000Y-100485000D02*
X394065000Y-104785000D01*
%TO.C,D98*%
X388787500Y-86550000D02*
X388787500Y-82250000D01*
X390787500Y-86550000D02*
X388787500Y-86550000D01*
X390787500Y-82250000D02*
X390787500Y-86550000D01*
%TO.C,D97*%
X389000000Y-67800000D02*
X389000000Y-63500000D01*
X391000000Y-67800000D02*
X389000000Y-67800000D01*
X391000000Y-63500000D02*
X391000000Y-67800000D01*
%TO.C,D96*%
X388890000Y-49032000D02*
X388890000Y-44732000D01*
X390890000Y-49032000D02*
X388890000Y-49032000D01*
X390890000Y-44732000D02*
X390890000Y-49032000D01*
%TO.C,D95*%
X388750000Y-19950000D02*
X388750000Y-15650000D01*
X390750000Y-19950000D02*
X388750000Y-19950000D01*
X390750000Y-15650000D02*
X390750000Y-19950000D01*
%TO.C,D94*%
X417200000Y-3699000D02*
X421500000Y-3699000D01*
X417200000Y-5699000D02*
X417200000Y-3699000D01*
X421500000Y-5699000D02*
X417200000Y-5699000D01*
%TO.C,D93*%
X388122000Y-117205000D02*
X383822000Y-117205000D01*
X388122000Y-115205000D02*
X388122000Y-117205000D01*
X383822000Y-115205000D02*
X388122000Y-115205000D01*
%TO.C,D92*%
X369750000Y-105039000D02*
X369750000Y-100739000D01*
X371750000Y-105039000D02*
X369750000Y-105039000D01*
X371750000Y-100739000D02*
X371750000Y-105039000D01*
%TO.C,D91*%
X369750000Y-86550000D02*
X369750000Y-82250000D01*
X371750000Y-86550000D02*
X369750000Y-86550000D01*
X371750000Y-82250000D02*
X371750000Y-86550000D01*
%TO.C,D90*%
X369750000Y-67800000D02*
X369750000Y-63500000D01*
X371750000Y-67800000D02*
X369750000Y-67800000D01*
X371750000Y-63500000D02*
X371750000Y-67800000D01*
%TO.C,D89*%
X369750000Y-49050000D02*
X369750000Y-44750000D01*
X371750000Y-49050000D02*
X369750000Y-49050000D01*
X371750000Y-44750000D02*
X371750000Y-49050000D01*
%TO.C,D88*%
X373015000Y-17917000D02*
X373015000Y-13617000D01*
X375015000Y-17917000D02*
X373015000Y-17917000D01*
X375015000Y-13617000D02*
X375015000Y-17917000D01*
%TO.C,D87*%
X353650001Y-120500000D02*
X349350001Y-120500000D01*
X353650001Y-118500000D02*
X353650001Y-120500000D01*
X349350001Y-118500000D02*
X353650001Y-118500000D01*
%TO.C,D86*%
X348660500Y-64145000D02*
X348660500Y-59845000D01*
X350660500Y-64145000D02*
X348660500Y-64145000D01*
X350660500Y-59845000D02*
X350660500Y-64145000D01*
%TO.C,D85*%
X346037500Y-49050000D02*
X346037500Y-44750000D01*
X348037500Y-49050000D02*
X346037500Y-49050000D01*
X348037500Y-44750000D02*
X348037500Y-49050000D01*
%TO.C,D84*%
X343170000Y-17028000D02*
X343170000Y-12728000D01*
X345170000Y-17028000D02*
X343170000Y-17028000D01*
X345170000Y-12728000D02*
X345170000Y-17028000D01*
%TO.C,D83*%
X335050000Y-120500000D02*
X330750000Y-120500000D01*
X335050000Y-118500000D02*
X335050000Y-120500000D01*
X330750000Y-118500000D02*
X335050000Y-118500000D01*
%TO.C,D82*%
X327250000Y-106050000D02*
X327250000Y-101750000D01*
X329250000Y-106050000D02*
X327250000Y-106050000D01*
X329250000Y-101750000D02*
X329250000Y-106050000D01*
%TO.C,D81*%
X329708000Y-64145000D02*
X329708000Y-59845000D01*
X331708000Y-64145000D02*
X329708000Y-64145000D01*
X331708000Y-59845000D02*
X331708000Y-64145000D01*
%TO.C,D80*%
X327000000Y-49050000D02*
X327000000Y-44750000D01*
X329000000Y-49050000D02*
X327000000Y-49050000D01*
X329000000Y-44750000D02*
X329000000Y-49050000D01*
%TO.C,D79*%
X331060000Y-17410000D02*
X331060000Y-13110000D01*
X333060000Y-17410000D02*
X331060000Y-17410000D01*
X333060000Y-13110000D02*
X333060000Y-17410000D01*
%TO.C,D78*%
X317050000Y-120500000D02*
X312750000Y-120500000D01*
X317050000Y-118500000D02*
X317050000Y-120500000D01*
X312750000Y-118500000D02*
X317050000Y-118500000D01*
%TO.C,D77*%
X311293000Y-64526000D02*
X311293000Y-60226000D01*
X313293000Y-64526000D02*
X311293000Y-64526000D01*
X313293000Y-60226000D02*
X313293000Y-64526000D01*
%TO.C,D76*%
X307750000Y-49050000D02*
X307750000Y-44750000D01*
X309750000Y-49050000D02*
X307750000Y-49050000D01*
X309750000Y-44750000D02*
X309750000Y-49050000D01*
%TO.C,D75*%
X311560000Y-17410000D02*
X311560000Y-13110000D01*
X313560000Y-17410000D02*
X311560000Y-17410000D01*
X313560000Y-13110000D02*
X313560000Y-17410000D01*
%TO.C,D74*%
X290050000Y-120500000D02*
X285750000Y-120500000D01*
X290050000Y-118500000D02*
X290050000Y-120500000D01*
X285750000Y-118500000D02*
X290050000Y-118500000D01*
%TO.C,D73*%
X287665000Y-62468000D02*
X283365000Y-62468000D01*
X287665000Y-60468000D02*
X287665000Y-62468000D01*
X283365000Y-60468000D02*
X287665000Y-60468000D01*
%TO.C,D72*%
X274750000Y-49050000D02*
X274750000Y-44750000D01*
X276750000Y-49050000D02*
X274750000Y-49050000D01*
X276750000Y-44750000D02*
X276750000Y-49050000D01*
%TO.C,D71*%
X287810000Y-17410000D02*
X287810000Y-13110000D01*
X289810000Y-17410000D02*
X287810000Y-17410000D01*
X289810000Y-13110000D02*
X289810000Y-17410000D01*
%TO.C,D70*%
X266550000Y-120500000D02*
X262250000Y-120500000D01*
X266550000Y-118500000D02*
X266550000Y-120500000D01*
X262250000Y-118500000D02*
X266550000Y-118500000D01*
%TO.C,D69*%
X267500000Y-106050000D02*
X267500000Y-101750000D01*
X269500000Y-106050000D02*
X267500000Y-106050000D01*
X269500000Y-101750000D02*
X269500000Y-106050000D01*
%TO.C,D68*%
X281950000Y-78800000D02*
X277650000Y-78800000D01*
X281950000Y-76800000D02*
X281950000Y-78800000D01*
X277650000Y-76800000D02*
X281950000Y-76800000D01*
%TO.C,D67*%
X261509000Y-64526000D02*
X261509000Y-60226000D01*
X263509000Y-64526000D02*
X261509000Y-64526000D01*
X263509000Y-60226000D02*
X263509000Y-64526000D01*
%TO.C,D66*%
X268810000Y-17410000D02*
X268810000Y-13110000D01*
X270810000Y-17410000D02*
X268810000Y-17410000D01*
X270810000Y-13110000D02*
X270810000Y-17410000D01*
%TO.C,D65*%
X241000000Y-86550000D02*
X241000000Y-82250000D01*
X243000000Y-86550000D02*
X241000000Y-86550000D01*
X243000000Y-82250000D02*
X243000000Y-86550000D01*
%TO.C,D64*%
X239919000Y-64653000D02*
X239919000Y-60353000D01*
X241919000Y-64653000D02*
X239919000Y-64653000D01*
X241919000Y-60353000D02*
X241919000Y-64653000D01*
%TO.C,D63*%
X246037500Y-49050000D02*
X246037500Y-44750000D01*
X248037500Y-49050000D02*
X246037500Y-49050000D01*
X248037500Y-44750000D02*
X248037500Y-49050000D01*
%TO.C,D62*%
X250333000Y-17409000D02*
X250333000Y-13109000D01*
X252333000Y-17409000D02*
X250333000Y-17409000D01*
X252333000Y-13109000D02*
X252333000Y-17409000D01*
%TO.C,D61*%
X242300000Y-120500000D02*
X238000000Y-120500000D01*
X242300000Y-118500000D02*
X242300000Y-120500000D01*
X238000000Y-118500000D02*
X242300000Y-118500000D01*
%TO.C,D60*%
X231787500Y-106050000D02*
X231787500Y-101750000D01*
X233787500Y-106050000D02*
X231787500Y-106050000D01*
X233787500Y-101750000D02*
X233787500Y-106050000D01*
%TO.C,D59*%
X222287500Y-86550000D02*
X222287500Y-82250000D01*
X224287500Y-86550000D02*
X222287500Y-86550000D01*
X224287500Y-82250000D02*
X224287500Y-86550000D01*
%TO.C,D58*%
X220488000Y-64653000D02*
X220488000Y-60353000D01*
X222488000Y-64653000D02*
X220488000Y-64653000D01*
X222488000Y-60353000D02*
X222488000Y-64653000D01*
%TO.C,D57*%
X226750000Y-49050000D02*
X226750000Y-44750000D01*
X228750000Y-49050000D02*
X226750000Y-49050000D01*
X228750000Y-44750000D02*
X228750000Y-49050000D01*
%TO.C,D56*%
X230810000Y-17410000D02*
X230810000Y-13110000D01*
X232810000Y-17410000D02*
X230810000Y-17410000D01*
X232810000Y-13110000D02*
X232810000Y-17410000D01*
%TO.C,D55*%
X218050000Y-120500000D02*
X213750000Y-120500000D01*
X218050000Y-118500000D02*
X218050000Y-120500000D01*
X213750000Y-118500000D02*
X218050000Y-118500000D01*
%TO.C,D54*%
X212712500Y-106050000D02*
X212712500Y-101750000D01*
X214712500Y-106050000D02*
X212712500Y-106050000D01*
X214712500Y-101750000D02*
X214712500Y-106050000D01*
%TO.C,D53*%
X203250000Y-86550000D02*
X203250000Y-82250000D01*
X205250000Y-86550000D02*
X203250000Y-86550000D01*
X205250000Y-82250000D02*
X205250000Y-86550000D01*
%TO.C,D52*%
X201057000Y-64526000D02*
X201057000Y-60226000D01*
X203057000Y-64526000D02*
X201057000Y-64526000D01*
X203057000Y-60226000D02*
X203057000Y-64526000D01*
%TO.C,D51*%
X207750000Y-49050000D02*
X207750000Y-44750000D01*
X209750000Y-49050000D02*
X207750000Y-49050000D01*
X209750000Y-44750000D02*
X209750000Y-49050000D01*
%TO.C,D50*%
X202560000Y-17410000D02*
X202560000Y-13110000D01*
X204560000Y-17410000D02*
X202560000Y-17410000D01*
X204560000Y-13110000D02*
X204560000Y-17410000D01*
%TO.C,D49*%
X193500000Y-106050000D02*
X193500000Y-101750000D01*
X195500000Y-106050000D02*
X193500000Y-106050000D01*
X195500000Y-101750000D02*
X195500000Y-106050000D01*
%TO.C,D48*%
X184250000Y-86550000D02*
X184250000Y-82250000D01*
X186250000Y-86550000D02*
X184250000Y-86550000D01*
X186250000Y-82250000D02*
X186250000Y-86550000D01*
%TO.C,D47*%
X182134000Y-64526000D02*
X182134000Y-60226000D01*
X184134000Y-64526000D02*
X182134000Y-64526000D01*
X184134000Y-60226000D02*
X184134000Y-64526000D01*
%TO.C,D46*%
X189000000Y-49050000D02*
X189000000Y-44750000D01*
X191000000Y-49050000D02*
X189000000Y-49050000D01*
X191000000Y-44750000D02*
X191000000Y-49050000D01*
%TO.C,D45*%
X183310000Y-17410000D02*
X183310000Y-13110000D01*
X185310000Y-17410000D02*
X183310000Y-17410000D01*
X185310000Y-13110000D02*
X185310000Y-17410000D01*
%TO.C,D44*%
X174500000Y-106050000D02*
X174500000Y-101750000D01*
X176500000Y-106050000D02*
X174500000Y-106050000D01*
X176500000Y-101750000D02*
X176500000Y-106050000D01*
%TO.C,D43*%
X165000000Y-86550000D02*
X165000000Y-82250000D01*
X167000000Y-86550000D02*
X165000000Y-86550000D01*
X167000000Y-82250000D02*
X167000000Y-86550000D01*
%TO.C,D42*%
X163592000Y-64526000D02*
X163592000Y-60226000D01*
X165592000Y-64526000D02*
X163592000Y-64526000D01*
X165592000Y-60226000D02*
X165592000Y-64526000D01*
%TO.C,D41*%
X169750000Y-49050000D02*
X169750000Y-44750000D01*
X171750000Y-49050000D02*
X169750000Y-49050000D01*
X171750000Y-44750000D02*
X171750000Y-49050000D01*
%TO.C,D40*%
X164060000Y-17410000D02*
X164060000Y-13110000D01*
X166060000Y-17410000D02*
X164060000Y-17410000D01*
X166060000Y-13110000D02*
X166060000Y-17410000D01*
%TO.C,D39*%
X155500000Y-106050000D02*
X155500000Y-101750000D01*
X157500000Y-106050000D02*
X155500000Y-106050000D01*
X157500000Y-101750000D02*
X157500000Y-106050000D01*
%TO.C,D38*%
X146000000Y-86550000D02*
X146000000Y-82250000D01*
X148000000Y-86550000D02*
X146000000Y-86550000D01*
X148000000Y-82250000D02*
X148000000Y-86550000D01*
%TO.C,D37*%
X144669000Y-64653000D02*
X144669000Y-60353000D01*
X146669000Y-64653000D02*
X144669000Y-64653000D01*
X146669000Y-60353000D02*
X146669000Y-64653000D01*
%TO.C,D36*%
X150750000Y-49050000D02*
X150750000Y-44750000D01*
X152750000Y-49050000D02*
X150750000Y-49050000D01*
X152750000Y-44750000D02*
X152750000Y-49050000D01*
%TO.C,D35*%
X145060000Y-17410000D02*
X145060000Y-13110000D01*
X147060000Y-17410000D02*
X145060000Y-17410000D01*
X147060000Y-13110000D02*
X147060000Y-17410000D01*
%TO.C,D34*%
X147300000Y-120500000D02*
X143000000Y-120500000D01*
X147300000Y-118500000D02*
X147300000Y-120500000D01*
X143000000Y-118500000D02*
X147300000Y-118500000D01*
%TO.C,D33*%
X136500000Y-106050000D02*
X136500000Y-101750000D01*
X138500000Y-106050000D02*
X136500000Y-106050000D01*
X138500000Y-101750000D02*
X138500000Y-106050000D01*
%TO.C,D32*%
X127250000Y-86550000D02*
X127250000Y-82250000D01*
X129250000Y-86550000D02*
X127250000Y-86550000D01*
X129250000Y-82250000D02*
X129250000Y-86550000D01*
%TO.C,D31*%
X124984000Y-64653000D02*
X124984000Y-60353000D01*
X126984000Y-64653000D02*
X124984000Y-64653000D01*
X126984000Y-60353000D02*
X126984000Y-64653000D01*
%TO.C,D30*%
X131750000Y-49050000D02*
X131750000Y-44750000D01*
X133750000Y-49050000D02*
X131750000Y-49050000D01*
X133750000Y-44750000D02*
X133750000Y-49050000D01*
%TO.C,D29*%
X117250000Y-106050000D02*
X117250000Y-101750000D01*
X119250000Y-106050000D02*
X117250000Y-106050000D01*
X119250000Y-101750000D02*
X119250000Y-106050000D01*
%TO.C,D28*%
X108000000Y-86550000D02*
X108000000Y-82250000D01*
X110000000Y-86550000D02*
X108000000Y-86550000D01*
X110000000Y-82250000D02*
X110000000Y-86550000D01*
%TO.C,D27*%
X106315000Y-64653000D02*
X106315000Y-60353000D01*
X108315000Y-64653000D02*
X106315000Y-64653000D01*
X108315000Y-60353000D02*
X108315000Y-64653000D01*
%TO.C,D26*%
X112500000Y-49050000D02*
X112500000Y-44750000D01*
X114500000Y-49050000D02*
X112500000Y-49050000D01*
X114500000Y-44750000D02*
X114500000Y-49050000D01*
%TO.C,D25*%
X116560000Y-17410000D02*
X116560000Y-13110000D01*
X118560000Y-17410000D02*
X116560000Y-17410000D01*
X118560000Y-13110000D02*
X118560000Y-17410000D01*
%TO.C,D24*%
X98250000Y-106050000D02*
X98250000Y-101750000D01*
X100250000Y-106050000D02*
X98250000Y-106050000D01*
X100250000Y-101750000D02*
X100250000Y-106050000D01*
%TO.C,D23*%
X88750000Y-86550000D02*
X88750000Y-82250000D01*
X90750000Y-86550000D02*
X88750000Y-86550000D01*
X90750000Y-82250000D02*
X90750000Y-86550000D01*
%TO.C,D22*%
X86630000Y-64653000D02*
X86630000Y-60353000D01*
X88630000Y-64653000D02*
X86630000Y-64653000D01*
X88630000Y-60353000D02*
X88630000Y-64653000D01*
%TO.C,D21*%
X93500000Y-49050000D02*
X93500000Y-44750000D01*
X95500000Y-49050000D02*
X93500000Y-49050000D01*
X95500000Y-44750000D02*
X95500000Y-49050000D01*
%TO.C,D20*%
X97310000Y-17410000D02*
X97310000Y-13110000D01*
X99310000Y-17410000D02*
X97310000Y-17410000D01*
X99310000Y-13110000D02*
X99310000Y-17410000D01*
%TO.C,D19*%
X76550000Y-120500000D02*
X72250000Y-120500000D01*
X76550000Y-118500000D02*
X76550000Y-120500000D01*
X72250000Y-118500000D02*
X76550000Y-118500000D01*
%TO.C,D18*%
X79250000Y-106050000D02*
X79250000Y-101750000D01*
X81250000Y-106050000D02*
X79250000Y-106050000D01*
X81250000Y-101750000D02*
X81250000Y-106050000D01*
%TO.C,D17*%
X69750000Y-86550000D02*
X69750000Y-82250000D01*
X71750000Y-86550000D02*
X69750000Y-86550000D01*
X71750000Y-82250000D02*
X71750000Y-86550000D01*
%TO.C,D16*%
X68342000Y-64780000D02*
X68342000Y-60480000D01*
X70342000Y-64780000D02*
X68342000Y-64780000D01*
X70342000Y-60480000D02*
X70342000Y-64780000D01*
%TO.C,D15*%
X74500000Y-49050000D02*
X74500000Y-44750000D01*
X76500000Y-49050000D02*
X74500000Y-49050000D01*
X76500000Y-44750000D02*
X76500000Y-49050000D01*
%TO.C,D14*%
X78375000Y-17410000D02*
X78375000Y-13110000D01*
X80375000Y-17410000D02*
X78375000Y-17410000D01*
X80375000Y-13110000D02*
X80375000Y-17410000D01*
%TO.C,D13*%
X60250000Y-106050000D02*
X60250000Y-101750000D01*
X62250000Y-106050000D02*
X60250000Y-106050000D01*
X62250000Y-101750000D02*
X62250000Y-106050000D01*
%TO.C,D12*%
X50750000Y-86550000D02*
X50750000Y-82250000D01*
X52750000Y-86550000D02*
X50750000Y-86550000D01*
X52750000Y-82250000D02*
X52750000Y-86550000D01*
%TO.C,D11*%
X49546000Y-64780000D02*
X49546000Y-60480000D01*
X51546000Y-64780000D02*
X49546000Y-64780000D01*
X51546000Y-60480000D02*
X51546000Y-64780000D01*
%TO.C,D10*%
X55500000Y-49050000D02*
X55500000Y-44750000D01*
X57500000Y-49050000D02*
X55500000Y-49050000D01*
X57500000Y-44750000D02*
X57500000Y-49050000D01*
%TO.C,D9*%
X59310000Y-17410000D02*
X59310000Y-13110000D01*
X61310000Y-17410000D02*
X59310000Y-17410000D01*
X61310000Y-13110000D02*
X61310000Y-17410000D01*
%TO.C,D8*%
X52300000Y-120500000D02*
X48000000Y-120500000D01*
X52300000Y-118500000D02*
X52300000Y-120500000D01*
X48000000Y-118500000D02*
X52300000Y-118500000D01*
%TO.C,D7*%
X29250000Y-106050000D02*
X29250000Y-101750000D01*
X31250000Y-106050000D02*
X29250000Y-106050000D01*
X31250000Y-101750000D02*
X31250000Y-106050000D01*
%TO.C,D6*%
X36500000Y-49050000D02*
X36500000Y-44750000D01*
X38500000Y-49050000D02*
X36500000Y-49050000D01*
X38500000Y-44750000D02*
X38500000Y-49050000D01*
%TO.C,D5*%
X28650001Y-120500000D02*
X24350001Y-120500000D01*
X28650001Y-118500000D02*
X28650001Y-120500000D01*
X24350001Y-118500000D02*
X28650001Y-118500000D01*
%TO.C,D4*%
X24500000Y-86550000D02*
X24500000Y-82250000D01*
X26500000Y-86550000D02*
X24500000Y-86550000D01*
X26500000Y-82250000D02*
X26500000Y-86550000D01*
%TO.C,D3*%
X26051000Y-64780000D02*
X26051000Y-60480000D01*
X28051000Y-64780000D02*
X26051000Y-64780000D01*
X28051000Y-60480000D02*
X28051000Y-64780000D01*
%TO.C,D2*%
X17500000Y-49050000D02*
X17500000Y-44750000D01*
X19500000Y-49050000D02*
X17500000Y-49050000D01*
X19500000Y-44750000D02*
X19500000Y-49050000D01*
%TO.C,D1*%
X24876000Y-7864000D02*
X24876000Y-12164000D01*
X22876000Y-7864000D02*
X24876000Y-7864000D01*
X22876000Y-12164000D02*
X22876000Y-7864000D01*
%TO.C,F1*%
X363252936Y-7075000D02*
X364457064Y-7075000D01*
X363252936Y-4355000D02*
X364457064Y-4355000D01*
%TO.C,J2*%
X322386000Y-27880000D02*
X322386000Y-30540000D01*
X312166000Y-27880000D02*
X322386000Y-27880000D01*
X312166000Y-30540000D02*
X322386000Y-30540000D01*
X312166000Y-27880000D02*
X312166000Y-30540000D01*
X310896000Y-27880000D02*
X309566000Y-27880000D01*
X309566000Y-27880000D02*
X309566000Y-29210000D01*
%TO.C,U3*%
X355636751Y-31700880D02*
X354965000Y-32372631D01*
X354965000Y-32372631D02*
X354293249Y-31700880D01*
X361519880Y-25817751D02*
X362191631Y-25146000D01*
X362191631Y-25146000D02*
X361519880Y-24474249D01*
X348410120Y-24474249D02*
X347738369Y-25146000D01*
X347738369Y-25146000D02*
X348410120Y-25817751D01*
X354293249Y-18591120D02*
X354965000Y-17919369D01*
X354965000Y-17919369D02*
X355636751Y-18591120D01*
X355636751Y-18591120D02*
X356584275Y-17643597D01*
D13*
%TO.C,FB1*%
X357011000Y-12031915D02*
X357011000Y-10066085D01*
X358761000Y-12031915D02*
X358761000Y-10066085D01*
D14*
%TO.C,CR1*%
X367131600Y-2159000D02*
X368401600Y-2159000D01*
X368147600Y-1524000D02*
X368147600Y-2794000D01*
X368147600Y-2159000D02*
X367385600Y-1524000D01*
X368147600Y-2159000D02*
X367385600Y-1651000D01*
X368147600Y-2159000D02*
X367385600Y-1778000D01*
X368147600Y-2159000D02*
X367385600Y-1905000D01*
X368147600Y-2159000D02*
X367385600Y-2032000D01*
X368147600Y-2159000D02*
X367385600Y-2794000D01*
X368147600Y-2159000D02*
X367385600Y-2667000D01*
X368147600Y-2159000D02*
X367385600Y-2540000D01*
X368147600Y-2159000D02*
X367385600Y-2413000D01*
X368147600Y-2159000D02*
X367385600Y-2286000D01*
X367385600Y-1524000D02*
X367385600Y-2794000D01*
X366750600Y-3683000D02*
X361213400Y-3683000D01*
X361213400Y-3683000D02*
X361213400Y-3317240D01*
X361213400Y-635000D02*
X366750600Y-635000D01*
X366750600Y-635000D02*
X366750600Y-1000760D01*
X366750600Y-3317240D02*
X366750600Y-3683000D01*
X361213400Y-1000760D02*
X361213400Y-635000D01*
D13*
%TO.C,C6*%
X359292934Y-15455000D02*
X361305066Y-15455000D01*
X359292934Y-13755000D02*
X361305066Y-13755000D01*
%TO.C,C3*%
X364324000Y-18659066D02*
X364324000Y-16646934D01*
X362624000Y-18659066D02*
X362624000Y-16646934D01*
%TO.C,C2*%
X382613800Y-24374066D02*
X382613800Y-22361934D01*
X384313800Y-24374066D02*
X384313800Y-22361934D01*
%TO.C,C5*%
X388606400Y-24374065D02*
X388606400Y-22361933D01*
X386906400Y-24374065D02*
X386906400Y-22361933D01*
%TO.C,C1*%
X356274000Y-7121934D02*
X356274000Y-9134066D01*
X357974000Y-7121934D02*
X357974000Y-9134066D01*
%TO.C,C23*%
X349767934Y-92163000D02*
X351780066Y-92163000D01*
X349767934Y-90463000D02*
X351780066Y-90463000D01*
%TO.C,C21*%
X342909934Y-87845000D02*
X344922066Y-87845000D01*
X342909934Y-86145000D02*
X344922066Y-86145000D01*
%TO.C,C12*%
X31535000Y-24393934D02*
X31535000Y-26406066D01*
X33235000Y-24393934D02*
X33235000Y-26406066D01*
%TO.C,C19*%
X337302066Y-89320000D02*
X335289934Y-89320000D01*
X337302066Y-91020000D02*
X335289934Y-91020000D01*
%TO.C,C16*%
X39839000Y-18532066D02*
X39839000Y-16519934D01*
X38139000Y-18532066D02*
X38139000Y-16519934D01*
%TO.C,C14*%
X34759000Y-12436066D02*
X34759000Y-10423934D01*
X33059000Y-12436066D02*
X33059000Y-10423934D01*
%TO.C,C7*%
X359940211Y-20655293D02*
X361363003Y-22078085D01*
X361142293Y-19453211D02*
X362565085Y-20876003D01*
%TO.C,C4*%
X386460100Y-24374066D02*
X386460100Y-22361934D01*
X384760100Y-24374066D02*
X384760100Y-22361934D01*
D10*
%TO.C,R8*%
X348914000Y-17265000D02*
X348914000Y-17025000D01*
X347554000Y-17265000D02*
X347554000Y-17025000D01*
%TO.C,R7*%
X357423000Y-45586000D02*
X357423000Y-45346000D01*
X356063000Y-45586000D02*
X356063000Y-45346000D01*
%TO.C,R6*%
X355264000Y-45586000D02*
X355264000Y-45346000D01*
X353904000Y-45586000D02*
X353904000Y-45346000D01*
%TO.C,R5*%
X353105000Y-45586000D02*
X353105000Y-45346000D01*
X351745000Y-45586000D02*
X351745000Y-45346000D01*
%TO.C,R4*%
X355899000Y-40633000D02*
X355899000Y-40393000D01*
X354539000Y-40633000D02*
X354539000Y-40393000D01*
%TO.C,R3*%
X353740000Y-40633000D02*
X353740000Y-40393000D01*
X352380000Y-40633000D02*
X352380000Y-40393000D01*
D11*
%TO.C,Y1*%
X363103000Y-18272000D02*
G75*
G03*
X363103000Y-18272000I-100000J0D01*
G01*
D10*
X360803000Y-16022000D02*
X360303000Y-16022000D01*
X360303000Y-18522000D02*
X360803000Y-18522000D01*
%TO.C,C18*%
X342180000Y-83288000D02*
X341080000Y-83288000D01*
X342180000Y-80288000D02*
X341080000Y-80288000D01*
%TO.C,C17*%
X40918000Y-17060000D02*
X40918000Y-15960000D01*
X43918000Y-17060000D02*
X43918000Y-15960000D01*
D13*
%TO.C,R1*%
X353300000Y-7780085D02*
X353300000Y-9745915D01*
X351550000Y-7780085D02*
X351550000Y-9745915D01*
D10*
%TO.C,R20*%
X347671000Y-88598000D02*
X351591000Y-88598000D01*
X347671000Y-85138000D02*
X351591000Y-85138000D01*
%TO.C,R17*%
X35100000Y-22551000D02*
X35100000Y-26471000D01*
X38560000Y-22551000D02*
X38560000Y-26471000D01*
D14*
%TO.C,U1*%
X379752400Y-18746800D02*
X379752400Y-19195457D01*
X379752400Y-25550800D02*
X375948400Y-25550800D01*
X375948400Y-25550800D02*
X375948400Y-23952143D01*
X375948400Y-18746800D02*
X379752400Y-18746800D01*
X379752400Y-20502143D02*
X379752400Y-21495457D01*
X379752400Y-22802143D02*
X379752400Y-23795457D01*
X379752400Y-25102144D02*
X379752400Y-25550800D01*
X375948400Y-20345457D02*
X375948400Y-18746800D01*
X381533400Y-18592800D02*
G75*
G03*
X381533400Y-18592800I-127000J0D01*
G01*
D15*
%TO.C,J1*%
X352200001Y-7270000D02*
G75*
G03*
X352200001Y-7270000I-125000J0D01*
G01*
D13*
X350425001Y-6620000D02*
X350425001Y-6735000D01*
X350425001Y-2890000D02*
X350425001Y-3470000D01*
X359575000Y-6620000D02*
X359575000Y-6735000D01*
X359575000Y-2890000D02*
X359575000Y-3470000D01*
X350425001Y-6735000D02*
X359575000Y-6735000D01*
D15*
%TO.C,U4*%
X335642900Y-23241000D02*
G75*
G03*
X335642900Y-23241000I-125000J0D01*
G01*
D13*
X340350034Y-18886000D02*
X338591966Y-18886000D01*
X340350034Y-23786000D02*
X340350034Y-18886000D01*
X338591966Y-23786000D02*
X340350034Y-23786000D01*
X338591966Y-18886000D02*
X338591966Y-23786000D01*
%TO.C,C27*%
X354972857Y-93321142D02*
X355020476Y-93368761D01*
X355163333Y-93416380D01*
X355258571Y-93416380D01*
X355401428Y-93368761D01*
X355496666Y-93273523D01*
X355544285Y-93178285D01*
X355591904Y-92987809D01*
X355591904Y-92844952D01*
X355544285Y-92654476D01*
X355496666Y-92559238D01*
X355401428Y-92464000D01*
X355258571Y-92416380D01*
X355163333Y-92416380D01*
X355020476Y-92464000D01*
X354972857Y-92511619D01*
X354591904Y-92511619D02*
X354544285Y-92464000D01*
X354449047Y-92416380D01*
X354210952Y-92416380D01*
X354115714Y-92464000D01*
X354068095Y-92511619D01*
X354020476Y-92606857D01*
X354020476Y-92702095D01*
X354068095Y-92844952D01*
X354639523Y-93416380D01*
X354020476Y-93416380D01*
X353687142Y-92416380D02*
X353020476Y-92416380D01*
X353449047Y-93416380D01*
%TO.C,C26*%
X31218142Y-28186142D02*
X31265761Y-28138523D01*
X31313380Y-27995666D01*
X31313380Y-27900428D01*
X31265761Y-27757571D01*
X31170523Y-27662333D01*
X31075285Y-27614714D01*
X30884809Y-27567095D01*
X30741952Y-27567095D01*
X30551476Y-27614714D01*
X30456238Y-27662333D01*
X30361000Y-27757571D01*
X30313380Y-27900428D01*
X30313380Y-27995666D01*
X30361000Y-28138523D01*
X30408619Y-28186142D01*
X30408619Y-28567095D02*
X30361000Y-28614714D01*
X30313380Y-28709952D01*
X30313380Y-28948047D01*
X30361000Y-29043285D01*
X30408619Y-29090904D01*
X30503857Y-29138523D01*
X30599095Y-29138523D01*
X30741952Y-29090904D01*
X31313380Y-28519476D01*
X31313380Y-29138523D01*
X30313380Y-29995666D02*
X30313380Y-29805190D01*
X30361000Y-29709952D01*
X30408619Y-29662333D01*
X30551476Y-29567095D01*
X30741952Y-29519476D01*
X31122904Y-29519476D01*
X31218142Y-29567095D01*
X31265761Y-29614714D01*
X31313380Y-29709952D01*
X31313380Y-29900428D01*
X31265761Y-29995666D01*
X31218142Y-30043285D01*
X31122904Y-30090904D01*
X30884809Y-30090904D01*
X30789571Y-30043285D01*
X30741952Y-29995666D01*
X30694333Y-29900428D01*
X30694333Y-29709952D01*
X30741952Y-29614714D01*
X30789571Y-29567095D01*
X30884809Y-29519476D01*
%TO.C,U2*%
D16*
X356232529Y-8501807D02*
X356621160Y-8501807D01*
X356666881Y-8524667D01*
X356689742Y-8547528D01*
X356712602Y-8593249D01*
X356712602Y-8684692D01*
X356689742Y-8730413D01*
X356666881Y-8753273D01*
X356621160Y-8776134D01*
X356232529Y-8776134D01*
X356278251Y-8981880D02*
X356255390Y-9004740D01*
X356232529Y-9050461D01*
X356232529Y-9164765D01*
X356255390Y-9210486D01*
X356278251Y-9233346D01*
X356323972Y-9256207D01*
X356369693Y-9256207D01*
X356438275Y-9233346D01*
X356712602Y-8959019D01*
X356712602Y-9256207D01*
%TO.C,R22*%
D13*
X356420680Y-14520942D02*
X355944490Y-14187609D01*
X356420680Y-13949514D02*
X355420680Y-13949514D01*
X355420680Y-14330466D01*
X355468300Y-14425704D01*
X355515919Y-14473323D01*
X355611157Y-14520942D01*
X355754014Y-14520942D01*
X355849252Y-14473323D01*
X355896871Y-14425704D01*
X355944490Y-14330466D01*
X355944490Y-13949514D01*
X355515919Y-14901895D02*
X355468300Y-14949514D01*
X355420680Y-15044752D01*
X355420680Y-15282847D01*
X355468300Y-15378085D01*
X355515919Y-15425704D01*
X355611157Y-15473323D01*
X355706395Y-15473323D01*
X355849252Y-15425704D01*
X356420680Y-14854276D01*
X356420680Y-15473323D01*
X355515919Y-15854276D02*
X355468300Y-15901895D01*
X355420680Y-15997133D01*
X355420680Y-16235228D01*
X355468300Y-16330466D01*
X355515919Y-16378085D01*
X355611157Y-16425704D01*
X355706395Y-16425704D01*
X355849252Y-16378085D01*
X356420680Y-15806657D01*
X356420680Y-16425704D01*
%TO.C,R21*%
X354642680Y-14622542D02*
X354166490Y-14289209D01*
X354642680Y-14051114D02*
X353642680Y-14051114D01*
X353642680Y-14432066D01*
X353690300Y-14527304D01*
X353737919Y-14574923D01*
X353833157Y-14622542D01*
X353976014Y-14622542D01*
X354071252Y-14574923D01*
X354118871Y-14527304D01*
X354166490Y-14432066D01*
X354166490Y-14051114D01*
X353737919Y-15003495D02*
X353690300Y-15051114D01*
X353642680Y-15146352D01*
X353642680Y-15384447D01*
X353690300Y-15479685D01*
X353737919Y-15527304D01*
X353833157Y-15574923D01*
X353928395Y-15574923D01*
X354071252Y-15527304D01*
X354642680Y-14955876D01*
X354642680Y-15574923D01*
X354642680Y-16527304D02*
X354642680Y-15955876D01*
X354642680Y-16241590D02*
X353642680Y-16241590D01*
X353785538Y-16146352D01*
X353880776Y-16051114D01*
X353928395Y-15955876D01*
%TO.C,C25*%
X380372857Y-11885142D02*
X380420476Y-11932761D01*
X380563333Y-11980380D01*
X380658571Y-11980380D01*
X380801428Y-11932761D01*
X380896666Y-11837523D01*
X380944285Y-11742285D01*
X380991904Y-11551809D01*
X380991904Y-11408952D01*
X380944285Y-11218476D01*
X380896666Y-11123238D01*
X380801428Y-11028000D01*
X380658571Y-10980380D01*
X380563333Y-10980380D01*
X380420476Y-11028000D01*
X380372857Y-11075619D01*
X379991904Y-11075619D02*
X379944285Y-11028000D01*
X379849047Y-10980380D01*
X379610952Y-10980380D01*
X379515714Y-11028000D01*
X379468095Y-11075619D01*
X379420476Y-11170857D01*
X379420476Y-11266095D01*
X379468095Y-11408952D01*
X380039523Y-11980380D01*
X379420476Y-11980380D01*
X378515714Y-10980380D02*
X378991904Y-10980380D01*
X379039523Y-11456571D01*
X378991904Y-11408952D01*
X378896666Y-11361333D01*
X378658571Y-11361333D01*
X378563333Y-11408952D01*
X378515714Y-11456571D01*
X378468095Y-11551809D01*
X378468095Y-11789904D01*
X378515714Y-11885142D01*
X378563333Y-11932761D01*
X378658571Y-11980380D01*
X378896666Y-11980380D01*
X378991904Y-11932761D01*
X379039523Y-11885142D01*
%TO.C,U6*%
X347471904Y-97115380D02*
X347471904Y-97924904D01*
X347424285Y-98020142D01*
X347376666Y-98067761D01*
X347281428Y-98115380D01*
X347090952Y-98115380D01*
X346995714Y-98067761D01*
X346948095Y-98020142D01*
X346900476Y-97924904D01*
X346900476Y-97115380D01*
X345995714Y-97115380D02*
X346186190Y-97115380D01*
X346281428Y-97163000D01*
X346329047Y-97210619D01*
X346424285Y-97353476D01*
X346471904Y-97543952D01*
X346471904Y-97924904D01*
X346424285Y-98020142D01*
X346376666Y-98067761D01*
X346281428Y-98115380D01*
X346090952Y-98115380D01*
X345995714Y-98067761D01*
X345948095Y-98020142D01*
X345900476Y-97924904D01*
X345900476Y-97686809D01*
X345948095Y-97591571D01*
X345995714Y-97543952D01*
X346090952Y-97496333D01*
X346281428Y-97496333D01*
X346376666Y-97543952D01*
X346424285Y-97591571D01*
X346471904Y-97686809D01*
%TO.C,U5*%
X26415904Y-21423380D02*
X26415904Y-22232904D01*
X26368285Y-22328142D01*
X26320666Y-22375761D01*
X26225428Y-22423380D01*
X26034952Y-22423380D01*
X25939714Y-22375761D01*
X25892095Y-22328142D01*
X25844476Y-22232904D01*
X25844476Y-21423380D01*
X24892095Y-21423380D02*
X25368285Y-21423380D01*
X25415904Y-21899571D01*
X25368285Y-21851952D01*
X25273047Y-21804333D01*
X25034952Y-21804333D01*
X24939714Y-21851952D01*
X24892095Y-21899571D01*
X24844476Y-21994809D01*
X24844476Y-22232904D01*
X24892095Y-22328142D01*
X24939714Y-22375761D01*
X25034952Y-22423380D01*
X25273047Y-22423380D01*
X25368285Y-22375761D01*
X25415904Y-22328142D01*
%TO.C,D108*%
X417690476Y-110452380D02*
X417690476Y-109452380D01*
X417452380Y-109452380D01*
X417309523Y-109500000D01*
X417214285Y-109595238D01*
X417166666Y-109690476D01*
X417119047Y-109880952D01*
X417119047Y-110023809D01*
X417166666Y-110214285D01*
X417214285Y-110309523D01*
X417309523Y-110404761D01*
X417452380Y-110452380D01*
X417690476Y-110452380D01*
X416166666Y-110452380D02*
X416738095Y-110452380D01*
X416452380Y-110452380D02*
X416452380Y-109452380D01*
X416547619Y-109595238D01*
X416642857Y-109690476D01*
X416738095Y-109738095D01*
X415547619Y-109452380D02*
X415452380Y-109452380D01*
X415357142Y-109500000D01*
X415309523Y-109547619D01*
X415261904Y-109642857D01*
X415214285Y-109833333D01*
X415214285Y-110071428D01*
X415261904Y-110261904D01*
X415309523Y-110357142D01*
X415357142Y-110404761D01*
X415452380Y-110452380D01*
X415547619Y-110452380D01*
X415642857Y-110404761D01*
X415690476Y-110357142D01*
X415738095Y-110261904D01*
X415785714Y-110071428D01*
X415785714Y-109833333D01*
X415738095Y-109642857D01*
X415690476Y-109547619D01*
X415642857Y-109500000D01*
X415547619Y-109452380D01*
X414642857Y-109880952D02*
X414738095Y-109833333D01*
X414785714Y-109785714D01*
X414833333Y-109690476D01*
X414833333Y-109642857D01*
X414785714Y-109547619D01*
X414738095Y-109500000D01*
X414642857Y-109452380D01*
X414452380Y-109452380D01*
X414357142Y-109500000D01*
X414309523Y-109547619D01*
X414261904Y-109642857D01*
X414261904Y-109690476D01*
X414309523Y-109785714D01*
X414357142Y-109833333D01*
X414452380Y-109880952D01*
X414642857Y-109880952D01*
X414738095Y-109928571D01*
X414785714Y-109976190D01*
X414833333Y-110071428D01*
X414833333Y-110261904D01*
X414785714Y-110357142D01*
X414738095Y-110404761D01*
X414642857Y-110452380D01*
X414452380Y-110452380D01*
X414357142Y-110404761D01*
X414309523Y-110357142D01*
X414261904Y-110261904D01*
X414261904Y-110071428D01*
X414309523Y-109976190D01*
X414357142Y-109928571D01*
X414452380Y-109880952D01*
%TO.C,D107*%
X417940476Y-72202380D02*
X417940476Y-71202380D01*
X417702380Y-71202380D01*
X417559523Y-71250000D01*
X417464285Y-71345238D01*
X417416666Y-71440476D01*
X417369047Y-71630952D01*
X417369047Y-71773809D01*
X417416666Y-71964285D01*
X417464285Y-72059523D01*
X417559523Y-72154761D01*
X417702380Y-72202380D01*
X417940476Y-72202380D01*
X416416666Y-72202380D02*
X416988095Y-72202380D01*
X416702380Y-72202380D02*
X416702380Y-71202380D01*
X416797619Y-71345238D01*
X416892857Y-71440476D01*
X416988095Y-71488095D01*
X415797619Y-71202380D02*
X415702380Y-71202380D01*
X415607142Y-71250000D01*
X415559523Y-71297619D01*
X415511904Y-71392857D01*
X415464285Y-71583333D01*
X415464285Y-71821428D01*
X415511904Y-72011904D01*
X415559523Y-72107142D01*
X415607142Y-72154761D01*
X415702380Y-72202380D01*
X415797619Y-72202380D01*
X415892857Y-72154761D01*
X415940476Y-72107142D01*
X415988095Y-72011904D01*
X416035714Y-71821428D01*
X416035714Y-71583333D01*
X415988095Y-71392857D01*
X415940476Y-71297619D01*
X415892857Y-71250000D01*
X415797619Y-71202380D01*
X415130952Y-71202380D02*
X414464285Y-71202380D01*
X414892857Y-72202380D01*
%TO.C,D106*%
X430702380Y-44809523D02*
X429702380Y-44809523D01*
X429702380Y-45047619D01*
X429750000Y-45190476D01*
X429845238Y-45285714D01*
X429940476Y-45333333D01*
X430130952Y-45380952D01*
X430273809Y-45380952D01*
X430464285Y-45333333D01*
X430559523Y-45285714D01*
X430654761Y-45190476D01*
X430702380Y-45047619D01*
X430702380Y-44809523D01*
X430702380Y-46333333D02*
X430702380Y-45761904D01*
X430702380Y-46047619D02*
X429702380Y-46047619D01*
X429845238Y-45952380D01*
X429940476Y-45857142D01*
X429988095Y-45761904D01*
X429702380Y-46952380D02*
X429702380Y-47047619D01*
X429750000Y-47142857D01*
X429797619Y-47190476D01*
X429892857Y-47238095D01*
X430083333Y-47285714D01*
X430321428Y-47285714D01*
X430511904Y-47238095D01*
X430607142Y-47190476D01*
X430654761Y-47142857D01*
X430702380Y-47047619D01*
X430702380Y-46952380D01*
X430654761Y-46857142D01*
X430607142Y-46809523D01*
X430511904Y-46761904D01*
X430321428Y-46714285D01*
X430083333Y-46714285D01*
X429892857Y-46761904D01*
X429797619Y-46809523D01*
X429750000Y-46857142D01*
X429702380Y-46952380D01*
X429702380Y-48142857D02*
X429702380Y-47952380D01*
X429750000Y-47857142D01*
X429797619Y-47809523D01*
X429940476Y-47714285D01*
X430130952Y-47666666D01*
X430511904Y-47666666D01*
X430607142Y-47714285D01*
X430654761Y-47761904D01*
X430702380Y-47857142D01*
X430702380Y-48047619D01*
X430654761Y-48142857D01*
X430607142Y-48190476D01*
X430511904Y-48238095D01*
X430273809Y-48238095D01*
X430178571Y-48190476D01*
X430130952Y-48142857D01*
X430083333Y-48047619D01*
X430083333Y-47857142D01*
X430130952Y-47761904D01*
X430178571Y-47714285D01*
X430273809Y-47666666D01*
%TO.C,D105*%
X410490476Y-123052380D02*
X410490476Y-122052380D01*
X410252380Y-122052380D01*
X410109523Y-122100000D01*
X410014285Y-122195238D01*
X409966666Y-122290476D01*
X409919047Y-122480952D01*
X409919047Y-122623809D01*
X409966666Y-122814285D01*
X410014285Y-122909523D01*
X410109523Y-123004761D01*
X410252380Y-123052380D01*
X410490476Y-123052380D01*
X408966666Y-123052380D02*
X409538095Y-123052380D01*
X409252380Y-123052380D02*
X409252380Y-122052380D01*
X409347619Y-122195238D01*
X409442857Y-122290476D01*
X409538095Y-122338095D01*
X408347619Y-122052380D02*
X408252380Y-122052380D01*
X408157142Y-122100000D01*
X408109523Y-122147619D01*
X408061904Y-122242857D01*
X408014285Y-122433333D01*
X408014285Y-122671428D01*
X408061904Y-122861904D01*
X408109523Y-122957142D01*
X408157142Y-123004761D01*
X408252380Y-123052380D01*
X408347619Y-123052380D01*
X408442857Y-123004761D01*
X408490476Y-122957142D01*
X408538095Y-122861904D01*
X408585714Y-122671428D01*
X408585714Y-122433333D01*
X408538095Y-122242857D01*
X408490476Y-122147619D01*
X408442857Y-122100000D01*
X408347619Y-122052380D01*
X407109523Y-122052380D02*
X407585714Y-122052380D01*
X407633333Y-122528571D01*
X407585714Y-122480952D01*
X407490476Y-122433333D01*
X407252380Y-122433333D01*
X407157142Y-122480952D01*
X407109523Y-122528571D01*
X407061904Y-122623809D01*
X407061904Y-122861904D01*
X407109523Y-122957142D01*
X407157142Y-123004761D01*
X407252380Y-123052380D01*
X407490476Y-123052380D01*
X407585714Y-123004761D01*
X407633333Y-122957142D01*
%TO.C,D104*%
X411702380Y-101809523D02*
X410702380Y-101809523D01*
X410702380Y-102047619D01*
X410750000Y-102190476D01*
X410845238Y-102285714D01*
X410940476Y-102333333D01*
X411130952Y-102380952D01*
X411273809Y-102380952D01*
X411464285Y-102333333D01*
X411559523Y-102285714D01*
X411654761Y-102190476D01*
X411702380Y-102047619D01*
X411702380Y-101809523D01*
X411702380Y-103333333D02*
X411702380Y-102761904D01*
X411702380Y-103047619D02*
X410702380Y-103047619D01*
X410845238Y-102952380D01*
X410940476Y-102857142D01*
X410988095Y-102761904D01*
X410702380Y-103952380D02*
X410702380Y-104047619D01*
X410750000Y-104142857D01*
X410797619Y-104190476D01*
X410892857Y-104238095D01*
X411083333Y-104285714D01*
X411321428Y-104285714D01*
X411511904Y-104238095D01*
X411607142Y-104190476D01*
X411654761Y-104142857D01*
X411702380Y-104047619D01*
X411702380Y-103952380D01*
X411654761Y-103857142D01*
X411607142Y-103809523D01*
X411511904Y-103761904D01*
X411321428Y-103714285D01*
X411083333Y-103714285D01*
X410892857Y-103761904D01*
X410797619Y-103809523D01*
X410750000Y-103857142D01*
X410702380Y-103952380D01*
X411035714Y-105142857D02*
X411702380Y-105142857D01*
X410654761Y-104904761D02*
X411369047Y-104666666D01*
X411369047Y-105285714D01*
%TO.C,D103*%
X411202380Y-82309523D02*
X410202380Y-82309523D01*
X410202380Y-82547619D01*
X410250000Y-82690476D01*
X410345238Y-82785714D01*
X410440476Y-82833333D01*
X410630952Y-82880952D01*
X410773809Y-82880952D01*
X410964285Y-82833333D01*
X411059523Y-82785714D01*
X411154761Y-82690476D01*
X411202380Y-82547619D01*
X411202380Y-82309523D01*
X411202380Y-83833333D02*
X411202380Y-83261904D01*
X411202380Y-83547619D02*
X410202380Y-83547619D01*
X410345238Y-83452380D01*
X410440476Y-83357142D01*
X410488095Y-83261904D01*
X410202380Y-84452380D02*
X410202380Y-84547619D01*
X410250000Y-84642857D01*
X410297619Y-84690476D01*
X410392857Y-84738095D01*
X410583333Y-84785714D01*
X410821428Y-84785714D01*
X411011904Y-84738095D01*
X411107142Y-84690476D01*
X411154761Y-84642857D01*
X411202380Y-84547619D01*
X411202380Y-84452380D01*
X411154761Y-84357142D01*
X411107142Y-84309523D01*
X411011904Y-84261904D01*
X410821428Y-84214285D01*
X410583333Y-84214285D01*
X410392857Y-84261904D01*
X410297619Y-84309523D01*
X410250000Y-84357142D01*
X410202380Y-84452380D01*
X410202380Y-85119047D02*
X410202380Y-85738095D01*
X410583333Y-85404761D01*
X410583333Y-85547619D01*
X410630952Y-85642857D01*
X410678571Y-85690476D01*
X410773809Y-85738095D01*
X411011904Y-85738095D01*
X411107142Y-85690476D01*
X411154761Y-85642857D01*
X411202380Y-85547619D01*
X411202380Y-85261904D01*
X411154761Y-85166666D01*
X411107142Y-85119047D01*
%TO.C,D102*%
X411202380Y-63559523D02*
X410202380Y-63559523D01*
X410202380Y-63797619D01*
X410250000Y-63940476D01*
X410345238Y-64035714D01*
X410440476Y-64083333D01*
X410630952Y-64130952D01*
X410773809Y-64130952D01*
X410964285Y-64083333D01*
X411059523Y-64035714D01*
X411154761Y-63940476D01*
X411202380Y-63797619D01*
X411202380Y-63559523D01*
X411202380Y-65083333D02*
X411202380Y-64511904D01*
X411202380Y-64797619D02*
X410202380Y-64797619D01*
X410345238Y-64702380D01*
X410440476Y-64607142D01*
X410488095Y-64511904D01*
X410202380Y-65702380D02*
X410202380Y-65797619D01*
X410250000Y-65892857D01*
X410297619Y-65940476D01*
X410392857Y-65988095D01*
X410583333Y-66035714D01*
X410821428Y-66035714D01*
X411011904Y-65988095D01*
X411107142Y-65940476D01*
X411154761Y-65892857D01*
X411202380Y-65797619D01*
X411202380Y-65702380D01*
X411154761Y-65607142D01*
X411107142Y-65559523D01*
X411011904Y-65511904D01*
X410821428Y-65464285D01*
X410583333Y-65464285D01*
X410392857Y-65511904D01*
X410297619Y-65559523D01*
X410250000Y-65607142D01*
X410202380Y-65702380D01*
X410297619Y-66416666D02*
X410250000Y-66464285D01*
X410202380Y-66559523D01*
X410202380Y-66797619D01*
X410250000Y-66892857D01*
X410297619Y-66940476D01*
X410392857Y-66988095D01*
X410488095Y-66988095D01*
X410630952Y-66940476D01*
X411202380Y-66369047D01*
X411202380Y-66988095D01*
%TO.C,D101*%
X411414880Y-44809523D02*
X410414880Y-44809523D01*
X410414880Y-45047619D01*
X410462500Y-45190476D01*
X410557738Y-45285714D01*
X410652976Y-45333333D01*
X410843452Y-45380952D01*
X410986309Y-45380952D01*
X411176785Y-45333333D01*
X411272023Y-45285714D01*
X411367261Y-45190476D01*
X411414880Y-45047619D01*
X411414880Y-44809523D01*
X411414880Y-46333333D02*
X411414880Y-45761904D01*
X411414880Y-46047619D02*
X410414880Y-46047619D01*
X410557738Y-45952380D01*
X410652976Y-45857142D01*
X410700595Y-45761904D01*
X410414880Y-46952380D02*
X410414880Y-47047619D01*
X410462500Y-47142857D01*
X410510119Y-47190476D01*
X410605357Y-47238095D01*
X410795833Y-47285714D01*
X411033928Y-47285714D01*
X411224404Y-47238095D01*
X411319642Y-47190476D01*
X411367261Y-47142857D01*
X411414880Y-47047619D01*
X411414880Y-46952380D01*
X411367261Y-46857142D01*
X411319642Y-46809523D01*
X411224404Y-46761904D01*
X411033928Y-46714285D01*
X410795833Y-46714285D01*
X410605357Y-46761904D01*
X410510119Y-46809523D01*
X410462500Y-46857142D01*
X410414880Y-46952380D01*
X411414880Y-48238095D02*
X411414880Y-47666666D01*
X411414880Y-47952380D02*
X410414880Y-47952380D01*
X410557738Y-47857142D01*
X410652976Y-47761904D01*
X410700595Y-47666666D01*
%TO.C,D100*%
X411739880Y-15709523D02*
X410739880Y-15709523D01*
X410739880Y-15947619D01*
X410787500Y-16090476D01*
X410882738Y-16185714D01*
X410977976Y-16233333D01*
X411168452Y-16280952D01*
X411311309Y-16280952D01*
X411501785Y-16233333D01*
X411597023Y-16185714D01*
X411692261Y-16090476D01*
X411739880Y-15947619D01*
X411739880Y-15709523D01*
X411739880Y-17233333D02*
X411739880Y-16661904D01*
X411739880Y-16947619D02*
X410739880Y-16947619D01*
X410882738Y-16852380D01*
X410977976Y-16757142D01*
X411025595Y-16661904D01*
X410739880Y-17852380D02*
X410739880Y-17947619D01*
X410787500Y-18042857D01*
X410835119Y-18090476D01*
X410930357Y-18138095D01*
X411120833Y-18185714D01*
X411358928Y-18185714D01*
X411549404Y-18138095D01*
X411644642Y-18090476D01*
X411692261Y-18042857D01*
X411739880Y-17947619D01*
X411739880Y-17852380D01*
X411692261Y-17757142D01*
X411644642Y-17709523D01*
X411549404Y-17661904D01*
X411358928Y-17614285D01*
X411120833Y-17614285D01*
X410930357Y-17661904D01*
X410835119Y-17709523D01*
X410787500Y-17757142D01*
X410739880Y-17852380D01*
X410739880Y-18804761D02*
X410739880Y-18900000D01*
X410787500Y-18995238D01*
X410835119Y-19042857D01*
X410930357Y-19090476D01*
X411120833Y-19138095D01*
X411358928Y-19138095D01*
X411549404Y-19090476D01*
X411644642Y-19042857D01*
X411692261Y-18995238D01*
X411739880Y-18900000D01*
X411739880Y-18804761D01*
X411692261Y-18709523D01*
X411644642Y-18661904D01*
X411549404Y-18614285D01*
X411358928Y-18566666D01*
X411120833Y-18566666D01*
X410930357Y-18614285D01*
X410835119Y-18661904D01*
X410787500Y-18709523D01*
X410739880Y-18804761D01*
%TO.C,D99*%
X395517380Y-101020714D02*
X394517380Y-101020714D01*
X394517380Y-101258809D01*
X394565000Y-101401666D01*
X394660238Y-101496904D01*
X394755476Y-101544523D01*
X394945952Y-101592142D01*
X395088809Y-101592142D01*
X395279285Y-101544523D01*
X395374523Y-101496904D01*
X395469761Y-101401666D01*
X395517380Y-101258809D01*
X395517380Y-101020714D01*
X395517380Y-102068333D02*
X395517380Y-102258809D01*
X395469761Y-102354047D01*
X395422142Y-102401666D01*
X395279285Y-102496904D01*
X395088809Y-102544523D01*
X394707857Y-102544523D01*
X394612619Y-102496904D01*
X394565000Y-102449285D01*
X394517380Y-102354047D01*
X394517380Y-102163571D01*
X394565000Y-102068333D01*
X394612619Y-102020714D01*
X394707857Y-101973095D01*
X394945952Y-101973095D01*
X395041190Y-102020714D01*
X395088809Y-102068333D01*
X395136428Y-102163571D01*
X395136428Y-102354047D01*
X395088809Y-102449285D01*
X395041190Y-102496904D01*
X394945952Y-102544523D01*
X395517380Y-103020714D02*
X395517380Y-103211190D01*
X395469761Y-103306428D01*
X395422142Y-103354047D01*
X395279285Y-103449285D01*
X395088809Y-103496904D01*
X394707857Y-103496904D01*
X394612619Y-103449285D01*
X394565000Y-103401666D01*
X394517380Y-103306428D01*
X394517380Y-103115952D01*
X394565000Y-103020714D01*
X394612619Y-102973095D01*
X394707857Y-102925476D01*
X394945952Y-102925476D01*
X395041190Y-102973095D01*
X395088809Y-103020714D01*
X395136428Y-103115952D01*
X395136428Y-103306428D01*
X395088809Y-103401666D01*
X395041190Y-103449285D01*
X394945952Y-103496904D01*
%TO.C,D98*%
X392239880Y-82785714D02*
X391239880Y-82785714D01*
X391239880Y-83023809D01*
X391287500Y-83166666D01*
X391382738Y-83261904D01*
X391477976Y-83309523D01*
X391668452Y-83357142D01*
X391811309Y-83357142D01*
X392001785Y-83309523D01*
X392097023Y-83261904D01*
X392192261Y-83166666D01*
X392239880Y-83023809D01*
X392239880Y-82785714D01*
X392239880Y-83833333D02*
X392239880Y-84023809D01*
X392192261Y-84119047D01*
X392144642Y-84166666D01*
X392001785Y-84261904D01*
X391811309Y-84309523D01*
X391430357Y-84309523D01*
X391335119Y-84261904D01*
X391287500Y-84214285D01*
X391239880Y-84119047D01*
X391239880Y-83928571D01*
X391287500Y-83833333D01*
X391335119Y-83785714D01*
X391430357Y-83738095D01*
X391668452Y-83738095D01*
X391763690Y-83785714D01*
X391811309Y-83833333D01*
X391858928Y-83928571D01*
X391858928Y-84119047D01*
X391811309Y-84214285D01*
X391763690Y-84261904D01*
X391668452Y-84309523D01*
X391668452Y-84880952D02*
X391620833Y-84785714D01*
X391573214Y-84738095D01*
X391477976Y-84690476D01*
X391430357Y-84690476D01*
X391335119Y-84738095D01*
X391287500Y-84785714D01*
X391239880Y-84880952D01*
X391239880Y-85071428D01*
X391287500Y-85166666D01*
X391335119Y-85214285D01*
X391430357Y-85261904D01*
X391477976Y-85261904D01*
X391573214Y-85214285D01*
X391620833Y-85166666D01*
X391668452Y-85071428D01*
X391668452Y-84880952D01*
X391716071Y-84785714D01*
X391763690Y-84738095D01*
X391858928Y-84690476D01*
X392049404Y-84690476D01*
X392144642Y-84738095D01*
X392192261Y-84785714D01*
X392239880Y-84880952D01*
X392239880Y-85071428D01*
X392192261Y-85166666D01*
X392144642Y-85214285D01*
X392049404Y-85261904D01*
X391858928Y-85261904D01*
X391763690Y-85214285D01*
X391716071Y-85166666D01*
X391668452Y-85071428D01*
%TO.C,D97*%
X392452380Y-64035714D02*
X391452380Y-64035714D01*
X391452380Y-64273809D01*
X391500000Y-64416666D01*
X391595238Y-64511904D01*
X391690476Y-64559523D01*
X391880952Y-64607142D01*
X392023809Y-64607142D01*
X392214285Y-64559523D01*
X392309523Y-64511904D01*
X392404761Y-64416666D01*
X392452380Y-64273809D01*
X392452380Y-64035714D01*
X392452380Y-65083333D02*
X392452380Y-65273809D01*
X392404761Y-65369047D01*
X392357142Y-65416666D01*
X392214285Y-65511904D01*
X392023809Y-65559523D01*
X391642857Y-65559523D01*
X391547619Y-65511904D01*
X391500000Y-65464285D01*
X391452380Y-65369047D01*
X391452380Y-65178571D01*
X391500000Y-65083333D01*
X391547619Y-65035714D01*
X391642857Y-64988095D01*
X391880952Y-64988095D01*
X391976190Y-65035714D01*
X392023809Y-65083333D01*
X392071428Y-65178571D01*
X392071428Y-65369047D01*
X392023809Y-65464285D01*
X391976190Y-65511904D01*
X391880952Y-65559523D01*
X391452380Y-65892857D02*
X391452380Y-66559523D01*
X392452380Y-66130952D01*
%TO.C,D96*%
X392342380Y-45267714D02*
X391342380Y-45267714D01*
X391342380Y-45505809D01*
X391390000Y-45648666D01*
X391485238Y-45743904D01*
X391580476Y-45791523D01*
X391770952Y-45839142D01*
X391913809Y-45839142D01*
X392104285Y-45791523D01*
X392199523Y-45743904D01*
X392294761Y-45648666D01*
X392342380Y-45505809D01*
X392342380Y-45267714D01*
X392342380Y-46315333D02*
X392342380Y-46505809D01*
X392294761Y-46601047D01*
X392247142Y-46648666D01*
X392104285Y-46743904D01*
X391913809Y-46791523D01*
X391532857Y-46791523D01*
X391437619Y-46743904D01*
X391390000Y-46696285D01*
X391342380Y-46601047D01*
X391342380Y-46410571D01*
X391390000Y-46315333D01*
X391437619Y-46267714D01*
X391532857Y-46220095D01*
X391770952Y-46220095D01*
X391866190Y-46267714D01*
X391913809Y-46315333D01*
X391961428Y-46410571D01*
X391961428Y-46601047D01*
X391913809Y-46696285D01*
X391866190Y-46743904D01*
X391770952Y-46791523D01*
X391342380Y-47648666D02*
X391342380Y-47458190D01*
X391390000Y-47362952D01*
X391437619Y-47315333D01*
X391580476Y-47220095D01*
X391770952Y-47172476D01*
X392151904Y-47172476D01*
X392247142Y-47220095D01*
X392294761Y-47267714D01*
X392342380Y-47362952D01*
X392342380Y-47553428D01*
X392294761Y-47648666D01*
X392247142Y-47696285D01*
X392151904Y-47743904D01*
X391913809Y-47743904D01*
X391818571Y-47696285D01*
X391770952Y-47648666D01*
X391723333Y-47553428D01*
X391723333Y-47362952D01*
X391770952Y-47267714D01*
X391818571Y-47220095D01*
X391913809Y-47172476D01*
%TO.C,D95*%
X392202380Y-16185714D02*
X391202380Y-16185714D01*
X391202380Y-16423809D01*
X391250000Y-16566666D01*
X391345238Y-16661904D01*
X391440476Y-16709523D01*
X391630952Y-16757142D01*
X391773809Y-16757142D01*
X391964285Y-16709523D01*
X392059523Y-16661904D01*
X392154761Y-16566666D01*
X392202380Y-16423809D01*
X392202380Y-16185714D01*
X392202380Y-17233333D02*
X392202380Y-17423809D01*
X392154761Y-17519047D01*
X392107142Y-17566666D01*
X391964285Y-17661904D01*
X391773809Y-17709523D01*
X391392857Y-17709523D01*
X391297619Y-17661904D01*
X391250000Y-17614285D01*
X391202380Y-17519047D01*
X391202380Y-17328571D01*
X391250000Y-17233333D01*
X391297619Y-17185714D01*
X391392857Y-17138095D01*
X391630952Y-17138095D01*
X391726190Y-17185714D01*
X391773809Y-17233333D01*
X391821428Y-17328571D01*
X391821428Y-17519047D01*
X391773809Y-17614285D01*
X391726190Y-17661904D01*
X391630952Y-17709523D01*
X391202380Y-18614285D02*
X391202380Y-18138095D01*
X391678571Y-18090476D01*
X391630952Y-18138095D01*
X391583333Y-18233333D01*
X391583333Y-18471428D01*
X391630952Y-18566666D01*
X391678571Y-18614285D01*
X391773809Y-18661904D01*
X392011904Y-18661904D01*
X392107142Y-18614285D01*
X392154761Y-18566666D01*
X392202380Y-18471428D01*
X392202380Y-18233333D01*
X392154761Y-18138095D01*
X392107142Y-18090476D01*
%TO.C,D94*%
X420964285Y-7151380D02*
X420964285Y-6151380D01*
X420726190Y-6151380D01*
X420583333Y-6199000D01*
X420488095Y-6294238D01*
X420440476Y-6389476D01*
X420392857Y-6579952D01*
X420392857Y-6722809D01*
X420440476Y-6913285D01*
X420488095Y-7008523D01*
X420583333Y-7103761D01*
X420726190Y-7151380D01*
X420964285Y-7151380D01*
X419916666Y-7151380D02*
X419726190Y-7151380D01*
X419630952Y-7103761D01*
X419583333Y-7056142D01*
X419488095Y-6913285D01*
X419440476Y-6722809D01*
X419440476Y-6341857D01*
X419488095Y-6246619D01*
X419535714Y-6199000D01*
X419630952Y-6151380D01*
X419821428Y-6151380D01*
X419916666Y-6199000D01*
X419964285Y-6246619D01*
X420011904Y-6341857D01*
X420011904Y-6579952D01*
X419964285Y-6675190D01*
X419916666Y-6722809D01*
X419821428Y-6770428D01*
X419630952Y-6770428D01*
X419535714Y-6722809D01*
X419488095Y-6675190D01*
X419440476Y-6579952D01*
X418583333Y-6484714D02*
X418583333Y-7151380D01*
X418821428Y-6103761D02*
X419059523Y-6818047D01*
X418440476Y-6818047D01*
%TO.C,D93*%
X386786285Y-114657380D02*
X386786285Y-113657380D01*
X386548190Y-113657380D01*
X386405333Y-113705000D01*
X386310095Y-113800238D01*
X386262476Y-113895476D01*
X386214857Y-114085952D01*
X386214857Y-114228809D01*
X386262476Y-114419285D01*
X386310095Y-114514523D01*
X386405333Y-114609761D01*
X386548190Y-114657380D01*
X386786285Y-114657380D01*
X385738666Y-114657380D02*
X385548190Y-114657380D01*
X385452952Y-114609761D01*
X385405333Y-114562142D01*
X385310095Y-114419285D01*
X385262476Y-114228809D01*
X385262476Y-113847857D01*
X385310095Y-113752619D01*
X385357714Y-113705000D01*
X385452952Y-113657380D01*
X385643428Y-113657380D01*
X385738666Y-113705000D01*
X385786285Y-113752619D01*
X385833904Y-113847857D01*
X385833904Y-114085952D01*
X385786285Y-114181190D01*
X385738666Y-114228809D01*
X385643428Y-114276428D01*
X385452952Y-114276428D01*
X385357714Y-114228809D01*
X385310095Y-114181190D01*
X385262476Y-114085952D01*
X384929142Y-113657380D02*
X384310095Y-113657380D01*
X384643428Y-114038333D01*
X384500571Y-114038333D01*
X384405333Y-114085952D01*
X384357714Y-114133571D01*
X384310095Y-114228809D01*
X384310095Y-114466904D01*
X384357714Y-114562142D01*
X384405333Y-114609761D01*
X384500571Y-114657380D01*
X384786285Y-114657380D01*
X384881523Y-114609761D01*
X384929142Y-114562142D01*
%TO.C,D92*%
X373202380Y-101274714D02*
X372202380Y-101274714D01*
X372202380Y-101512809D01*
X372250000Y-101655666D01*
X372345238Y-101750904D01*
X372440476Y-101798523D01*
X372630952Y-101846142D01*
X372773809Y-101846142D01*
X372964285Y-101798523D01*
X373059523Y-101750904D01*
X373154761Y-101655666D01*
X373202380Y-101512809D01*
X373202380Y-101274714D01*
X373202380Y-102322333D02*
X373202380Y-102512809D01*
X373154761Y-102608047D01*
X373107142Y-102655666D01*
X372964285Y-102750904D01*
X372773809Y-102798523D01*
X372392857Y-102798523D01*
X372297619Y-102750904D01*
X372250000Y-102703285D01*
X372202380Y-102608047D01*
X372202380Y-102417571D01*
X372250000Y-102322333D01*
X372297619Y-102274714D01*
X372392857Y-102227095D01*
X372630952Y-102227095D01*
X372726190Y-102274714D01*
X372773809Y-102322333D01*
X372821428Y-102417571D01*
X372821428Y-102608047D01*
X372773809Y-102703285D01*
X372726190Y-102750904D01*
X372630952Y-102798523D01*
X372297619Y-103179476D02*
X372250000Y-103227095D01*
X372202380Y-103322333D01*
X372202380Y-103560428D01*
X372250000Y-103655666D01*
X372297619Y-103703285D01*
X372392857Y-103750904D01*
X372488095Y-103750904D01*
X372630952Y-103703285D01*
X373202380Y-103131857D01*
X373202380Y-103750904D01*
%TO.C,D91*%
X373202380Y-82785714D02*
X372202380Y-82785714D01*
X372202380Y-83023809D01*
X372250000Y-83166666D01*
X372345238Y-83261904D01*
X372440476Y-83309523D01*
X372630952Y-83357142D01*
X372773809Y-83357142D01*
X372964285Y-83309523D01*
X373059523Y-83261904D01*
X373154761Y-83166666D01*
X373202380Y-83023809D01*
X373202380Y-82785714D01*
X373202380Y-83833333D02*
X373202380Y-84023809D01*
X373154761Y-84119047D01*
X373107142Y-84166666D01*
X372964285Y-84261904D01*
X372773809Y-84309523D01*
X372392857Y-84309523D01*
X372297619Y-84261904D01*
X372250000Y-84214285D01*
X372202380Y-84119047D01*
X372202380Y-83928571D01*
X372250000Y-83833333D01*
X372297619Y-83785714D01*
X372392857Y-83738095D01*
X372630952Y-83738095D01*
X372726190Y-83785714D01*
X372773809Y-83833333D01*
X372821428Y-83928571D01*
X372821428Y-84119047D01*
X372773809Y-84214285D01*
X372726190Y-84261904D01*
X372630952Y-84309523D01*
X373202380Y-85261904D02*
X373202380Y-84690476D01*
X373202380Y-84976190D02*
X372202380Y-84976190D01*
X372345238Y-84880952D01*
X372440476Y-84785714D01*
X372488095Y-84690476D01*
%TO.C,D90*%
X373202380Y-64035714D02*
X372202380Y-64035714D01*
X372202380Y-64273809D01*
X372250000Y-64416666D01*
X372345238Y-64511904D01*
X372440476Y-64559523D01*
X372630952Y-64607142D01*
X372773809Y-64607142D01*
X372964285Y-64559523D01*
X373059523Y-64511904D01*
X373154761Y-64416666D01*
X373202380Y-64273809D01*
X373202380Y-64035714D01*
X373202380Y-65083333D02*
X373202380Y-65273809D01*
X373154761Y-65369047D01*
X373107142Y-65416666D01*
X372964285Y-65511904D01*
X372773809Y-65559523D01*
X372392857Y-65559523D01*
X372297619Y-65511904D01*
X372250000Y-65464285D01*
X372202380Y-65369047D01*
X372202380Y-65178571D01*
X372250000Y-65083333D01*
X372297619Y-65035714D01*
X372392857Y-64988095D01*
X372630952Y-64988095D01*
X372726190Y-65035714D01*
X372773809Y-65083333D01*
X372821428Y-65178571D01*
X372821428Y-65369047D01*
X372773809Y-65464285D01*
X372726190Y-65511904D01*
X372630952Y-65559523D01*
X372202380Y-66178571D02*
X372202380Y-66273809D01*
X372250000Y-66369047D01*
X372297619Y-66416666D01*
X372392857Y-66464285D01*
X372583333Y-66511904D01*
X372821428Y-66511904D01*
X373011904Y-66464285D01*
X373107142Y-66416666D01*
X373154761Y-66369047D01*
X373202380Y-66273809D01*
X373202380Y-66178571D01*
X373154761Y-66083333D01*
X373107142Y-66035714D01*
X373011904Y-65988095D01*
X372821428Y-65940476D01*
X372583333Y-65940476D01*
X372392857Y-65988095D01*
X372297619Y-66035714D01*
X372250000Y-66083333D01*
X372202380Y-66178571D01*
%TO.C,D89*%
X373202380Y-45285714D02*
X372202380Y-45285714D01*
X372202380Y-45523809D01*
X372250000Y-45666666D01*
X372345238Y-45761904D01*
X372440476Y-45809523D01*
X372630952Y-45857142D01*
X372773809Y-45857142D01*
X372964285Y-45809523D01*
X373059523Y-45761904D01*
X373154761Y-45666666D01*
X373202380Y-45523809D01*
X373202380Y-45285714D01*
X372630952Y-46428571D02*
X372583333Y-46333333D01*
X372535714Y-46285714D01*
X372440476Y-46238095D01*
X372392857Y-46238095D01*
X372297619Y-46285714D01*
X372250000Y-46333333D01*
X372202380Y-46428571D01*
X372202380Y-46619047D01*
X372250000Y-46714285D01*
X372297619Y-46761904D01*
X372392857Y-46809523D01*
X372440476Y-46809523D01*
X372535714Y-46761904D01*
X372583333Y-46714285D01*
X372630952Y-46619047D01*
X372630952Y-46428571D01*
X372678571Y-46333333D01*
X372726190Y-46285714D01*
X372821428Y-46238095D01*
X373011904Y-46238095D01*
X373107142Y-46285714D01*
X373154761Y-46333333D01*
X373202380Y-46428571D01*
X373202380Y-46619047D01*
X373154761Y-46714285D01*
X373107142Y-46761904D01*
X373011904Y-46809523D01*
X372821428Y-46809523D01*
X372726190Y-46761904D01*
X372678571Y-46714285D01*
X372630952Y-46619047D01*
X373202380Y-47285714D02*
X373202380Y-47476190D01*
X373154761Y-47571428D01*
X373107142Y-47619047D01*
X372964285Y-47714285D01*
X372773809Y-47761904D01*
X372392857Y-47761904D01*
X372297619Y-47714285D01*
X372250000Y-47666666D01*
X372202380Y-47571428D01*
X372202380Y-47380952D01*
X372250000Y-47285714D01*
X372297619Y-47238095D01*
X372392857Y-47190476D01*
X372630952Y-47190476D01*
X372726190Y-47238095D01*
X372773809Y-47285714D01*
X372821428Y-47380952D01*
X372821428Y-47571428D01*
X372773809Y-47666666D01*
X372726190Y-47714285D01*
X372630952Y-47761904D01*
%TO.C,D88*%
X376626380Y-10342714D02*
X375626380Y-10342714D01*
X375626380Y-10580809D01*
X375674000Y-10723666D01*
X375769238Y-10818904D01*
X375864476Y-10866523D01*
X376054952Y-10914142D01*
X376197809Y-10914142D01*
X376388285Y-10866523D01*
X376483523Y-10818904D01*
X376578761Y-10723666D01*
X376626380Y-10580809D01*
X376626380Y-10342714D01*
X376054952Y-11485571D02*
X376007333Y-11390333D01*
X375959714Y-11342714D01*
X375864476Y-11295095D01*
X375816857Y-11295095D01*
X375721619Y-11342714D01*
X375674000Y-11390333D01*
X375626380Y-11485571D01*
X375626380Y-11676047D01*
X375674000Y-11771285D01*
X375721619Y-11818904D01*
X375816857Y-11866523D01*
X375864476Y-11866523D01*
X375959714Y-11818904D01*
X376007333Y-11771285D01*
X376054952Y-11676047D01*
X376054952Y-11485571D01*
X376102571Y-11390333D01*
X376150190Y-11342714D01*
X376245428Y-11295095D01*
X376435904Y-11295095D01*
X376531142Y-11342714D01*
X376578761Y-11390333D01*
X376626380Y-11485571D01*
X376626380Y-11676047D01*
X376578761Y-11771285D01*
X376531142Y-11818904D01*
X376435904Y-11866523D01*
X376245428Y-11866523D01*
X376150190Y-11818904D01*
X376102571Y-11771285D01*
X376054952Y-11676047D01*
X376054952Y-12437952D02*
X376007333Y-12342714D01*
X375959714Y-12295095D01*
X375864476Y-12247476D01*
X375816857Y-12247476D01*
X375721619Y-12295095D01*
X375674000Y-12342714D01*
X375626380Y-12437952D01*
X375626380Y-12628428D01*
X375674000Y-12723666D01*
X375721619Y-12771285D01*
X375816857Y-12818904D01*
X375864476Y-12818904D01*
X375959714Y-12771285D01*
X376007333Y-12723666D01*
X376054952Y-12628428D01*
X376054952Y-12437952D01*
X376102571Y-12342714D01*
X376150190Y-12295095D01*
X376245428Y-12247476D01*
X376435904Y-12247476D01*
X376531142Y-12295095D01*
X376578761Y-12342714D01*
X376626380Y-12437952D01*
X376626380Y-12628428D01*
X376578761Y-12723666D01*
X376531142Y-12771285D01*
X376435904Y-12818904D01*
X376245428Y-12818904D01*
X376150190Y-12771285D01*
X376102571Y-12723666D01*
X376054952Y-12628428D01*
%TO.C,D87*%
X352314286Y-117952380D02*
X352314286Y-116952380D01*
X352076191Y-116952380D01*
X351933334Y-117000000D01*
X351838096Y-117095238D01*
X351790477Y-117190476D01*
X351742858Y-117380952D01*
X351742858Y-117523809D01*
X351790477Y-117714285D01*
X351838096Y-117809523D01*
X351933334Y-117904761D01*
X352076191Y-117952380D01*
X352314286Y-117952380D01*
X351171429Y-117380952D02*
X351266667Y-117333333D01*
X351314286Y-117285714D01*
X351361905Y-117190476D01*
X351361905Y-117142857D01*
X351314286Y-117047619D01*
X351266667Y-117000000D01*
X351171429Y-116952380D01*
X350980953Y-116952380D01*
X350885715Y-117000000D01*
X350838096Y-117047619D01*
X350790477Y-117142857D01*
X350790477Y-117190476D01*
X350838096Y-117285714D01*
X350885715Y-117333333D01*
X350980953Y-117380952D01*
X351171429Y-117380952D01*
X351266667Y-117428571D01*
X351314286Y-117476190D01*
X351361905Y-117571428D01*
X351361905Y-117761904D01*
X351314286Y-117857142D01*
X351266667Y-117904761D01*
X351171429Y-117952380D01*
X350980953Y-117952380D01*
X350885715Y-117904761D01*
X350838096Y-117857142D01*
X350790477Y-117761904D01*
X350790477Y-117571428D01*
X350838096Y-117476190D01*
X350885715Y-117428571D01*
X350980953Y-117380952D01*
X350457143Y-116952380D02*
X349790477Y-116952380D01*
X350219048Y-117952380D01*
%TO.C,D86*%
X352112880Y-60380714D02*
X351112880Y-60380714D01*
X351112880Y-60618809D01*
X351160500Y-60761666D01*
X351255738Y-60856904D01*
X351350976Y-60904523D01*
X351541452Y-60952142D01*
X351684309Y-60952142D01*
X351874785Y-60904523D01*
X351970023Y-60856904D01*
X352065261Y-60761666D01*
X352112880Y-60618809D01*
X352112880Y-60380714D01*
X351541452Y-61523571D02*
X351493833Y-61428333D01*
X351446214Y-61380714D01*
X351350976Y-61333095D01*
X351303357Y-61333095D01*
X351208119Y-61380714D01*
X351160500Y-61428333D01*
X351112880Y-61523571D01*
X351112880Y-61714047D01*
X351160500Y-61809285D01*
X351208119Y-61856904D01*
X351303357Y-61904523D01*
X351350976Y-61904523D01*
X351446214Y-61856904D01*
X351493833Y-61809285D01*
X351541452Y-61714047D01*
X351541452Y-61523571D01*
X351589071Y-61428333D01*
X351636690Y-61380714D01*
X351731928Y-61333095D01*
X351922404Y-61333095D01*
X352017642Y-61380714D01*
X352065261Y-61428333D01*
X352112880Y-61523571D01*
X352112880Y-61714047D01*
X352065261Y-61809285D01*
X352017642Y-61856904D01*
X351922404Y-61904523D01*
X351731928Y-61904523D01*
X351636690Y-61856904D01*
X351589071Y-61809285D01*
X351541452Y-61714047D01*
X351112880Y-62761666D02*
X351112880Y-62571190D01*
X351160500Y-62475952D01*
X351208119Y-62428333D01*
X351350976Y-62333095D01*
X351541452Y-62285476D01*
X351922404Y-62285476D01*
X352017642Y-62333095D01*
X352065261Y-62380714D01*
X352112880Y-62475952D01*
X352112880Y-62666428D01*
X352065261Y-62761666D01*
X352017642Y-62809285D01*
X351922404Y-62856904D01*
X351684309Y-62856904D01*
X351589071Y-62809285D01*
X351541452Y-62761666D01*
X351493833Y-62666428D01*
X351493833Y-62475952D01*
X351541452Y-62380714D01*
X351589071Y-62333095D01*
X351684309Y-62285476D01*
%TO.C,D85*%
X349489880Y-45285714D02*
X348489880Y-45285714D01*
X348489880Y-45523809D01*
X348537500Y-45666666D01*
X348632738Y-45761904D01*
X348727976Y-45809523D01*
X348918452Y-45857142D01*
X349061309Y-45857142D01*
X349251785Y-45809523D01*
X349347023Y-45761904D01*
X349442261Y-45666666D01*
X349489880Y-45523809D01*
X349489880Y-45285714D01*
X348918452Y-46428571D02*
X348870833Y-46333333D01*
X348823214Y-46285714D01*
X348727976Y-46238095D01*
X348680357Y-46238095D01*
X348585119Y-46285714D01*
X348537500Y-46333333D01*
X348489880Y-46428571D01*
X348489880Y-46619047D01*
X348537500Y-46714285D01*
X348585119Y-46761904D01*
X348680357Y-46809523D01*
X348727976Y-46809523D01*
X348823214Y-46761904D01*
X348870833Y-46714285D01*
X348918452Y-46619047D01*
X348918452Y-46428571D01*
X348966071Y-46333333D01*
X349013690Y-46285714D01*
X349108928Y-46238095D01*
X349299404Y-46238095D01*
X349394642Y-46285714D01*
X349442261Y-46333333D01*
X349489880Y-46428571D01*
X349489880Y-46619047D01*
X349442261Y-46714285D01*
X349394642Y-46761904D01*
X349299404Y-46809523D01*
X349108928Y-46809523D01*
X349013690Y-46761904D01*
X348966071Y-46714285D01*
X348918452Y-46619047D01*
X348489880Y-47714285D02*
X348489880Y-47238095D01*
X348966071Y-47190476D01*
X348918452Y-47238095D01*
X348870833Y-47333333D01*
X348870833Y-47571428D01*
X348918452Y-47666666D01*
X348966071Y-47714285D01*
X349061309Y-47761904D01*
X349299404Y-47761904D01*
X349394642Y-47714285D01*
X349442261Y-47666666D01*
X349489880Y-47571428D01*
X349489880Y-47333333D01*
X349442261Y-47238095D01*
X349394642Y-47190476D01*
%TO.C,D84*%
X346622380Y-13263714D02*
X345622380Y-13263714D01*
X345622380Y-13501809D01*
X345670000Y-13644666D01*
X345765238Y-13739904D01*
X345860476Y-13787523D01*
X346050952Y-13835142D01*
X346193809Y-13835142D01*
X346384285Y-13787523D01*
X346479523Y-13739904D01*
X346574761Y-13644666D01*
X346622380Y-13501809D01*
X346622380Y-13263714D01*
X346050952Y-14406571D02*
X346003333Y-14311333D01*
X345955714Y-14263714D01*
X345860476Y-14216095D01*
X345812857Y-14216095D01*
X345717619Y-14263714D01*
X345670000Y-14311333D01*
X345622380Y-14406571D01*
X345622380Y-14597047D01*
X345670000Y-14692285D01*
X345717619Y-14739904D01*
X345812857Y-14787523D01*
X345860476Y-14787523D01*
X345955714Y-14739904D01*
X346003333Y-14692285D01*
X346050952Y-14597047D01*
X346050952Y-14406571D01*
X346098571Y-14311333D01*
X346146190Y-14263714D01*
X346241428Y-14216095D01*
X346431904Y-14216095D01*
X346527142Y-14263714D01*
X346574761Y-14311333D01*
X346622380Y-14406571D01*
X346622380Y-14597047D01*
X346574761Y-14692285D01*
X346527142Y-14739904D01*
X346431904Y-14787523D01*
X346241428Y-14787523D01*
X346146190Y-14739904D01*
X346098571Y-14692285D01*
X346050952Y-14597047D01*
X345955714Y-15644666D02*
X346622380Y-15644666D01*
X345574761Y-15406571D02*
X346289047Y-15168476D01*
X346289047Y-15787523D01*
%TO.C,D83*%
X333714285Y-117952380D02*
X333714285Y-116952380D01*
X333476190Y-116952380D01*
X333333333Y-117000000D01*
X333238095Y-117095238D01*
X333190476Y-117190476D01*
X333142857Y-117380952D01*
X333142857Y-117523809D01*
X333190476Y-117714285D01*
X333238095Y-117809523D01*
X333333333Y-117904761D01*
X333476190Y-117952380D01*
X333714285Y-117952380D01*
X332571428Y-117380952D02*
X332666666Y-117333333D01*
X332714285Y-117285714D01*
X332761904Y-117190476D01*
X332761904Y-117142857D01*
X332714285Y-117047619D01*
X332666666Y-117000000D01*
X332571428Y-116952380D01*
X332380952Y-116952380D01*
X332285714Y-117000000D01*
X332238095Y-117047619D01*
X332190476Y-117142857D01*
X332190476Y-117190476D01*
X332238095Y-117285714D01*
X332285714Y-117333333D01*
X332380952Y-117380952D01*
X332571428Y-117380952D01*
X332666666Y-117428571D01*
X332714285Y-117476190D01*
X332761904Y-117571428D01*
X332761904Y-117761904D01*
X332714285Y-117857142D01*
X332666666Y-117904761D01*
X332571428Y-117952380D01*
X332380952Y-117952380D01*
X332285714Y-117904761D01*
X332238095Y-117857142D01*
X332190476Y-117761904D01*
X332190476Y-117571428D01*
X332238095Y-117476190D01*
X332285714Y-117428571D01*
X332380952Y-117380952D01*
X331857142Y-116952380D02*
X331238095Y-116952380D01*
X331571428Y-117333333D01*
X331428571Y-117333333D01*
X331333333Y-117380952D01*
X331285714Y-117428571D01*
X331238095Y-117523809D01*
X331238095Y-117761904D01*
X331285714Y-117857142D01*
X331333333Y-117904761D01*
X331428571Y-117952380D01*
X331714285Y-117952380D01*
X331809523Y-117904761D01*
X331857142Y-117857142D01*
%TO.C,D82*%
X330702380Y-102285714D02*
X329702380Y-102285714D01*
X329702380Y-102523809D01*
X329750000Y-102666666D01*
X329845238Y-102761904D01*
X329940476Y-102809523D01*
X330130952Y-102857142D01*
X330273809Y-102857142D01*
X330464285Y-102809523D01*
X330559523Y-102761904D01*
X330654761Y-102666666D01*
X330702380Y-102523809D01*
X330702380Y-102285714D01*
X330130952Y-103428571D02*
X330083333Y-103333333D01*
X330035714Y-103285714D01*
X329940476Y-103238095D01*
X329892857Y-103238095D01*
X329797619Y-103285714D01*
X329750000Y-103333333D01*
X329702380Y-103428571D01*
X329702380Y-103619047D01*
X329750000Y-103714285D01*
X329797619Y-103761904D01*
X329892857Y-103809523D01*
X329940476Y-103809523D01*
X330035714Y-103761904D01*
X330083333Y-103714285D01*
X330130952Y-103619047D01*
X330130952Y-103428571D01*
X330178571Y-103333333D01*
X330226190Y-103285714D01*
X330321428Y-103238095D01*
X330511904Y-103238095D01*
X330607142Y-103285714D01*
X330654761Y-103333333D01*
X330702380Y-103428571D01*
X330702380Y-103619047D01*
X330654761Y-103714285D01*
X330607142Y-103761904D01*
X330511904Y-103809523D01*
X330321428Y-103809523D01*
X330226190Y-103761904D01*
X330178571Y-103714285D01*
X330130952Y-103619047D01*
X329797619Y-104190476D02*
X329750000Y-104238095D01*
X329702380Y-104333333D01*
X329702380Y-104571428D01*
X329750000Y-104666666D01*
X329797619Y-104714285D01*
X329892857Y-104761904D01*
X329988095Y-104761904D01*
X330130952Y-104714285D01*
X330702380Y-104142857D01*
X330702380Y-104761904D01*
%TO.C,D81*%
X333160380Y-60380714D02*
X332160380Y-60380714D01*
X332160380Y-60618809D01*
X332208000Y-60761666D01*
X332303238Y-60856904D01*
X332398476Y-60904523D01*
X332588952Y-60952142D01*
X332731809Y-60952142D01*
X332922285Y-60904523D01*
X333017523Y-60856904D01*
X333112761Y-60761666D01*
X333160380Y-60618809D01*
X333160380Y-60380714D01*
X332588952Y-61523571D02*
X332541333Y-61428333D01*
X332493714Y-61380714D01*
X332398476Y-61333095D01*
X332350857Y-61333095D01*
X332255619Y-61380714D01*
X332208000Y-61428333D01*
X332160380Y-61523571D01*
X332160380Y-61714047D01*
X332208000Y-61809285D01*
X332255619Y-61856904D01*
X332350857Y-61904523D01*
X332398476Y-61904523D01*
X332493714Y-61856904D01*
X332541333Y-61809285D01*
X332588952Y-61714047D01*
X332588952Y-61523571D01*
X332636571Y-61428333D01*
X332684190Y-61380714D01*
X332779428Y-61333095D01*
X332969904Y-61333095D01*
X333065142Y-61380714D01*
X333112761Y-61428333D01*
X333160380Y-61523571D01*
X333160380Y-61714047D01*
X333112761Y-61809285D01*
X333065142Y-61856904D01*
X332969904Y-61904523D01*
X332779428Y-61904523D01*
X332684190Y-61856904D01*
X332636571Y-61809285D01*
X332588952Y-61714047D01*
X333160380Y-62856904D02*
X333160380Y-62285476D01*
X333160380Y-62571190D02*
X332160380Y-62571190D01*
X332303238Y-62475952D01*
X332398476Y-62380714D01*
X332446095Y-62285476D01*
%TO.C,D80*%
X330452380Y-45285714D02*
X329452380Y-45285714D01*
X329452380Y-45523809D01*
X329500000Y-45666666D01*
X329595238Y-45761904D01*
X329690476Y-45809523D01*
X329880952Y-45857142D01*
X330023809Y-45857142D01*
X330214285Y-45809523D01*
X330309523Y-45761904D01*
X330404761Y-45666666D01*
X330452380Y-45523809D01*
X330452380Y-45285714D01*
X329880952Y-46428571D02*
X329833333Y-46333333D01*
X329785714Y-46285714D01*
X329690476Y-46238095D01*
X329642857Y-46238095D01*
X329547619Y-46285714D01*
X329500000Y-46333333D01*
X329452380Y-46428571D01*
X329452380Y-46619047D01*
X329500000Y-46714285D01*
X329547619Y-46761904D01*
X329642857Y-46809523D01*
X329690476Y-46809523D01*
X329785714Y-46761904D01*
X329833333Y-46714285D01*
X329880952Y-46619047D01*
X329880952Y-46428571D01*
X329928571Y-46333333D01*
X329976190Y-46285714D01*
X330071428Y-46238095D01*
X330261904Y-46238095D01*
X330357142Y-46285714D01*
X330404761Y-46333333D01*
X330452380Y-46428571D01*
X330452380Y-46619047D01*
X330404761Y-46714285D01*
X330357142Y-46761904D01*
X330261904Y-46809523D01*
X330071428Y-46809523D01*
X329976190Y-46761904D01*
X329928571Y-46714285D01*
X329880952Y-46619047D01*
X329452380Y-47428571D02*
X329452380Y-47523809D01*
X329500000Y-47619047D01*
X329547619Y-47666666D01*
X329642857Y-47714285D01*
X329833333Y-47761904D01*
X330071428Y-47761904D01*
X330261904Y-47714285D01*
X330357142Y-47666666D01*
X330404761Y-47619047D01*
X330452380Y-47523809D01*
X330452380Y-47428571D01*
X330404761Y-47333333D01*
X330357142Y-47285714D01*
X330261904Y-47238095D01*
X330071428Y-47190476D01*
X329833333Y-47190476D01*
X329642857Y-47238095D01*
X329547619Y-47285714D01*
X329500000Y-47333333D01*
X329452380Y-47428571D01*
%TO.C,D79*%
X334512380Y-13645714D02*
X333512380Y-13645714D01*
X333512380Y-13883809D01*
X333560000Y-14026666D01*
X333655238Y-14121904D01*
X333750476Y-14169523D01*
X333940952Y-14217142D01*
X334083809Y-14217142D01*
X334274285Y-14169523D01*
X334369523Y-14121904D01*
X334464761Y-14026666D01*
X334512380Y-13883809D01*
X334512380Y-13645714D01*
X333512380Y-14550476D02*
X333512380Y-15217142D01*
X334512380Y-14788571D01*
X334512380Y-15645714D02*
X334512380Y-15836190D01*
X334464761Y-15931428D01*
X334417142Y-15979047D01*
X334274285Y-16074285D01*
X334083809Y-16121904D01*
X333702857Y-16121904D01*
X333607619Y-16074285D01*
X333560000Y-16026666D01*
X333512380Y-15931428D01*
X333512380Y-15740952D01*
X333560000Y-15645714D01*
X333607619Y-15598095D01*
X333702857Y-15550476D01*
X333940952Y-15550476D01*
X334036190Y-15598095D01*
X334083809Y-15645714D01*
X334131428Y-15740952D01*
X334131428Y-15931428D01*
X334083809Y-16026666D01*
X334036190Y-16074285D01*
X333940952Y-16121904D01*
%TO.C,D78*%
X315714285Y-117952380D02*
X315714285Y-116952380D01*
X315476190Y-116952380D01*
X315333333Y-117000000D01*
X315238095Y-117095238D01*
X315190476Y-117190476D01*
X315142857Y-117380952D01*
X315142857Y-117523809D01*
X315190476Y-117714285D01*
X315238095Y-117809523D01*
X315333333Y-117904761D01*
X315476190Y-117952380D01*
X315714285Y-117952380D01*
X314809523Y-116952380D02*
X314142857Y-116952380D01*
X314571428Y-117952380D01*
X313619047Y-117380952D02*
X313714285Y-117333333D01*
X313761904Y-117285714D01*
X313809523Y-117190476D01*
X313809523Y-117142857D01*
X313761904Y-117047619D01*
X313714285Y-117000000D01*
X313619047Y-116952380D01*
X313428571Y-116952380D01*
X313333333Y-117000000D01*
X313285714Y-117047619D01*
X313238095Y-117142857D01*
X313238095Y-117190476D01*
X313285714Y-117285714D01*
X313333333Y-117333333D01*
X313428571Y-117380952D01*
X313619047Y-117380952D01*
X313714285Y-117428571D01*
X313761904Y-117476190D01*
X313809523Y-117571428D01*
X313809523Y-117761904D01*
X313761904Y-117857142D01*
X313714285Y-117904761D01*
X313619047Y-117952380D01*
X313428571Y-117952380D01*
X313333333Y-117904761D01*
X313285714Y-117857142D01*
X313238095Y-117761904D01*
X313238095Y-117571428D01*
X313285714Y-117476190D01*
X313333333Y-117428571D01*
X313428571Y-117380952D01*
%TO.C,D77*%
X314745380Y-60761714D02*
X313745380Y-60761714D01*
X313745380Y-60999809D01*
X313793000Y-61142666D01*
X313888238Y-61237904D01*
X313983476Y-61285523D01*
X314173952Y-61333142D01*
X314316809Y-61333142D01*
X314507285Y-61285523D01*
X314602523Y-61237904D01*
X314697761Y-61142666D01*
X314745380Y-60999809D01*
X314745380Y-60761714D01*
X313745380Y-61666476D02*
X313745380Y-62333142D01*
X314745380Y-61904571D01*
X313745380Y-62618857D02*
X313745380Y-63285523D01*
X314745380Y-62856952D01*
%TO.C,D76*%
X311202380Y-45285714D02*
X310202380Y-45285714D01*
X310202380Y-45523809D01*
X310250000Y-45666666D01*
X310345238Y-45761904D01*
X310440476Y-45809523D01*
X310630952Y-45857142D01*
X310773809Y-45857142D01*
X310964285Y-45809523D01*
X311059523Y-45761904D01*
X311154761Y-45666666D01*
X311202380Y-45523809D01*
X311202380Y-45285714D01*
X310202380Y-46190476D02*
X310202380Y-46857142D01*
X311202380Y-46428571D01*
X310202380Y-47666666D02*
X310202380Y-47476190D01*
X310250000Y-47380952D01*
X310297619Y-47333333D01*
X310440476Y-47238095D01*
X310630952Y-47190476D01*
X311011904Y-47190476D01*
X311107142Y-47238095D01*
X311154761Y-47285714D01*
X311202380Y-47380952D01*
X311202380Y-47571428D01*
X311154761Y-47666666D01*
X311107142Y-47714285D01*
X311011904Y-47761904D01*
X310773809Y-47761904D01*
X310678571Y-47714285D01*
X310630952Y-47666666D01*
X310583333Y-47571428D01*
X310583333Y-47380952D01*
X310630952Y-47285714D01*
X310678571Y-47238095D01*
X310773809Y-47190476D01*
%TO.C,D75*%
X315012380Y-13645714D02*
X314012380Y-13645714D01*
X314012380Y-13883809D01*
X314060000Y-14026666D01*
X314155238Y-14121904D01*
X314250476Y-14169523D01*
X314440952Y-14217142D01*
X314583809Y-14217142D01*
X314774285Y-14169523D01*
X314869523Y-14121904D01*
X314964761Y-14026666D01*
X315012380Y-13883809D01*
X315012380Y-13645714D01*
X314012380Y-14550476D02*
X314012380Y-15217142D01*
X315012380Y-14788571D01*
X314012380Y-16074285D02*
X314012380Y-15598095D01*
X314488571Y-15550476D01*
X314440952Y-15598095D01*
X314393333Y-15693333D01*
X314393333Y-15931428D01*
X314440952Y-16026666D01*
X314488571Y-16074285D01*
X314583809Y-16121904D01*
X314821904Y-16121904D01*
X314917142Y-16074285D01*
X314964761Y-16026666D01*
X315012380Y-15931428D01*
X315012380Y-15693333D01*
X314964761Y-15598095D01*
X314917142Y-15550476D01*
%TO.C,D74*%
X288714285Y-117952380D02*
X288714285Y-116952380D01*
X288476190Y-116952380D01*
X288333333Y-117000000D01*
X288238095Y-117095238D01*
X288190476Y-117190476D01*
X288142857Y-117380952D01*
X288142857Y-117523809D01*
X288190476Y-117714285D01*
X288238095Y-117809523D01*
X288333333Y-117904761D01*
X288476190Y-117952380D01*
X288714285Y-117952380D01*
X287809523Y-116952380D02*
X287142857Y-116952380D01*
X287571428Y-117952380D01*
X286333333Y-117285714D02*
X286333333Y-117952380D01*
X286571428Y-116904761D02*
X286809523Y-117619047D01*
X286190476Y-117619047D01*
%TO.C,D73*%
X286329285Y-59920380D02*
X286329285Y-58920380D01*
X286091190Y-58920380D01*
X285948333Y-58968000D01*
X285853095Y-59063238D01*
X285805476Y-59158476D01*
X285757857Y-59348952D01*
X285757857Y-59491809D01*
X285805476Y-59682285D01*
X285853095Y-59777523D01*
X285948333Y-59872761D01*
X286091190Y-59920380D01*
X286329285Y-59920380D01*
X285424523Y-58920380D02*
X284757857Y-58920380D01*
X285186428Y-59920380D01*
X284472142Y-58920380D02*
X283853095Y-58920380D01*
X284186428Y-59301333D01*
X284043571Y-59301333D01*
X283948333Y-59348952D01*
X283900714Y-59396571D01*
X283853095Y-59491809D01*
X283853095Y-59729904D01*
X283900714Y-59825142D01*
X283948333Y-59872761D01*
X284043571Y-59920380D01*
X284329285Y-59920380D01*
X284424523Y-59872761D01*
X284472142Y-59825142D01*
%TO.C,D72*%
X278202380Y-45285714D02*
X277202380Y-45285714D01*
X277202380Y-45523809D01*
X277250000Y-45666666D01*
X277345238Y-45761904D01*
X277440476Y-45809523D01*
X277630952Y-45857142D01*
X277773809Y-45857142D01*
X277964285Y-45809523D01*
X278059523Y-45761904D01*
X278154761Y-45666666D01*
X278202380Y-45523809D01*
X278202380Y-45285714D01*
X277202380Y-46190476D02*
X277202380Y-46857142D01*
X278202380Y-46428571D01*
X277297619Y-47190476D02*
X277250000Y-47238095D01*
X277202380Y-47333333D01*
X277202380Y-47571428D01*
X277250000Y-47666666D01*
X277297619Y-47714285D01*
X277392857Y-47761904D01*
X277488095Y-47761904D01*
X277630952Y-47714285D01*
X278202380Y-47142857D01*
X278202380Y-47761904D01*
%TO.C,D71*%
X291262380Y-13645714D02*
X290262380Y-13645714D01*
X290262380Y-13883809D01*
X290310000Y-14026666D01*
X290405238Y-14121904D01*
X290500476Y-14169523D01*
X290690952Y-14217142D01*
X290833809Y-14217142D01*
X291024285Y-14169523D01*
X291119523Y-14121904D01*
X291214761Y-14026666D01*
X291262380Y-13883809D01*
X291262380Y-13645714D01*
X290262380Y-14550476D02*
X290262380Y-15217142D01*
X291262380Y-14788571D01*
X291262380Y-16121904D02*
X291262380Y-15550476D01*
X291262380Y-15836190D02*
X290262380Y-15836190D01*
X290405238Y-15740952D01*
X290500476Y-15645714D01*
X290548095Y-15550476D01*
%TO.C,D70*%
X265214285Y-117952380D02*
X265214285Y-116952380D01*
X264976190Y-116952380D01*
X264833333Y-117000000D01*
X264738095Y-117095238D01*
X264690476Y-117190476D01*
X264642857Y-117380952D01*
X264642857Y-117523809D01*
X264690476Y-117714285D01*
X264738095Y-117809523D01*
X264833333Y-117904761D01*
X264976190Y-117952380D01*
X265214285Y-117952380D01*
X264309523Y-116952380D02*
X263642857Y-116952380D01*
X264071428Y-117952380D01*
X263071428Y-116952380D02*
X262976190Y-116952380D01*
X262880952Y-117000000D01*
X262833333Y-117047619D01*
X262785714Y-117142857D01*
X262738095Y-117333333D01*
X262738095Y-117571428D01*
X262785714Y-117761904D01*
X262833333Y-117857142D01*
X262880952Y-117904761D01*
X262976190Y-117952380D01*
X263071428Y-117952380D01*
X263166666Y-117904761D01*
X263214285Y-117857142D01*
X263261904Y-117761904D01*
X263309523Y-117571428D01*
X263309523Y-117333333D01*
X263261904Y-117142857D01*
X263214285Y-117047619D01*
X263166666Y-117000000D01*
X263071428Y-116952380D01*
%TO.C,D69*%
X270952380Y-102285714D02*
X269952380Y-102285714D01*
X269952380Y-102523809D01*
X270000000Y-102666666D01*
X270095238Y-102761904D01*
X270190476Y-102809523D01*
X270380952Y-102857142D01*
X270523809Y-102857142D01*
X270714285Y-102809523D01*
X270809523Y-102761904D01*
X270904761Y-102666666D01*
X270952380Y-102523809D01*
X270952380Y-102285714D01*
X269952380Y-103714285D02*
X269952380Y-103523809D01*
X270000000Y-103428571D01*
X270047619Y-103380952D01*
X270190476Y-103285714D01*
X270380952Y-103238095D01*
X270761904Y-103238095D01*
X270857142Y-103285714D01*
X270904761Y-103333333D01*
X270952380Y-103428571D01*
X270952380Y-103619047D01*
X270904761Y-103714285D01*
X270857142Y-103761904D01*
X270761904Y-103809523D01*
X270523809Y-103809523D01*
X270428571Y-103761904D01*
X270380952Y-103714285D01*
X270333333Y-103619047D01*
X270333333Y-103428571D01*
X270380952Y-103333333D01*
X270428571Y-103285714D01*
X270523809Y-103238095D01*
X270952380Y-104285714D02*
X270952380Y-104476190D01*
X270904761Y-104571428D01*
X270857142Y-104619047D01*
X270714285Y-104714285D01*
X270523809Y-104761904D01*
X270142857Y-104761904D01*
X270047619Y-104714285D01*
X270000000Y-104666666D01*
X269952380Y-104571428D01*
X269952380Y-104380952D01*
X270000000Y-104285714D01*
X270047619Y-104238095D01*
X270142857Y-104190476D01*
X270380952Y-104190476D01*
X270476190Y-104238095D01*
X270523809Y-104285714D01*
X270571428Y-104380952D01*
X270571428Y-104571428D01*
X270523809Y-104666666D01*
X270476190Y-104714285D01*
X270380952Y-104761904D01*
%TO.C,D68*%
X280614285Y-76252380D02*
X280614285Y-75252380D01*
X280376190Y-75252380D01*
X280233333Y-75300000D01*
X280138095Y-75395238D01*
X280090476Y-75490476D01*
X280042857Y-75680952D01*
X280042857Y-75823809D01*
X280090476Y-76014285D01*
X280138095Y-76109523D01*
X280233333Y-76204761D01*
X280376190Y-76252380D01*
X280614285Y-76252380D01*
X279185714Y-75252380D02*
X279376190Y-75252380D01*
X279471428Y-75300000D01*
X279519047Y-75347619D01*
X279614285Y-75490476D01*
X279661904Y-75680952D01*
X279661904Y-76061904D01*
X279614285Y-76157142D01*
X279566666Y-76204761D01*
X279471428Y-76252380D01*
X279280952Y-76252380D01*
X279185714Y-76204761D01*
X279138095Y-76157142D01*
X279090476Y-76061904D01*
X279090476Y-75823809D01*
X279138095Y-75728571D01*
X279185714Y-75680952D01*
X279280952Y-75633333D01*
X279471428Y-75633333D01*
X279566666Y-75680952D01*
X279614285Y-75728571D01*
X279661904Y-75823809D01*
X278519047Y-75680952D02*
X278614285Y-75633333D01*
X278661904Y-75585714D01*
X278709523Y-75490476D01*
X278709523Y-75442857D01*
X278661904Y-75347619D01*
X278614285Y-75300000D01*
X278519047Y-75252380D01*
X278328571Y-75252380D01*
X278233333Y-75300000D01*
X278185714Y-75347619D01*
X278138095Y-75442857D01*
X278138095Y-75490476D01*
X278185714Y-75585714D01*
X278233333Y-75633333D01*
X278328571Y-75680952D01*
X278519047Y-75680952D01*
X278614285Y-75728571D01*
X278661904Y-75776190D01*
X278709523Y-75871428D01*
X278709523Y-76061904D01*
X278661904Y-76157142D01*
X278614285Y-76204761D01*
X278519047Y-76252380D01*
X278328571Y-76252380D01*
X278233333Y-76204761D01*
X278185714Y-76157142D01*
X278138095Y-76061904D01*
X278138095Y-75871428D01*
X278185714Y-75776190D01*
X278233333Y-75728571D01*
X278328571Y-75680952D01*
%TO.C,D67*%
X264961380Y-60761714D02*
X263961380Y-60761714D01*
X263961380Y-60999809D01*
X264009000Y-61142666D01*
X264104238Y-61237904D01*
X264199476Y-61285523D01*
X264389952Y-61333142D01*
X264532809Y-61333142D01*
X264723285Y-61285523D01*
X264818523Y-61237904D01*
X264913761Y-61142666D01*
X264961380Y-60999809D01*
X264961380Y-60761714D01*
X263961380Y-62190285D02*
X263961380Y-61999809D01*
X264009000Y-61904571D01*
X264056619Y-61856952D01*
X264199476Y-61761714D01*
X264389952Y-61714095D01*
X264770904Y-61714095D01*
X264866142Y-61761714D01*
X264913761Y-61809333D01*
X264961380Y-61904571D01*
X264961380Y-62095047D01*
X264913761Y-62190285D01*
X264866142Y-62237904D01*
X264770904Y-62285523D01*
X264532809Y-62285523D01*
X264437571Y-62237904D01*
X264389952Y-62190285D01*
X264342333Y-62095047D01*
X264342333Y-61904571D01*
X264389952Y-61809333D01*
X264437571Y-61761714D01*
X264532809Y-61714095D01*
X263961380Y-62618857D02*
X263961380Y-63285523D01*
X264961380Y-62856952D01*
%TO.C,D66*%
X272262380Y-13645714D02*
X271262380Y-13645714D01*
X271262380Y-13883809D01*
X271310000Y-14026666D01*
X271405238Y-14121904D01*
X271500476Y-14169523D01*
X271690952Y-14217142D01*
X271833809Y-14217142D01*
X272024285Y-14169523D01*
X272119523Y-14121904D01*
X272214761Y-14026666D01*
X272262380Y-13883809D01*
X272262380Y-13645714D01*
X271262380Y-15074285D02*
X271262380Y-14883809D01*
X271310000Y-14788571D01*
X271357619Y-14740952D01*
X271500476Y-14645714D01*
X271690952Y-14598095D01*
X272071904Y-14598095D01*
X272167142Y-14645714D01*
X272214761Y-14693333D01*
X272262380Y-14788571D01*
X272262380Y-14979047D01*
X272214761Y-15074285D01*
X272167142Y-15121904D01*
X272071904Y-15169523D01*
X271833809Y-15169523D01*
X271738571Y-15121904D01*
X271690952Y-15074285D01*
X271643333Y-14979047D01*
X271643333Y-14788571D01*
X271690952Y-14693333D01*
X271738571Y-14645714D01*
X271833809Y-14598095D01*
X271262380Y-16026666D02*
X271262380Y-15836190D01*
X271310000Y-15740952D01*
X271357619Y-15693333D01*
X271500476Y-15598095D01*
X271690952Y-15550476D01*
X272071904Y-15550476D01*
X272167142Y-15598095D01*
X272214761Y-15645714D01*
X272262380Y-15740952D01*
X272262380Y-15931428D01*
X272214761Y-16026666D01*
X272167142Y-16074285D01*
X272071904Y-16121904D01*
X271833809Y-16121904D01*
X271738571Y-16074285D01*
X271690952Y-16026666D01*
X271643333Y-15931428D01*
X271643333Y-15740952D01*
X271690952Y-15645714D01*
X271738571Y-15598095D01*
X271833809Y-15550476D01*
%TO.C,D65*%
X244452380Y-82785714D02*
X243452380Y-82785714D01*
X243452380Y-83023809D01*
X243500000Y-83166666D01*
X243595238Y-83261904D01*
X243690476Y-83309523D01*
X243880952Y-83357142D01*
X244023809Y-83357142D01*
X244214285Y-83309523D01*
X244309523Y-83261904D01*
X244404761Y-83166666D01*
X244452380Y-83023809D01*
X244452380Y-82785714D01*
X243452380Y-84214285D02*
X243452380Y-84023809D01*
X243500000Y-83928571D01*
X243547619Y-83880952D01*
X243690476Y-83785714D01*
X243880952Y-83738095D01*
X244261904Y-83738095D01*
X244357142Y-83785714D01*
X244404761Y-83833333D01*
X244452380Y-83928571D01*
X244452380Y-84119047D01*
X244404761Y-84214285D01*
X244357142Y-84261904D01*
X244261904Y-84309523D01*
X244023809Y-84309523D01*
X243928571Y-84261904D01*
X243880952Y-84214285D01*
X243833333Y-84119047D01*
X243833333Y-83928571D01*
X243880952Y-83833333D01*
X243928571Y-83785714D01*
X244023809Y-83738095D01*
X243452380Y-85214285D02*
X243452380Y-84738095D01*
X243928571Y-84690476D01*
X243880952Y-84738095D01*
X243833333Y-84833333D01*
X243833333Y-85071428D01*
X243880952Y-85166666D01*
X243928571Y-85214285D01*
X244023809Y-85261904D01*
X244261904Y-85261904D01*
X244357142Y-85214285D01*
X244404761Y-85166666D01*
X244452380Y-85071428D01*
X244452380Y-84833333D01*
X244404761Y-84738095D01*
X244357142Y-84690476D01*
%TO.C,D64*%
X243371380Y-60888714D02*
X242371380Y-60888714D01*
X242371380Y-61126809D01*
X242419000Y-61269666D01*
X242514238Y-61364904D01*
X242609476Y-61412523D01*
X242799952Y-61460142D01*
X242942809Y-61460142D01*
X243133285Y-61412523D01*
X243228523Y-61364904D01*
X243323761Y-61269666D01*
X243371380Y-61126809D01*
X243371380Y-60888714D01*
X242371380Y-62317285D02*
X242371380Y-62126809D01*
X242419000Y-62031571D01*
X242466619Y-61983952D01*
X242609476Y-61888714D01*
X242799952Y-61841095D01*
X243180904Y-61841095D01*
X243276142Y-61888714D01*
X243323761Y-61936333D01*
X243371380Y-62031571D01*
X243371380Y-62222047D01*
X243323761Y-62317285D01*
X243276142Y-62364904D01*
X243180904Y-62412523D01*
X242942809Y-62412523D01*
X242847571Y-62364904D01*
X242799952Y-62317285D01*
X242752333Y-62222047D01*
X242752333Y-62031571D01*
X242799952Y-61936333D01*
X242847571Y-61888714D01*
X242942809Y-61841095D01*
X242704714Y-63269666D02*
X243371380Y-63269666D01*
X242323761Y-63031571D02*
X243038047Y-62793476D01*
X243038047Y-63412523D01*
%TO.C,D63*%
X249489880Y-45285714D02*
X248489880Y-45285714D01*
X248489880Y-45523809D01*
X248537500Y-45666666D01*
X248632738Y-45761904D01*
X248727976Y-45809523D01*
X248918452Y-45857142D01*
X249061309Y-45857142D01*
X249251785Y-45809523D01*
X249347023Y-45761904D01*
X249442261Y-45666666D01*
X249489880Y-45523809D01*
X249489880Y-45285714D01*
X248489880Y-46714285D02*
X248489880Y-46523809D01*
X248537500Y-46428571D01*
X248585119Y-46380952D01*
X248727976Y-46285714D01*
X248918452Y-46238095D01*
X249299404Y-46238095D01*
X249394642Y-46285714D01*
X249442261Y-46333333D01*
X249489880Y-46428571D01*
X249489880Y-46619047D01*
X249442261Y-46714285D01*
X249394642Y-46761904D01*
X249299404Y-46809523D01*
X249061309Y-46809523D01*
X248966071Y-46761904D01*
X248918452Y-46714285D01*
X248870833Y-46619047D01*
X248870833Y-46428571D01*
X248918452Y-46333333D01*
X248966071Y-46285714D01*
X249061309Y-46238095D01*
X248489880Y-47142857D02*
X248489880Y-47761904D01*
X248870833Y-47428571D01*
X248870833Y-47571428D01*
X248918452Y-47666666D01*
X248966071Y-47714285D01*
X249061309Y-47761904D01*
X249299404Y-47761904D01*
X249394642Y-47714285D01*
X249442261Y-47666666D01*
X249489880Y-47571428D01*
X249489880Y-47285714D01*
X249442261Y-47190476D01*
X249394642Y-47142857D01*
%TO.C,D62*%
X253785380Y-13644714D02*
X252785380Y-13644714D01*
X252785380Y-13882809D01*
X252833000Y-14025666D01*
X252928238Y-14120904D01*
X253023476Y-14168523D01*
X253213952Y-14216142D01*
X253356809Y-14216142D01*
X253547285Y-14168523D01*
X253642523Y-14120904D01*
X253737761Y-14025666D01*
X253785380Y-13882809D01*
X253785380Y-13644714D01*
X252785380Y-15073285D02*
X252785380Y-14882809D01*
X252833000Y-14787571D01*
X252880619Y-14739952D01*
X253023476Y-14644714D01*
X253213952Y-14597095D01*
X253594904Y-14597095D01*
X253690142Y-14644714D01*
X253737761Y-14692333D01*
X253785380Y-14787571D01*
X253785380Y-14978047D01*
X253737761Y-15073285D01*
X253690142Y-15120904D01*
X253594904Y-15168523D01*
X253356809Y-15168523D01*
X253261571Y-15120904D01*
X253213952Y-15073285D01*
X253166333Y-14978047D01*
X253166333Y-14787571D01*
X253213952Y-14692333D01*
X253261571Y-14644714D01*
X253356809Y-14597095D01*
X252880619Y-15549476D02*
X252833000Y-15597095D01*
X252785380Y-15692333D01*
X252785380Y-15930428D01*
X252833000Y-16025666D01*
X252880619Y-16073285D01*
X252975857Y-16120904D01*
X253071095Y-16120904D01*
X253213952Y-16073285D01*
X253785380Y-15501857D01*
X253785380Y-16120904D01*
%TO.C,D61*%
X240964285Y-117952380D02*
X240964285Y-116952380D01*
X240726190Y-116952380D01*
X240583333Y-117000000D01*
X240488095Y-117095238D01*
X240440476Y-117190476D01*
X240392857Y-117380952D01*
X240392857Y-117523809D01*
X240440476Y-117714285D01*
X240488095Y-117809523D01*
X240583333Y-117904761D01*
X240726190Y-117952380D01*
X240964285Y-117952380D01*
X239535714Y-116952380D02*
X239726190Y-116952380D01*
X239821428Y-117000000D01*
X239869047Y-117047619D01*
X239964285Y-117190476D01*
X240011904Y-117380952D01*
X240011904Y-117761904D01*
X239964285Y-117857142D01*
X239916666Y-117904761D01*
X239821428Y-117952380D01*
X239630952Y-117952380D01*
X239535714Y-117904761D01*
X239488095Y-117857142D01*
X239440476Y-117761904D01*
X239440476Y-117523809D01*
X239488095Y-117428571D01*
X239535714Y-117380952D01*
X239630952Y-117333333D01*
X239821428Y-117333333D01*
X239916666Y-117380952D01*
X239964285Y-117428571D01*
X240011904Y-117523809D01*
X238488095Y-117952380D02*
X239059523Y-117952380D01*
X238773809Y-117952380D02*
X238773809Y-116952380D01*
X238869047Y-117095238D01*
X238964285Y-117190476D01*
X239059523Y-117238095D01*
%TO.C,D60*%
X235239880Y-102285714D02*
X234239880Y-102285714D01*
X234239880Y-102523809D01*
X234287500Y-102666666D01*
X234382738Y-102761904D01*
X234477976Y-102809523D01*
X234668452Y-102857142D01*
X234811309Y-102857142D01*
X235001785Y-102809523D01*
X235097023Y-102761904D01*
X235192261Y-102666666D01*
X235239880Y-102523809D01*
X235239880Y-102285714D01*
X234239880Y-103714285D02*
X234239880Y-103523809D01*
X234287500Y-103428571D01*
X234335119Y-103380952D01*
X234477976Y-103285714D01*
X234668452Y-103238095D01*
X235049404Y-103238095D01*
X235144642Y-103285714D01*
X235192261Y-103333333D01*
X235239880Y-103428571D01*
X235239880Y-103619047D01*
X235192261Y-103714285D01*
X235144642Y-103761904D01*
X235049404Y-103809523D01*
X234811309Y-103809523D01*
X234716071Y-103761904D01*
X234668452Y-103714285D01*
X234620833Y-103619047D01*
X234620833Y-103428571D01*
X234668452Y-103333333D01*
X234716071Y-103285714D01*
X234811309Y-103238095D01*
X234239880Y-104428571D02*
X234239880Y-104523809D01*
X234287500Y-104619047D01*
X234335119Y-104666666D01*
X234430357Y-104714285D01*
X234620833Y-104761904D01*
X234858928Y-104761904D01*
X235049404Y-104714285D01*
X235144642Y-104666666D01*
X235192261Y-104619047D01*
X235239880Y-104523809D01*
X235239880Y-104428571D01*
X235192261Y-104333333D01*
X235144642Y-104285714D01*
X235049404Y-104238095D01*
X234858928Y-104190476D01*
X234620833Y-104190476D01*
X234430357Y-104238095D01*
X234335119Y-104285714D01*
X234287500Y-104333333D01*
X234239880Y-104428571D01*
%TO.C,D59*%
X225739880Y-82785714D02*
X224739880Y-82785714D01*
X224739880Y-83023809D01*
X224787500Y-83166666D01*
X224882738Y-83261904D01*
X224977976Y-83309523D01*
X225168452Y-83357142D01*
X225311309Y-83357142D01*
X225501785Y-83309523D01*
X225597023Y-83261904D01*
X225692261Y-83166666D01*
X225739880Y-83023809D01*
X225739880Y-82785714D01*
X224739880Y-84261904D02*
X224739880Y-83785714D01*
X225216071Y-83738095D01*
X225168452Y-83785714D01*
X225120833Y-83880952D01*
X225120833Y-84119047D01*
X225168452Y-84214285D01*
X225216071Y-84261904D01*
X225311309Y-84309523D01*
X225549404Y-84309523D01*
X225644642Y-84261904D01*
X225692261Y-84214285D01*
X225739880Y-84119047D01*
X225739880Y-83880952D01*
X225692261Y-83785714D01*
X225644642Y-83738095D01*
X225739880Y-84785714D02*
X225739880Y-84976190D01*
X225692261Y-85071428D01*
X225644642Y-85119047D01*
X225501785Y-85214285D01*
X225311309Y-85261904D01*
X224930357Y-85261904D01*
X224835119Y-85214285D01*
X224787500Y-85166666D01*
X224739880Y-85071428D01*
X224739880Y-84880952D01*
X224787500Y-84785714D01*
X224835119Y-84738095D01*
X224930357Y-84690476D01*
X225168452Y-84690476D01*
X225263690Y-84738095D01*
X225311309Y-84785714D01*
X225358928Y-84880952D01*
X225358928Y-85071428D01*
X225311309Y-85166666D01*
X225263690Y-85214285D01*
X225168452Y-85261904D01*
%TO.C,D58*%
X223940380Y-60888714D02*
X222940380Y-60888714D01*
X222940380Y-61126809D01*
X222988000Y-61269666D01*
X223083238Y-61364904D01*
X223178476Y-61412523D01*
X223368952Y-61460142D01*
X223511809Y-61460142D01*
X223702285Y-61412523D01*
X223797523Y-61364904D01*
X223892761Y-61269666D01*
X223940380Y-61126809D01*
X223940380Y-60888714D01*
X222940380Y-62364904D02*
X222940380Y-61888714D01*
X223416571Y-61841095D01*
X223368952Y-61888714D01*
X223321333Y-61983952D01*
X223321333Y-62222047D01*
X223368952Y-62317285D01*
X223416571Y-62364904D01*
X223511809Y-62412523D01*
X223749904Y-62412523D01*
X223845142Y-62364904D01*
X223892761Y-62317285D01*
X223940380Y-62222047D01*
X223940380Y-61983952D01*
X223892761Y-61888714D01*
X223845142Y-61841095D01*
X223368952Y-62983952D02*
X223321333Y-62888714D01*
X223273714Y-62841095D01*
X223178476Y-62793476D01*
X223130857Y-62793476D01*
X223035619Y-62841095D01*
X222988000Y-62888714D01*
X222940380Y-62983952D01*
X222940380Y-63174428D01*
X222988000Y-63269666D01*
X223035619Y-63317285D01*
X223130857Y-63364904D01*
X223178476Y-63364904D01*
X223273714Y-63317285D01*
X223321333Y-63269666D01*
X223368952Y-63174428D01*
X223368952Y-62983952D01*
X223416571Y-62888714D01*
X223464190Y-62841095D01*
X223559428Y-62793476D01*
X223749904Y-62793476D01*
X223845142Y-62841095D01*
X223892761Y-62888714D01*
X223940380Y-62983952D01*
X223940380Y-63174428D01*
X223892761Y-63269666D01*
X223845142Y-63317285D01*
X223749904Y-63364904D01*
X223559428Y-63364904D01*
X223464190Y-63317285D01*
X223416571Y-63269666D01*
X223368952Y-63174428D01*
%TO.C,D57*%
X230202380Y-45285714D02*
X229202380Y-45285714D01*
X229202380Y-45523809D01*
X229250000Y-45666666D01*
X229345238Y-45761904D01*
X229440476Y-45809523D01*
X229630952Y-45857142D01*
X229773809Y-45857142D01*
X229964285Y-45809523D01*
X230059523Y-45761904D01*
X230154761Y-45666666D01*
X230202380Y-45523809D01*
X230202380Y-45285714D01*
X229202380Y-46761904D02*
X229202380Y-46285714D01*
X229678571Y-46238095D01*
X229630952Y-46285714D01*
X229583333Y-46380952D01*
X229583333Y-46619047D01*
X229630952Y-46714285D01*
X229678571Y-46761904D01*
X229773809Y-46809523D01*
X230011904Y-46809523D01*
X230107142Y-46761904D01*
X230154761Y-46714285D01*
X230202380Y-46619047D01*
X230202380Y-46380952D01*
X230154761Y-46285714D01*
X230107142Y-46238095D01*
X229202380Y-47142857D02*
X229202380Y-47809523D01*
X230202380Y-47380952D01*
%TO.C,D56*%
X234262380Y-13645714D02*
X233262380Y-13645714D01*
X233262380Y-13883809D01*
X233310000Y-14026666D01*
X233405238Y-14121904D01*
X233500476Y-14169523D01*
X233690952Y-14217142D01*
X233833809Y-14217142D01*
X234024285Y-14169523D01*
X234119523Y-14121904D01*
X234214761Y-14026666D01*
X234262380Y-13883809D01*
X234262380Y-13645714D01*
X233262380Y-15121904D02*
X233262380Y-14645714D01*
X233738571Y-14598095D01*
X233690952Y-14645714D01*
X233643333Y-14740952D01*
X233643333Y-14979047D01*
X233690952Y-15074285D01*
X233738571Y-15121904D01*
X233833809Y-15169523D01*
X234071904Y-15169523D01*
X234167142Y-15121904D01*
X234214761Y-15074285D01*
X234262380Y-14979047D01*
X234262380Y-14740952D01*
X234214761Y-14645714D01*
X234167142Y-14598095D01*
X233262380Y-16026666D02*
X233262380Y-15836190D01*
X233310000Y-15740952D01*
X233357619Y-15693333D01*
X233500476Y-15598095D01*
X233690952Y-15550476D01*
X234071904Y-15550476D01*
X234167142Y-15598095D01*
X234214761Y-15645714D01*
X234262380Y-15740952D01*
X234262380Y-15931428D01*
X234214761Y-16026666D01*
X234167142Y-16074285D01*
X234071904Y-16121904D01*
X233833809Y-16121904D01*
X233738571Y-16074285D01*
X233690952Y-16026666D01*
X233643333Y-15931428D01*
X233643333Y-15740952D01*
X233690952Y-15645714D01*
X233738571Y-15598095D01*
X233833809Y-15550476D01*
%TO.C,D55*%
X216714285Y-117952380D02*
X216714285Y-116952380D01*
X216476190Y-116952380D01*
X216333333Y-117000000D01*
X216238095Y-117095238D01*
X216190476Y-117190476D01*
X216142857Y-117380952D01*
X216142857Y-117523809D01*
X216190476Y-117714285D01*
X216238095Y-117809523D01*
X216333333Y-117904761D01*
X216476190Y-117952380D01*
X216714285Y-117952380D01*
X215238095Y-116952380D02*
X215714285Y-116952380D01*
X215761904Y-117428571D01*
X215714285Y-117380952D01*
X215619047Y-117333333D01*
X215380952Y-117333333D01*
X215285714Y-117380952D01*
X215238095Y-117428571D01*
X215190476Y-117523809D01*
X215190476Y-117761904D01*
X215238095Y-117857142D01*
X215285714Y-117904761D01*
X215380952Y-117952380D01*
X215619047Y-117952380D01*
X215714285Y-117904761D01*
X215761904Y-117857142D01*
X214285714Y-116952380D02*
X214761904Y-116952380D01*
X214809523Y-117428571D01*
X214761904Y-117380952D01*
X214666666Y-117333333D01*
X214428571Y-117333333D01*
X214333333Y-117380952D01*
X214285714Y-117428571D01*
X214238095Y-117523809D01*
X214238095Y-117761904D01*
X214285714Y-117857142D01*
X214333333Y-117904761D01*
X214428571Y-117952380D01*
X214666666Y-117952380D01*
X214761904Y-117904761D01*
X214809523Y-117857142D01*
%TO.C,D54*%
X216164880Y-102285714D02*
X215164880Y-102285714D01*
X215164880Y-102523809D01*
X215212500Y-102666666D01*
X215307738Y-102761904D01*
X215402976Y-102809523D01*
X215593452Y-102857142D01*
X215736309Y-102857142D01*
X215926785Y-102809523D01*
X216022023Y-102761904D01*
X216117261Y-102666666D01*
X216164880Y-102523809D01*
X216164880Y-102285714D01*
X215164880Y-103761904D02*
X215164880Y-103285714D01*
X215641071Y-103238095D01*
X215593452Y-103285714D01*
X215545833Y-103380952D01*
X215545833Y-103619047D01*
X215593452Y-103714285D01*
X215641071Y-103761904D01*
X215736309Y-103809523D01*
X215974404Y-103809523D01*
X216069642Y-103761904D01*
X216117261Y-103714285D01*
X216164880Y-103619047D01*
X216164880Y-103380952D01*
X216117261Y-103285714D01*
X216069642Y-103238095D01*
X215498214Y-104666666D02*
X216164880Y-104666666D01*
X215117261Y-104428571D02*
X215831547Y-104190476D01*
X215831547Y-104809523D01*
%TO.C,D53*%
X206702380Y-82785714D02*
X205702380Y-82785714D01*
X205702380Y-83023809D01*
X205750000Y-83166666D01*
X205845238Y-83261904D01*
X205940476Y-83309523D01*
X206130952Y-83357142D01*
X206273809Y-83357142D01*
X206464285Y-83309523D01*
X206559523Y-83261904D01*
X206654761Y-83166666D01*
X206702380Y-83023809D01*
X206702380Y-82785714D01*
X205702380Y-84261904D02*
X205702380Y-83785714D01*
X206178571Y-83738095D01*
X206130952Y-83785714D01*
X206083333Y-83880952D01*
X206083333Y-84119047D01*
X206130952Y-84214285D01*
X206178571Y-84261904D01*
X206273809Y-84309523D01*
X206511904Y-84309523D01*
X206607142Y-84261904D01*
X206654761Y-84214285D01*
X206702380Y-84119047D01*
X206702380Y-83880952D01*
X206654761Y-83785714D01*
X206607142Y-83738095D01*
X205702380Y-84642857D02*
X205702380Y-85261904D01*
X206083333Y-84928571D01*
X206083333Y-85071428D01*
X206130952Y-85166666D01*
X206178571Y-85214285D01*
X206273809Y-85261904D01*
X206511904Y-85261904D01*
X206607142Y-85214285D01*
X206654761Y-85166666D01*
X206702380Y-85071428D01*
X206702380Y-84785714D01*
X206654761Y-84690476D01*
X206607142Y-84642857D01*
%TO.C,D52*%
X204509380Y-60761714D02*
X203509380Y-60761714D01*
X203509380Y-60999809D01*
X203557000Y-61142666D01*
X203652238Y-61237904D01*
X203747476Y-61285523D01*
X203937952Y-61333142D01*
X204080809Y-61333142D01*
X204271285Y-61285523D01*
X204366523Y-61237904D01*
X204461761Y-61142666D01*
X204509380Y-60999809D01*
X204509380Y-60761714D01*
X203509380Y-62237904D02*
X203509380Y-61761714D01*
X203985571Y-61714095D01*
X203937952Y-61761714D01*
X203890333Y-61856952D01*
X203890333Y-62095047D01*
X203937952Y-62190285D01*
X203985571Y-62237904D01*
X204080809Y-62285523D01*
X204318904Y-62285523D01*
X204414142Y-62237904D01*
X204461761Y-62190285D01*
X204509380Y-62095047D01*
X204509380Y-61856952D01*
X204461761Y-61761714D01*
X204414142Y-61714095D01*
X203604619Y-62666476D02*
X203557000Y-62714095D01*
X203509380Y-62809333D01*
X203509380Y-63047428D01*
X203557000Y-63142666D01*
X203604619Y-63190285D01*
X203699857Y-63237904D01*
X203795095Y-63237904D01*
X203937952Y-63190285D01*
X204509380Y-62618857D01*
X204509380Y-63237904D01*
%TO.C,D51*%
X211202380Y-45285714D02*
X210202380Y-45285714D01*
X210202380Y-45523809D01*
X210250000Y-45666666D01*
X210345238Y-45761904D01*
X210440476Y-45809523D01*
X210630952Y-45857142D01*
X210773809Y-45857142D01*
X210964285Y-45809523D01*
X211059523Y-45761904D01*
X211154761Y-45666666D01*
X211202380Y-45523809D01*
X211202380Y-45285714D01*
X210202380Y-46761904D02*
X210202380Y-46285714D01*
X210678571Y-46238095D01*
X210630952Y-46285714D01*
X210583333Y-46380952D01*
X210583333Y-46619047D01*
X210630952Y-46714285D01*
X210678571Y-46761904D01*
X210773809Y-46809523D01*
X211011904Y-46809523D01*
X211107142Y-46761904D01*
X211154761Y-46714285D01*
X211202380Y-46619047D01*
X211202380Y-46380952D01*
X211154761Y-46285714D01*
X211107142Y-46238095D01*
X211202380Y-47761904D02*
X211202380Y-47190476D01*
X211202380Y-47476190D02*
X210202380Y-47476190D01*
X210345238Y-47380952D01*
X210440476Y-47285714D01*
X210488095Y-47190476D01*
%TO.C,D50*%
X206012380Y-13645714D02*
X205012380Y-13645714D01*
X205012380Y-13883809D01*
X205060000Y-14026666D01*
X205155238Y-14121904D01*
X205250476Y-14169523D01*
X205440952Y-14217142D01*
X205583809Y-14217142D01*
X205774285Y-14169523D01*
X205869523Y-14121904D01*
X205964761Y-14026666D01*
X206012380Y-13883809D01*
X206012380Y-13645714D01*
X205012380Y-15121904D02*
X205012380Y-14645714D01*
X205488571Y-14598095D01*
X205440952Y-14645714D01*
X205393333Y-14740952D01*
X205393333Y-14979047D01*
X205440952Y-15074285D01*
X205488571Y-15121904D01*
X205583809Y-15169523D01*
X205821904Y-15169523D01*
X205917142Y-15121904D01*
X205964761Y-15074285D01*
X206012380Y-14979047D01*
X206012380Y-14740952D01*
X205964761Y-14645714D01*
X205917142Y-14598095D01*
X205012380Y-15788571D02*
X205012380Y-15883809D01*
X205060000Y-15979047D01*
X205107619Y-16026666D01*
X205202857Y-16074285D01*
X205393333Y-16121904D01*
X205631428Y-16121904D01*
X205821904Y-16074285D01*
X205917142Y-16026666D01*
X205964761Y-15979047D01*
X206012380Y-15883809D01*
X206012380Y-15788571D01*
X205964761Y-15693333D01*
X205917142Y-15645714D01*
X205821904Y-15598095D01*
X205631428Y-15550476D01*
X205393333Y-15550476D01*
X205202857Y-15598095D01*
X205107619Y-15645714D01*
X205060000Y-15693333D01*
X205012380Y-15788571D01*
%TO.C,D49*%
X196952380Y-102285714D02*
X195952380Y-102285714D01*
X195952380Y-102523809D01*
X196000000Y-102666666D01*
X196095238Y-102761904D01*
X196190476Y-102809523D01*
X196380952Y-102857142D01*
X196523809Y-102857142D01*
X196714285Y-102809523D01*
X196809523Y-102761904D01*
X196904761Y-102666666D01*
X196952380Y-102523809D01*
X196952380Y-102285714D01*
X196285714Y-103714285D02*
X196952380Y-103714285D01*
X195904761Y-103476190D02*
X196619047Y-103238095D01*
X196619047Y-103857142D01*
X196952380Y-104285714D02*
X196952380Y-104476190D01*
X196904761Y-104571428D01*
X196857142Y-104619047D01*
X196714285Y-104714285D01*
X196523809Y-104761904D01*
X196142857Y-104761904D01*
X196047619Y-104714285D01*
X196000000Y-104666666D01*
X195952380Y-104571428D01*
X195952380Y-104380952D01*
X196000000Y-104285714D01*
X196047619Y-104238095D01*
X196142857Y-104190476D01*
X196380952Y-104190476D01*
X196476190Y-104238095D01*
X196523809Y-104285714D01*
X196571428Y-104380952D01*
X196571428Y-104571428D01*
X196523809Y-104666666D01*
X196476190Y-104714285D01*
X196380952Y-104761904D01*
%TO.C,D48*%
X187702380Y-82785714D02*
X186702380Y-82785714D01*
X186702380Y-83023809D01*
X186750000Y-83166666D01*
X186845238Y-83261904D01*
X186940476Y-83309523D01*
X187130952Y-83357142D01*
X187273809Y-83357142D01*
X187464285Y-83309523D01*
X187559523Y-83261904D01*
X187654761Y-83166666D01*
X187702380Y-83023809D01*
X187702380Y-82785714D01*
X187035714Y-84214285D02*
X187702380Y-84214285D01*
X186654761Y-83976190D02*
X187369047Y-83738095D01*
X187369047Y-84357142D01*
X187130952Y-84880952D02*
X187083333Y-84785714D01*
X187035714Y-84738095D01*
X186940476Y-84690476D01*
X186892857Y-84690476D01*
X186797619Y-84738095D01*
X186750000Y-84785714D01*
X186702380Y-84880952D01*
X186702380Y-85071428D01*
X186750000Y-85166666D01*
X186797619Y-85214285D01*
X186892857Y-85261904D01*
X186940476Y-85261904D01*
X187035714Y-85214285D01*
X187083333Y-85166666D01*
X187130952Y-85071428D01*
X187130952Y-84880952D01*
X187178571Y-84785714D01*
X187226190Y-84738095D01*
X187321428Y-84690476D01*
X187511904Y-84690476D01*
X187607142Y-84738095D01*
X187654761Y-84785714D01*
X187702380Y-84880952D01*
X187702380Y-85071428D01*
X187654761Y-85166666D01*
X187607142Y-85214285D01*
X187511904Y-85261904D01*
X187321428Y-85261904D01*
X187226190Y-85214285D01*
X187178571Y-85166666D01*
X187130952Y-85071428D01*
%TO.C,D47*%
X185586380Y-60761714D02*
X184586380Y-60761714D01*
X184586380Y-60999809D01*
X184634000Y-61142666D01*
X184729238Y-61237904D01*
X184824476Y-61285523D01*
X185014952Y-61333142D01*
X185157809Y-61333142D01*
X185348285Y-61285523D01*
X185443523Y-61237904D01*
X185538761Y-61142666D01*
X185586380Y-60999809D01*
X185586380Y-60761714D01*
X184919714Y-62190285D02*
X185586380Y-62190285D01*
X184538761Y-61952190D02*
X185253047Y-61714095D01*
X185253047Y-62333142D01*
X184586380Y-62618857D02*
X184586380Y-63285523D01*
X185586380Y-62856952D01*
%TO.C,D46*%
X192452380Y-45285714D02*
X191452380Y-45285714D01*
X191452380Y-45523809D01*
X191500000Y-45666666D01*
X191595238Y-45761904D01*
X191690476Y-45809523D01*
X191880952Y-45857142D01*
X192023809Y-45857142D01*
X192214285Y-45809523D01*
X192309523Y-45761904D01*
X192404761Y-45666666D01*
X192452380Y-45523809D01*
X192452380Y-45285714D01*
X191785714Y-46714285D02*
X192452380Y-46714285D01*
X191404761Y-46476190D02*
X192119047Y-46238095D01*
X192119047Y-46857142D01*
X191452380Y-47666666D02*
X191452380Y-47476190D01*
X191500000Y-47380952D01*
X191547619Y-47333333D01*
X191690476Y-47238095D01*
X191880952Y-47190476D01*
X192261904Y-47190476D01*
X192357142Y-47238095D01*
X192404761Y-47285714D01*
X192452380Y-47380952D01*
X192452380Y-47571428D01*
X192404761Y-47666666D01*
X192357142Y-47714285D01*
X192261904Y-47761904D01*
X192023809Y-47761904D01*
X191928571Y-47714285D01*
X191880952Y-47666666D01*
X191833333Y-47571428D01*
X191833333Y-47380952D01*
X191880952Y-47285714D01*
X191928571Y-47238095D01*
X192023809Y-47190476D01*
%TO.C,D45*%
X186762380Y-13645714D02*
X185762380Y-13645714D01*
X185762380Y-13883809D01*
X185810000Y-14026666D01*
X185905238Y-14121904D01*
X186000476Y-14169523D01*
X186190952Y-14217142D01*
X186333809Y-14217142D01*
X186524285Y-14169523D01*
X186619523Y-14121904D01*
X186714761Y-14026666D01*
X186762380Y-13883809D01*
X186762380Y-13645714D01*
X186095714Y-15074285D02*
X186762380Y-15074285D01*
X185714761Y-14836190D02*
X186429047Y-14598095D01*
X186429047Y-15217142D01*
X185762380Y-16074285D02*
X185762380Y-15598095D01*
X186238571Y-15550476D01*
X186190952Y-15598095D01*
X186143333Y-15693333D01*
X186143333Y-15931428D01*
X186190952Y-16026666D01*
X186238571Y-16074285D01*
X186333809Y-16121904D01*
X186571904Y-16121904D01*
X186667142Y-16074285D01*
X186714761Y-16026666D01*
X186762380Y-15931428D01*
X186762380Y-15693333D01*
X186714761Y-15598095D01*
X186667142Y-15550476D01*
%TO.C,D44*%
X177952380Y-102285714D02*
X176952380Y-102285714D01*
X176952380Y-102523809D01*
X177000000Y-102666666D01*
X177095238Y-102761904D01*
X177190476Y-102809523D01*
X177380952Y-102857142D01*
X177523809Y-102857142D01*
X177714285Y-102809523D01*
X177809523Y-102761904D01*
X177904761Y-102666666D01*
X177952380Y-102523809D01*
X177952380Y-102285714D01*
X177285714Y-103714285D02*
X177952380Y-103714285D01*
X176904761Y-103476190D02*
X177619047Y-103238095D01*
X177619047Y-103857142D01*
X177285714Y-104666666D02*
X177952380Y-104666666D01*
X176904761Y-104428571D02*
X177619047Y-104190476D01*
X177619047Y-104809523D01*
%TO.C,D43*%
X168452380Y-82785714D02*
X167452380Y-82785714D01*
X167452380Y-83023809D01*
X167500000Y-83166666D01*
X167595238Y-83261904D01*
X167690476Y-83309523D01*
X167880952Y-83357142D01*
X168023809Y-83357142D01*
X168214285Y-83309523D01*
X168309523Y-83261904D01*
X168404761Y-83166666D01*
X168452380Y-83023809D01*
X168452380Y-82785714D01*
X167785714Y-84214285D02*
X168452380Y-84214285D01*
X167404761Y-83976190D02*
X168119047Y-83738095D01*
X168119047Y-84357142D01*
X167452380Y-84642857D02*
X167452380Y-85261904D01*
X167833333Y-84928571D01*
X167833333Y-85071428D01*
X167880952Y-85166666D01*
X167928571Y-85214285D01*
X168023809Y-85261904D01*
X168261904Y-85261904D01*
X168357142Y-85214285D01*
X168404761Y-85166666D01*
X168452380Y-85071428D01*
X168452380Y-84785714D01*
X168404761Y-84690476D01*
X168357142Y-84642857D01*
%TO.C,D42*%
X167044380Y-60761714D02*
X166044380Y-60761714D01*
X166044380Y-60999809D01*
X166092000Y-61142666D01*
X166187238Y-61237904D01*
X166282476Y-61285523D01*
X166472952Y-61333142D01*
X166615809Y-61333142D01*
X166806285Y-61285523D01*
X166901523Y-61237904D01*
X166996761Y-61142666D01*
X167044380Y-60999809D01*
X167044380Y-60761714D01*
X166377714Y-62190285D02*
X167044380Y-62190285D01*
X165996761Y-61952190D02*
X166711047Y-61714095D01*
X166711047Y-62333142D01*
X166139619Y-62666476D02*
X166092000Y-62714095D01*
X166044380Y-62809333D01*
X166044380Y-63047428D01*
X166092000Y-63142666D01*
X166139619Y-63190285D01*
X166234857Y-63237904D01*
X166330095Y-63237904D01*
X166472952Y-63190285D01*
X167044380Y-62618857D01*
X167044380Y-63237904D01*
%TO.C,D41*%
X173202380Y-45285714D02*
X172202380Y-45285714D01*
X172202380Y-45523809D01*
X172250000Y-45666666D01*
X172345238Y-45761904D01*
X172440476Y-45809523D01*
X172630952Y-45857142D01*
X172773809Y-45857142D01*
X172964285Y-45809523D01*
X173059523Y-45761904D01*
X173154761Y-45666666D01*
X173202380Y-45523809D01*
X173202380Y-45285714D01*
X172535714Y-46714285D02*
X173202380Y-46714285D01*
X172154761Y-46476190D02*
X172869047Y-46238095D01*
X172869047Y-46857142D01*
X173202380Y-47761904D02*
X173202380Y-47190476D01*
X173202380Y-47476190D02*
X172202380Y-47476190D01*
X172345238Y-47380952D01*
X172440476Y-47285714D01*
X172488095Y-47190476D01*
%TO.C,D40*%
X167512380Y-13645714D02*
X166512380Y-13645714D01*
X166512380Y-13883809D01*
X166560000Y-14026666D01*
X166655238Y-14121904D01*
X166750476Y-14169523D01*
X166940952Y-14217142D01*
X167083809Y-14217142D01*
X167274285Y-14169523D01*
X167369523Y-14121904D01*
X167464761Y-14026666D01*
X167512380Y-13883809D01*
X167512380Y-13645714D01*
X166845714Y-15074285D02*
X167512380Y-15074285D01*
X166464761Y-14836190D02*
X167179047Y-14598095D01*
X167179047Y-15217142D01*
X166512380Y-15788571D02*
X166512380Y-15883809D01*
X166560000Y-15979047D01*
X166607619Y-16026666D01*
X166702857Y-16074285D01*
X166893333Y-16121904D01*
X167131428Y-16121904D01*
X167321904Y-16074285D01*
X167417142Y-16026666D01*
X167464761Y-15979047D01*
X167512380Y-15883809D01*
X167512380Y-15788571D01*
X167464761Y-15693333D01*
X167417142Y-15645714D01*
X167321904Y-15598095D01*
X167131428Y-15550476D01*
X166893333Y-15550476D01*
X166702857Y-15598095D01*
X166607619Y-15645714D01*
X166560000Y-15693333D01*
X166512380Y-15788571D01*
%TO.C,D39*%
X158952380Y-102285714D02*
X157952380Y-102285714D01*
X157952380Y-102523809D01*
X158000000Y-102666666D01*
X158095238Y-102761904D01*
X158190476Y-102809523D01*
X158380952Y-102857142D01*
X158523809Y-102857142D01*
X158714285Y-102809523D01*
X158809523Y-102761904D01*
X158904761Y-102666666D01*
X158952380Y-102523809D01*
X158952380Y-102285714D01*
X157952380Y-103190476D02*
X157952380Y-103809523D01*
X158333333Y-103476190D01*
X158333333Y-103619047D01*
X158380952Y-103714285D01*
X158428571Y-103761904D01*
X158523809Y-103809523D01*
X158761904Y-103809523D01*
X158857142Y-103761904D01*
X158904761Y-103714285D01*
X158952380Y-103619047D01*
X158952380Y-103333333D01*
X158904761Y-103238095D01*
X158857142Y-103190476D01*
X158952380Y-104285714D02*
X158952380Y-104476190D01*
X158904761Y-104571428D01*
X158857142Y-104619047D01*
X158714285Y-104714285D01*
X158523809Y-104761904D01*
X158142857Y-104761904D01*
X158047619Y-104714285D01*
X158000000Y-104666666D01*
X157952380Y-104571428D01*
X157952380Y-104380952D01*
X158000000Y-104285714D01*
X158047619Y-104238095D01*
X158142857Y-104190476D01*
X158380952Y-104190476D01*
X158476190Y-104238095D01*
X158523809Y-104285714D01*
X158571428Y-104380952D01*
X158571428Y-104571428D01*
X158523809Y-104666666D01*
X158476190Y-104714285D01*
X158380952Y-104761904D01*
%TO.C,D38*%
X149452380Y-82785714D02*
X148452380Y-82785714D01*
X148452380Y-83023809D01*
X148500000Y-83166666D01*
X148595238Y-83261904D01*
X148690476Y-83309523D01*
X148880952Y-83357142D01*
X149023809Y-83357142D01*
X149214285Y-83309523D01*
X149309523Y-83261904D01*
X149404761Y-83166666D01*
X149452380Y-83023809D01*
X149452380Y-82785714D01*
X148452380Y-83690476D02*
X148452380Y-84309523D01*
X148833333Y-83976190D01*
X148833333Y-84119047D01*
X148880952Y-84214285D01*
X148928571Y-84261904D01*
X149023809Y-84309523D01*
X149261904Y-84309523D01*
X149357142Y-84261904D01*
X149404761Y-84214285D01*
X149452380Y-84119047D01*
X149452380Y-83833333D01*
X149404761Y-83738095D01*
X149357142Y-83690476D01*
X148880952Y-84880952D02*
X148833333Y-84785714D01*
X148785714Y-84738095D01*
X148690476Y-84690476D01*
X148642857Y-84690476D01*
X148547619Y-84738095D01*
X148500000Y-84785714D01*
X148452380Y-84880952D01*
X148452380Y-85071428D01*
X148500000Y-85166666D01*
X148547619Y-85214285D01*
X148642857Y-85261904D01*
X148690476Y-85261904D01*
X148785714Y-85214285D01*
X148833333Y-85166666D01*
X148880952Y-85071428D01*
X148880952Y-84880952D01*
X148928571Y-84785714D01*
X148976190Y-84738095D01*
X149071428Y-84690476D01*
X149261904Y-84690476D01*
X149357142Y-84738095D01*
X149404761Y-84785714D01*
X149452380Y-84880952D01*
X149452380Y-85071428D01*
X149404761Y-85166666D01*
X149357142Y-85214285D01*
X149261904Y-85261904D01*
X149071428Y-85261904D01*
X148976190Y-85214285D01*
X148928571Y-85166666D01*
X148880952Y-85071428D01*
%TO.C,D37*%
X148121380Y-60888714D02*
X147121380Y-60888714D01*
X147121380Y-61126809D01*
X147169000Y-61269666D01*
X147264238Y-61364904D01*
X147359476Y-61412523D01*
X147549952Y-61460142D01*
X147692809Y-61460142D01*
X147883285Y-61412523D01*
X147978523Y-61364904D01*
X148073761Y-61269666D01*
X148121380Y-61126809D01*
X148121380Y-60888714D01*
X147121380Y-61793476D02*
X147121380Y-62412523D01*
X147502333Y-62079190D01*
X147502333Y-62222047D01*
X147549952Y-62317285D01*
X147597571Y-62364904D01*
X147692809Y-62412523D01*
X147930904Y-62412523D01*
X148026142Y-62364904D01*
X148073761Y-62317285D01*
X148121380Y-62222047D01*
X148121380Y-61936333D01*
X148073761Y-61841095D01*
X148026142Y-61793476D01*
X147121380Y-62745857D02*
X147121380Y-63412523D01*
X148121380Y-62983952D01*
%TO.C,D36*%
X154202380Y-45285714D02*
X153202380Y-45285714D01*
X153202380Y-45523809D01*
X153250000Y-45666666D01*
X153345238Y-45761904D01*
X153440476Y-45809523D01*
X153630952Y-45857142D01*
X153773809Y-45857142D01*
X153964285Y-45809523D01*
X154059523Y-45761904D01*
X154154761Y-45666666D01*
X154202380Y-45523809D01*
X154202380Y-45285714D01*
X153202380Y-46190476D02*
X153202380Y-46809523D01*
X153583333Y-46476190D01*
X153583333Y-46619047D01*
X153630952Y-46714285D01*
X153678571Y-46761904D01*
X153773809Y-46809523D01*
X154011904Y-46809523D01*
X154107142Y-46761904D01*
X154154761Y-46714285D01*
X154202380Y-46619047D01*
X154202380Y-46333333D01*
X154154761Y-46238095D01*
X154107142Y-46190476D01*
X153202380Y-47666666D02*
X153202380Y-47476190D01*
X153250000Y-47380952D01*
X153297619Y-47333333D01*
X153440476Y-47238095D01*
X153630952Y-47190476D01*
X154011904Y-47190476D01*
X154107142Y-47238095D01*
X154154761Y-47285714D01*
X154202380Y-47380952D01*
X154202380Y-47571428D01*
X154154761Y-47666666D01*
X154107142Y-47714285D01*
X154011904Y-47761904D01*
X153773809Y-47761904D01*
X153678571Y-47714285D01*
X153630952Y-47666666D01*
X153583333Y-47571428D01*
X153583333Y-47380952D01*
X153630952Y-47285714D01*
X153678571Y-47238095D01*
X153773809Y-47190476D01*
%TO.C,D35*%
X148512380Y-13645714D02*
X147512380Y-13645714D01*
X147512380Y-13883809D01*
X147560000Y-14026666D01*
X147655238Y-14121904D01*
X147750476Y-14169523D01*
X147940952Y-14217142D01*
X148083809Y-14217142D01*
X148274285Y-14169523D01*
X148369523Y-14121904D01*
X148464761Y-14026666D01*
X148512380Y-13883809D01*
X148512380Y-13645714D01*
X147512380Y-14550476D02*
X147512380Y-15169523D01*
X147893333Y-14836190D01*
X147893333Y-14979047D01*
X147940952Y-15074285D01*
X147988571Y-15121904D01*
X148083809Y-15169523D01*
X148321904Y-15169523D01*
X148417142Y-15121904D01*
X148464761Y-15074285D01*
X148512380Y-14979047D01*
X148512380Y-14693333D01*
X148464761Y-14598095D01*
X148417142Y-14550476D01*
X147512380Y-16074285D02*
X147512380Y-15598095D01*
X147988571Y-15550476D01*
X147940952Y-15598095D01*
X147893333Y-15693333D01*
X147893333Y-15931428D01*
X147940952Y-16026666D01*
X147988571Y-16074285D01*
X148083809Y-16121904D01*
X148321904Y-16121904D01*
X148417142Y-16074285D01*
X148464761Y-16026666D01*
X148512380Y-15931428D01*
X148512380Y-15693333D01*
X148464761Y-15598095D01*
X148417142Y-15550476D01*
%TO.C,D34*%
X145964285Y-117952380D02*
X145964285Y-116952380D01*
X145726190Y-116952380D01*
X145583333Y-117000000D01*
X145488095Y-117095238D01*
X145440476Y-117190476D01*
X145392857Y-117380952D01*
X145392857Y-117523809D01*
X145440476Y-117714285D01*
X145488095Y-117809523D01*
X145583333Y-117904761D01*
X145726190Y-117952380D01*
X145964285Y-117952380D01*
X145059523Y-116952380D02*
X144440476Y-116952380D01*
X144773809Y-117333333D01*
X144630952Y-117333333D01*
X144535714Y-117380952D01*
X144488095Y-117428571D01*
X144440476Y-117523809D01*
X144440476Y-117761904D01*
X144488095Y-117857142D01*
X144535714Y-117904761D01*
X144630952Y-117952380D01*
X144916666Y-117952380D01*
X145011904Y-117904761D01*
X145059523Y-117857142D01*
X143583333Y-117285714D02*
X143583333Y-117952380D01*
X143821428Y-116904761D02*
X144059523Y-117619047D01*
X143440476Y-117619047D01*
%TO.C,D33*%
X139952380Y-102285714D02*
X138952380Y-102285714D01*
X138952380Y-102523809D01*
X139000000Y-102666666D01*
X139095238Y-102761904D01*
X139190476Y-102809523D01*
X139380952Y-102857142D01*
X139523809Y-102857142D01*
X139714285Y-102809523D01*
X139809523Y-102761904D01*
X139904761Y-102666666D01*
X139952380Y-102523809D01*
X139952380Y-102285714D01*
X138952380Y-103190476D02*
X138952380Y-103809523D01*
X139333333Y-103476190D01*
X139333333Y-103619047D01*
X139380952Y-103714285D01*
X139428571Y-103761904D01*
X139523809Y-103809523D01*
X139761904Y-103809523D01*
X139857142Y-103761904D01*
X139904761Y-103714285D01*
X139952380Y-103619047D01*
X139952380Y-103333333D01*
X139904761Y-103238095D01*
X139857142Y-103190476D01*
X138952380Y-104142857D02*
X138952380Y-104761904D01*
X139333333Y-104428571D01*
X139333333Y-104571428D01*
X139380952Y-104666666D01*
X139428571Y-104714285D01*
X139523809Y-104761904D01*
X139761904Y-104761904D01*
X139857142Y-104714285D01*
X139904761Y-104666666D01*
X139952380Y-104571428D01*
X139952380Y-104285714D01*
X139904761Y-104190476D01*
X139857142Y-104142857D01*
%TO.C,D32*%
X130702380Y-82785714D02*
X129702380Y-82785714D01*
X129702380Y-83023809D01*
X129750000Y-83166666D01*
X129845238Y-83261904D01*
X129940476Y-83309523D01*
X130130952Y-83357142D01*
X130273809Y-83357142D01*
X130464285Y-83309523D01*
X130559523Y-83261904D01*
X130654761Y-83166666D01*
X130702380Y-83023809D01*
X130702380Y-82785714D01*
X129702380Y-83690476D02*
X129702380Y-84309523D01*
X130083333Y-83976190D01*
X130083333Y-84119047D01*
X130130952Y-84214285D01*
X130178571Y-84261904D01*
X130273809Y-84309523D01*
X130511904Y-84309523D01*
X130607142Y-84261904D01*
X130654761Y-84214285D01*
X130702380Y-84119047D01*
X130702380Y-83833333D01*
X130654761Y-83738095D01*
X130607142Y-83690476D01*
X129797619Y-84690476D02*
X129750000Y-84738095D01*
X129702380Y-84833333D01*
X129702380Y-85071428D01*
X129750000Y-85166666D01*
X129797619Y-85214285D01*
X129892857Y-85261904D01*
X129988095Y-85261904D01*
X130130952Y-85214285D01*
X130702380Y-84642857D01*
X130702380Y-85261904D01*
%TO.C,D31*%
X128436380Y-60888714D02*
X127436380Y-60888714D01*
X127436380Y-61126809D01*
X127484000Y-61269666D01*
X127579238Y-61364904D01*
X127674476Y-61412523D01*
X127864952Y-61460142D01*
X128007809Y-61460142D01*
X128198285Y-61412523D01*
X128293523Y-61364904D01*
X128388761Y-61269666D01*
X128436380Y-61126809D01*
X128436380Y-60888714D01*
X127436380Y-61793476D02*
X127436380Y-62412523D01*
X127817333Y-62079190D01*
X127817333Y-62222047D01*
X127864952Y-62317285D01*
X127912571Y-62364904D01*
X128007809Y-62412523D01*
X128245904Y-62412523D01*
X128341142Y-62364904D01*
X128388761Y-62317285D01*
X128436380Y-62222047D01*
X128436380Y-61936333D01*
X128388761Y-61841095D01*
X128341142Y-61793476D01*
X128436380Y-63364904D02*
X128436380Y-62793476D01*
X128436380Y-63079190D02*
X127436380Y-63079190D01*
X127579238Y-62983952D01*
X127674476Y-62888714D01*
X127722095Y-62793476D01*
%TO.C,D30*%
X135202380Y-45285714D02*
X134202380Y-45285714D01*
X134202380Y-45523809D01*
X134250000Y-45666666D01*
X134345238Y-45761904D01*
X134440476Y-45809523D01*
X134630952Y-45857142D01*
X134773809Y-45857142D01*
X134964285Y-45809523D01*
X135059523Y-45761904D01*
X135154761Y-45666666D01*
X135202380Y-45523809D01*
X135202380Y-45285714D01*
X134202380Y-46190476D02*
X134202380Y-46809523D01*
X134583333Y-46476190D01*
X134583333Y-46619047D01*
X134630952Y-46714285D01*
X134678571Y-46761904D01*
X134773809Y-46809523D01*
X135011904Y-46809523D01*
X135107142Y-46761904D01*
X135154761Y-46714285D01*
X135202380Y-46619047D01*
X135202380Y-46333333D01*
X135154761Y-46238095D01*
X135107142Y-46190476D01*
X134202380Y-47428571D02*
X134202380Y-47523809D01*
X134250000Y-47619047D01*
X134297619Y-47666666D01*
X134392857Y-47714285D01*
X134583333Y-47761904D01*
X134821428Y-47761904D01*
X135011904Y-47714285D01*
X135107142Y-47666666D01*
X135154761Y-47619047D01*
X135202380Y-47523809D01*
X135202380Y-47428571D01*
X135154761Y-47333333D01*
X135107142Y-47285714D01*
X135011904Y-47238095D01*
X134821428Y-47190476D01*
X134583333Y-47190476D01*
X134392857Y-47238095D01*
X134297619Y-47285714D01*
X134250000Y-47333333D01*
X134202380Y-47428571D01*
%TO.C,D29*%
X120702380Y-102285714D02*
X119702380Y-102285714D01*
X119702380Y-102523809D01*
X119750000Y-102666666D01*
X119845238Y-102761904D01*
X119940476Y-102809523D01*
X120130952Y-102857142D01*
X120273809Y-102857142D01*
X120464285Y-102809523D01*
X120559523Y-102761904D01*
X120654761Y-102666666D01*
X120702380Y-102523809D01*
X120702380Y-102285714D01*
X119797619Y-103238095D02*
X119750000Y-103285714D01*
X119702380Y-103380952D01*
X119702380Y-103619047D01*
X119750000Y-103714285D01*
X119797619Y-103761904D01*
X119892857Y-103809523D01*
X119988095Y-103809523D01*
X120130952Y-103761904D01*
X120702380Y-103190476D01*
X120702380Y-103809523D01*
X120702380Y-104285714D02*
X120702380Y-104476190D01*
X120654761Y-104571428D01*
X120607142Y-104619047D01*
X120464285Y-104714285D01*
X120273809Y-104761904D01*
X119892857Y-104761904D01*
X119797619Y-104714285D01*
X119750000Y-104666666D01*
X119702380Y-104571428D01*
X119702380Y-104380952D01*
X119750000Y-104285714D01*
X119797619Y-104238095D01*
X119892857Y-104190476D01*
X120130952Y-104190476D01*
X120226190Y-104238095D01*
X120273809Y-104285714D01*
X120321428Y-104380952D01*
X120321428Y-104571428D01*
X120273809Y-104666666D01*
X120226190Y-104714285D01*
X120130952Y-104761904D01*
%TO.C,D28*%
X111452380Y-82785714D02*
X110452380Y-82785714D01*
X110452380Y-83023809D01*
X110500000Y-83166666D01*
X110595238Y-83261904D01*
X110690476Y-83309523D01*
X110880952Y-83357142D01*
X111023809Y-83357142D01*
X111214285Y-83309523D01*
X111309523Y-83261904D01*
X111404761Y-83166666D01*
X111452380Y-83023809D01*
X111452380Y-82785714D01*
X110547619Y-83738095D02*
X110500000Y-83785714D01*
X110452380Y-83880952D01*
X110452380Y-84119047D01*
X110500000Y-84214285D01*
X110547619Y-84261904D01*
X110642857Y-84309523D01*
X110738095Y-84309523D01*
X110880952Y-84261904D01*
X111452380Y-83690476D01*
X111452380Y-84309523D01*
X110880952Y-84880952D02*
X110833333Y-84785714D01*
X110785714Y-84738095D01*
X110690476Y-84690476D01*
X110642857Y-84690476D01*
X110547619Y-84738095D01*
X110500000Y-84785714D01*
X110452380Y-84880952D01*
X110452380Y-85071428D01*
X110500000Y-85166666D01*
X110547619Y-85214285D01*
X110642857Y-85261904D01*
X110690476Y-85261904D01*
X110785714Y-85214285D01*
X110833333Y-85166666D01*
X110880952Y-85071428D01*
X110880952Y-84880952D01*
X110928571Y-84785714D01*
X110976190Y-84738095D01*
X111071428Y-84690476D01*
X111261904Y-84690476D01*
X111357142Y-84738095D01*
X111404761Y-84785714D01*
X111452380Y-84880952D01*
X111452380Y-85071428D01*
X111404761Y-85166666D01*
X111357142Y-85214285D01*
X111261904Y-85261904D01*
X111071428Y-85261904D01*
X110976190Y-85214285D01*
X110928571Y-85166666D01*
X110880952Y-85071428D01*
%TO.C,D27*%
X109767380Y-60888714D02*
X108767380Y-60888714D01*
X108767380Y-61126809D01*
X108815000Y-61269666D01*
X108910238Y-61364904D01*
X109005476Y-61412523D01*
X109195952Y-61460142D01*
X109338809Y-61460142D01*
X109529285Y-61412523D01*
X109624523Y-61364904D01*
X109719761Y-61269666D01*
X109767380Y-61126809D01*
X109767380Y-60888714D01*
X108862619Y-61841095D02*
X108815000Y-61888714D01*
X108767380Y-61983952D01*
X108767380Y-62222047D01*
X108815000Y-62317285D01*
X108862619Y-62364904D01*
X108957857Y-62412523D01*
X109053095Y-62412523D01*
X109195952Y-62364904D01*
X109767380Y-61793476D01*
X109767380Y-62412523D01*
X108767380Y-62745857D02*
X108767380Y-63412523D01*
X109767380Y-62983952D01*
%TO.C,D26*%
X115952380Y-45285714D02*
X114952380Y-45285714D01*
X114952380Y-45523809D01*
X115000000Y-45666666D01*
X115095238Y-45761904D01*
X115190476Y-45809523D01*
X115380952Y-45857142D01*
X115523809Y-45857142D01*
X115714285Y-45809523D01*
X115809523Y-45761904D01*
X115904761Y-45666666D01*
X115952380Y-45523809D01*
X115952380Y-45285714D01*
X115047619Y-46238095D02*
X115000000Y-46285714D01*
X114952380Y-46380952D01*
X114952380Y-46619047D01*
X115000000Y-46714285D01*
X115047619Y-46761904D01*
X115142857Y-46809523D01*
X115238095Y-46809523D01*
X115380952Y-46761904D01*
X115952380Y-46190476D01*
X115952380Y-46809523D01*
X114952380Y-47666666D02*
X114952380Y-47476190D01*
X115000000Y-47380952D01*
X115047619Y-47333333D01*
X115190476Y-47238095D01*
X115380952Y-47190476D01*
X115761904Y-47190476D01*
X115857142Y-47238095D01*
X115904761Y-47285714D01*
X115952380Y-47380952D01*
X115952380Y-47571428D01*
X115904761Y-47666666D01*
X115857142Y-47714285D01*
X115761904Y-47761904D01*
X115523809Y-47761904D01*
X115428571Y-47714285D01*
X115380952Y-47666666D01*
X115333333Y-47571428D01*
X115333333Y-47380952D01*
X115380952Y-47285714D01*
X115428571Y-47238095D01*
X115523809Y-47190476D01*
%TO.C,D25*%
X120012380Y-13645714D02*
X119012380Y-13645714D01*
X119012380Y-13883809D01*
X119060000Y-14026666D01*
X119155238Y-14121904D01*
X119250476Y-14169523D01*
X119440952Y-14217142D01*
X119583809Y-14217142D01*
X119774285Y-14169523D01*
X119869523Y-14121904D01*
X119964761Y-14026666D01*
X120012380Y-13883809D01*
X120012380Y-13645714D01*
X119107619Y-14598095D02*
X119060000Y-14645714D01*
X119012380Y-14740952D01*
X119012380Y-14979047D01*
X119060000Y-15074285D01*
X119107619Y-15121904D01*
X119202857Y-15169523D01*
X119298095Y-15169523D01*
X119440952Y-15121904D01*
X120012380Y-14550476D01*
X120012380Y-15169523D01*
X119012380Y-16074285D02*
X119012380Y-15598095D01*
X119488571Y-15550476D01*
X119440952Y-15598095D01*
X119393333Y-15693333D01*
X119393333Y-15931428D01*
X119440952Y-16026666D01*
X119488571Y-16074285D01*
X119583809Y-16121904D01*
X119821904Y-16121904D01*
X119917142Y-16074285D01*
X119964761Y-16026666D01*
X120012380Y-15931428D01*
X120012380Y-15693333D01*
X119964761Y-15598095D01*
X119917142Y-15550476D01*
%TO.C,D24*%
X101702380Y-102285714D02*
X100702380Y-102285714D01*
X100702380Y-102523809D01*
X100750000Y-102666666D01*
X100845238Y-102761904D01*
X100940476Y-102809523D01*
X101130952Y-102857142D01*
X101273809Y-102857142D01*
X101464285Y-102809523D01*
X101559523Y-102761904D01*
X101654761Y-102666666D01*
X101702380Y-102523809D01*
X101702380Y-102285714D01*
X100797619Y-103238095D02*
X100750000Y-103285714D01*
X100702380Y-103380952D01*
X100702380Y-103619047D01*
X100750000Y-103714285D01*
X100797619Y-103761904D01*
X100892857Y-103809523D01*
X100988095Y-103809523D01*
X101130952Y-103761904D01*
X101702380Y-103190476D01*
X101702380Y-103809523D01*
X101035714Y-104666666D02*
X101702380Y-104666666D01*
X100654761Y-104428571D02*
X101369047Y-104190476D01*
X101369047Y-104809523D01*
%TO.C,D23*%
X92202380Y-82785714D02*
X91202380Y-82785714D01*
X91202380Y-83023809D01*
X91250000Y-83166666D01*
X91345238Y-83261904D01*
X91440476Y-83309523D01*
X91630952Y-83357142D01*
X91773809Y-83357142D01*
X91964285Y-83309523D01*
X92059523Y-83261904D01*
X92154761Y-83166666D01*
X92202380Y-83023809D01*
X92202380Y-82785714D01*
X91297619Y-83738095D02*
X91250000Y-83785714D01*
X91202380Y-83880952D01*
X91202380Y-84119047D01*
X91250000Y-84214285D01*
X91297619Y-84261904D01*
X91392857Y-84309523D01*
X91488095Y-84309523D01*
X91630952Y-84261904D01*
X92202380Y-83690476D01*
X92202380Y-84309523D01*
X91202380Y-84642857D02*
X91202380Y-85261904D01*
X91583333Y-84928571D01*
X91583333Y-85071428D01*
X91630952Y-85166666D01*
X91678571Y-85214285D01*
X91773809Y-85261904D01*
X92011904Y-85261904D01*
X92107142Y-85214285D01*
X92154761Y-85166666D01*
X92202380Y-85071428D01*
X92202380Y-84785714D01*
X92154761Y-84690476D01*
X92107142Y-84642857D01*
%TO.C,D22*%
X90082380Y-60888714D02*
X89082380Y-60888714D01*
X89082380Y-61126809D01*
X89130000Y-61269666D01*
X89225238Y-61364904D01*
X89320476Y-61412523D01*
X89510952Y-61460142D01*
X89653809Y-61460142D01*
X89844285Y-61412523D01*
X89939523Y-61364904D01*
X90034761Y-61269666D01*
X90082380Y-61126809D01*
X90082380Y-60888714D01*
X89177619Y-61841095D02*
X89130000Y-61888714D01*
X89082380Y-61983952D01*
X89082380Y-62222047D01*
X89130000Y-62317285D01*
X89177619Y-62364904D01*
X89272857Y-62412523D01*
X89368095Y-62412523D01*
X89510952Y-62364904D01*
X90082380Y-61793476D01*
X90082380Y-62412523D01*
X89177619Y-62793476D02*
X89130000Y-62841095D01*
X89082380Y-62936333D01*
X89082380Y-63174428D01*
X89130000Y-63269666D01*
X89177619Y-63317285D01*
X89272857Y-63364904D01*
X89368095Y-63364904D01*
X89510952Y-63317285D01*
X90082380Y-62745857D01*
X90082380Y-63364904D01*
%TO.C,D21*%
X96952380Y-45285714D02*
X95952380Y-45285714D01*
X95952380Y-45523809D01*
X96000000Y-45666666D01*
X96095238Y-45761904D01*
X96190476Y-45809523D01*
X96380952Y-45857142D01*
X96523809Y-45857142D01*
X96714285Y-45809523D01*
X96809523Y-45761904D01*
X96904761Y-45666666D01*
X96952380Y-45523809D01*
X96952380Y-45285714D01*
X96047619Y-46238095D02*
X96000000Y-46285714D01*
X95952380Y-46380952D01*
X95952380Y-46619047D01*
X96000000Y-46714285D01*
X96047619Y-46761904D01*
X96142857Y-46809523D01*
X96238095Y-46809523D01*
X96380952Y-46761904D01*
X96952380Y-46190476D01*
X96952380Y-46809523D01*
X96952380Y-47761904D02*
X96952380Y-47190476D01*
X96952380Y-47476190D02*
X95952380Y-47476190D01*
X96095238Y-47380952D01*
X96190476Y-47285714D01*
X96238095Y-47190476D01*
%TO.C,D20*%
X100762380Y-13645714D02*
X99762380Y-13645714D01*
X99762380Y-13883809D01*
X99810000Y-14026666D01*
X99905238Y-14121904D01*
X100000476Y-14169523D01*
X100190952Y-14217142D01*
X100333809Y-14217142D01*
X100524285Y-14169523D01*
X100619523Y-14121904D01*
X100714761Y-14026666D01*
X100762380Y-13883809D01*
X100762380Y-13645714D01*
X99857619Y-14598095D02*
X99810000Y-14645714D01*
X99762380Y-14740952D01*
X99762380Y-14979047D01*
X99810000Y-15074285D01*
X99857619Y-15121904D01*
X99952857Y-15169523D01*
X100048095Y-15169523D01*
X100190952Y-15121904D01*
X100762380Y-14550476D01*
X100762380Y-15169523D01*
X99762380Y-15788571D02*
X99762380Y-15883809D01*
X99810000Y-15979047D01*
X99857619Y-16026666D01*
X99952857Y-16074285D01*
X100143333Y-16121904D01*
X100381428Y-16121904D01*
X100571904Y-16074285D01*
X100667142Y-16026666D01*
X100714761Y-15979047D01*
X100762380Y-15883809D01*
X100762380Y-15788571D01*
X100714761Y-15693333D01*
X100667142Y-15645714D01*
X100571904Y-15598095D01*
X100381428Y-15550476D01*
X100143333Y-15550476D01*
X99952857Y-15598095D01*
X99857619Y-15645714D01*
X99810000Y-15693333D01*
X99762380Y-15788571D01*
%TO.C,D19*%
X75214285Y-117952380D02*
X75214285Y-116952380D01*
X74976190Y-116952380D01*
X74833333Y-117000000D01*
X74738095Y-117095238D01*
X74690476Y-117190476D01*
X74642857Y-117380952D01*
X74642857Y-117523809D01*
X74690476Y-117714285D01*
X74738095Y-117809523D01*
X74833333Y-117904761D01*
X74976190Y-117952380D01*
X75214285Y-117952380D01*
X73690476Y-117952380D02*
X74261904Y-117952380D01*
X73976190Y-117952380D02*
X73976190Y-116952380D01*
X74071428Y-117095238D01*
X74166666Y-117190476D01*
X74261904Y-117238095D01*
X73214285Y-117952380D02*
X73023809Y-117952380D01*
X72928571Y-117904761D01*
X72880952Y-117857142D01*
X72785714Y-117714285D01*
X72738095Y-117523809D01*
X72738095Y-117142857D01*
X72785714Y-117047619D01*
X72833333Y-117000000D01*
X72928571Y-116952380D01*
X73119047Y-116952380D01*
X73214285Y-117000000D01*
X73261904Y-117047619D01*
X73309523Y-117142857D01*
X73309523Y-117380952D01*
X73261904Y-117476190D01*
X73214285Y-117523809D01*
X73119047Y-117571428D01*
X72928571Y-117571428D01*
X72833333Y-117523809D01*
X72785714Y-117476190D01*
X72738095Y-117380952D01*
%TO.C,D18*%
X82702380Y-102285714D02*
X81702380Y-102285714D01*
X81702380Y-102523809D01*
X81750000Y-102666666D01*
X81845238Y-102761904D01*
X81940476Y-102809523D01*
X82130952Y-102857142D01*
X82273809Y-102857142D01*
X82464285Y-102809523D01*
X82559523Y-102761904D01*
X82654761Y-102666666D01*
X82702380Y-102523809D01*
X82702380Y-102285714D01*
X82702380Y-103809523D02*
X82702380Y-103238095D01*
X82702380Y-103523809D02*
X81702380Y-103523809D01*
X81845238Y-103428571D01*
X81940476Y-103333333D01*
X81988095Y-103238095D01*
X82130952Y-104380952D02*
X82083333Y-104285714D01*
X82035714Y-104238095D01*
X81940476Y-104190476D01*
X81892857Y-104190476D01*
X81797619Y-104238095D01*
X81750000Y-104285714D01*
X81702380Y-104380952D01*
X81702380Y-104571428D01*
X81750000Y-104666666D01*
X81797619Y-104714285D01*
X81892857Y-104761904D01*
X81940476Y-104761904D01*
X82035714Y-104714285D01*
X82083333Y-104666666D01*
X82130952Y-104571428D01*
X82130952Y-104380952D01*
X82178571Y-104285714D01*
X82226190Y-104238095D01*
X82321428Y-104190476D01*
X82511904Y-104190476D01*
X82607142Y-104238095D01*
X82654761Y-104285714D01*
X82702380Y-104380952D01*
X82702380Y-104571428D01*
X82654761Y-104666666D01*
X82607142Y-104714285D01*
X82511904Y-104761904D01*
X82321428Y-104761904D01*
X82226190Y-104714285D01*
X82178571Y-104666666D01*
X82130952Y-104571428D01*
%TO.C,D17*%
X73202380Y-82785714D02*
X72202380Y-82785714D01*
X72202380Y-83023809D01*
X72250000Y-83166666D01*
X72345238Y-83261904D01*
X72440476Y-83309523D01*
X72630952Y-83357142D01*
X72773809Y-83357142D01*
X72964285Y-83309523D01*
X73059523Y-83261904D01*
X73154761Y-83166666D01*
X73202380Y-83023809D01*
X73202380Y-82785714D01*
X73202380Y-84309523D02*
X73202380Y-83738095D01*
X73202380Y-84023809D02*
X72202380Y-84023809D01*
X72345238Y-83928571D01*
X72440476Y-83833333D01*
X72488095Y-83738095D01*
X72202380Y-84642857D02*
X72202380Y-85309523D01*
X73202380Y-84880952D01*
%TO.C,D16*%
X71794380Y-61015714D02*
X70794380Y-61015714D01*
X70794380Y-61253809D01*
X70842000Y-61396666D01*
X70937238Y-61491904D01*
X71032476Y-61539523D01*
X71222952Y-61587142D01*
X71365809Y-61587142D01*
X71556285Y-61539523D01*
X71651523Y-61491904D01*
X71746761Y-61396666D01*
X71794380Y-61253809D01*
X71794380Y-61015714D01*
X71794380Y-62539523D02*
X71794380Y-61968095D01*
X71794380Y-62253809D02*
X70794380Y-62253809D01*
X70937238Y-62158571D01*
X71032476Y-62063333D01*
X71080095Y-61968095D01*
X70794380Y-63396666D02*
X70794380Y-63206190D01*
X70842000Y-63110952D01*
X70889619Y-63063333D01*
X71032476Y-62968095D01*
X71222952Y-62920476D01*
X71603904Y-62920476D01*
X71699142Y-62968095D01*
X71746761Y-63015714D01*
X71794380Y-63110952D01*
X71794380Y-63301428D01*
X71746761Y-63396666D01*
X71699142Y-63444285D01*
X71603904Y-63491904D01*
X71365809Y-63491904D01*
X71270571Y-63444285D01*
X71222952Y-63396666D01*
X71175333Y-63301428D01*
X71175333Y-63110952D01*
X71222952Y-63015714D01*
X71270571Y-62968095D01*
X71365809Y-62920476D01*
%TO.C,D15*%
X77952380Y-45285714D02*
X76952380Y-45285714D01*
X76952380Y-45523809D01*
X77000000Y-45666666D01*
X77095238Y-45761904D01*
X77190476Y-45809523D01*
X77380952Y-45857142D01*
X77523809Y-45857142D01*
X77714285Y-45809523D01*
X77809523Y-45761904D01*
X77904761Y-45666666D01*
X77952380Y-45523809D01*
X77952380Y-45285714D01*
X77952380Y-46809523D02*
X77952380Y-46238095D01*
X77952380Y-46523809D02*
X76952380Y-46523809D01*
X77095238Y-46428571D01*
X77190476Y-46333333D01*
X77238095Y-46238095D01*
X76952380Y-47714285D02*
X76952380Y-47238095D01*
X77428571Y-47190476D01*
X77380952Y-47238095D01*
X77333333Y-47333333D01*
X77333333Y-47571428D01*
X77380952Y-47666666D01*
X77428571Y-47714285D01*
X77523809Y-47761904D01*
X77761904Y-47761904D01*
X77857142Y-47714285D01*
X77904761Y-47666666D01*
X77952380Y-47571428D01*
X77952380Y-47333333D01*
X77904761Y-47238095D01*
X77857142Y-47190476D01*
%TO.C,D14*%
X81827380Y-13645714D02*
X80827380Y-13645714D01*
X80827380Y-13883809D01*
X80875000Y-14026666D01*
X80970238Y-14121904D01*
X81065476Y-14169523D01*
X81255952Y-14217142D01*
X81398809Y-14217142D01*
X81589285Y-14169523D01*
X81684523Y-14121904D01*
X81779761Y-14026666D01*
X81827380Y-13883809D01*
X81827380Y-13645714D01*
X81827380Y-15169523D02*
X81827380Y-14598095D01*
X81827380Y-14883809D02*
X80827380Y-14883809D01*
X80970238Y-14788571D01*
X81065476Y-14693333D01*
X81113095Y-14598095D01*
X81160714Y-16026666D02*
X81827380Y-16026666D01*
X80779761Y-15788571D02*
X81494047Y-15550476D01*
X81494047Y-16169523D01*
%TO.C,D13*%
X63702380Y-102285714D02*
X62702380Y-102285714D01*
X62702380Y-102523809D01*
X62750000Y-102666666D01*
X62845238Y-102761904D01*
X62940476Y-102809523D01*
X63130952Y-102857142D01*
X63273809Y-102857142D01*
X63464285Y-102809523D01*
X63559523Y-102761904D01*
X63654761Y-102666666D01*
X63702380Y-102523809D01*
X63702380Y-102285714D01*
X63702380Y-103809523D02*
X63702380Y-103238095D01*
X63702380Y-103523809D02*
X62702380Y-103523809D01*
X62845238Y-103428571D01*
X62940476Y-103333333D01*
X62988095Y-103238095D01*
X62702380Y-104142857D02*
X62702380Y-104761904D01*
X63083333Y-104428571D01*
X63083333Y-104571428D01*
X63130952Y-104666666D01*
X63178571Y-104714285D01*
X63273809Y-104761904D01*
X63511904Y-104761904D01*
X63607142Y-104714285D01*
X63654761Y-104666666D01*
X63702380Y-104571428D01*
X63702380Y-104285714D01*
X63654761Y-104190476D01*
X63607142Y-104142857D01*
%TO.C,D12*%
X54202380Y-82785714D02*
X53202380Y-82785714D01*
X53202380Y-83023809D01*
X53250000Y-83166666D01*
X53345238Y-83261904D01*
X53440476Y-83309523D01*
X53630952Y-83357142D01*
X53773809Y-83357142D01*
X53964285Y-83309523D01*
X54059523Y-83261904D01*
X54154761Y-83166666D01*
X54202380Y-83023809D01*
X54202380Y-82785714D01*
X54202380Y-84309523D02*
X54202380Y-83738095D01*
X54202380Y-84023809D02*
X53202380Y-84023809D01*
X53345238Y-83928571D01*
X53440476Y-83833333D01*
X53488095Y-83738095D01*
X53297619Y-84690476D02*
X53250000Y-84738095D01*
X53202380Y-84833333D01*
X53202380Y-85071428D01*
X53250000Y-85166666D01*
X53297619Y-85214285D01*
X53392857Y-85261904D01*
X53488095Y-85261904D01*
X53630952Y-85214285D01*
X54202380Y-84642857D01*
X54202380Y-85261904D01*
%TO.C,D11*%
X52998380Y-61015714D02*
X51998380Y-61015714D01*
X51998380Y-61253809D01*
X52046000Y-61396666D01*
X52141238Y-61491904D01*
X52236476Y-61539523D01*
X52426952Y-61587142D01*
X52569809Y-61587142D01*
X52760285Y-61539523D01*
X52855523Y-61491904D01*
X52950761Y-61396666D01*
X52998380Y-61253809D01*
X52998380Y-61015714D01*
X52998380Y-62539523D02*
X52998380Y-61968095D01*
X52998380Y-62253809D02*
X51998380Y-62253809D01*
X52141238Y-62158571D01*
X52236476Y-62063333D01*
X52284095Y-61968095D01*
X52998380Y-63491904D02*
X52998380Y-62920476D01*
X52998380Y-63206190D02*
X51998380Y-63206190D01*
X52141238Y-63110952D01*
X52236476Y-63015714D01*
X52284095Y-62920476D01*
%TO.C,D10*%
X58952380Y-45285714D02*
X57952380Y-45285714D01*
X57952380Y-45523809D01*
X58000000Y-45666666D01*
X58095238Y-45761904D01*
X58190476Y-45809523D01*
X58380952Y-45857142D01*
X58523809Y-45857142D01*
X58714285Y-45809523D01*
X58809523Y-45761904D01*
X58904761Y-45666666D01*
X58952380Y-45523809D01*
X58952380Y-45285714D01*
X58952380Y-46809523D02*
X58952380Y-46238095D01*
X58952380Y-46523809D02*
X57952380Y-46523809D01*
X58095238Y-46428571D01*
X58190476Y-46333333D01*
X58238095Y-46238095D01*
X57952380Y-47428571D02*
X57952380Y-47523809D01*
X58000000Y-47619047D01*
X58047619Y-47666666D01*
X58142857Y-47714285D01*
X58333333Y-47761904D01*
X58571428Y-47761904D01*
X58761904Y-47714285D01*
X58857142Y-47666666D01*
X58904761Y-47619047D01*
X58952380Y-47523809D01*
X58952380Y-47428571D01*
X58904761Y-47333333D01*
X58857142Y-47285714D01*
X58761904Y-47238095D01*
X58571428Y-47190476D01*
X58333333Y-47190476D01*
X58142857Y-47238095D01*
X58047619Y-47285714D01*
X58000000Y-47333333D01*
X57952380Y-47428571D01*
%TO.C,D9*%
X62762380Y-14121904D02*
X61762380Y-14121904D01*
X61762380Y-14360000D01*
X61810000Y-14502857D01*
X61905238Y-14598095D01*
X62000476Y-14645714D01*
X62190952Y-14693333D01*
X62333809Y-14693333D01*
X62524285Y-14645714D01*
X62619523Y-14598095D01*
X62714761Y-14502857D01*
X62762380Y-14360000D01*
X62762380Y-14121904D01*
X62762380Y-15169523D02*
X62762380Y-15360000D01*
X62714761Y-15455238D01*
X62667142Y-15502857D01*
X62524285Y-15598095D01*
X62333809Y-15645714D01*
X61952857Y-15645714D01*
X61857619Y-15598095D01*
X61810000Y-15550476D01*
X61762380Y-15455238D01*
X61762380Y-15264761D01*
X61810000Y-15169523D01*
X61857619Y-15121904D01*
X61952857Y-15074285D01*
X62190952Y-15074285D01*
X62286190Y-15121904D01*
X62333809Y-15169523D01*
X62381428Y-15264761D01*
X62381428Y-15455238D01*
X62333809Y-15550476D01*
X62286190Y-15598095D01*
X62190952Y-15645714D01*
%TO.C,D8*%
X50488095Y-117952380D02*
X50488095Y-116952380D01*
X50250000Y-116952380D01*
X50107142Y-117000000D01*
X50011904Y-117095238D01*
X49964285Y-117190476D01*
X49916666Y-117380952D01*
X49916666Y-117523809D01*
X49964285Y-117714285D01*
X50011904Y-117809523D01*
X50107142Y-117904761D01*
X50250000Y-117952380D01*
X50488095Y-117952380D01*
X49345238Y-117380952D02*
X49440476Y-117333333D01*
X49488095Y-117285714D01*
X49535714Y-117190476D01*
X49535714Y-117142857D01*
X49488095Y-117047619D01*
X49440476Y-117000000D01*
X49345238Y-116952380D01*
X49154761Y-116952380D01*
X49059523Y-117000000D01*
X49011904Y-117047619D01*
X48964285Y-117142857D01*
X48964285Y-117190476D01*
X49011904Y-117285714D01*
X49059523Y-117333333D01*
X49154761Y-117380952D01*
X49345238Y-117380952D01*
X49440476Y-117428571D01*
X49488095Y-117476190D01*
X49535714Y-117571428D01*
X49535714Y-117761904D01*
X49488095Y-117857142D01*
X49440476Y-117904761D01*
X49345238Y-117952380D01*
X49154761Y-117952380D01*
X49059523Y-117904761D01*
X49011904Y-117857142D01*
X48964285Y-117761904D01*
X48964285Y-117571428D01*
X49011904Y-117476190D01*
X49059523Y-117428571D01*
X49154761Y-117380952D01*
%TO.C,D7*%
X32702380Y-102761904D02*
X31702380Y-102761904D01*
X31702380Y-103000000D01*
X31750000Y-103142857D01*
X31845238Y-103238095D01*
X31940476Y-103285714D01*
X32130952Y-103333333D01*
X32273809Y-103333333D01*
X32464285Y-103285714D01*
X32559523Y-103238095D01*
X32654761Y-103142857D01*
X32702380Y-103000000D01*
X32702380Y-102761904D01*
X31702380Y-103666666D02*
X31702380Y-104333333D01*
X32702380Y-103904761D01*
%TO.C,D6*%
X39952380Y-45761904D02*
X38952380Y-45761904D01*
X38952380Y-46000000D01*
X39000000Y-46142857D01*
X39095238Y-46238095D01*
X39190476Y-46285714D01*
X39380952Y-46333333D01*
X39523809Y-46333333D01*
X39714285Y-46285714D01*
X39809523Y-46238095D01*
X39904761Y-46142857D01*
X39952380Y-46000000D01*
X39952380Y-45761904D01*
X38952380Y-47190476D02*
X38952380Y-47000000D01*
X39000000Y-46904761D01*
X39047619Y-46857142D01*
X39190476Y-46761904D01*
X39380952Y-46714285D01*
X39761904Y-46714285D01*
X39857142Y-46761904D01*
X39904761Y-46809523D01*
X39952380Y-46904761D01*
X39952380Y-47095238D01*
X39904761Y-47190476D01*
X39857142Y-47238095D01*
X39761904Y-47285714D01*
X39523809Y-47285714D01*
X39428571Y-47238095D01*
X39380952Y-47190476D01*
X39333333Y-47095238D01*
X39333333Y-46904761D01*
X39380952Y-46809523D01*
X39428571Y-46761904D01*
X39523809Y-46714285D01*
%TO.C,D5*%
X26838096Y-117952380D02*
X26838096Y-116952380D01*
X26600001Y-116952380D01*
X26457143Y-117000000D01*
X26361905Y-117095238D01*
X26314286Y-117190476D01*
X26266667Y-117380952D01*
X26266667Y-117523809D01*
X26314286Y-117714285D01*
X26361905Y-117809523D01*
X26457143Y-117904761D01*
X26600001Y-117952380D01*
X26838096Y-117952380D01*
X25361905Y-116952380D02*
X25838096Y-116952380D01*
X25885715Y-117428571D01*
X25838096Y-117380952D01*
X25742858Y-117333333D01*
X25504762Y-117333333D01*
X25409524Y-117380952D01*
X25361905Y-117428571D01*
X25314286Y-117523809D01*
X25314286Y-117761904D01*
X25361905Y-117857142D01*
X25409524Y-117904761D01*
X25504762Y-117952380D01*
X25742858Y-117952380D01*
X25838096Y-117904761D01*
X25885715Y-117857142D01*
%TO.C,D4*%
X27952380Y-83261904D02*
X26952380Y-83261904D01*
X26952380Y-83500000D01*
X27000000Y-83642857D01*
X27095238Y-83738095D01*
X27190476Y-83785714D01*
X27380952Y-83833333D01*
X27523809Y-83833333D01*
X27714285Y-83785714D01*
X27809523Y-83738095D01*
X27904761Y-83642857D01*
X27952380Y-83500000D01*
X27952380Y-83261904D01*
X27285714Y-84690476D02*
X27952380Y-84690476D01*
X26904761Y-84452380D02*
X27619047Y-84214285D01*
X27619047Y-84833333D01*
%TO.C,D3*%
X29503380Y-61491904D02*
X28503380Y-61491904D01*
X28503380Y-61730000D01*
X28551000Y-61872857D01*
X28646238Y-61968095D01*
X28741476Y-62015714D01*
X28931952Y-62063333D01*
X29074809Y-62063333D01*
X29265285Y-62015714D01*
X29360523Y-61968095D01*
X29455761Y-61872857D01*
X29503380Y-61730000D01*
X29503380Y-61491904D01*
X28503380Y-62396666D02*
X28503380Y-63015714D01*
X28884333Y-62682380D01*
X28884333Y-62825238D01*
X28931952Y-62920476D01*
X28979571Y-62968095D01*
X29074809Y-63015714D01*
X29312904Y-63015714D01*
X29408142Y-62968095D01*
X29455761Y-62920476D01*
X29503380Y-62825238D01*
X29503380Y-62539523D01*
X29455761Y-62444285D01*
X29408142Y-62396666D01*
%TO.C,D2*%
X20952380Y-45761904D02*
X19952380Y-45761904D01*
X19952380Y-46000000D01*
X20000000Y-46142857D01*
X20095238Y-46238095D01*
X20190476Y-46285714D01*
X20380952Y-46333333D01*
X20523809Y-46333333D01*
X20714285Y-46285714D01*
X20809523Y-46238095D01*
X20904761Y-46142857D01*
X20952380Y-46000000D01*
X20952380Y-45761904D01*
X20047619Y-46714285D02*
X20000000Y-46761904D01*
X19952380Y-46857142D01*
X19952380Y-47095238D01*
X20000000Y-47190476D01*
X20047619Y-47238095D01*
X20142857Y-47285714D01*
X20238095Y-47285714D01*
X20380952Y-47238095D01*
X20952380Y-46666666D01*
X20952380Y-47285714D01*
%TO.C,D1*%
X22328380Y-9675904D02*
X21328380Y-9675904D01*
X21328380Y-9914000D01*
X21376000Y-10056857D01*
X21471238Y-10152095D01*
X21566476Y-10199714D01*
X21756952Y-10247333D01*
X21899809Y-10247333D01*
X22090285Y-10199714D01*
X22185523Y-10152095D01*
X22280761Y-10056857D01*
X22328380Y-9914000D01*
X22328380Y-9675904D01*
X22328380Y-11199714D02*
X22328380Y-10628285D01*
X22328380Y-10914000D02*
X21328380Y-10914000D01*
X21471238Y-10818761D01*
X21566476Y-10723523D01*
X21614095Y-10628285D01*
%TO.C,F1*%
X364188333Y-7923571D02*
X364521666Y-7923571D01*
X364521666Y-8447380D02*
X364521666Y-7447380D01*
X364045476Y-7447380D01*
X363140714Y-8447380D02*
X363712142Y-8447380D01*
X363426428Y-8447380D02*
X363426428Y-7447380D01*
X363521666Y-7590238D01*
X363616904Y-7685476D01*
X363712142Y-7733095D01*
%TO.C,J2*%
X308689333Y-28535380D02*
X308689333Y-29249666D01*
X308736952Y-29392523D01*
X308832190Y-29487761D01*
X308975047Y-29535380D01*
X309070285Y-29535380D01*
X308260761Y-28630619D02*
X308213142Y-28583000D01*
X308117904Y-28535380D01*
X307879809Y-28535380D01*
X307784571Y-28583000D01*
X307736952Y-28630619D01*
X307689333Y-28725857D01*
X307689333Y-28821095D01*
X307736952Y-28963952D01*
X308308380Y-29535380D01*
X307689333Y-29535380D01*
%TO.C,U3*%
X349883932Y-18987436D02*
X350456352Y-19559856D01*
X350490024Y-19660871D01*
X350490024Y-19728215D01*
X350456352Y-19829230D01*
X350321665Y-19963917D01*
X350220650Y-19997589D01*
X350153306Y-19997589D01*
X350052291Y-19963917D01*
X349479871Y-19391497D01*
X349210497Y-19660871D02*
X348772765Y-20098604D01*
X349277841Y-20132276D01*
X349176826Y-20233291D01*
X349143154Y-20334306D01*
X349143154Y-20401650D01*
X349176826Y-20502665D01*
X349345184Y-20671024D01*
X349446200Y-20704696D01*
X349513543Y-20704696D01*
X349614558Y-20671024D01*
X349816589Y-20468993D01*
X349850261Y-20367978D01*
X349850261Y-20300635D01*
%TO.C,FB1*%
X359719571Y-10237404D02*
X359719571Y-9904071D01*
X360243380Y-9904071D02*
X359243380Y-9904071D01*
X359243380Y-10380261D01*
X359719571Y-11094547D02*
X359767190Y-11237404D01*
X359814809Y-11285023D01*
X359910047Y-11332642D01*
X360052904Y-11332642D01*
X360148142Y-11285023D01*
X360195761Y-11237404D01*
X360243380Y-11142166D01*
X360243380Y-10761214D01*
X359243380Y-10761214D01*
X359243380Y-11094547D01*
X359291000Y-11189785D01*
X359338619Y-11237404D01*
X359433857Y-11285023D01*
X359529095Y-11285023D01*
X359624333Y-11237404D01*
X359671952Y-11189785D01*
X359719571Y-11094547D01*
X359719571Y-10761214D01*
X360243380Y-12285023D02*
X360243380Y-11713595D01*
X360243380Y-11999309D02*
X359243380Y-11999309D01*
X359386238Y-11904071D01*
X359481476Y-11808833D01*
X359529095Y-11713595D01*
%TO.C,CR1*%
X370363666Y-2389142D02*
X370411285Y-2436761D01*
X370554142Y-2484380D01*
X370649380Y-2484380D01*
X370792238Y-2436761D01*
X370887476Y-2341523D01*
X370935095Y-2246285D01*
X370982714Y-2055809D01*
X370982714Y-1912952D01*
X370935095Y-1722476D01*
X370887476Y-1627238D01*
X370792238Y-1532000D01*
X370649380Y-1484380D01*
X370554142Y-1484380D01*
X370411285Y-1532000D01*
X370363666Y-1579619D01*
X369363666Y-2484380D02*
X369697000Y-2008190D01*
X369935095Y-2484380D02*
X369935095Y-1484380D01*
X369554142Y-1484380D01*
X369458904Y-1532000D01*
X369411285Y-1579619D01*
X369363666Y-1674857D01*
X369363666Y-1817714D01*
X369411285Y-1912952D01*
X369458904Y-1960571D01*
X369554142Y-2008190D01*
X369935095Y-2008190D01*
X368411285Y-2484380D02*
X368982714Y-2484380D01*
X368697000Y-2484380D02*
X368697000Y-1484380D01*
X368792238Y-1627238D01*
X368887476Y-1722476D01*
X368982714Y-1770095D01*
%TO.C,C6*%
X357994976Y-14962142D02*
X358042595Y-15009761D01*
X358185452Y-15057380D01*
X358280690Y-15057380D01*
X358423547Y-15009761D01*
X358518785Y-14914523D01*
X358566404Y-14819285D01*
X358614023Y-14628809D01*
X358614023Y-14485952D01*
X358566404Y-14295476D01*
X358518785Y-14200238D01*
X358423547Y-14105000D01*
X358280690Y-14057380D01*
X358185452Y-14057380D01*
X358042595Y-14105000D01*
X357994976Y-14152619D01*
X357137833Y-14057380D02*
X357328309Y-14057380D01*
X357423547Y-14105000D01*
X357471166Y-14152619D01*
X357566404Y-14295476D01*
X357614023Y-14485952D01*
X357614023Y-14866904D01*
X357566404Y-14962142D01*
X357518785Y-15009761D01*
X357423547Y-15057380D01*
X357233071Y-15057380D01*
X357137833Y-15009761D01*
X357090214Y-14962142D01*
X357042595Y-14866904D01*
X357042595Y-14628809D01*
X357090214Y-14533571D01*
X357137833Y-14485952D01*
X357233071Y-14438333D01*
X357423547Y-14438333D01*
X357518785Y-14485952D01*
X357566404Y-14533571D01*
X357614023Y-14628809D01*
%TO.C,C3*%
X365431142Y-17530023D02*
X365478761Y-17482404D01*
X365526380Y-17339547D01*
X365526380Y-17244309D01*
X365478761Y-17101452D01*
X365383523Y-17006214D01*
X365288285Y-16958595D01*
X365097809Y-16910976D01*
X364954952Y-16910976D01*
X364764476Y-16958595D01*
X364669238Y-17006214D01*
X364574000Y-17101452D01*
X364526380Y-17244309D01*
X364526380Y-17339547D01*
X364574000Y-17482404D01*
X364621619Y-17530023D01*
X364526380Y-17863357D02*
X364526380Y-18482404D01*
X364907333Y-18149071D01*
X364907333Y-18291928D01*
X364954952Y-18387166D01*
X365002571Y-18434785D01*
X365097809Y-18482404D01*
X365335904Y-18482404D01*
X365431142Y-18434785D01*
X365478761Y-18387166D01*
X365526380Y-18291928D01*
X365526380Y-18006214D01*
X365478761Y-17910976D01*
X365431142Y-17863357D01*
%TO.C,C2*%
X384024142Y-20846023D02*
X384071761Y-20798404D01*
X384119380Y-20655547D01*
X384119380Y-20560309D01*
X384071761Y-20417452D01*
X383976523Y-20322214D01*
X383881285Y-20274595D01*
X383690809Y-20226976D01*
X383547952Y-20226976D01*
X383357476Y-20274595D01*
X383262238Y-20322214D01*
X383167000Y-20417452D01*
X383119380Y-20560309D01*
X383119380Y-20655547D01*
X383167000Y-20798404D01*
X383214619Y-20846023D01*
X383214619Y-21226976D02*
X383167000Y-21274595D01*
X383119380Y-21369833D01*
X383119380Y-21607928D01*
X383167000Y-21703166D01*
X383214619Y-21750785D01*
X383309857Y-21798404D01*
X383405095Y-21798404D01*
X383547952Y-21750785D01*
X384119380Y-21179357D01*
X384119380Y-21798404D01*
%TO.C,C5*%
X388088142Y-20973023D02*
X388135761Y-20925404D01*
X388183380Y-20782547D01*
X388183380Y-20687309D01*
X388135761Y-20544452D01*
X388040523Y-20449214D01*
X387945285Y-20401595D01*
X387754809Y-20353976D01*
X387611952Y-20353976D01*
X387421476Y-20401595D01*
X387326238Y-20449214D01*
X387231000Y-20544452D01*
X387183380Y-20687309D01*
X387183380Y-20782547D01*
X387231000Y-20925404D01*
X387278619Y-20973023D01*
X387183380Y-21877785D02*
X387183380Y-21401595D01*
X387659571Y-21353976D01*
X387611952Y-21401595D01*
X387564333Y-21496833D01*
X387564333Y-21734928D01*
X387611952Y-21830166D01*
X387659571Y-21877785D01*
X387754809Y-21925404D01*
X387992904Y-21925404D01*
X388088142Y-21877785D01*
X388135761Y-21830166D01*
X388183380Y-21734928D01*
X388183380Y-21496833D01*
X388135761Y-21401595D01*
X388088142Y-21353976D01*
%TO.C,C1*%
X359386142Y-8019023D02*
X359433761Y-7971404D01*
X359481380Y-7828547D01*
X359481380Y-7733309D01*
X359433761Y-7590452D01*
X359338523Y-7495214D01*
X359243285Y-7447595D01*
X359052809Y-7399976D01*
X358909952Y-7399976D01*
X358719476Y-7447595D01*
X358624238Y-7495214D01*
X358529000Y-7590452D01*
X358481380Y-7733309D01*
X358481380Y-7828547D01*
X358529000Y-7971404D01*
X358576619Y-8019023D01*
X359481380Y-8971404D02*
X359481380Y-8399976D01*
X359481380Y-8685690D02*
X358481380Y-8685690D01*
X358624238Y-8590452D01*
X358719476Y-8495214D01*
X358767095Y-8399976D01*
%TO.C,C23*%
X355835976Y-91924142D02*
X355883595Y-91971761D01*
X356026452Y-92019380D01*
X356121690Y-92019380D01*
X356264547Y-91971761D01*
X356359785Y-91876523D01*
X356407404Y-91781285D01*
X356455023Y-91590809D01*
X356455023Y-91447952D01*
X356407404Y-91257476D01*
X356359785Y-91162238D01*
X356264547Y-91067000D01*
X356121690Y-91019380D01*
X356026452Y-91019380D01*
X355883595Y-91067000D01*
X355835976Y-91114619D01*
X355455023Y-91114619D02*
X355407404Y-91067000D01*
X355312166Y-91019380D01*
X355074071Y-91019380D01*
X354978833Y-91067000D01*
X354931214Y-91114619D01*
X354883595Y-91209857D01*
X354883595Y-91305095D01*
X354931214Y-91447952D01*
X355502642Y-92019380D01*
X354883595Y-92019380D01*
X354550261Y-91019380D02*
X353931214Y-91019380D01*
X354264547Y-91400333D01*
X354121690Y-91400333D01*
X354026452Y-91447952D01*
X353978833Y-91495571D01*
X353931214Y-91590809D01*
X353931214Y-91828904D01*
X353978833Y-91924142D01*
X354026452Y-91971761D01*
X354121690Y-92019380D01*
X354407404Y-92019380D01*
X354502642Y-91971761D01*
X354550261Y-91924142D01*
%TO.C,C21*%
X344278976Y-89130142D02*
X344326595Y-89177761D01*
X344469452Y-89225380D01*
X344564690Y-89225380D01*
X344707547Y-89177761D01*
X344802785Y-89082523D01*
X344850404Y-88987285D01*
X344898023Y-88796809D01*
X344898023Y-88653952D01*
X344850404Y-88463476D01*
X344802785Y-88368238D01*
X344707547Y-88273000D01*
X344564690Y-88225380D01*
X344469452Y-88225380D01*
X344326595Y-88273000D01*
X344278976Y-88320619D01*
X343898023Y-88320619D02*
X343850404Y-88273000D01*
X343755166Y-88225380D01*
X343517071Y-88225380D01*
X343421833Y-88273000D01*
X343374214Y-88320619D01*
X343326595Y-88415857D01*
X343326595Y-88511095D01*
X343374214Y-88653952D01*
X343945642Y-89225380D01*
X343326595Y-89225380D01*
X342374214Y-89225380D02*
X342945642Y-89225380D01*
X342659928Y-89225380D02*
X342659928Y-88225380D01*
X342755166Y-88368238D01*
X342850404Y-88463476D01*
X342945642Y-88511095D01*
%TO.C,C12*%
X32742142Y-27525261D02*
X32789761Y-27477642D01*
X32837380Y-27334785D01*
X32837380Y-27239547D01*
X32789761Y-27096690D01*
X32694523Y-27001452D01*
X32599285Y-26953833D01*
X32408809Y-26906214D01*
X32265952Y-26906214D01*
X32075476Y-26953833D01*
X31980238Y-27001452D01*
X31885000Y-27096690D01*
X31837380Y-27239547D01*
X31837380Y-27334785D01*
X31885000Y-27477642D01*
X31932619Y-27525261D01*
X32837380Y-28477642D02*
X32837380Y-27906214D01*
X32837380Y-28191928D02*
X31837380Y-28191928D01*
X31980238Y-28096690D01*
X32075476Y-28001452D01*
X32123095Y-27906214D01*
X31932619Y-28858595D02*
X31885000Y-28906214D01*
X31837380Y-29001452D01*
X31837380Y-29239547D01*
X31885000Y-29334785D01*
X31932619Y-29382404D01*
X32027857Y-29430023D01*
X32123095Y-29430023D01*
X32265952Y-29382404D01*
X32837380Y-28810976D01*
X32837380Y-29430023D01*
%TO.C,C19*%
X334297738Y-90273142D02*
X334345357Y-90320761D01*
X334488214Y-90368380D01*
X334583452Y-90368380D01*
X334726309Y-90320761D01*
X334821547Y-90225523D01*
X334869166Y-90130285D01*
X334916785Y-89939809D01*
X334916785Y-89796952D01*
X334869166Y-89606476D01*
X334821547Y-89511238D01*
X334726309Y-89416000D01*
X334583452Y-89368380D01*
X334488214Y-89368380D01*
X334345357Y-89416000D01*
X334297738Y-89463619D01*
X333345357Y-90368380D02*
X333916785Y-90368380D01*
X333631071Y-90368380D02*
X333631071Y-89368380D01*
X333726309Y-89511238D01*
X333821547Y-89606476D01*
X333916785Y-89654095D01*
X332869166Y-90368380D02*
X332678690Y-90368380D01*
X332583452Y-90320761D01*
X332535833Y-90273142D01*
X332440595Y-90130285D01*
X332392976Y-89939809D01*
X332392976Y-89558857D01*
X332440595Y-89463619D01*
X332488214Y-89416000D01*
X332583452Y-89368380D01*
X332773928Y-89368380D01*
X332869166Y-89416000D01*
X332916785Y-89463619D01*
X332964404Y-89558857D01*
X332964404Y-89796952D01*
X332916785Y-89892190D01*
X332869166Y-89939809D01*
X332773928Y-89987428D01*
X332583452Y-89987428D01*
X332488214Y-89939809D01*
X332440595Y-89892190D01*
X332392976Y-89796952D01*
%TO.C,C16*%
X39473142Y-14115023D02*
X39520761Y-14067404D01*
X39568380Y-13924547D01*
X39568380Y-13829309D01*
X39520761Y-13686452D01*
X39425523Y-13591214D01*
X39330285Y-13543595D01*
X39139809Y-13495976D01*
X38996952Y-13495976D01*
X38806476Y-13543595D01*
X38711238Y-13591214D01*
X38616000Y-13686452D01*
X38568380Y-13829309D01*
X38568380Y-13924547D01*
X38616000Y-14067404D01*
X38663619Y-14115023D01*
X39568380Y-15067404D02*
X39568380Y-14495976D01*
X39568380Y-14781690D02*
X38568380Y-14781690D01*
X38711238Y-14686452D01*
X38806476Y-14591214D01*
X38854095Y-14495976D01*
X38568380Y-15924547D02*
X38568380Y-15734071D01*
X38616000Y-15638833D01*
X38663619Y-15591214D01*
X38806476Y-15495976D01*
X38996952Y-15448357D01*
X39377904Y-15448357D01*
X39473142Y-15495976D01*
X39520761Y-15543595D01*
X39568380Y-15638833D01*
X39568380Y-15829309D01*
X39520761Y-15924547D01*
X39473142Y-15972166D01*
X39377904Y-16019785D01*
X39139809Y-16019785D01*
X39044571Y-15972166D01*
X38996952Y-15924547D01*
X38949333Y-15829309D01*
X38949333Y-15638833D01*
X38996952Y-15543595D01*
X39044571Y-15495976D01*
X39139809Y-15448357D01*
%TO.C,C14*%
X34393142Y-7892023D02*
X34440761Y-7844404D01*
X34488380Y-7701547D01*
X34488380Y-7606309D01*
X34440761Y-7463452D01*
X34345523Y-7368214D01*
X34250285Y-7320595D01*
X34059809Y-7272976D01*
X33916952Y-7272976D01*
X33726476Y-7320595D01*
X33631238Y-7368214D01*
X33536000Y-7463452D01*
X33488380Y-7606309D01*
X33488380Y-7701547D01*
X33536000Y-7844404D01*
X33583619Y-7892023D01*
X34488380Y-8844404D02*
X34488380Y-8272976D01*
X34488380Y-8558690D02*
X33488380Y-8558690D01*
X33631238Y-8463452D01*
X33726476Y-8368214D01*
X33774095Y-8272976D01*
X33821714Y-9701547D02*
X34488380Y-9701547D01*
X33440761Y-9463452D02*
X34155047Y-9225357D01*
X34155047Y-9844404D01*
%TO.C,C7*%
X362701526Y-22719603D02*
X362701526Y-22786946D01*
X362768870Y-22921633D01*
X362836213Y-22988977D01*
X362970900Y-23056320D01*
X363105587Y-23056320D01*
X363206603Y-23022648D01*
X363374961Y-22921633D01*
X363475977Y-22820618D01*
X363576992Y-22652259D01*
X363610664Y-22551244D01*
X363610664Y-22416557D01*
X363543320Y-22281870D01*
X363475977Y-22214526D01*
X363341290Y-22147183D01*
X363273946Y-22147183D01*
X363105587Y-21844137D02*
X362634183Y-21372733D01*
X362230122Y-22382885D01*
%TO.C,C4*%
X386167242Y-20846023D02*
X386214861Y-20798404D01*
X386262480Y-20655547D01*
X386262480Y-20560309D01*
X386214861Y-20417452D01*
X386119623Y-20322214D01*
X386024385Y-20274595D01*
X385833909Y-20226976D01*
X385691052Y-20226976D01*
X385500576Y-20274595D01*
X385405338Y-20322214D01*
X385310100Y-20417452D01*
X385262480Y-20560309D01*
X385262480Y-20655547D01*
X385310100Y-20798404D01*
X385357719Y-20846023D01*
X385595814Y-21703166D02*
X386262480Y-21703166D01*
X385214861Y-21465071D02*
X385929147Y-21226976D01*
X385929147Y-21846023D01*
%TO.C,R8*%
X348686380Y-14118333D02*
X348210190Y-13785000D01*
X348686380Y-13546904D02*
X347686380Y-13546904D01*
X347686380Y-13927857D01*
X347734000Y-14023095D01*
X347781619Y-14070714D01*
X347876857Y-14118333D01*
X348019714Y-14118333D01*
X348114952Y-14070714D01*
X348162571Y-14023095D01*
X348210190Y-13927857D01*
X348210190Y-13546904D01*
X348114952Y-14689761D02*
X348067333Y-14594523D01*
X348019714Y-14546904D01*
X347924476Y-14499285D01*
X347876857Y-14499285D01*
X347781619Y-14546904D01*
X347734000Y-14594523D01*
X347686380Y-14689761D01*
X347686380Y-14880238D01*
X347734000Y-14975476D01*
X347781619Y-15023095D01*
X347876857Y-15070714D01*
X347924476Y-15070714D01*
X348019714Y-15023095D01*
X348067333Y-14975476D01*
X348114952Y-14880238D01*
X348114952Y-14689761D01*
X348162571Y-14594523D01*
X348210190Y-14546904D01*
X348305428Y-14499285D01*
X348495904Y-14499285D01*
X348591142Y-14546904D01*
X348638761Y-14594523D01*
X348686380Y-14689761D01*
X348686380Y-14880238D01*
X348638761Y-14975476D01*
X348591142Y-15023095D01*
X348495904Y-15070714D01*
X348305428Y-15070714D01*
X348210190Y-15023095D01*
X348162571Y-14975476D01*
X348114952Y-14880238D01*
%TO.C,R7*%
X357068380Y-48220333D02*
X356592190Y-47887000D01*
X357068380Y-47648904D02*
X356068380Y-47648904D01*
X356068380Y-48029857D01*
X356116000Y-48125095D01*
X356163619Y-48172714D01*
X356258857Y-48220333D01*
X356401714Y-48220333D01*
X356496952Y-48172714D01*
X356544571Y-48125095D01*
X356592190Y-48029857D01*
X356592190Y-47648904D01*
X356068380Y-48553666D02*
X356068380Y-49220333D01*
X357068380Y-48791761D01*
%TO.C,R6*%
X355163380Y-48982333D02*
X354687190Y-48649000D01*
X355163380Y-48410904D02*
X354163380Y-48410904D01*
X354163380Y-48791857D01*
X354211000Y-48887095D01*
X354258619Y-48934714D01*
X354353857Y-48982333D01*
X354496714Y-48982333D01*
X354591952Y-48934714D01*
X354639571Y-48887095D01*
X354687190Y-48791857D01*
X354687190Y-48410904D01*
X354163380Y-49839476D02*
X354163380Y-49649000D01*
X354211000Y-49553761D01*
X354258619Y-49506142D01*
X354401476Y-49410904D01*
X354591952Y-49363285D01*
X354972904Y-49363285D01*
X355068142Y-49410904D01*
X355115761Y-49458523D01*
X355163380Y-49553761D01*
X355163380Y-49744238D01*
X355115761Y-49839476D01*
X355068142Y-49887095D01*
X354972904Y-49934714D01*
X354734809Y-49934714D01*
X354639571Y-49887095D01*
X354591952Y-49839476D01*
X354544333Y-49744238D01*
X354544333Y-49553761D01*
X354591952Y-49458523D01*
X354639571Y-49410904D01*
X354734809Y-49363285D01*
%TO.C,R5*%
X352750380Y-48220333D02*
X352274190Y-47887000D01*
X352750380Y-47648904D02*
X351750380Y-47648904D01*
X351750380Y-48029857D01*
X351798000Y-48125095D01*
X351845619Y-48172714D01*
X351940857Y-48220333D01*
X352083714Y-48220333D01*
X352178952Y-48172714D01*
X352226571Y-48125095D01*
X352274190Y-48029857D01*
X352274190Y-47648904D01*
X351750380Y-49125095D02*
X351750380Y-48648904D01*
X352226571Y-48601285D01*
X352178952Y-48648904D01*
X352131333Y-48744142D01*
X352131333Y-48982238D01*
X352178952Y-49077476D01*
X352226571Y-49125095D01*
X352321809Y-49172714D01*
X352559904Y-49172714D01*
X352655142Y-49125095D01*
X352702761Y-49077476D01*
X352750380Y-48982238D01*
X352750380Y-48744142D01*
X352702761Y-48648904D01*
X352655142Y-48601285D01*
%TO.C,R4*%
X357449380Y-40473333D02*
X356973190Y-40140000D01*
X357449380Y-39901904D02*
X356449380Y-39901904D01*
X356449380Y-40282857D01*
X356497000Y-40378095D01*
X356544619Y-40425714D01*
X356639857Y-40473333D01*
X356782714Y-40473333D01*
X356877952Y-40425714D01*
X356925571Y-40378095D01*
X356973190Y-40282857D01*
X356973190Y-39901904D01*
X356782714Y-41330476D02*
X357449380Y-41330476D01*
X356401761Y-41092380D02*
X357116047Y-40854285D01*
X357116047Y-41473333D01*
%TO.C,R3*%
X351861380Y-40346333D02*
X351385190Y-40013000D01*
X351861380Y-39774904D02*
X350861380Y-39774904D01*
X350861380Y-40155857D01*
X350909000Y-40251095D01*
X350956619Y-40298714D01*
X351051857Y-40346333D01*
X351194714Y-40346333D01*
X351289952Y-40298714D01*
X351337571Y-40251095D01*
X351385190Y-40155857D01*
X351385190Y-39774904D01*
X350861380Y-40679666D02*
X350861380Y-41298714D01*
X351242333Y-40965380D01*
X351242333Y-41108238D01*
X351289952Y-41203476D01*
X351337571Y-41251095D01*
X351432809Y-41298714D01*
X351670904Y-41298714D01*
X351766142Y-41251095D01*
X351813761Y-41203476D01*
X351861380Y-41108238D01*
X351861380Y-40822523D01*
X351813761Y-40727285D01*
X351766142Y-40679666D01*
%TO.C,Y1*%
X357981190Y-16740190D02*
X357981190Y-17216380D01*
X358314523Y-16216380D02*
X357981190Y-16740190D01*
X357647857Y-16216380D01*
X356790714Y-17216380D02*
X357362142Y-17216380D01*
X357076428Y-17216380D02*
X357076428Y-16216380D01*
X357171666Y-16359238D01*
X357266904Y-16454476D01*
X357362142Y-16502095D01*
%TO.C,C18*%
X346209857Y-82399142D02*
X346257476Y-82446761D01*
X346400333Y-82494380D01*
X346495571Y-82494380D01*
X346638428Y-82446761D01*
X346733666Y-82351523D01*
X346781285Y-82256285D01*
X346828904Y-82065809D01*
X346828904Y-81922952D01*
X346781285Y-81732476D01*
X346733666Y-81637238D01*
X346638428Y-81542000D01*
X346495571Y-81494380D01*
X346400333Y-81494380D01*
X346257476Y-81542000D01*
X346209857Y-81589619D01*
X345257476Y-82494380D02*
X345828904Y-82494380D01*
X345543190Y-82494380D02*
X345543190Y-81494380D01*
X345638428Y-81637238D01*
X345733666Y-81732476D01*
X345828904Y-81780095D01*
X344686047Y-81922952D02*
X344781285Y-81875333D01*
X344828904Y-81827714D01*
X344876523Y-81732476D01*
X344876523Y-81684857D01*
X344828904Y-81589619D01*
X344781285Y-81542000D01*
X344686047Y-81494380D01*
X344495571Y-81494380D01*
X344400333Y-81542000D01*
X344352714Y-81589619D01*
X344305095Y-81684857D01*
X344305095Y-81732476D01*
X344352714Y-81827714D01*
X344400333Y-81875333D01*
X344495571Y-81922952D01*
X344686047Y-81922952D01*
X344781285Y-81970571D01*
X344828904Y-82018190D01*
X344876523Y-82113428D01*
X344876523Y-82303904D01*
X344828904Y-82399142D01*
X344781285Y-82446761D01*
X344686047Y-82494380D01*
X344495571Y-82494380D01*
X344400333Y-82446761D01*
X344352714Y-82399142D01*
X344305095Y-82303904D01*
X344305095Y-82113428D01*
X344352714Y-82018190D01*
X344400333Y-81970571D01*
X344495571Y-81922952D01*
D17*
X343471476Y-83855714D02*
X343090523Y-83855714D01*
X343281000Y-84046190D02*
X343281000Y-83665238D01*
%TO.C,C17*%
D13*
X45188142Y-15613142D02*
X45235761Y-15565523D01*
X45283380Y-15422666D01*
X45283380Y-15327428D01*
X45235761Y-15184571D01*
X45140523Y-15089333D01*
X45045285Y-15041714D01*
X44854809Y-14994095D01*
X44711952Y-14994095D01*
X44521476Y-15041714D01*
X44426238Y-15089333D01*
X44331000Y-15184571D01*
X44283380Y-15327428D01*
X44283380Y-15422666D01*
X44331000Y-15565523D01*
X44378619Y-15613142D01*
X45283380Y-16565523D02*
X45283380Y-15994095D01*
X45283380Y-16279809D02*
X44283380Y-16279809D01*
X44426238Y-16184571D01*
X44521476Y-16089333D01*
X44569095Y-15994095D01*
X44283380Y-16898857D02*
X44283380Y-17565523D01*
X45283380Y-17136952D01*
D17*
X40421714Y-17970523D02*
X40421714Y-18351476D01*
X40612190Y-18161000D02*
X40231238Y-18161000D01*
%TO.C,C15*%
D13*
X36679142Y-14216142D02*
X36726761Y-14168523D01*
X36774380Y-14025666D01*
X36774380Y-13930428D01*
X36726761Y-13787571D01*
X36631523Y-13692333D01*
X36536285Y-13644714D01*
X36345809Y-13597095D01*
X36202952Y-13597095D01*
X36012476Y-13644714D01*
X35917238Y-13692333D01*
X35822000Y-13787571D01*
X35774380Y-13930428D01*
X35774380Y-14025666D01*
X35822000Y-14168523D01*
X35869619Y-14216142D01*
X36774380Y-15168523D02*
X36774380Y-14597095D01*
X36774380Y-14882809D02*
X35774380Y-14882809D01*
X35917238Y-14787571D01*
X36012476Y-14692333D01*
X36060095Y-14597095D01*
X35774380Y-16073285D02*
X35774380Y-15597095D01*
X36250571Y-15549476D01*
X36202952Y-15597095D01*
X36155333Y-15692333D01*
X36155333Y-15930428D01*
X36202952Y-16025666D01*
X36250571Y-16073285D01*
X36345809Y-16120904D01*
X36583904Y-16120904D01*
X36679142Y-16073285D01*
X36726761Y-16025666D01*
X36774380Y-15930428D01*
X36774380Y-15692333D01*
X36726761Y-15597095D01*
X36679142Y-15549476D01*
%TO.C,C24*%
X356369857Y-89765142D02*
X356417476Y-89812761D01*
X356560333Y-89860380D01*
X356655571Y-89860380D01*
X356798428Y-89812761D01*
X356893666Y-89717523D01*
X356941285Y-89622285D01*
X356988904Y-89431809D01*
X356988904Y-89288952D01*
X356941285Y-89098476D01*
X356893666Y-89003238D01*
X356798428Y-88908000D01*
X356655571Y-88860380D01*
X356560333Y-88860380D01*
X356417476Y-88908000D01*
X356369857Y-88955619D01*
X355988904Y-88955619D02*
X355941285Y-88908000D01*
X355846047Y-88860380D01*
X355607952Y-88860380D01*
X355512714Y-88908000D01*
X355465095Y-88955619D01*
X355417476Y-89050857D01*
X355417476Y-89146095D01*
X355465095Y-89288952D01*
X356036523Y-89860380D01*
X355417476Y-89860380D01*
X354560333Y-89193714D02*
X354560333Y-89860380D01*
X354798428Y-88812761D02*
X355036523Y-89527047D01*
X354417476Y-89527047D01*
%TO.C,C22*%
X341891857Y-84939142D02*
X341939476Y-84986761D01*
X342082333Y-85034380D01*
X342177571Y-85034380D01*
X342320428Y-84986761D01*
X342415666Y-84891523D01*
X342463285Y-84796285D01*
X342510904Y-84605809D01*
X342510904Y-84462952D01*
X342463285Y-84272476D01*
X342415666Y-84177238D01*
X342320428Y-84082000D01*
X342177571Y-84034380D01*
X342082333Y-84034380D01*
X341939476Y-84082000D01*
X341891857Y-84129619D01*
X341510904Y-84129619D02*
X341463285Y-84082000D01*
X341368047Y-84034380D01*
X341129952Y-84034380D01*
X341034714Y-84082000D01*
X340987095Y-84129619D01*
X340939476Y-84224857D01*
X340939476Y-84320095D01*
X340987095Y-84462952D01*
X341558523Y-85034380D01*
X340939476Y-85034380D01*
X340558523Y-84129619D02*
X340510904Y-84082000D01*
X340415666Y-84034380D01*
X340177571Y-84034380D01*
X340082333Y-84082000D01*
X340034714Y-84129619D01*
X339987095Y-84224857D01*
X339987095Y-84320095D01*
X340034714Y-84462952D01*
X340606142Y-85034380D01*
X339987095Y-85034380D01*
%TO.C,C20*%
X333890857Y-92051142D02*
X333938476Y-92098761D01*
X334081333Y-92146380D01*
X334176571Y-92146380D01*
X334319428Y-92098761D01*
X334414666Y-92003523D01*
X334462285Y-91908285D01*
X334509904Y-91717809D01*
X334509904Y-91574952D01*
X334462285Y-91384476D01*
X334414666Y-91289238D01*
X334319428Y-91194000D01*
X334176571Y-91146380D01*
X334081333Y-91146380D01*
X333938476Y-91194000D01*
X333890857Y-91241619D01*
X333509904Y-91241619D02*
X333462285Y-91194000D01*
X333367047Y-91146380D01*
X333128952Y-91146380D01*
X333033714Y-91194000D01*
X332986095Y-91241619D01*
X332938476Y-91336857D01*
X332938476Y-91432095D01*
X332986095Y-91574952D01*
X333557523Y-92146380D01*
X332938476Y-92146380D01*
X332319428Y-91146380D02*
X332224190Y-91146380D01*
X332128952Y-91194000D01*
X332081333Y-91241619D01*
X332033714Y-91336857D01*
X331986095Y-91527333D01*
X331986095Y-91765428D01*
X332033714Y-91955904D01*
X332081333Y-92051142D01*
X332128952Y-92098761D01*
X332224190Y-92146380D01*
X332319428Y-92146380D01*
X332414666Y-92098761D01*
X332462285Y-92051142D01*
X332509904Y-91955904D01*
X332557523Y-91765428D01*
X332557523Y-91527333D01*
X332509904Y-91336857D01*
X332462285Y-91241619D01*
X332414666Y-91194000D01*
X332319428Y-91146380D01*
%TO.C,C13*%
X32869142Y-7739142D02*
X32916761Y-7691523D01*
X32964380Y-7548666D01*
X32964380Y-7453428D01*
X32916761Y-7310571D01*
X32821523Y-7215333D01*
X32726285Y-7167714D01*
X32535809Y-7120095D01*
X32392952Y-7120095D01*
X32202476Y-7167714D01*
X32107238Y-7215333D01*
X32012000Y-7310571D01*
X31964380Y-7453428D01*
X31964380Y-7548666D01*
X32012000Y-7691523D01*
X32059619Y-7739142D01*
X32964380Y-8691523D02*
X32964380Y-8120095D01*
X32964380Y-8405809D02*
X31964380Y-8405809D01*
X32107238Y-8310571D01*
X32202476Y-8215333D01*
X32250095Y-8120095D01*
X31964380Y-9024857D02*
X31964380Y-9643904D01*
X32345333Y-9310571D01*
X32345333Y-9453428D01*
X32392952Y-9548666D01*
X32440571Y-9596285D01*
X32535809Y-9643904D01*
X32773904Y-9643904D01*
X32869142Y-9596285D01*
X32916761Y-9548666D01*
X32964380Y-9453428D01*
X32964380Y-9167714D01*
X32916761Y-9072476D01*
X32869142Y-9024857D01*
%TO.C,C11*%
X34393142Y-27527142D02*
X34440761Y-27479523D01*
X34488380Y-27336666D01*
X34488380Y-27241428D01*
X34440761Y-27098571D01*
X34345523Y-27003333D01*
X34250285Y-26955714D01*
X34059809Y-26908095D01*
X33916952Y-26908095D01*
X33726476Y-26955714D01*
X33631238Y-27003333D01*
X33536000Y-27098571D01*
X33488380Y-27241428D01*
X33488380Y-27336666D01*
X33536000Y-27479523D01*
X33583619Y-27527142D01*
X34488380Y-28479523D02*
X34488380Y-27908095D01*
X34488380Y-28193809D02*
X33488380Y-28193809D01*
X33631238Y-28098571D01*
X33726476Y-28003333D01*
X33774095Y-27908095D01*
X34488380Y-29431904D02*
X34488380Y-28860476D01*
X34488380Y-29146190D02*
X33488380Y-29146190D01*
X33631238Y-29050952D01*
X33726476Y-28955714D01*
X33774095Y-28860476D01*
%TO.C,R1*%
X352851980Y-10875442D02*
X352375790Y-10542109D01*
X352851980Y-10304014D02*
X351851980Y-10304014D01*
X351851980Y-10684966D01*
X351899600Y-10780204D01*
X351947219Y-10827823D01*
X352042457Y-10875442D01*
X352185314Y-10875442D01*
X352280552Y-10827823D01*
X352328171Y-10780204D01*
X352375790Y-10684966D01*
X352375790Y-10304014D01*
X352851980Y-11827823D02*
X352851980Y-11256395D01*
X352851980Y-11542109D02*
X351851980Y-11542109D01*
X351994838Y-11446871D01*
X352090076Y-11351633D01*
X352137695Y-11256395D01*
%TO.C,R20*%
X350781857Y-84653380D02*
X351115190Y-84177190D01*
X351353285Y-84653380D02*
X351353285Y-83653380D01*
X350972333Y-83653380D01*
X350877095Y-83701000D01*
X350829476Y-83748619D01*
X350781857Y-83843857D01*
X350781857Y-83986714D01*
X350829476Y-84081952D01*
X350877095Y-84129571D01*
X350972333Y-84177190D01*
X351353285Y-84177190D01*
X350400904Y-83748619D02*
X350353285Y-83701000D01*
X350258047Y-83653380D01*
X350019952Y-83653380D01*
X349924714Y-83701000D01*
X349877095Y-83748619D01*
X349829476Y-83843857D01*
X349829476Y-83939095D01*
X349877095Y-84081952D01*
X350448523Y-84653380D01*
X349829476Y-84653380D01*
X349210428Y-83653380D02*
X349115190Y-83653380D01*
X349019952Y-83701000D01*
X348972333Y-83748619D01*
X348924714Y-83843857D01*
X348877095Y-84034333D01*
X348877095Y-84272428D01*
X348924714Y-84462904D01*
X348972333Y-84558142D01*
X349019952Y-84605761D01*
X349115190Y-84653380D01*
X349210428Y-84653380D01*
X349305666Y-84605761D01*
X349353285Y-84558142D01*
X349400904Y-84462904D01*
X349448523Y-84272428D01*
X349448523Y-84034333D01*
X349400904Y-83843857D01*
X349353285Y-83748619D01*
X349305666Y-83701000D01*
X349210428Y-83653380D01*
%TO.C,R17*%
X39949380Y-23868142D02*
X39473190Y-23534809D01*
X39949380Y-23296714D02*
X38949380Y-23296714D01*
X38949380Y-23677666D01*
X38997000Y-23772904D01*
X39044619Y-23820523D01*
X39139857Y-23868142D01*
X39282714Y-23868142D01*
X39377952Y-23820523D01*
X39425571Y-23772904D01*
X39473190Y-23677666D01*
X39473190Y-23296714D01*
X39949380Y-24820523D02*
X39949380Y-24249095D01*
X39949380Y-24534809D02*
X38949380Y-24534809D01*
X39092238Y-24439571D01*
X39187476Y-24344333D01*
X39235095Y-24249095D01*
X38949380Y-25153857D02*
X38949380Y-25820523D01*
X39949380Y-25391952D01*
%TO.C,R19*%
X353067857Y-94940380D02*
X353401190Y-94464190D01*
X353639285Y-94940380D02*
X353639285Y-93940380D01*
X353258333Y-93940380D01*
X353163095Y-93988000D01*
X353115476Y-94035619D01*
X353067857Y-94130857D01*
X353067857Y-94273714D01*
X353115476Y-94368952D01*
X353163095Y-94416571D01*
X353258333Y-94464190D01*
X353639285Y-94464190D01*
X352115476Y-94940380D02*
X352686904Y-94940380D01*
X352401190Y-94940380D02*
X352401190Y-93940380D01*
X352496428Y-94083238D01*
X352591666Y-94178476D01*
X352686904Y-94226095D01*
X351639285Y-94940380D02*
X351448809Y-94940380D01*
X351353571Y-94892761D01*
X351305952Y-94845142D01*
X351210714Y-94702285D01*
X351163095Y-94511809D01*
X351163095Y-94130857D01*
X351210714Y-94035619D01*
X351258333Y-93988000D01*
X351353571Y-93940380D01*
X351544047Y-93940380D01*
X351639285Y-93988000D01*
X351686904Y-94035619D01*
X351734523Y-94130857D01*
X351734523Y-94368952D01*
X351686904Y-94464190D01*
X351639285Y-94511809D01*
X351544047Y-94559428D01*
X351353571Y-94559428D01*
X351258333Y-94511809D01*
X351210714Y-94464190D01*
X351163095Y-94368952D01*
%TO.C,R18*%
X353448857Y-96718380D02*
X353782190Y-96242190D01*
X354020285Y-96718380D02*
X354020285Y-95718380D01*
X353639333Y-95718380D01*
X353544095Y-95766000D01*
X353496476Y-95813619D01*
X353448857Y-95908857D01*
X353448857Y-96051714D01*
X353496476Y-96146952D01*
X353544095Y-96194571D01*
X353639333Y-96242190D01*
X354020285Y-96242190D01*
X352496476Y-96718380D02*
X353067904Y-96718380D01*
X352782190Y-96718380D02*
X352782190Y-95718380D01*
X352877428Y-95861238D01*
X352972666Y-95956476D01*
X353067904Y-96004095D01*
X351925047Y-96146952D02*
X352020285Y-96099333D01*
X352067904Y-96051714D01*
X352115523Y-95956476D01*
X352115523Y-95908857D01*
X352067904Y-95813619D01*
X352020285Y-95766000D01*
X351925047Y-95718380D01*
X351734571Y-95718380D01*
X351639333Y-95766000D01*
X351591714Y-95813619D01*
X351544095Y-95908857D01*
X351544095Y-95956476D01*
X351591714Y-96051714D01*
X351639333Y-96099333D01*
X351734571Y-96146952D01*
X351925047Y-96146952D01*
X352020285Y-96194571D01*
X352067904Y-96242190D01*
X352115523Y-96337428D01*
X352115523Y-96527904D01*
X352067904Y-96623142D01*
X352020285Y-96670761D01*
X351925047Y-96718380D01*
X351734571Y-96718380D01*
X351639333Y-96670761D01*
X351591714Y-96623142D01*
X351544095Y-96527904D01*
X351544095Y-96337428D01*
X351591714Y-96242190D01*
X351639333Y-96194571D01*
X351734571Y-96146952D01*
%TO.C,R16*%
X29789380Y-27297142D02*
X29313190Y-26963809D01*
X29789380Y-26725714D02*
X28789380Y-26725714D01*
X28789380Y-27106666D01*
X28837000Y-27201904D01*
X28884619Y-27249523D01*
X28979857Y-27297142D01*
X29122714Y-27297142D01*
X29217952Y-27249523D01*
X29265571Y-27201904D01*
X29313190Y-27106666D01*
X29313190Y-26725714D01*
X29789380Y-28249523D02*
X29789380Y-27678095D01*
X29789380Y-27963809D02*
X28789380Y-27963809D01*
X28932238Y-27868571D01*
X29027476Y-27773333D01*
X29075095Y-27678095D01*
X28789380Y-29106666D02*
X28789380Y-28916190D01*
X28837000Y-28820952D01*
X28884619Y-28773333D01*
X29027476Y-28678095D01*
X29217952Y-28630476D01*
X29598904Y-28630476D01*
X29694142Y-28678095D01*
X29741761Y-28725714D01*
X29789380Y-28820952D01*
X29789380Y-29011428D01*
X29741761Y-29106666D01*
X29694142Y-29154285D01*
X29598904Y-29201904D01*
X29360809Y-29201904D01*
X29265571Y-29154285D01*
X29217952Y-29106666D01*
X29170333Y-29011428D01*
X29170333Y-28820952D01*
X29217952Y-28725714D01*
X29265571Y-28678095D01*
X29360809Y-28630476D01*
%TO.C,R15*%
X23756857Y-24328380D02*
X24090190Y-23852190D01*
X24328285Y-24328380D02*
X24328285Y-23328380D01*
X23947333Y-23328380D01*
X23852095Y-23376000D01*
X23804476Y-23423619D01*
X23756857Y-23518857D01*
X23756857Y-23661714D01*
X23804476Y-23756952D01*
X23852095Y-23804571D01*
X23947333Y-23852190D01*
X24328285Y-23852190D01*
X22804476Y-24328380D02*
X23375904Y-24328380D01*
X23090190Y-24328380D02*
X23090190Y-23328380D01*
X23185428Y-23471238D01*
X23280666Y-23566476D01*
X23375904Y-23614095D01*
X21899714Y-23328380D02*
X22375904Y-23328380D01*
X22423523Y-23804571D01*
X22375904Y-23756952D01*
X22280666Y-23709333D01*
X22042571Y-23709333D01*
X21947333Y-23756952D01*
X21899714Y-23804571D01*
X21852095Y-23899809D01*
X21852095Y-24137904D01*
X21899714Y-24233142D01*
X21947333Y-24280761D01*
X22042571Y-24328380D01*
X22280666Y-24328380D01*
X22375904Y-24280761D01*
X22423523Y-24233142D01*
%TO.C,R10*%
X344368380Y-18026142D02*
X343892190Y-17692809D01*
X344368380Y-17454714D02*
X343368380Y-17454714D01*
X343368380Y-17835666D01*
X343416000Y-17930904D01*
X343463619Y-17978523D01*
X343558857Y-18026142D01*
X343701714Y-18026142D01*
X343796952Y-17978523D01*
X343844571Y-17930904D01*
X343892190Y-17835666D01*
X343892190Y-17454714D01*
X344368380Y-18978523D02*
X344368380Y-18407095D01*
X344368380Y-18692809D02*
X343368380Y-18692809D01*
X343511238Y-18597571D01*
X343606476Y-18502333D01*
X343654095Y-18407095D01*
X343368380Y-19597571D02*
X343368380Y-19692809D01*
X343416000Y-19788047D01*
X343463619Y-19835666D01*
X343558857Y-19883285D01*
X343749333Y-19930904D01*
X343987428Y-19930904D01*
X344177904Y-19883285D01*
X344273142Y-19835666D01*
X344320761Y-19788047D01*
X344368380Y-19692809D01*
X344368380Y-19597571D01*
X344320761Y-19502333D01*
X344273142Y-19454714D01*
X344177904Y-19407095D01*
X343987428Y-19359476D01*
X343749333Y-19359476D01*
X343558857Y-19407095D01*
X343463619Y-19454714D01*
X343416000Y-19502333D01*
X343368380Y-19597571D01*
%TO.C,R9*%
X344368380Y-23582333D02*
X343892190Y-23249000D01*
X344368380Y-23010904D02*
X343368380Y-23010904D01*
X343368380Y-23391857D01*
X343416000Y-23487095D01*
X343463619Y-23534714D01*
X343558857Y-23582333D01*
X343701714Y-23582333D01*
X343796952Y-23534714D01*
X343844571Y-23487095D01*
X343892190Y-23391857D01*
X343892190Y-23010904D01*
X344368380Y-24058523D02*
X344368380Y-24249000D01*
X344320761Y-24344238D01*
X344273142Y-24391857D01*
X344130285Y-24487095D01*
X343939809Y-24534714D01*
X343558857Y-24534714D01*
X343463619Y-24487095D01*
X343416000Y-24439476D01*
X343368380Y-24344238D01*
X343368380Y-24153761D01*
X343416000Y-24058523D01*
X343463619Y-24010904D01*
X343558857Y-23963285D01*
X343796952Y-23963285D01*
X343892190Y-24010904D01*
X343939809Y-24058523D01*
X343987428Y-24153761D01*
X343987428Y-24344238D01*
X343939809Y-24439476D01*
X343892190Y-24487095D01*
X343796952Y-24534714D01*
%TO.C,U1*%
X378205904Y-26122380D02*
X378205904Y-26931904D01*
X378158285Y-27027142D01*
X378110666Y-27074761D01*
X378015428Y-27122380D01*
X377824952Y-27122380D01*
X377729714Y-27074761D01*
X377682095Y-27027142D01*
X377634476Y-26931904D01*
X377634476Y-26122380D01*
X376634476Y-27122380D02*
X377205904Y-27122380D01*
X376920190Y-27122380D02*
X376920190Y-26122380D01*
X377015428Y-26265238D01*
X377110666Y-26360476D01*
X377205904Y-26408095D01*
%TO.C,J1*%
X349521976Y-6437380D02*
X349521976Y-7151666D01*
X349569595Y-7294523D01*
X349664833Y-7389761D01*
X349807690Y-7437380D01*
X349902928Y-7437380D01*
X348521976Y-7437380D02*
X349093404Y-7437380D01*
X348807690Y-7437380D02*
X348807690Y-6437380D01*
X348902928Y-6580238D01*
X348998166Y-6675476D01*
X349093404Y-6723095D01*
%TO.C,U4*%
X337877304Y-24138380D02*
X337877304Y-24947904D01*
X337829685Y-25043142D01*
X337782066Y-25090761D01*
X337686828Y-25138380D01*
X337496352Y-25138380D01*
X337401114Y-25090761D01*
X337353495Y-25043142D01*
X337305876Y-24947904D01*
X337305876Y-24138380D01*
X336401114Y-24471714D02*
X336401114Y-25138380D01*
X336639209Y-24090761D02*
X336877304Y-24805047D01*
X336258257Y-24805047D01*
%TD*%
M02*
