M48
; DRILL file {KiCad (5.1.8)-1} date 05/31/21 11:47:47
; FORMAT={-:-/ absolute / metric / decimal}
; #@! TF.CreationDate,2021-05-31T11:47:47-04:00
; #@! TF.GenerationSoftware,Kicad,Pcbnew,(5.1.8)-1
; #@! TF.FileFunction,Plated,1,2,PTH
FMAT,2
METRIC
T1C0.250
T2C0.254
T3C0.305
T4C0.400
T5C0.406
T6C0.600
T7C1.000
T8C1.200
T9C1.600
T10C2.500
T11C2.524
T12C3.500
%
G90
G05
T1
X29.084Y-17.273
X29.084Y-18.373
X29.084Y-19.473
X29.084Y-20.573
X30.184Y-17.273
X30.184Y-18.373
X30.184Y-19.473
X30.184Y-20.573
X31.284Y-17.273
X31.284Y-18.373
X31.284Y-19.473
X31.284Y-20.573
X32.384Y-17.273
X32.384Y-18.373
X32.384Y-19.473
X32.384Y-20.573
X342.352Y-91.212
X342.352Y-92.312
X342.352Y-93.412
X342.352Y-94.512
X343.452Y-91.212
X343.452Y-92.312
X343.452Y-93.412
X343.452Y-94.512
X344.552Y-91.212
X344.552Y-92.312
X344.552Y-93.412
X344.552Y-94.512
X345.652Y-91.212
X345.652Y-92.312
X345.652Y-93.412
X345.652Y-94.512
T2
X16.764Y-66.548
X22.606Y-124.206
X25.4Y-7.62
X28.575Y-11.557
X30.162Y-65.468
X30.353Y-12.465
X30.607Y-23.241
X30.734Y-5.588
X30.934Y-10.849
X31.369Y-23.241
X32.004Y-22.987
X33.655Y-106.68
X34.163Y-15.113
X34.544Y-14.605
X34.544Y-15.875
X35.052Y-14.097
X35.179Y-16.51
X35.433Y-13.589
X35.687Y-6.096
X35.687Y-17.018
X36.068Y-6.858
X36.068Y-17.526
X40.513Y-27.813
X40.56Y-65.231
X41.148Y-24.892
X41.275Y-28.321
X41.91Y-22.86
X41.91Y-24.384
X42.037Y-23.749
X42.469Y-21.996
X42.651Y-22.881
X43.053Y-21.082
X43.434Y-22.225
X43.815Y-20.32
X43.815Y-21.082
X44.704Y-20.447
X45.339Y-19.558
X45.466Y-20.447
X46.355Y-123.698
X49.784Y-5.588
X49.784Y-6.858
X60.198Y-65.151
X67.692Y-6.858
X69.469Y-123.19
X79.121Y-64.897
X89.281Y-5.842
X100.076Y-19.939
X106.807Y-20.066
X113.792Y-87.757
X118.491Y-20.32
X126.492Y-122.682
X127.635Y-20.447
X130.81Y-87.757
X140.208Y-122.174
X144.653Y-20.701
X148.717Y-15.113
X149.098Y-20.828
X161.036Y-21.082
X168.021Y-15.875
X168.91Y-21.209
X180.721Y-21.463
X187.325Y-16.002
X189.547Y-21.526
X201.549Y-122.047
X204.089Y-21.844
X208.374Y-104.648
X211.836Y-15.875
X212.344Y-21.971
X220.98Y-22.225
X225.742Y-104.712
X229.616Y-15.621
X231.648Y-22.352
X234.823Y-121.666
X243.459Y-22.606
X249.618Y-16.066
X252.095Y-22.733
X255.778Y-111.379
X259.08Y-22.987
X260.477Y-110.617
X267.716Y-16.002
X268.224Y-23.114
X269.359Y-66.794
X277.327Y-110.617
X280.289Y-106.553
X290.068Y-23.368
X292.1Y-28.321
X292.608Y-24.892
X293.497Y-25.654
X293.497Y-26.924
X294.005Y-26.289
X294.513Y-25.654
X294.513Y-26.924
X295.402Y-27.813
X302.514Y-23.495
X303.784Y-107.569
X304.927Y-53.721
X305.435Y-70.993
X305.435Y-79.375
X308.356Y-70.993
X308.737Y-79.502
X311.404Y-82.55
X312.039Y-23.749
X312.928Y-74.422
X313.436Y-26.416
X322.335Y-74.286
X323.412Y-91.496
X323.412Y-106.864
X323.723Y-24.13
X324.866Y-29.21
X324.993Y-28.448
X325.755Y-28.321
X325.882Y-24.892
X325.882Y-29.718
X326.644Y-27.813
X329.057Y-66.04
X329.184Y-25.781
X329.184Y-26.797
X329.692Y-26.289
X329.692Y-65.659
X330.2Y-25.781
X330.2Y-26.797
X330.2Y-67.056
X330.327Y-65.278
X330.327Y-86.995
X330.327Y-93.218
X330.835Y-64.897
X330.835Y-110.617
X330.962Y-66.675
X330.962Y-86.487
X330.962Y-106.045
X331.216Y-107.569
X331.597Y-85.979
X331.597Y-94.361
X331.978Y-53.721
X332.105Y-85.471
X332.105Y-94.869
X332.74Y-95.504
X332.74Y-121.666
X333.18Y-74.236
X333.248Y-95.885
X333.248Y-122.174
X333.756Y-96.393
X333.756Y-122.682
X334.391Y-97.282
X334.391Y-123.19
X334.899Y-65.659
X334.899Y-66.294
X335.026Y-93.218
X335.026Y-97.282
X335.026Y-123.698
X335.407Y-65.278
X335.407Y-66.675
X335.661Y-97.282
X335.661Y-124.206
X335.788Y-93.218
X335.788Y-93.98
X335.915Y-67.056
X336.169Y-64.897
X336.296Y-97.282
X336.296Y-124.714
X336.55Y-67.437
X337.82Y-111.379
X338.582Y-76.454
X338.582Y-77.343
X338.645Y-91.123
X338.899Y-90.487
X338.963Y-89.789
X339.09Y-74.295
X339.217Y-76.835
X339.598Y-27.559
X339.598Y-34.417
X339.598Y-89.408
X339.852Y-76.454
X339.852Y-77.343
X339.852Y-85.471
X340.36Y-85.979
X340.741Y-20.066
X340.741Y-21.336
X340.868Y-86.487
X341.122Y-48.45
X341.376Y-86.995
X342.462Y-106.115
X344.17Y-26.67
X344.424Y-24.765
X344.932Y-26.67
X345.694Y-24.511
X345.694Y-26.67
X346.456Y-26.67
X347.091Y-18.415
X347.218Y-26.67
X348.107Y-91.694
X348.488Y-92.837
X348.869Y-92.262
X349.059Y-82.233
X349.885Y-20.32
X349.949Y-48.45
X350.774Y-25.527
X351.282Y-27.051
X351.765Y-11.938
X351.917Y-27.813
X353.06Y-27.559
X353.06Y-38.608
X353.06Y-42.672
X353.06Y-63.5
X353.441Y-29.718
X353.568Y-47.752
X353.631Y-43.497
X353.685Y-80.147
X353.822Y-28.067
X354.203Y-29.718
X354.308Y-24.743
X354.352Y-79.352
X354.584Y-43.434
X354.584Y-47.625
X355.219Y-38.608
X355.219Y-42.799
X355.346Y-47.752
X355.409Y-79.057
X355.473Y-37.846
X355.727Y-64.897
X356.235Y-65.278
X356.326Y-17.526
X356.362Y-65.913
X356.743Y-66.421
X357.124Y-66.929
X357.251Y-119.507
X357.505Y-67.437
X357.632Y-68.072
X357.886Y-34.29
X358.013Y-105.41
X358.14Y-33.147
X358.775Y-72.644
X358.775Y-99.314
X359.537Y-73.025
X359.537Y-99.949
X360.072Y-30.607
X360.108Y-73.596
X360.172Y-100.584
X360.782Y-30.607
X361.315Y-65.659
X361.442Y-124.714
X361.464Y-30.585
X361.696Y-32.385
X362.966Y-78.232
X363.347Y-97.155
X364.41Y-35.226
X372.491Y-16.51
X373.126Y-29.083
X375.285Y-26.416
X376.174Y-121.666
X376.301Y-106.934
X377.792Y-107.569
X381.063Y-27.114
X381.508Y-26.67
X384.175Y-124.206
X384.937Y-105.664
X385.325Y-35.045
X387.35Y-16.51
X388.391Y-30.632
X390.398Y-104.648
X397.637Y-105.537
X401.574Y-30.226
X405.13Y-123.698
X406.527Y-124.206
X407.797Y-53.848
X420.116Y-29.718
X422.91Y-35.052
X423.418Y-63.119
X424.18Y-92.583
X425.45Y-123.19
X425.831Y-24.638
X426.339Y-24.638
X426.974Y-23.749
X432.181Y-23.749
X434.022Y-65.849
X434.213Y-120.904
T3
X3.429Y-52.705
X4.107Y-51.9
X5.188Y-51.2
X9.506Y-51.2
X9.568Y-52.662
X10.33Y-51.9
X18.669Y-20.574
X19.431Y-19.685
X19.939Y-18.923
X25.781Y-16.129
X25.781Y-21.336
X25.781Y-22.606
X26.162Y-25.019
X26.543Y-14.859
X27.178Y-25.908
X28.067Y-26.797
X29.337Y-27.432
X30.842Y-70.25
X30.861Y-28.067
X31.92Y-70.95
X32.385Y-27.432
X33.19Y-71.712
X34.417Y-9.906
X34.925Y-20.193
X35.052Y-9.906
X35.687Y-9.906
X35.814Y-20.193
X36.322Y-9.906
X36.322Y-19.177
X36.449Y-13.081
X36.83Y-19.685
X37.084Y-13.081
X37.719Y-13.081
X38.354Y-13.081
X41.402Y-13.462
X42.037Y-13.462
X42.799Y-13.462
X43.434Y-13.462
X48.514Y-17.907
X122.09Y-109.812
X123.106Y-109.05
X124.079Y-108.331
X298.704Y-81.28
X298.747Y-90.762
X299.72Y-81.28
X299.72Y-90.043
X300.9Y-81.37
X300.971Y-89.3
X331.326Y-64.406
X337.168Y-64.406
X337.566Y-17.78
X337.947Y-96.52
X338.709Y-23.495
X338.709Y-96.52
X339.344Y-22.987
X339.471Y-96.52
X339.852Y-22.352
X339.852Y-23.495
X339.895Y-109.812
X340.657Y-109.05
X340.868Y-96.774
X341.249Y-96.012
X341.357Y-108.35
X341.884Y-99.314
X342.602Y-99.397
X343.281Y-99.314
X344.043Y-21.336
X346.519Y-17.462
X352.298Y-90.551
X352.552Y-23.495
X352.679Y-88.392
X352.679Y-89.662
X352.806Y-91.44
X353.06Y-22.987
X353.06Y-90.551
X353.314Y-89.027
X353.695Y-92.964
X353.822Y-90.551
X353.949Y-88.392
X353.949Y-89.662
X354.076Y-94.361
X354.99Y-7.239
X358.877Y-23.8
X359.156Y-26.035
X359.283Y-23.335
X360.045Y-65.024
X360.045Y-65.659
X360.045Y-66.421
X360.045Y-67.056
X362.204Y-88.666
X363.22Y-88.22
X364.744Y-22.479
X364.744Y-23.114
X365.041Y-90.762
X365.168Y-90.0
X365.76Y-20.447
X366.395Y-20.447
X366.903Y-22.733
X366.903Y-23.368
X367.03Y-20.447
X367.665Y-20.447
X370.967Y-22.352
X370.967Y-23.495
X371.475Y-22.987
X371.983Y-22.352
X371.983Y-23.495
X380.875Y-16.381
X380.875Y-17.143
X380.875Y-17.905
X380.875Y-18.667
X380.916Y-4.275
X380.957Y-5.037
X380.981Y-3.575
X386.334Y-54.229
X394.697Y-3.575
X394.697Y-32.15
X394.697Y-51.2
X394.697Y-70.25
X394.824Y-89.3
X394.824Y-108.35
X395.521Y-4.275
X395.521Y-32.85
X395.521Y-51.9
X395.521Y-70.95
X395.902Y-90.0
X395.902Y-109.05
X396.41Y-5.037
X396.41Y-33.612
X396.41Y-52.662
X396.41Y-71.712
X396.791Y-90.762
X396.791Y-109.812
X434.848Y-32.131
X434.848Y-60.706
X434.848Y-94.361
X435.737Y-61.341
X435.737Y-94.742
X435.78Y-32.85
X436.626Y-33.655
X436.626Y-62.23
X436.626Y-95.25
X66.331Y-108.35
X66.331Y-109.812
X67.031Y-109.05
X368.75Y-3.575
X368.75Y-5.037
X369.45Y-4.275
X278.262Y-51.2
X278.262Y-52.662
X278.962Y-51.9
X192.537Y-89.3
X192.537Y-90.762
X193.237Y-90.0
X368.75Y-32.15
X368.75Y-33.612
X369.45Y-32.85
X271.119Y-70.25
X271.119Y-71.712
X271.819Y-70.95
X325.887Y-51.2
X325.887Y-52.662
X326.587Y-51.9
X168.725Y-32.15
X168.725Y-33.612
X169.425Y-32.85
X344.938Y-32.15
X344.938Y-33.612
X345.637Y-32.85
X306.837Y-32.15
X306.837Y-33.612
X307.537Y-32.85
X368.75Y-51.2
X368.75Y-52.662
X369.45Y-51.9
X144.912Y-70.25
X144.912Y-71.712
X145.612Y-70.95
X149.675Y-32.15
X149.675Y-33.612
X150.375Y-32.85
X21.087Y-51.2
X21.087Y-52.662
X21.787Y-51.9
X63.95Y-51.2
X63.95Y-52.662
X64.65Y-51.9
X35.375Y-32.15
X35.375Y-33.612
X36.075Y-32.85
X406.85Y-51.2
X406.85Y-52.662
X407.55Y-51.9
X313.965Y-71.5
X313.965Y-72.962
X314.665Y-72.2
X256.831Y-108.35
X256.831Y-109.812
X257.531Y-109.05
X300.2Y-72.2
X300.9Y-71.438
X300.9Y-72.9
X306.837Y-51.2
X306.837Y-52.662
X307.537Y-51.9
X344.938Y-51.2
X344.938Y-52.662
X345.637Y-51.9
X266.356Y-89.3
X266.356Y-90.762
X267.056Y-90.0
X178.25Y-3.575
X178.25Y-5.037
X178.95Y-4.275
X425.9Y-98.825
X425.9Y-100.287
X426.6Y-99.525
X244.925Y-3.575
X244.925Y-5.037
X245.625Y-4.275
X368.75Y-70.25
X368.75Y-71.712
X369.45Y-70.95
X273.5Y-32.15
X273.5Y-33.612
X274.2Y-32.85
X137.769Y-108.35
X137.769Y-109.812
X138.469Y-109.05
X106.812Y-70.25
X106.812Y-71.712
X107.512Y-70.95
X111.575Y-3.575
X111.575Y-5.037
X112.275Y-4.275
X28.231Y-89.3
X28.231Y-90.762
X28.931Y-90.0
X54.425Y-32.15
X54.425Y-33.612
X55.125Y-32.85
X59.188Y-89.3
X59.188Y-90.762
X59.887Y-90.0
X324.81Y-71.5
X324.81Y-72.962
X325.51Y-72.2
X368.75Y-89.3
X368.75Y-90.762
X369.45Y-90.0
X325.887Y-108.35
X325.887Y-109.812
X326.587Y-109.05
X225.875Y-3.575
X225.875Y-5.037
X226.575Y-4.275
X325.887Y-32.15
X325.887Y-33.612
X326.587Y-32.85
X387.8Y-3.575
X387.8Y-5.037
X388.5Y-4.275
X178.25Y-51.2
X178.25Y-52.662
X178.95Y-51.9
X211.587Y-89.3
X211.587Y-90.762
X212.287Y-90.0
X216.35Y-51.2
X216.35Y-52.662
X217.05Y-51.9
X78.237Y-89.3
X78.237Y-90.762
X78.938Y-90.0
X325.887Y-3.575
X325.887Y-5.037
X326.587Y-4.275
X159.2Y-3.575
X159.2Y-5.037
X159.9Y-4.275
X16.325Y-3.575
X16.325Y-5.037
X17.025Y-4.275
X140.15Y-3.575
X140.15Y-5.037
X140.85Y-4.275
X102.05Y-51.2
X102.05Y-52.662
X102.75Y-51.9
X49.662Y-70.25
X49.662Y-71.712
X50.362Y-70.95
X18.706Y-108.35
X18.706Y-109.812
X19.406Y-109.05
X230.637Y-89.3
X230.637Y-90.762
X231.337Y-90.0
X387.8Y-32.15
X387.8Y-33.612
X388.5Y-32.85
X335.655Y-71.5
X335.655Y-72.962
X336.355Y-72.2
X187.775Y-32.15
X187.775Y-33.612
X188.475Y-32.85
X387.8Y-89.3
X387.8Y-90.762
X388.5Y-90.0
X346.5Y-71.5
X346.5Y-72.962
X347.2Y-72.2
X197.3Y-51.2
X197.3Y-52.662
X198.0Y-51.9
X97.287Y-89.3
X97.287Y-90.762
X97.987Y-90.0
X183.012Y-70.25
X183.012Y-71.712
X183.713Y-70.95
X378.275Y-108.35
X378.275Y-109.812
X378.975Y-109.05
X221.112Y-70.25
X221.112Y-71.712
X221.812Y-70.95
X121.1Y-51.2
X121.1Y-52.662
X121.8Y-51.9
X163.963Y-70.25
X163.963Y-71.712
X164.662Y-70.95
X54.425Y-3.575
X54.425Y-5.037
X55.125Y-4.275
X111.575Y-32.15
X111.575Y-33.612
X112.275Y-32.85
X73.475Y-32.15
X73.475Y-33.612
X74.175Y-32.85
X233.019Y-108.35
X233.019Y-109.812
X233.719Y-109.05
X306.837Y-108.35
X306.837Y-109.812
X307.537Y-109.05
X154.438Y-89.3
X154.438Y-90.762
X155.137Y-90.0
X68.712Y-70.25
X68.712Y-71.712
X69.412Y-70.95
X202.062Y-70.25
X202.062Y-71.712
X202.762Y-70.95
X173.487Y-89.3
X173.487Y-90.762
X174.188Y-90.0
X406.85Y-3.575
X406.85Y-5.037
X407.55Y-4.275
X254.45Y-51.2
X254.45Y-52.662
X255.15Y-51.9
X135.387Y-89.3
X135.387Y-90.762
X136.088Y-90.0
X206.825Y-32.15
X206.825Y-33.612
X207.525Y-32.85
X387.8Y-70.25
X387.8Y-71.712
X388.5Y-70.95
X240.162Y-70.25
X240.162Y-71.712
X240.862Y-70.95
X130.625Y-32.15
X130.625Y-33.612
X131.325Y-32.85
X73.475Y-3.575
X73.475Y-5.037
X74.175Y-4.275
X83.0Y-51.2
X83.0Y-52.662
X83.7Y-51.9
X116.337Y-89.3
X116.337Y-90.762
X117.037Y-90.0
X325.887Y-89.3
X325.887Y-90.762
X326.587Y-90.0
X425.9Y-60.725
X425.9Y-62.187
X426.6Y-61.425
X425.9Y-32.15
X425.9Y-33.612
X426.6Y-32.85
X244.925Y-32.15
X244.925Y-33.612
X245.625Y-32.85
X406.85Y-32.15
X406.85Y-33.612
X407.55Y-32.85
X197.3Y-3.575
X197.3Y-5.037
X198.0Y-4.275
X406.85Y-89.3
X406.85Y-90.762
X407.55Y-90.0
X263.975Y-3.575
X263.975Y-5.037
X264.675Y-4.275
X406.85Y-70.25
X406.85Y-71.712
X407.55Y-70.95
X306.837Y-3.575
X306.837Y-5.037
X307.537Y-4.275
X92.525Y-32.15
X92.525Y-33.612
X93.225Y-32.85
X283.025Y-3.575
X283.025Y-5.037
X283.725Y-4.275
X92.525Y-3.575
X92.525Y-5.037
X93.225Y-4.275
X87.763Y-70.25
X87.763Y-71.712
X88.462Y-70.95
X42.519Y-108.35
X42.519Y-109.812
X43.219Y-109.05
X344.938Y-108.35
X344.938Y-109.812
X345.637Y-109.05
X209.206Y-108.35
X209.206Y-109.812
X209.906Y-109.05
X280.644Y-108.35
X280.644Y-109.812
X281.344Y-109.05
X225.875Y-32.15
X225.875Y-33.612
X226.575Y-32.85
X344.938Y-3.575
X344.938Y-5.037
X345.637Y-4.275
X159.2Y-51.2
X159.2Y-52.662
X159.9Y-51.9
X387.8Y-51.2
X387.8Y-52.662
X388.5Y-51.9
X235.4Y-51.2
X235.4Y-52.662
X236.1Y-51.9
X406.85Y-108.35
X406.85Y-109.812
X407.55Y-109.05
X140.15Y-51.2
X140.15Y-52.662
X140.85Y-51.9
X23.469Y-70.25
X23.469Y-71.712
X24.169Y-70.95
X125.862Y-70.25
X125.862Y-71.712
X126.562Y-70.95
X16.325Y-32.15
X16.325Y-33.612
X17.025Y-32.85
X44.9Y-51.2
X44.9Y-52.662
X45.6Y-51.9
T4
X352.044Y-4.619
X352.044Y-5.969
X352.894Y-4.619
X352.894Y-5.969
X353.744Y-4.619
X353.744Y-5.969
X354.594Y-4.619
X354.594Y-5.969
X355.444Y-4.619
X355.444Y-5.969
X356.294Y-4.619
X356.294Y-5.969
X357.144Y-4.619
X357.144Y-5.969
X357.994Y-4.619
X357.994Y-5.969
T5
X330.835Y-19.05
X331.851Y-19.05
X332.867Y-19.05
X333.883Y-19.05
T7
X351.155Y-15.367
X351.155Y-17.907
X310.896Y-29.21
X313.436Y-29.21
X315.976Y-29.21
X318.516Y-29.21
X321.056Y-29.21
T8
X427.106Y-2.725
X427.106Y-17.225
X429.606Y-17.225
X432.106Y-2.725
X432.106Y-17.225
T9
X31.035Y-43.18
X37.385Y-40.64
X54.847Y-100.33
X61.197Y-97.79
X169.147Y-100.33
X175.498Y-97.79
X83.422Y-81.28
X89.772Y-78.74
X321.548Y-100.33
X327.897Y-97.79
X192.96Y-62.23
X199.31Y-59.69
X228.679Y-119.38
X235.029Y-116.84
X266.779Y-81.28
X273.129Y-78.74
X402.51Y-81.28
X408.86Y-78.74
X102.472Y-81.28
X108.822Y-78.74
X252.491Y-119.38
X258.841Y-116.84
X204.866Y-119.38
X211.216Y-116.84
X302.498Y-43.18
X308.847Y-40.64
X250.11Y-62.23
X256.46Y-59.69
X321.548Y-119.38
X327.897Y-116.84
X402.51Y-119.38
X408.86Y-116.84
X45.322Y-81.28
X51.672Y-78.74
X69.135Y-14.605
X75.485Y-12.065
X92.947Y-100.33
X99.297Y-97.79
X383.46Y-43.18
X389.81Y-40.64
X240.585Y-43.18
X246.935Y-40.64
X126.285Y-43.18
X132.635Y-40.64
X276.304Y-119.38
X282.654Y-116.84
X207.248Y-100.33
X213.597Y-97.79
X154.86Y-14.605
X161.21Y-12.065
X188.197Y-100.33
X194.547Y-97.79
X278.685Y-14.605
X285.035Y-12.065
X150.097Y-100.33
X156.447Y-97.79
X302.498Y-119.38
X308.847Y-116.84
X340.597Y-62.23
X346.947Y-59.69
X421.56Y-43.18
X427.91Y-40.64
X11.985Y-14.605
X18.335Y-12.065
X23.891Y-100.33
X30.241Y-97.79
X69.135Y-43.18
X75.485Y-40.64
X50.085Y-14.605
X56.435Y-12.065
X107.235Y-43.18
X113.585Y-40.64
X121.522Y-81.28
X127.872Y-78.74
X133.429Y-119.38
X139.779Y-116.84
X364.41Y-14.605
X370.76Y-12.065
X140.572Y-81.28
X146.922Y-78.74
X421.56Y-71.755
X427.91Y-69.215
X212.01Y-62.23
X218.36Y-59.69
X269.16Y-43.18
X275.51Y-40.64
X107.235Y-14.605
X113.585Y-12.065
X340.597Y-14.605
X346.947Y-12.065
X364.41Y-62.23
X370.76Y-59.69
X302.498Y-62.23
X308.847Y-59.69
X11.985Y-43.18
X18.335Y-40.64
X38.179Y-119.38
X44.529Y-116.84
X59.61Y-62.23
X65.96Y-59.69
X364.41Y-100.33
X370.76Y-97.79
X97.71Y-62.23
X104.06Y-59.69
X240.585Y-14.605
X246.935Y-12.065
X131.047Y-100.33
X137.398Y-97.79
X321.548Y-43.18
X327.897Y-40.64
X221.535Y-43.18
X227.885Y-40.64
X383.46Y-62.23
X389.81Y-59.69
X173.91Y-62.23
X180.26Y-59.69
X273.923Y-62.23
X280.272Y-59.69
X135.81Y-62.23
X142.16Y-59.69
X364.41Y-81.28
X370.76Y-78.74
X383.46Y-81.28
X389.81Y-78.74
X16.747Y-62.23
X23.098Y-59.69
X64.373Y-81.28
X70.722Y-78.74
X154.86Y-62.23
X161.21Y-59.69
X61.991Y-119.38
X68.341Y-116.84
X135.81Y-14.605
X142.16Y-12.065
X221.535Y-14.605
X227.885Y-12.065
X192.96Y-14.605
X199.31Y-12.065
X340.597Y-119.38
X346.947Y-116.84
X178.672Y-81.28
X185.022Y-78.74
X421.56Y-109.855
X427.91Y-107.315
X73.897Y-100.33
X80.248Y-97.79
X321.548Y-62.23
X327.897Y-59.69
X111.997Y-100.33
X118.347Y-97.79
X373.935Y-119.38
X380.285Y-116.84
X402.51Y-100.33
X408.86Y-97.79
X19.129Y-81.28
X25.479Y-78.74
X50.085Y-43.18
X56.435Y-40.64
X340.597Y-43.18
X346.947Y-40.64
X88.185Y-14.605
X94.535Y-12.065
X226.297Y-100.33
X232.647Y-97.79
X259.635Y-14.605
X265.985Y-12.065
X183.435Y-43.18
X189.785Y-40.64
X364.41Y-43.18
X370.76Y-40.64
X197.722Y-81.28
X204.072Y-78.74
X164.385Y-43.18
X170.735Y-40.64
X235.822Y-81.28
X242.172Y-78.74
X402.51Y-14.605
X408.86Y-12.065
X173.91Y-14.605
X180.26Y-12.065
X321.548Y-14.605
X327.897Y-12.065
X383.46Y-100.33
X389.81Y-97.79
X14.366Y-119.38
X20.716Y-116.84
X40.56Y-62.23
X46.91Y-59.69
X159.623Y-81.28
X165.972Y-78.74
X78.66Y-62.23
X85.01Y-59.69
X202.485Y-43.18
X208.835Y-40.64
X145.335Y-43.18
X151.685Y-40.64
X216.772Y-81.28
X223.123Y-78.74
X402.51Y-62.23
X408.86Y-59.69
X116.76Y-62.23
X123.11Y-59.69
X262.016Y-100.33
X268.366Y-97.79
X88.185Y-43.18
X94.535Y-40.64
X302.498Y-14.605
X308.847Y-12.065
X231.06Y-62.23
X237.41Y-59.69
X383.46Y-14.605
X389.81Y-12.065
X402.51Y-43.18
X408.86Y-40.64
T11
X423.906Y-9.725
X435.306Y-9.725
T12
X293.116Y-5.08
T6
G00X350.694Y-1.209
M15
G01X350.694Y-2.009
M16
G05
G00X350.694Y-4.239
M15
G01X350.694Y-5.739
M16
G05
G00X359.344Y-1.209
M15
G01X359.344Y-2.009
M16
G05
G00X359.344Y-4.239
M15
G01X359.344Y-5.739
M16
G05
T10
G00X438.13Y-85.09
M15
G01X437.13Y-85.09
M16
G05
G00X0.655Y-85.09
M15
G01X1.655Y-85.09
M16
G05
T0
M30
