M48
; DRILL file {KiCad (5.1.7)-1} date 06/04/21 23:16:24
; FORMAT={3:3/ absolute / metric / suppress leading zeros}
; #@! TF.CreationDate,2021-06-04T23:16:24-04:00
; #@! TF.GenerationSoftware,Kicad,Pcbnew,(5.1.7)-1
FMAT,2
METRIC,TZ
T1C0.250
T2C0.254
T3C0.305
T4C0.400
T5C0.406
T6C0.600
T7C1.000
T8C1.200
T9C1.600
T10C2.500
T11C2.524
T12C3.500
T13C1.700
T14C3.048
T15C3.988
T16C4.000
%
G90
G05
T1
X342352Y-91212
X342352Y-92312
X342352Y-93412
X342352Y-94512
X343452Y-91212
X343452Y-92312
X343452Y-93412
X343452Y-94512
X344552Y-91212
X344552Y-92312
X344552Y-93412
X344552Y-94512
X345652Y-91212
X345652Y-92312
X345652Y-93412
X345652Y-94512
X29084Y-17273
X29084Y-18373
X29084Y-19473
X29084Y-20573
X30184Y-17273
X30184Y-18373
X30184Y-19473
X30184Y-20573
X31284Y-17273
X31284Y-18373
X31284Y-19473
X31284Y-20573
X32384Y-17273
X32384Y-18373
X32384Y-19473
X32384Y-20573
T2
X16764Y-66548
X22606Y-124206
X25400Y-7620
X28575Y-11557
X30163Y-65468
X30353Y-12465
X30607Y-23241
X30734Y-5588
X30934Y-10849
X31369Y-23241
X32004Y-22987
X33655Y-106680
X34163Y-15113
X34544Y-14605
X34544Y-15875
X35052Y-14097
X35179Y-16510
X35433Y-13589
X35687Y-6096
X35687Y-17018
X36068Y-6858
X36068Y-17526
X40513Y-27813
X40560Y-65231
X41148Y-24892
X41275Y-28321
X41910Y-22860
X41910Y-24384
X42037Y-23749
X42469Y-21996
X42651Y-22881
X43053Y-21082
X43434Y-22225
X43815Y-20320
X43815Y-21082
X44704Y-20447
X45339Y-19558
X45466Y-20447
X46355Y-123698
X49784Y-5588
X49784Y-6858
X60198Y-65151
X67692Y-6858
X69469Y-123190
X79121Y-64897
X89281Y-5842
X100076Y-19939
X106807Y-20066
X113792Y-87757
X118491Y-20320
X126492Y-122682
X127635Y-20447
X130810Y-87757
X140208Y-122174
X144653Y-20701
X148717Y-15113
X149098Y-20828
X161036Y-21082
X168021Y-15875
X168910Y-21209
X180721Y-21463
X187325Y-16002
X189548Y-21526
X201549Y-122047
X204089Y-21844
X208374Y-104648
X211836Y-15875
X212344Y-21971
X220980Y-22225
X225742Y-104712
X229616Y-15621
X231648Y-22352
X234823Y-121666
X243459Y-22606
X249619Y-16066
X252095Y-22733
X255778Y-111379
X259080Y-22987
X260477Y-110617
X267716Y-16002
X268224Y-23114
X269359Y-66794
X277327Y-110617
X280289Y-106553
X290068Y-23368
X292100Y-28321
X292608Y-24892
X293497Y-25654
X293497Y-26924
X294005Y-26289
X294513Y-25654
X294513Y-26924
X295402Y-27813
X302514Y-23495
X303784Y-107569
X304927Y-53721
X305435Y-70993
X305435Y-79375
X308356Y-70993
X308737Y-79502
X311404Y-82550
X312039Y-23749
X312928Y-74422
X313436Y-26416
X322335Y-74286
X323412Y-91497
X323412Y-106864
X323723Y-24130
X324866Y-29210
X324993Y-28448
X325755Y-28321
X325882Y-24892
X325882Y-29718
X326644Y-27813
X329057Y-66040
X329184Y-25781
X329184Y-26797
X329692Y-26289
X329692Y-65659
X330200Y-25781
X330200Y-26797
X330200Y-67056
X330327Y-65278
X330327Y-86995
X330327Y-93218
X330835Y-64897
X330835Y-110617
X330962Y-66675
X330962Y-86487
X330962Y-106045
X331216Y-107569
X331597Y-85979
X331597Y-94361
X331978Y-53721
X332105Y-85471
X332105Y-94869
X332740Y-95504
X332740Y-121666
X333180Y-74236
X333248Y-95885
X333248Y-122174
X333756Y-96393
X333756Y-122682
X334391Y-97282
X334391Y-123190
X334899Y-65659
X334899Y-66294
X335026Y-93218
X335026Y-97282
X335026Y-123698
X335407Y-65278
X335407Y-66675
X335661Y-97282
X335661Y-124206
X335788Y-93218
X335788Y-93980
X335915Y-67056
X336169Y-64897
X336296Y-97282
X336296Y-124714
X336550Y-67437
X337820Y-111379
X338582Y-76454
X338582Y-77343
X338646Y-91123
X338900Y-90488
X338963Y-89789
X339090Y-74295
X339217Y-76835
X339598Y-27559
X339598Y-34417
X339598Y-89408
X339852Y-76454
X339852Y-77343
X339852Y-85471
X340360Y-85979
X340741Y-20066
X340741Y-21336
X340868Y-86487
X341122Y-48450
X341376Y-86995
X342463Y-106116
X344170Y-26670
X344424Y-24765
X344932Y-26670
X345694Y-24511
X345694Y-26670
X346456Y-26670
X347091Y-18415
X347218Y-26670
X348107Y-91694
X348488Y-92837
X348869Y-92262
X349060Y-82233
X349885Y-20320
X349949Y-48450
X350774Y-25527
X351282Y-27051
X351765Y-11938
X351917Y-27813
X353060Y-27559
X353060Y-38608
X353060Y-42672
X353060Y-63500
X353441Y-29718
X353568Y-47752
X353631Y-43498
X353685Y-80147
X353822Y-28067
X354203Y-29718
X354308Y-24743
X354353Y-79352
X354584Y-43434
X354584Y-47625
X355219Y-38608
X355219Y-42799
X355346Y-47752
X355410Y-79057
X355473Y-37846
X355727Y-64897
X356235Y-65278
X356326Y-17526
X356362Y-65913
X356743Y-66421
X357124Y-66929
X357251Y-119507
X357505Y-67437
X357632Y-68072
X357886Y-34290
X358013Y-105410
X358140Y-33147
X358775Y-72644
X358775Y-99314
X359537Y-73025
X359537Y-99949
X360072Y-30607
X360109Y-73597
X360172Y-100584
X360782Y-30607
X361315Y-65659
X361442Y-124714
X361464Y-30585
X361696Y-32385
X362966Y-78232
X363347Y-97155
X364410Y-35226
X372491Y-16510
X373126Y-29083
X375285Y-26416
X376174Y-121666
X376301Y-106934
X377792Y-107569
X381064Y-27115
X381508Y-26670
X384175Y-124206
X384937Y-105664
X385325Y-35045
X387350Y-16510
X388391Y-30632
X390398Y-104648
X397637Y-105537
X401574Y-30226
X405130Y-123698
X406527Y-124206
X407797Y-53848
X420116Y-29718
X422910Y-35052
X423418Y-63119
X424180Y-92583
X425450Y-123190
X425831Y-24638
X426339Y-24638
X426974Y-23749
X432181Y-23749
X434022Y-65849
X434213Y-120904
T3
X3429Y-52705
X4107Y-51900
X5188Y-51200
X9506Y-51200
X9568Y-52662
X10330Y-51900
X18669Y-20574
X19431Y-19685
X19939Y-18923
X25781Y-16129
X25781Y-21336
X25781Y-22606
X26162Y-25019
X26543Y-14859
X27178Y-25908
X28067Y-26797
X29337Y-27432
X30842Y-70250
X30861Y-28067
X31920Y-70950
X32385Y-27432
X33190Y-71712
X34417Y-9906
X34925Y-20193
X35052Y-9906
X35687Y-9906
X35814Y-20193
X36322Y-9906
X36322Y-19177
X36449Y-13081
X36830Y-19685
X37084Y-13081
X37719Y-13081
X38354Y-13081
X41402Y-13462
X42037Y-13462
X42799Y-13462
X43434Y-13462
X48514Y-17907
X122090Y-109812
X123106Y-109050
X124079Y-108331
X298704Y-81280
X298747Y-90762
X299720Y-81280
X299720Y-90043
X300900Y-81370
X300971Y-89300
X331326Y-64406
X337168Y-64406
X337566Y-17780
X337947Y-96520
X338709Y-23495
X338709Y-96520
X339344Y-22987
X339471Y-96520
X339852Y-22352
X339852Y-23495
X339895Y-109812
X340657Y-109050
X340868Y-96774
X341249Y-96012
X341357Y-108350
X341884Y-99314
X342602Y-99397
X343281Y-99314
X344043Y-21336
X346520Y-17463
X352298Y-90551
X352552Y-23495
X352679Y-88392
X352679Y-89662
X352806Y-91440
X353060Y-22987
X353060Y-90551
X353314Y-89027
X353695Y-92964
X353822Y-90551
X353949Y-88392
X353949Y-89662
X354076Y-94361
X354990Y-7239
X358877Y-23800
X359156Y-26035
X359283Y-23335
X360045Y-65024
X360045Y-65659
X360045Y-66421
X360045Y-67056
X362204Y-88666
X363220Y-88220
X364744Y-22479
X364744Y-23114
X365041Y-90762
X365168Y-90000
X365760Y-20447
X366395Y-20447
X366903Y-22733
X366903Y-23368
X367030Y-20447
X367665Y-20447
X370967Y-22352
X370967Y-23495
X371475Y-22987
X371983Y-22352
X371983Y-23495
X380875Y-16381
X380875Y-17143
X380875Y-17905
X380875Y-18667
X380916Y-4275
X380957Y-5037
X380981Y-3575
X386334Y-54229
X394697Y-3575
X394697Y-32150
X394697Y-51200
X394697Y-70250
X394824Y-89300
X394824Y-108350
X395521Y-4275
X395521Y-32850
X395521Y-51900
X395521Y-70950
X395902Y-90000
X395902Y-109050
X396410Y-5037
X396410Y-33612
X396410Y-52662
X396410Y-71712
X396791Y-90762
X396791Y-109812
X434848Y-32131
X434848Y-60706
X434848Y-94361
X435737Y-61341
X435737Y-94742
X435780Y-32850
X436626Y-33655
X436626Y-62230
X436626Y-95250
X140150Y-3575
X140150Y-5037
X140850Y-4275
X28231Y-89300
X28231Y-90762
X28931Y-90000
X256831Y-108350
X256831Y-109812
X257531Y-109050
X344938Y-51200
X344938Y-52662
X345638Y-51900
X240163Y-70250
X240163Y-71712
X240863Y-70950
X344938Y-3575
X344938Y-5037
X345638Y-4275
X266356Y-89300
X266356Y-90762
X267056Y-90000
X149675Y-32150
X149675Y-33612
X150375Y-32850
X154438Y-89300
X154438Y-90762
X155138Y-90000
X344938Y-108350
X344938Y-109812
X345638Y-109050
X159200Y-51200
X159200Y-52662
X159900Y-51900
X406850Y-89300
X406850Y-90762
X407550Y-90000
X306838Y-108350
X306838Y-109812
X307537Y-109050
X178250Y-3575
X178250Y-5037
X178950Y-4275
X178250Y-51200
X178250Y-52662
X178950Y-51900
X92525Y-3575
X92525Y-5037
X93225Y-4275
X54425Y-3575
X54425Y-5037
X55125Y-4275
X102050Y-51200
X102050Y-52662
X102750Y-51900
X368750Y-51200
X368750Y-52662
X369450Y-51900
X387800Y-89300
X387800Y-90762
X388500Y-90000
X271119Y-70250
X271119Y-71712
X271819Y-70950
X325888Y-32150
X325888Y-33612
X326588Y-32850
X68712Y-70250
X68712Y-71712
X69413Y-70950
X197300Y-3575
X197300Y-5037
X198000Y-4275
X209206Y-108350
X209206Y-109812
X209906Y-109050
X406850Y-3575
X406850Y-5037
X407550Y-4275
X225875Y-3575
X225875Y-5037
X226575Y-4275
X406850Y-32150
X406850Y-33612
X407550Y-32850
X325888Y-89300
X325888Y-90762
X326588Y-90000
X125863Y-70250
X125863Y-71712
X126563Y-70950
X263975Y-3575
X263975Y-5037
X264675Y-4275
X23469Y-70250
X23469Y-71712
X24169Y-70950
X49662Y-70250
X49662Y-71712
X50363Y-70950
X63950Y-51200
X63950Y-52662
X64650Y-51900
X16325Y-32150
X16325Y-33612
X17025Y-32850
X325888Y-51200
X325888Y-52662
X326588Y-51900
X59188Y-89300
X59188Y-90762
X59888Y-90000
X306838Y-51200
X306838Y-52662
X307537Y-51900
X368750Y-70250
X368750Y-71712
X369450Y-70950
X325888Y-108350
X325888Y-109812
X326588Y-109050
X106813Y-70250
X106813Y-71712
X107513Y-70950
X378275Y-108350
X378275Y-109812
X378975Y-109050
X313965Y-71500
X313965Y-72962
X314665Y-72200
X197300Y-51200
X197300Y-52662
X198000Y-51900
X233019Y-108350
X233019Y-109812
X233719Y-109050
X300200Y-72200
X300900Y-71438
X300900Y-72900
X273500Y-32150
X273500Y-33612
X274200Y-32850
X163963Y-70250
X163963Y-71712
X164663Y-70950
X44900Y-51200
X44900Y-52662
X45600Y-51900
X111575Y-3575
X111575Y-5037
X112275Y-4275
X87763Y-70250
X87763Y-71712
X88462Y-70950
X83000Y-51200
X83000Y-52662
X83700Y-51900
X42519Y-108350
X42519Y-109812
X43219Y-109050
X425900Y-98825
X425900Y-100287
X426600Y-99525
X144913Y-70250
X144913Y-71712
X145612Y-70950
X406850Y-70250
X406850Y-71712
X407550Y-70950
X335655Y-71500
X335655Y-72962
X336355Y-72200
X244925Y-3575
X244925Y-5037
X245625Y-4275
X344938Y-32150
X344938Y-33612
X345638Y-32850
X346500Y-71500
X346500Y-72962
X347200Y-72200
X306838Y-32150
X306838Y-33612
X307537Y-32850
X116338Y-89300
X116338Y-90762
X117038Y-90000
X368750Y-32150
X368750Y-33612
X369450Y-32850
X206825Y-32150
X206825Y-33612
X207525Y-32850
X216350Y-51200
X216350Y-52662
X217050Y-51900
X73475Y-3575
X73475Y-5037
X74175Y-4275
X35375Y-32150
X35375Y-33612
X36075Y-32850
X406850Y-108350
X406850Y-109812
X407550Y-109050
X406850Y-51200
X406850Y-52662
X407550Y-51900
X225875Y-32150
X225875Y-33612
X226575Y-32850
X387800Y-70250
X387800Y-71712
X388500Y-70950
X324810Y-71500
X324810Y-72962
X325510Y-72200
X283025Y-3575
X283025Y-5037
X283725Y-4275
X18706Y-108350
X18706Y-109812
X19406Y-109050
X387800Y-3575
X387800Y-5037
X388500Y-4275
X202063Y-70250
X202063Y-71712
X202763Y-70950
X137769Y-108350
X137769Y-109812
X138469Y-109050
X235400Y-51200
X235400Y-52662
X236100Y-51900
X183013Y-70250
X183013Y-71712
X183713Y-70950
X16325Y-3575
X16325Y-5037
X17025Y-4275
X73475Y-32150
X73475Y-33612
X74175Y-32850
X54425Y-32150
X54425Y-33612
X55125Y-32850
X425900Y-60725
X425900Y-62187
X426600Y-61425
X66331Y-108350
X66331Y-109812
X67031Y-109050
X244925Y-32150
X244925Y-33612
X245625Y-32850
X387800Y-32150
X387800Y-33612
X388500Y-32850
X278263Y-51200
X278263Y-52662
X278963Y-51900
X211588Y-89300
X211588Y-90762
X212288Y-90000
X230638Y-89300
X230638Y-90762
X231338Y-90000
X325888Y-3575
X325888Y-5037
X326588Y-4275
X368750Y-89300
X368750Y-90762
X369450Y-90000
X368750Y-3575
X368750Y-5037
X369450Y-4275
X130625Y-32150
X130625Y-33612
X131325Y-32850
X173487Y-89300
X173487Y-90762
X174188Y-90000
X168725Y-32150
X168725Y-33612
X169425Y-32850
X187775Y-32150
X187775Y-33612
X188475Y-32850
X111575Y-32150
X111575Y-33612
X112275Y-32850
X21088Y-51200
X21088Y-52662
X21787Y-51900
X92525Y-32150
X92525Y-33612
X93225Y-32850
X192538Y-89300
X192538Y-90762
X193237Y-90000
X387800Y-51200
X387800Y-52662
X388500Y-51900
X254450Y-51200
X254450Y-52662
X255150Y-51900
X78238Y-89300
X78238Y-90762
X78938Y-90000
X221113Y-70250
X221113Y-71712
X221813Y-70950
X135388Y-89300
X135388Y-90762
X136088Y-90000
X280644Y-108350
X280644Y-109812
X281344Y-109050
X159200Y-3575
X159200Y-5037
X159900Y-4275
X97288Y-89300
X97288Y-90762
X97988Y-90000
X425900Y-32150
X425900Y-33612
X426600Y-32850
X140150Y-51200
X140150Y-52662
X140850Y-51900
X306838Y-3575
X306838Y-5037
X307537Y-4275
X121100Y-51200
X121100Y-52662
X121800Y-51900
T4
X352044Y-4619
X352044Y-5969
X352894Y-4619
X352894Y-5969
X353744Y-4619
X353744Y-5969
X354594Y-4619
X354594Y-5969
X355444Y-4619
X355444Y-5969
X356294Y-4619
X356294Y-5969
X357144Y-4619
X357144Y-5969
X357994Y-4619
X357994Y-5969
T5
X330835Y-19050
X331851Y-19050
X332867Y-19050
X333883Y-19050
T7
X351155Y-15367
X351155Y-17907
X310896Y-29210
X313436Y-29210
X315976Y-29210
X318516Y-29210
X321056Y-29210
T8
X427106Y-2725
X427106Y-17225
X429606Y-17225
X432106Y-2725
X432106Y-17225
T9
X11985Y-14605
X18335Y-12065
X383460Y-81280
X389810Y-78740
X40560Y-62230
X46910Y-59690
X154860Y-14605
X161210Y-12065
X140573Y-81280
X146923Y-78740
X421560Y-109855
X427910Y-107315
X126285Y-43180
X132635Y-40640
X321548Y-62230
X327898Y-59690
X202485Y-43180
X208835Y-40640
X269160Y-43180
X275510Y-40640
X221535Y-14605
X227885Y-12065
X259635Y-14605
X265985Y-12065
X111998Y-100330
X118348Y-97790
X50085Y-43180
X56435Y-40640
X14366Y-119380
X20716Y-116840
X402510Y-119380
X408860Y-116840
X73897Y-100330
X80248Y-97790
X364410Y-62230
X370760Y-59690
X266779Y-81280
X273129Y-78740
X340597Y-62230
X346948Y-59690
X116760Y-62230
X123110Y-59690
X164385Y-43180
X170735Y-40640
X131048Y-100330
X137398Y-97790
X302498Y-14605
X308847Y-12065
X240585Y-43180
X246935Y-40640
X183435Y-43180
X189785Y-40640
X226298Y-100330
X232648Y-97790
X364410Y-100330
X370760Y-97790
X61991Y-119380
X68341Y-116840
X16748Y-62230
X23098Y-59690
X273923Y-62230
X280273Y-59690
X31035Y-43180
X37385Y-40640
X364410Y-43180
X370760Y-40640
X69135Y-43180
X75485Y-40640
X383460Y-100330
X389810Y-97790
X107235Y-14605
X113585Y-12065
X321548Y-14605
X327898Y-12065
X173910Y-62230
X180260Y-59690
X383460Y-62230
X389810Y-59690
X216773Y-81280
X223123Y-78740
X364410Y-14605
X370760Y-12065
X145335Y-43180
X151685Y-40640
X135810Y-62230
X142160Y-59690
X154860Y-62230
X161210Y-59690
X59610Y-62230
X65960Y-59690
X97710Y-62230
X104060Y-59690
X276304Y-119380
X282654Y-116840
X64373Y-81280
X70722Y-78740
X402510Y-43180
X408860Y-40640
X88185Y-14605
X94535Y-12065
X373935Y-119380
X380285Y-116840
X83423Y-81280
X89773Y-78740
X421560Y-71755
X427910Y-69215
X192960Y-62230
X199310Y-59690
X262016Y-100330
X268366Y-97790
X212010Y-62230
X218360Y-59690
X188198Y-100330
X194548Y-97790
X173910Y-14605
X180260Y-12065
X159623Y-81280
X165973Y-78740
X321548Y-100330
X327898Y-97790
X78660Y-62230
X85010Y-59690
X69135Y-14605
X75485Y-12065
X302498Y-119380
X308847Y-116840
X23891Y-100330
X30241Y-97790
X402510Y-81280
X408860Y-78740
X88185Y-43180
X94535Y-40640
X302498Y-43180
X308847Y-40640
X250110Y-62230
X256460Y-59690
X321548Y-119380
X327898Y-116840
X221535Y-43180
X227885Y-40640
X252491Y-119380
X258841Y-116840
X150098Y-100330
X156448Y-97790
X197723Y-81280
X204073Y-78740
X192960Y-14605
X199310Y-12065
X169148Y-100330
X175498Y-97790
X340597Y-43180
X346948Y-40640
X302498Y-62230
X308847Y-59690
X11985Y-43180
X18335Y-40640
X19129Y-81280
X25479Y-78740
X340597Y-14605
X346948Y-12065
X102473Y-81280
X108823Y-78740
X402510Y-100330
X408860Y-97790
X92948Y-100330
X99298Y-97790
X321548Y-43180
X327898Y-40640
X133429Y-119380
X139779Y-116840
X402510Y-14605
X408860Y-12065
X240585Y-14605
X246935Y-12065
X383460Y-14605
X389810Y-12065
X235823Y-81280
X242173Y-78740
X207248Y-100330
X213598Y-97790
X204866Y-119380
X211216Y-116840
X383460Y-43180
X389810Y-40640
X54847Y-100330
X61198Y-97790
X45323Y-81280
X51673Y-78740
X340597Y-119380
X346948Y-116840
X38179Y-119380
X44529Y-116840
X364410Y-81280
X370760Y-78740
X107235Y-43180
X113585Y-40640
X402510Y-62230
X408860Y-59690
X178673Y-81280
X185023Y-78740
X421560Y-43180
X427910Y-40640
X121523Y-81280
X127873Y-78740
X278685Y-14605
X285035Y-12065
X135810Y-14605
X142160Y-12065
X228679Y-119380
X235029Y-116840
X231060Y-62230
X237410Y-59690
X50085Y-14605
X56435Y-12065
T11
X423906Y-9725
X435306Y-9725
T12
X293116Y-5080
T13
X319008Y-95250
X329168Y-95250
X76120Y-57150
X86280Y-57150
X66595Y-9525
X76755Y-9525
X299958Y-114300
X310118Y-114300
X21351Y-95250
X31511Y-95250
X399970Y-76200
X410130Y-76200
X85645Y-38100
X95805Y-38100
X299958Y-38100
X310118Y-38100
X247570Y-57150
X257730Y-57150
X319008Y-114300
X329168Y-114300
X218995Y-38100
X229155Y-38100
X249951Y-114300
X260111Y-114300
X147558Y-95250
X157718Y-95250
X195183Y-76200
X205343Y-76200
X190420Y-9525
X200580Y-9525
X166608Y-95250
X176767Y-95250
X338058Y-38100
X348218Y-38100
X299958Y-57150
X310118Y-57150
X9445Y-38100
X19605Y-38100
X16589Y-76200
X26749Y-76200
X338058Y-9525
X348218Y-9525
X99933Y-76200
X110093Y-76200
X399970Y-95250
X410130Y-95250
X90408Y-95250
X100568Y-95250
X319008Y-38100
X329168Y-38100
X130889Y-114300
X141049Y-114300
X399970Y-9525
X410130Y-9525
X238045Y-9525
X248205Y-9525
X380920Y-9525
X391080Y-9525
X233283Y-76200
X243443Y-76200
X204708Y-95250
X214867Y-95250
X202326Y-114300
X212486Y-114300
X380920Y-38100
X391080Y-38100
X52307Y-95250
X62468Y-95250
X42783Y-76200
X52943Y-76200
X338058Y-114300
X348218Y-114300
X35639Y-114300
X45799Y-114300
X361870Y-76200
X372030Y-76200
X104695Y-38100
X114855Y-38100
X399970Y-57150
X410130Y-57150
X176133Y-76200
X186293Y-76200
X419020Y-38100
X429180Y-38100
X118983Y-76200
X129142Y-76200
X276145Y-9525
X286305Y-9525
X133270Y-9525
X143430Y-9525
X226139Y-114300
X236299Y-114300
X228520Y-57150
X238680Y-57150
X47545Y-9525
X57705Y-9525
X9445Y-9525
X19605Y-9525
X380920Y-76200
X391080Y-76200
X38020Y-57150
X48180Y-57150
X152320Y-9525
X162480Y-9525
X138033Y-76200
X148193Y-76200
X419020Y-104775
X429180Y-104775
X123745Y-38100
X133905Y-38100
X319008Y-57150
X329168Y-57150
X199945Y-38100
X210105Y-38100
X266620Y-38100
X276780Y-38100
X218995Y-9525
X229155Y-9525
X257095Y-9525
X267255Y-9525
X109458Y-95250
X119618Y-95250
X47545Y-38100
X57705Y-38100
X11826Y-114300
X21986Y-114300
X399970Y-114300
X410130Y-114300
X71358Y-95250
X81518Y-95250
X361870Y-57150
X372030Y-57150
X264239Y-76200
X274399Y-76200
X338058Y-57150
X348218Y-57150
X114220Y-57150
X124380Y-57150
X161845Y-38100
X172005Y-38100
X128507Y-95250
X138668Y-95250
X299958Y-9525
X310118Y-9525
X238045Y-38100
X248205Y-38100
X180895Y-38100
X191055Y-38100
X223758Y-95250
X233917Y-95250
X361870Y-95250
X372030Y-95250
X59451Y-114300
X69611Y-114300
X14208Y-57150
X24368Y-57150
X271383Y-57150
X281542Y-57150
X28495Y-38100
X38655Y-38100
X361870Y-38100
X372030Y-38100
X66595Y-38100
X76755Y-38100
X380920Y-95250
X391080Y-95250
X104695Y-9525
X114855Y-9525
X319008Y-9525
X329168Y-9525
X171370Y-57150
X181530Y-57150
X380920Y-57150
X391080Y-57150
X214233Y-76200
X224392Y-76200
X361870Y-9525
X372030Y-9525
X142795Y-38100
X152955Y-38100
X133270Y-57150
X143430Y-57150
X152320Y-57150
X162480Y-57150
X57070Y-57150
X67230Y-57150
X95170Y-57150
X105330Y-57150
X273764Y-114300
X283924Y-114300
X61832Y-76200
X71993Y-76200
X399970Y-38100
X410130Y-38100
X85645Y-9525
X95805Y-9525
X371395Y-114300
X381555Y-114300
X80882Y-76200
X91043Y-76200
X419020Y-66675
X429180Y-66675
X190420Y-57150
X200580Y-57150
X259476Y-95250
X269636Y-95250
X209470Y-57150
X219630Y-57150
X185658Y-95250
X195818Y-95250
X171370Y-9525
X181530Y-9525
X157082Y-76200
X167242Y-76200
T14
X85931Y-107315
X186007Y-107315
X259762Y-31115
X283638Y-31115
X431085Y-54737
X431085Y-78613
X431085Y-92837
X431085Y-116713
X252618Y-88265
X276494Y-88265
X364537Y-107315
X388413Y-107315
X257381Y-69215
X281257Y-69215
X14493Y-88265
X38369Y-88265
T15
X85931Y-122555
X186007Y-122555
X259762Y-46355
X283638Y-46355
X415845Y-54737
X415845Y-78613
X415845Y-92837
X415845Y-116713
X252618Y-103505
X276494Y-103505
X364537Y-122555
X388413Y-122555
X257381Y-84455
X281257Y-84455
X14493Y-103505
X38369Y-103505
T16
X324088Y-95250
X81200Y-57150
X71675Y-9525
X305037Y-114300
X26431Y-95250
X405050Y-76200
X90725Y-38100
X305037Y-38100
X252650Y-57150
X324088Y-114300
X224075Y-38100
X255031Y-114300
X152638Y-95250
X200263Y-76200
X195500Y-9525
X171688Y-95250
X343138Y-38100
X305037Y-57150
X14525Y-38100
X21669Y-76200
X343138Y-9525
X105013Y-76200
X405050Y-95250
X95488Y-95250
X324088Y-38100
X135969Y-114300
X405050Y-9525
X243125Y-9525
X386000Y-9525
X238363Y-76200
X209788Y-95250
X207406Y-114300
X386000Y-38100
X57388Y-95250
X47863Y-76200
X343138Y-114300
X40719Y-114300
X366950Y-76200
X109775Y-38100
X405050Y-57150
X181213Y-76200
X424100Y-38100
X124063Y-76200
X281225Y-9525
X138350Y-9525
X231219Y-114300
X233600Y-57150
X52625Y-9525
X14525Y-9525
X386000Y-76200
X43100Y-57150
X157400Y-9525
X143112Y-76200
X424100Y-104775
X128825Y-38100
X324088Y-57150
X205025Y-38100
X271700Y-38100
X224075Y-9525
X262175Y-9525
X114538Y-95250
X52625Y-38100
X16906Y-114300
X405050Y-114300
X76438Y-95250
X366950Y-57150
X269319Y-76200
X343138Y-57150
X119300Y-57150
X166925Y-38100
X133588Y-95250
X305037Y-9525
X243125Y-38100
X185975Y-38100
X228838Y-95250
X366950Y-95250
X64531Y-114300
X19287Y-57150
X276463Y-57150
X33575Y-38100
X366950Y-38100
X71675Y-38100
X386000Y-95250
X109775Y-9525
X324088Y-9525
X176450Y-57150
X386000Y-57150
X219313Y-76200
X366950Y-9525
X147875Y-38100
X138350Y-57150
X157400Y-57150
X62150Y-57150
X100250Y-57150
X278844Y-114300
X66913Y-76200
X405050Y-38100
X90725Y-9525
X376475Y-114300
X85962Y-76200
X424100Y-66675
X195500Y-57150
X264556Y-95250
X214550Y-57150
X190737Y-95250
X176450Y-9525
X162163Y-76200
T6
G00X350694Y-1209
M15
G01X350694Y-2009
M16
G05
G00X350694Y-4239
M15
G01X350694Y-5739
M16
G05
G00X359344Y-1209
M15
G01X359344Y-2009
M16
G05
G00X359344Y-4239
M15
G01X359344Y-5739
M16
G05
T10
G00X438130Y-85090
M15
G01X437130Y-85090
M16
G05
G00X655Y-85090
M15
G01X1655Y-85090
M16
G05
T0
M30
