%TF.GenerationSoftware,KiCad,Pcbnew,(5.1.7)-1*%
%TF.CreationDate,2021-06-04T23:16:26-04:00*%
%TF.ProjectId,694200101,36393432-3030-4313-9031-2e6b69636164,rev?*%
%TF.SameCoordinates,Original*%
%TF.FileFunction,Soldermask,Top*%
%TF.FilePolarity,Negative*%
%FSLAX46Y46*%
G04 Gerber Fmt 4.6, Leading zero omitted, Abs format (unit mm)*
G04 Created by KiCad (PCBNEW (5.1.7)-1) date 2021-06-04 23:16:26*
%MOMM*%
%LPD*%
G01*
G04 APERTURE LIST*
%ADD10O,0.900000X1.700000*%
%ADD11O,0.900000X2.400000*%
%ADD12C,0.700000*%
%ADD13C,3.786000*%
%ADD14C,1.800000*%
%ADD15C,0.550000*%
%ADD16C,0.558800*%
%ADD17R,0.700000X0.500000*%
%ADD18R,0.550000X0.400000*%
%ADD19C,2.600000*%
%ADD20C,4.000000*%
%ADD21C,1.700000*%
%ADD22O,1.700000X1.700000*%
%ADD23R,1.700000X1.700000*%
%ADD24C,3.987800*%
%ADD25C,3.048000*%
%ADD26C,7.000000*%
%ADD27C,3.900000*%
%ADD28O,4.500000X3.500000*%
%ADD29R,0.812132X0.708142*%
%ADD30R,0.758142X0.812132*%
%ADD31R,0.862132X0.690831*%
%ADD32R,0.930000X0.970000*%
%ADD33R,0.970000X0.930000*%
G04 APERTURE END LIST*
D10*
%TO.C,J1*%
X359344000Y-1609000D03*
X350694000Y-1609000D03*
D11*
X359344000Y-4989000D03*
X350694000Y-4989000D03*
D12*
X355444000Y-4619000D03*
X357994000Y-4619000D03*
X357144000Y-4619000D03*
X356294000Y-4619000D03*
X352044000Y-4619000D03*
X353744000Y-4619000D03*
X354594000Y-4619000D03*
X352894000Y-4619000D03*
X357994000Y-5969000D03*
X357144000Y-5969000D03*
X356294000Y-5969000D03*
X355444000Y-5969000D03*
X354594000Y-5969000D03*
X353744000Y-5969000D03*
X352894000Y-5969000D03*
X352044000Y-5969000D03*
%TD*%
D13*
%TO.C,ENC1*%
X435305600Y-9724600D03*
X423905600Y-9724600D03*
D14*
X429605600Y-17224600D03*
X432105600Y-17224600D03*
X427105600Y-17224600D03*
X432105600Y-2724600D03*
X427105600Y-2724600D03*
%TD*%
D15*
%TO.C,U6*%
X342351999Y-91212400D03*
X343451999Y-91212400D03*
X344551999Y-91212400D03*
X345651999Y-91212400D03*
X342351999Y-92312400D03*
X343451999Y-92312400D03*
X344551999Y-92312400D03*
X345651999Y-92312400D03*
X342351999Y-93412400D03*
X343451999Y-93412400D03*
X344551999Y-93412400D03*
X345651999Y-93412400D03*
X342351999Y-94512400D03*
X343451999Y-94512400D03*
X344551999Y-94512400D03*
X345651999Y-94512400D03*
%TD*%
%TO.C,U5*%
X32384000Y-17273000D03*
X32384000Y-18373000D03*
X32384000Y-19473000D03*
X32384000Y-20573000D03*
X31284000Y-17273000D03*
X31284000Y-18373000D03*
X31284000Y-19473000D03*
X31284000Y-20573000D03*
X30184000Y-17273000D03*
X30184000Y-18373000D03*
X30184000Y-19473000D03*
X30184000Y-20573000D03*
X29084000Y-17273000D03*
X29084000Y-18373000D03*
X29084000Y-19473000D03*
X29084000Y-20573000D03*
%TD*%
D16*
%TO.C,D124*%
X68712500Y-71712000D03*
X69412500Y-70950000D03*
X68712500Y-70250000D03*
D17*
X66162500Y-70950000D03*
X67662500Y-70950000D03*
D18*
X66237500Y-71675000D03*
X67587500Y-71675000D03*
X66237500Y-70225000D03*
X67587500Y-70225000D03*
%TD*%
D16*
%TO.C,D220*%
X313964550Y-72962000D03*
X314664550Y-72200000D03*
X313964550Y-71500000D03*
D17*
X311414550Y-72200000D03*
X312914550Y-72200000D03*
D18*
X311489550Y-72925000D03*
X312839550Y-72925000D03*
X311489550Y-71475000D03*
X312839550Y-71475000D03*
%TD*%
D16*
%TO.C,D219*%
X406850000Y-5037000D03*
X407550000Y-4275000D03*
X406850000Y-3575000D03*
D17*
X404300000Y-4275000D03*
X405800000Y-4275000D03*
D18*
X404375000Y-5000000D03*
X405725000Y-5000000D03*
X404375000Y-3550000D03*
X405725000Y-3550000D03*
%TD*%
D16*
%TO.C,D218*%
X344937500Y-109812000D03*
X345637500Y-109050000D03*
X344937500Y-108350000D03*
D17*
X342387500Y-109050000D03*
X343887500Y-109050000D03*
D18*
X342462500Y-109775000D03*
X343812500Y-109775000D03*
X342462500Y-108325000D03*
X343812500Y-108325000D03*
%TD*%
D16*
%TO.C,D217*%
X300900000Y-71438000D03*
X300200000Y-72200000D03*
X300900000Y-72900000D03*
D17*
X303450000Y-72200000D03*
X301950000Y-72200000D03*
D18*
X303375000Y-71475000D03*
X302025000Y-71475000D03*
X303375000Y-72925000D03*
X302025000Y-72925000D03*
%TD*%
D16*
%TO.C,D216*%
X324809699Y-72962000D03*
X325509699Y-72200000D03*
X324809699Y-71500000D03*
D17*
X322259699Y-72200000D03*
X323759699Y-72200000D03*
D18*
X322334699Y-72925000D03*
X323684699Y-72925000D03*
X322334699Y-71475000D03*
X323684699Y-71475000D03*
%TD*%
D16*
%TO.C,D215*%
X387800000Y-5037000D03*
X388500000Y-4275000D03*
X387800000Y-3575000D03*
D17*
X385250000Y-4275000D03*
X386750000Y-4275000D03*
D18*
X385325000Y-5000000D03*
X386675000Y-5000000D03*
X385325000Y-3550000D03*
X386675000Y-3550000D03*
%TD*%
D16*
%TO.C,D214*%
X325887500Y-109812000D03*
X326587500Y-109050000D03*
X325887500Y-108350000D03*
D17*
X323337500Y-109050000D03*
X324837500Y-109050000D03*
D18*
X323412500Y-109775000D03*
X324762500Y-109775000D03*
X323412500Y-108325000D03*
X324762500Y-108325000D03*
%TD*%
D16*
%TO.C,D213*%
X325887500Y-90762000D03*
X326587500Y-90000000D03*
X325887500Y-89300000D03*
D17*
X323337500Y-90000000D03*
X324837500Y-90000000D03*
D18*
X323412500Y-90725000D03*
X324762500Y-90725000D03*
X323412500Y-89275000D03*
X324762500Y-89275000D03*
%TD*%
D16*
%TO.C,D212*%
X335654848Y-72962000D03*
X336354848Y-72200000D03*
X335654848Y-71500000D03*
D17*
X333104848Y-72200000D03*
X334604848Y-72200000D03*
D18*
X333179848Y-72925000D03*
X334529848Y-72925000D03*
X333179848Y-71475000D03*
X334529848Y-71475000D03*
%TD*%
D16*
%TO.C,D211*%
X368750000Y-5037000D03*
X369450000Y-4275000D03*
X368750000Y-3575000D03*
D17*
X366200000Y-4275000D03*
X367700000Y-4275000D03*
D18*
X366275000Y-5000000D03*
X367625000Y-5000000D03*
X366275000Y-3550000D03*
X367625000Y-3550000D03*
%TD*%
D16*
%TO.C,D210*%
X306837500Y-109812000D03*
X307537500Y-109050000D03*
X306837500Y-108350000D03*
D17*
X304287500Y-109050000D03*
X305787500Y-109050000D03*
D18*
X304362500Y-109775000D03*
X305712500Y-109775000D03*
X304362500Y-108325000D03*
X305712500Y-108325000D03*
%TD*%
D16*
%TO.C,D209*%
X266356250Y-90762000D03*
X267056250Y-90000000D03*
X266356250Y-89300000D03*
D17*
X263806250Y-90000000D03*
X265306250Y-90000000D03*
D18*
X263881250Y-90725000D03*
X265231250Y-90725000D03*
X263881250Y-89275000D03*
X265231250Y-89275000D03*
%TD*%
D16*
%TO.C,D208*%
X346500000Y-72962000D03*
X347200000Y-72200000D03*
X346500000Y-71500000D03*
D17*
X343950000Y-72200000D03*
X345450000Y-72200000D03*
D18*
X344025000Y-72925000D03*
X345375000Y-72925000D03*
X344025000Y-71475000D03*
X345375000Y-71475000D03*
%TD*%
D16*
%TO.C,D207*%
X368750000Y-33612000D03*
X369450000Y-32850000D03*
X368750000Y-32150000D03*
D17*
X366200000Y-32850000D03*
X367700000Y-32850000D03*
D18*
X366275000Y-33575000D03*
X367625000Y-33575000D03*
X366275000Y-32125000D03*
X367625000Y-32125000D03*
%TD*%
D16*
%TO.C,D206*%
X280643750Y-109812000D03*
X281343750Y-109050000D03*
X280643750Y-108350000D03*
D17*
X278093750Y-109050000D03*
X279593750Y-109050000D03*
D18*
X278168750Y-109775000D03*
X279518750Y-109775000D03*
X278168750Y-108325000D03*
X279518750Y-108325000D03*
%TD*%
D16*
%TO.C,D205*%
X230637500Y-90762000D03*
X231337500Y-90000000D03*
X230637500Y-89300000D03*
D17*
X228087500Y-90000000D03*
X229587500Y-90000000D03*
D18*
X228162500Y-90725000D03*
X229512500Y-90725000D03*
X228162500Y-89275000D03*
X229512500Y-89275000D03*
%TD*%
D16*
%TO.C,D204*%
X425900000Y-33612000D03*
X426600000Y-32850000D03*
X425900000Y-32150000D03*
D17*
X423350000Y-32850000D03*
X424850000Y-32850000D03*
D18*
X423425000Y-33575000D03*
X424775000Y-33575000D03*
X423425000Y-32125000D03*
X424775000Y-32125000D03*
%TD*%
D16*
%TO.C,D203*%
X387800000Y-33612000D03*
X388500000Y-32850000D03*
X387800000Y-32150000D03*
D17*
X385250000Y-32850000D03*
X386750000Y-32850000D03*
D18*
X385325000Y-33575000D03*
X386675000Y-33575000D03*
X385325000Y-32125000D03*
X386675000Y-32125000D03*
%TD*%
D16*
%TO.C,D202*%
X256831250Y-109812000D03*
X257531250Y-109050000D03*
X256831250Y-108350000D03*
D17*
X254281250Y-109050000D03*
X255781250Y-109050000D03*
D18*
X254356250Y-109775000D03*
X255706250Y-109775000D03*
X254356250Y-108325000D03*
X255706250Y-108325000D03*
%TD*%
D16*
%TO.C,D201*%
X211587500Y-90762000D03*
X212287500Y-90000000D03*
X211587500Y-89300000D03*
D17*
X209037500Y-90000000D03*
X210537500Y-90000000D03*
D18*
X209112500Y-90725000D03*
X210462500Y-90725000D03*
X209112500Y-89275000D03*
X210462500Y-89275000D03*
%TD*%
D16*
%TO.C,D200*%
X378275000Y-109812000D03*
X378975000Y-109050000D03*
X378275000Y-108350000D03*
D17*
X375725000Y-109050000D03*
X377225000Y-109050000D03*
D18*
X375800000Y-109775000D03*
X377150000Y-109775000D03*
X375800000Y-108325000D03*
X377150000Y-108325000D03*
%TD*%
D16*
%TO.C,D199*%
X368750000Y-52662000D03*
X369450000Y-51900000D03*
X368750000Y-51200000D03*
D17*
X366200000Y-51900000D03*
X367700000Y-51900000D03*
D18*
X366275000Y-52625000D03*
X367625000Y-52625000D03*
X366275000Y-51175000D03*
X367625000Y-51175000D03*
%TD*%
D16*
%TO.C,D198*%
X233018750Y-109812000D03*
X233718750Y-109050000D03*
X233018750Y-108350000D03*
D17*
X230468750Y-109050000D03*
X231968750Y-109050000D03*
D18*
X230543750Y-109775000D03*
X231893750Y-109775000D03*
X230543750Y-108325000D03*
X231893750Y-108325000D03*
%TD*%
D16*
%TO.C,D197*%
X192537500Y-90762000D03*
X193237500Y-90000000D03*
X192537500Y-89300000D03*
D17*
X189987500Y-90000000D03*
X191487500Y-90000000D03*
D18*
X190062500Y-90725000D03*
X191412500Y-90725000D03*
X190062500Y-89275000D03*
X191412500Y-89275000D03*
%TD*%
D16*
%TO.C,D196*%
X425900000Y-62187000D03*
X426600000Y-61425000D03*
X425900000Y-60725000D03*
D17*
X423350000Y-61425000D03*
X424850000Y-61425000D03*
D18*
X423425000Y-62150000D03*
X424775000Y-62150000D03*
X423425000Y-60700000D03*
X424775000Y-60700000D03*
%TD*%
D16*
%TO.C,D195*%
X406850000Y-52662000D03*
X407550000Y-51900000D03*
X406850000Y-51200000D03*
D17*
X404300000Y-51900000D03*
X405800000Y-51900000D03*
D18*
X404375000Y-52625000D03*
X405725000Y-52625000D03*
X404375000Y-51175000D03*
X405725000Y-51175000D03*
%TD*%
D16*
%TO.C,D194*%
X209206250Y-109812000D03*
X209906250Y-109050000D03*
X209206250Y-108350000D03*
D17*
X206656250Y-109050000D03*
X208156250Y-109050000D03*
D18*
X206731250Y-109775000D03*
X208081250Y-109775000D03*
X206731250Y-108325000D03*
X208081250Y-108325000D03*
%TD*%
D16*
%TO.C,D193*%
X173487500Y-90762000D03*
X174187500Y-90000000D03*
X173487500Y-89300000D03*
D17*
X170937500Y-90000000D03*
X172437500Y-90000000D03*
D18*
X171012500Y-90725000D03*
X172362500Y-90725000D03*
X171012500Y-89275000D03*
X172362500Y-89275000D03*
%TD*%
D16*
%TO.C,D192*%
X425900000Y-100287000D03*
X426600000Y-99525000D03*
X425900000Y-98825000D03*
D17*
X423350000Y-99525000D03*
X424850000Y-99525000D03*
D18*
X423425000Y-100250000D03*
X424775000Y-100250000D03*
X423425000Y-98800000D03*
X424775000Y-98800000D03*
%TD*%
D16*
%TO.C,D191*%
X387800000Y-52662000D03*
X388500000Y-51900000D03*
X387800000Y-51200000D03*
D17*
X385250000Y-51900000D03*
X386750000Y-51900000D03*
D18*
X385325000Y-52625000D03*
X386675000Y-52625000D03*
X385325000Y-51175000D03*
X386675000Y-51175000D03*
%TD*%
D16*
%TO.C,D190*%
X137768750Y-109812000D03*
X138468750Y-109050000D03*
X137768750Y-108350000D03*
D17*
X135218750Y-109050000D03*
X136718750Y-109050000D03*
D18*
X135293750Y-109775000D03*
X136643750Y-109775000D03*
X135293750Y-108325000D03*
X136643750Y-108325000D03*
%TD*%
D16*
%TO.C,D189*%
X154437500Y-90762000D03*
X155137500Y-90000000D03*
X154437500Y-89300000D03*
D17*
X151887500Y-90000000D03*
X153387500Y-90000000D03*
D18*
X151962500Y-90725000D03*
X153312500Y-90725000D03*
X151962500Y-89275000D03*
X153312500Y-89275000D03*
%TD*%
D16*
%TO.C,D188*%
X406850000Y-109812000D03*
X407550000Y-109050000D03*
X406850000Y-108350000D03*
D17*
X404300000Y-109050000D03*
X405800000Y-109050000D03*
D18*
X404375000Y-109775000D03*
X405725000Y-109775000D03*
X404375000Y-108325000D03*
X405725000Y-108325000D03*
%TD*%
D16*
%TO.C,D187*%
X406850000Y-33612000D03*
X407550000Y-32850000D03*
X406850000Y-32150000D03*
D17*
X404300000Y-32850000D03*
X405800000Y-32850000D03*
D18*
X404375000Y-33575000D03*
X405725000Y-33575000D03*
X404375000Y-32125000D03*
X405725000Y-32125000D03*
%TD*%
D16*
%TO.C,D186*%
X116337500Y-90762000D03*
X117037500Y-90000000D03*
X116337500Y-89300000D03*
D17*
X113787500Y-90000000D03*
X115287500Y-90000000D03*
D18*
X113862500Y-90725000D03*
X115212500Y-90725000D03*
X113862500Y-89275000D03*
X115212500Y-89275000D03*
%TD*%
D16*
%TO.C,D185*%
X135387500Y-90762000D03*
X136087500Y-90000000D03*
X135387500Y-89300000D03*
D17*
X132837500Y-90000000D03*
X134337500Y-90000000D03*
D18*
X132912500Y-90725000D03*
X134262500Y-90725000D03*
X132912500Y-89275000D03*
X134262500Y-89275000D03*
%TD*%
D16*
%TO.C,D184*%
X406850000Y-90762000D03*
X407550000Y-90000000D03*
X406850000Y-89300000D03*
D17*
X404300000Y-90000000D03*
X405800000Y-90000000D03*
D18*
X404375000Y-90725000D03*
X405725000Y-90725000D03*
X404375000Y-89275000D03*
X405725000Y-89275000D03*
%TD*%
D16*
%TO.C,D183*%
X406850000Y-71712000D03*
X407550000Y-70950000D03*
X406850000Y-70250000D03*
D17*
X404300000Y-70950000D03*
X405800000Y-70950000D03*
D18*
X404375000Y-71675000D03*
X405725000Y-71675000D03*
X404375000Y-70225000D03*
X405725000Y-70225000D03*
%TD*%
D16*
%TO.C,D182*%
X66331250Y-109812000D03*
X67031250Y-109050000D03*
X66331250Y-108350000D03*
D17*
X63781250Y-109050000D03*
X65281250Y-109050000D03*
D18*
X63856250Y-109775000D03*
X65206250Y-109775000D03*
X63856250Y-108325000D03*
X65206250Y-108325000D03*
%TD*%
D16*
%TO.C,D181*%
X97287500Y-90762000D03*
X97987500Y-90000000D03*
X97287500Y-89300000D03*
D17*
X94737500Y-90000000D03*
X96237500Y-90000000D03*
D18*
X94812500Y-90725000D03*
X96162500Y-90725000D03*
X94812500Y-89275000D03*
X96162500Y-89275000D03*
%TD*%
D16*
%TO.C,D180*%
X387800000Y-90762000D03*
X388500000Y-90000000D03*
X387800000Y-89300000D03*
D17*
X385250000Y-90000000D03*
X386750000Y-90000000D03*
D18*
X385325000Y-90725000D03*
X386675000Y-90725000D03*
X385325000Y-89275000D03*
X386675000Y-89275000D03*
%TD*%
D16*
%TO.C,D179*%
X387800000Y-71712000D03*
X388500000Y-70950000D03*
X387800000Y-70250000D03*
D17*
X385250000Y-70950000D03*
X386750000Y-70950000D03*
D18*
X385325000Y-71675000D03*
X386675000Y-71675000D03*
X385325000Y-70225000D03*
X386675000Y-70225000D03*
%TD*%
D16*
%TO.C,D178*%
X42518750Y-109812000D03*
X43218750Y-109050000D03*
X42518750Y-108350000D03*
D17*
X39968750Y-109050000D03*
X41468750Y-109050000D03*
D18*
X40043750Y-109775000D03*
X41393750Y-109775000D03*
X40043750Y-108325000D03*
X41393750Y-108325000D03*
%TD*%
D16*
%TO.C,D177*%
X78237500Y-90762000D03*
X78937500Y-90000000D03*
X78237500Y-89300000D03*
D17*
X75687500Y-90000000D03*
X77187500Y-90000000D03*
D18*
X75762500Y-90725000D03*
X77112500Y-90725000D03*
X75762500Y-89275000D03*
X77112500Y-89275000D03*
%TD*%
D16*
%TO.C,D176*%
X368750000Y-90762000D03*
X369450000Y-90000000D03*
X368750000Y-89300000D03*
D17*
X366200000Y-90000000D03*
X367700000Y-90000000D03*
D18*
X366275000Y-90725000D03*
X367625000Y-90725000D03*
X366275000Y-89275000D03*
X367625000Y-89275000D03*
%TD*%
D16*
%TO.C,D175*%
X368750000Y-71712000D03*
X369450000Y-70950000D03*
X368750000Y-70250000D03*
D17*
X366200000Y-70950000D03*
X367700000Y-70950000D03*
D18*
X366275000Y-71675000D03*
X367625000Y-71675000D03*
X366275000Y-70225000D03*
X367625000Y-70225000D03*
%TD*%
D16*
%TO.C,D174*%
X18706250Y-109812000D03*
X19406250Y-109050000D03*
X18706250Y-108350000D03*
D17*
X16156250Y-109050000D03*
X17656250Y-109050000D03*
D18*
X16231250Y-109775000D03*
X17581250Y-109775000D03*
X16231250Y-108325000D03*
X17581250Y-108325000D03*
%TD*%
D16*
%TO.C,D173*%
X59187500Y-90762000D03*
X59887500Y-90000000D03*
X59187500Y-89300000D03*
D17*
X56637500Y-90000000D03*
X58137500Y-90000000D03*
D18*
X56712500Y-90725000D03*
X58062500Y-90725000D03*
X56712500Y-89275000D03*
X58062500Y-89275000D03*
%TD*%
D16*
%TO.C,D172*%
X344937500Y-33612000D03*
X345637500Y-32850000D03*
X344937500Y-32150000D03*
D17*
X342387500Y-32850000D03*
X343887500Y-32850000D03*
D18*
X342462500Y-33575000D03*
X343812500Y-33575000D03*
X342462500Y-32125000D03*
X343812500Y-32125000D03*
%TD*%
D16*
%TO.C,D171*%
X325887500Y-52662000D03*
X326587500Y-51900000D03*
X325887500Y-51200000D03*
D17*
X323337500Y-51900000D03*
X324837500Y-51900000D03*
D18*
X323412500Y-52625000D03*
X324762500Y-52625000D03*
X323412500Y-51175000D03*
X324762500Y-51175000D03*
%TD*%
D16*
%TO.C,D170*%
X325887500Y-33612000D03*
X326587500Y-32850000D03*
X325887500Y-32150000D03*
D17*
X323337500Y-32850000D03*
X324837500Y-32850000D03*
D18*
X323412500Y-33575000D03*
X324762500Y-33575000D03*
X323412500Y-32125000D03*
X324762500Y-32125000D03*
%TD*%
D16*
%TO.C,D169*%
X344937500Y-5037000D03*
X345637500Y-4275000D03*
X344937500Y-3575000D03*
D17*
X342387500Y-4275000D03*
X343887500Y-4275000D03*
D18*
X342462500Y-5000000D03*
X343812500Y-5000000D03*
X342462500Y-3550000D03*
X343812500Y-3550000D03*
%TD*%
D16*
%TO.C,D168*%
X344937500Y-52662000D03*
X345637500Y-51900000D03*
X344937500Y-51200000D03*
D17*
X342387500Y-51900000D03*
X343887500Y-51900000D03*
D18*
X342462500Y-52625000D03*
X343812500Y-52625000D03*
X342462500Y-51175000D03*
X343812500Y-51175000D03*
%TD*%
D16*
%TO.C,D167*%
X306837500Y-52662000D03*
X307537500Y-51900000D03*
X306837500Y-51200000D03*
D17*
X304287500Y-51900000D03*
X305787500Y-51900000D03*
D18*
X304362500Y-52625000D03*
X305712500Y-52625000D03*
X304362500Y-51175000D03*
X305712500Y-51175000D03*
%TD*%
D16*
%TO.C,D166*%
X306837500Y-33612000D03*
X307537500Y-32850000D03*
X306837500Y-32150000D03*
D17*
X304287500Y-32850000D03*
X305787500Y-32850000D03*
D18*
X304362500Y-33575000D03*
X305712500Y-33575000D03*
X304362500Y-32125000D03*
X305712500Y-32125000D03*
%TD*%
D16*
%TO.C,D165*%
X325887500Y-5037000D03*
X326587500Y-4275000D03*
X325887500Y-3575000D03*
D17*
X323337500Y-4275000D03*
X324837500Y-4275000D03*
D18*
X323412500Y-5000000D03*
X324762500Y-5000000D03*
X323412500Y-3550000D03*
X324762500Y-3550000D03*
%TD*%
D16*
%TO.C,D164*%
X271118750Y-71712000D03*
X271818750Y-70950000D03*
X271118750Y-70250000D03*
D17*
X268568750Y-70950000D03*
X270068750Y-70950000D03*
D18*
X268643750Y-71675000D03*
X269993750Y-71675000D03*
X268643750Y-70225000D03*
X269993750Y-70225000D03*
%TD*%
D16*
%TO.C,D163*%
X278262500Y-52662000D03*
X278962500Y-51900000D03*
X278262500Y-51200000D03*
D17*
X275712500Y-51900000D03*
X277212500Y-51900000D03*
D18*
X275787500Y-52625000D03*
X277137500Y-52625000D03*
X275787500Y-51175000D03*
X277137500Y-51175000D03*
%TD*%
D16*
%TO.C,D162*%
X273500000Y-33612000D03*
X274200000Y-32850000D03*
X273500000Y-32150000D03*
D17*
X270950000Y-32850000D03*
X272450000Y-32850000D03*
D18*
X271025000Y-33575000D03*
X272375000Y-33575000D03*
X271025000Y-32125000D03*
X272375000Y-32125000D03*
%TD*%
D16*
%TO.C,D161*%
X306837500Y-5037000D03*
X307537500Y-4275000D03*
X306837500Y-3575000D03*
D17*
X304287500Y-4275000D03*
X305787500Y-4275000D03*
D18*
X304362500Y-5000000D03*
X305712500Y-5000000D03*
X304362500Y-3550000D03*
X305712500Y-3550000D03*
%TD*%
D16*
%TO.C,D160*%
X240162500Y-71712000D03*
X240862500Y-70950000D03*
X240162500Y-70250000D03*
D17*
X237612500Y-70950000D03*
X239112500Y-70950000D03*
D18*
X237687500Y-71675000D03*
X239037500Y-71675000D03*
X237687500Y-70225000D03*
X239037500Y-70225000D03*
%TD*%
D16*
%TO.C,D159*%
X254450000Y-52662000D03*
X255150000Y-51900000D03*
X254450000Y-51200000D03*
D17*
X251900000Y-51900000D03*
X253400000Y-51900000D03*
D18*
X251975000Y-52625000D03*
X253325000Y-52625000D03*
X251975000Y-51175000D03*
X253325000Y-51175000D03*
%TD*%
D16*
%TO.C,D158*%
X244925000Y-33612000D03*
X245625000Y-32850000D03*
X244925000Y-32150000D03*
D17*
X242375000Y-32850000D03*
X243875000Y-32850000D03*
D18*
X242450000Y-33575000D03*
X243800000Y-33575000D03*
X242450000Y-32125000D03*
X243800000Y-32125000D03*
%TD*%
D16*
%TO.C,D157*%
X283025000Y-5037000D03*
X283725000Y-4275000D03*
X283025000Y-3575000D03*
D17*
X280475000Y-4275000D03*
X281975000Y-4275000D03*
D18*
X280550000Y-5000000D03*
X281900000Y-5000000D03*
X280550000Y-3550000D03*
X281900000Y-3550000D03*
%TD*%
D16*
%TO.C,D156*%
X221112500Y-71712000D03*
X221812500Y-70950000D03*
X221112500Y-70250000D03*
D17*
X218562500Y-70950000D03*
X220062500Y-70950000D03*
D18*
X218637500Y-71675000D03*
X219987500Y-71675000D03*
X218637500Y-70225000D03*
X219987500Y-70225000D03*
%TD*%
D16*
%TO.C,D155*%
X235400000Y-52662000D03*
X236100000Y-51900000D03*
X235400000Y-51200000D03*
D17*
X232850000Y-51900000D03*
X234350000Y-51900000D03*
D18*
X232925000Y-52625000D03*
X234275000Y-52625000D03*
X232925000Y-51175000D03*
X234275000Y-51175000D03*
%TD*%
D16*
%TO.C,D154*%
X225875000Y-33612000D03*
X226575000Y-32850000D03*
X225875000Y-32150000D03*
D17*
X223325000Y-32850000D03*
X224825000Y-32850000D03*
D18*
X223400000Y-33575000D03*
X224750000Y-33575000D03*
X223400000Y-32125000D03*
X224750000Y-32125000D03*
%TD*%
D16*
%TO.C,D153*%
X263975000Y-5037000D03*
X264675000Y-4275000D03*
X263975000Y-3575000D03*
D17*
X261425000Y-4275000D03*
X262925000Y-4275000D03*
D18*
X261500000Y-5000000D03*
X262850000Y-5000000D03*
X261500000Y-3550000D03*
X262850000Y-3550000D03*
%TD*%
D16*
%TO.C,D152*%
X202062500Y-71712000D03*
X202762500Y-70950000D03*
X202062500Y-70250000D03*
D17*
X199512500Y-70950000D03*
X201012500Y-70950000D03*
D18*
X199587500Y-71675000D03*
X200937500Y-71675000D03*
X199587500Y-70225000D03*
X200937500Y-70225000D03*
%TD*%
D16*
%TO.C,D151*%
X216350000Y-52662000D03*
X217050000Y-51900000D03*
X216350000Y-51200000D03*
D17*
X213800000Y-51900000D03*
X215300000Y-51900000D03*
D18*
X213875000Y-52625000D03*
X215225000Y-52625000D03*
X213875000Y-51175000D03*
X215225000Y-51175000D03*
%TD*%
D16*
%TO.C,D150*%
X206825000Y-33612000D03*
X207525000Y-32850000D03*
X206825000Y-32150000D03*
D17*
X204275000Y-32850000D03*
X205775000Y-32850000D03*
D18*
X204350000Y-33575000D03*
X205700000Y-33575000D03*
X204350000Y-32125000D03*
X205700000Y-32125000D03*
%TD*%
D16*
%TO.C,D149*%
X244925000Y-5037000D03*
X245625000Y-4275000D03*
X244925000Y-3575000D03*
D17*
X242375000Y-4275000D03*
X243875000Y-4275000D03*
D18*
X242450000Y-5000000D03*
X243800000Y-5000000D03*
X242450000Y-3550000D03*
X243800000Y-3550000D03*
%TD*%
D16*
%TO.C,D148*%
X183012500Y-71712000D03*
X183712500Y-70950000D03*
X183012500Y-70250000D03*
D17*
X180462500Y-70950000D03*
X181962500Y-70950000D03*
D18*
X180537500Y-71675000D03*
X181887500Y-71675000D03*
X180537500Y-70225000D03*
X181887500Y-70225000D03*
%TD*%
D16*
%TO.C,D147*%
X197300000Y-52662000D03*
X198000000Y-51900000D03*
X197300000Y-51200000D03*
D17*
X194750000Y-51900000D03*
X196250000Y-51900000D03*
D18*
X194825000Y-52625000D03*
X196175000Y-52625000D03*
X194825000Y-51175000D03*
X196175000Y-51175000D03*
%TD*%
D16*
%TO.C,D146*%
X187775000Y-33612000D03*
X188475000Y-32850000D03*
X187775000Y-32150000D03*
D17*
X185225000Y-32850000D03*
X186725000Y-32850000D03*
D18*
X185300000Y-33575000D03*
X186650000Y-33575000D03*
X185300000Y-32125000D03*
X186650000Y-32125000D03*
%TD*%
D16*
%TO.C,D145*%
X225875000Y-5037000D03*
X226575000Y-4275000D03*
X225875000Y-3575000D03*
D17*
X223325000Y-4275000D03*
X224825000Y-4275000D03*
D18*
X223400000Y-5000000D03*
X224750000Y-5000000D03*
X223400000Y-3550000D03*
X224750000Y-3550000D03*
%TD*%
D16*
%TO.C,D144*%
X163962500Y-71712000D03*
X164662500Y-70950000D03*
X163962500Y-70250000D03*
D17*
X161412500Y-70950000D03*
X162912500Y-70950000D03*
D18*
X161487500Y-71675000D03*
X162837500Y-71675000D03*
X161487500Y-70225000D03*
X162837500Y-70225000D03*
%TD*%
D16*
%TO.C,D143*%
X178250000Y-52662000D03*
X178950000Y-51900000D03*
X178250000Y-51200000D03*
D17*
X175700000Y-51900000D03*
X177200000Y-51900000D03*
D18*
X175775000Y-52625000D03*
X177125000Y-52625000D03*
X175775000Y-51175000D03*
X177125000Y-51175000D03*
%TD*%
D16*
%TO.C,D142*%
X168725000Y-33612000D03*
X169425000Y-32850000D03*
X168725000Y-32150000D03*
D17*
X166175000Y-32850000D03*
X167675000Y-32850000D03*
D18*
X166250000Y-33575000D03*
X167600000Y-33575000D03*
X166250000Y-32125000D03*
X167600000Y-32125000D03*
%TD*%
D16*
%TO.C,D141*%
X197300000Y-5037000D03*
X198000000Y-4275000D03*
X197300000Y-3575000D03*
D17*
X194750000Y-4275000D03*
X196250000Y-4275000D03*
D18*
X194825000Y-5000000D03*
X196175000Y-5000000D03*
X194825000Y-3550000D03*
X196175000Y-3550000D03*
%TD*%
D16*
%TO.C,D140*%
X144912500Y-71712000D03*
X145612500Y-70950000D03*
X144912500Y-70250000D03*
D17*
X142362500Y-70950000D03*
X143862500Y-70950000D03*
D18*
X142437500Y-71675000D03*
X143787500Y-71675000D03*
X142437500Y-70225000D03*
X143787500Y-70225000D03*
%TD*%
D16*
%TO.C,D139*%
X159200000Y-52662000D03*
X159900000Y-51900000D03*
X159200000Y-51200000D03*
D17*
X156650000Y-51900000D03*
X158150000Y-51900000D03*
D18*
X156725000Y-52625000D03*
X158075000Y-52625000D03*
X156725000Y-51175000D03*
X158075000Y-51175000D03*
%TD*%
D16*
%TO.C,D138*%
X149675000Y-33612000D03*
X150375000Y-32850000D03*
X149675000Y-32150000D03*
D17*
X147125000Y-32850000D03*
X148625000Y-32850000D03*
D18*
X147200000Y-33575000D03*
X148550000Y-33575000D03*
X147200000Y-32125000D03*
X148550000Y-32125000D03*
%TD*%
D16*
%TO.C,D137*%
X178250000Y-5037000D03*
X178950000Y-4275000D03*
X178250000Y-3575000D03*
D17*
X175700000Y-4275000D03*
X177200000Y-4275000D03*
D18*
X175775000Y-5000000D03*
X177125000Y-5000000D03*
X175775000Y-3550000D03*
X177125000Y-3550000D03*
%TD*%
D16*
%TO.C,D136*%
X125862500Y-71712000D03*
X126562500Y-70950000D03*
X125862500Y-70250000D03*
D17*
X123312500Y-70950000D03*
X124812500Y-70950000D03*
D18*
X123387500Y-71675000D03*
X124737500Y-71675000D03*
X123387500Y-70225000D03*
X124737500Y-70225000D03*
%TD*%
D16*
%TO.C,D135*%
X140150000Y-52662000D03*
X140850000Y-51900000D03*
X140150000Y-51200000D03*
D17*
X137600000Y-51900000D03*
X139100000Y-51900000D03*
D18*
X137675000Y-52625000D03*
X139025000Y-52625000D03*
X137675000Y-51175000D03*
X139025000Y-51175000D03*
%TD*%
D16*
%TO.C,D134*%
X130625000Y-33612000D03*
X131325000Y-32850000D03*
X130625000Y-32150000D03*
D17*
X128075000Y-32850000D03*
X129575000Y-32850000D03*
D18*
X128150000Y-33575000D03*
X129500000Y-33575000D03*
X128150000Y-32125000D03*
X129500000Y-32125000D03*
%TD*%
D16*
%TO.C,D133*%
X159200000Y-5037000D03*
X159900000Y-4275000D03*
X159200000Y-3575000D03*
D17*
X156650000Y-4275000D03*
X158150000Y-4275000D03*
D18*
X156725000Y-5000000D03*
X158075000Y-5000000D03*
X156725000Y-3550000D03*
X158075000Y-3550000D03*
%TD*%
D16*
%TO.C,D132*%
X106812500Y-71712000D03*
X107512500Y-70950000D03*
X106812500Y-70250000D03*
D17*
X104262500Y-70950000D03*
X105762500Y-70950000D03*
D18*
X104337500Y-71675000D03*
X105687500Y-71675000D03*
X104337500Y-70225000D03*
X105687500Y-70225000D03*
%TD*%
D16*
%TO.C,D131*%
X121100000Y-52662000D03*
X121800000Y-51900000D03*
X121100000Y-51200000D03*
D17*
X118550000Y-51900000D03*
X120050000Y-51900000D03*
D18*
X118625000Y-52625000D03*
X119975000Y-52625000D03*
X118625000Y-51175000D03*
X119975000Y-51175000D03*
%TD*%
D16*
%TO.C,D130*%
X111575000Y-33612000D03*
X112275000Y-32850000D03*
X111575000Y-32150000D03*
D17*
X109025000Y-32850000D03*
X110525000Y-32850000D03*
D18*
X109100000Y-33575000D03*
X110450000Y-33575000D03*
X109100000Y-32125000D03*
X110450000Y-32125000D03*
%TD*%
D16*
%TO.C,D129*%
X140150000Y-5037000D03*
X140850000Y-4275000D03*
X140150000Y-3575000D03*
D17*
X137600000Y-4275000D03*
X139100000Y-4275000D03*
D18*
X137675000Y-5000000D03*
X139025000Y-5000000D03*
X137675000Y-3550000D03*
X139025000Y-3550000D03*
%TD*%
D16*
%TO.C,D128*%
X87762500Y-71712000D03*
X88462500Y-70950000D03*
X87762500Y-70250000D03*
D17*
X85212500Y-70950000D03*
X86712500Y-70950000D03*
D18*
X85287500Y-71675000D03*
X86637500Y-71675000D03*
X85287500Y-70225000D03*
X86637500Y-70225000D03*
%TD*%
D16*
%TO.C,D127*%
X102050000Y-52662000D03*
X102750000Y-51900000D03*
X102050000Y-51200000D03*
D17*
X99500000Y-51900000D03*
X101000000Y-51900000D03*
D18*
X99575000Y-52625000D03*
X100925000Y-52625000D03*
X99575000Y-51175000D03*
X100925000Y-51175000D03*
%TD*%
D16*
%TO.C,D126*%
X92525000Y-33612000D03*
X93225000Y-32850000D03*
X92525000Y-32150000D03*
D17*
X89975000Y-32850000D03*
X91475000Y-32850000D03*
D18*
X90050000Y-33575000D03*
X91400000Y-33575000D03*
X90050000Y-32125000D03*
X91400000Y-32125000D03*
%TD*%
D16*
%TO.C,D125*%
X111575000Y-5037000D03*
X112275000Y-4275000D03*
X111575000Y-3575000D03*
D17*
X109025000Y-4275000D03*
X110525000Y-4275000D03*
D18*
X109100000Y-5000000D03*
X110450000Y-5000000D03*
X109100000Y-3550000D03*
X110450000Y-3550000D03*
%TD*%
D16*
%TO.C,D123*%
X83000000Y-52662000D03*
X83700000Y-51900000D03*
X83000000Y-51200000D03*
D17*
X80450000Y-51900000D03*
X81950000Y-51900000D03*
D18*
X80525000Y-52625000D03*
X81875000Y-52625000D03*
X80525000Y-51175000D03*
X81875000Y-51175000D03*
%TD*%
D16*
%TO.C,D122*%
X73475000Y-33612000D03*
X74175000Y-32850000D03*
X73475000Y-32150000D03*
D17*
X70925000Y-32850000D03*
X72425000Y-32850000D03*
D18*
X71000000Y-33575000D03*
X72350000Y-33575000D03*
X71000000Y-32125000D03*
X72350000Y-32125000D03*
%TD*%
D16*
%TO.C,D121*%
X92525000Y-5037000D03*
X93225000Y-4275000D03*
X92525000Y-3575000D03*
D17*
X89975000Y-4275000D03*
X91475000Y-4275000D03*
D18*
X90050000Y-5000000D03*
X91400000Y-5000000D03*
X90050000Y-3550000D03*
X91400000Y-3550000D03*
%TD*%
D16*
%TO.C,D120*%
X49662500Y-71712000D03*
X50362500Y-70950000D03*
X49662500Y-70250000D03*
D17*
X47112500Y-70950000D03*
X48612500Y-70950000D03*
D18*
X47187500Y-71675000D03*
X48537500Y-71675000D03*
X47187500Y-70225000D03*
X48537500Y-70225000D03*
%TD*%
D16*
%TO.C,D119*%
X63950000Y-52662000D03*
X64650000Y-51900000D03*
X63950000Y-51200000D03*
D17*
X61400000Y-51900000D03*
X62900000Y-51900000D03*
D18*
X61475000Y-52625000D03*
X62825000Y-52625000D03*
X61475000Y-51175000D03*
X62825000Y-51175000D03*
%TD*%
D16*
%TO.C,D118*%
X54425000Y-33612000D03*
X55125000Y-32850000D03*
X54425000Y-32150000D03*
D17*
X51875000Y-32850000D03*
X53375000Y-32850000D03*
D18*
X51950000Y-33575000D03*
X53300000Y-33575000D03*
X51950000Y-32125000D03*
X53300000Y-32125000D03*
%TD*%
D16*
%TO.C,D117*%
X73475000Y-5037000D03*
X74175000Y-4275000D03*
X73475000Y-3575000D03*
D17*
X70925000Y-4275000D03*
X72425000Y-4275000D03*
D18*
X71000000Y-5000000D03*
X72350000Y-5000000D03*
X71000000Y-3550000D03*
X72350000Y-3550000D03*
%TD*%
D16*
%TO.C,D116*%
X28231250Y-90762000D03*
X28931250Y-90000000D03*
X28231250Y-89300000D03*
D17*
X25681250Y-90000000D03*
X27181250Y-90000000D03*
D18*
X25756250Y-90725000D03*
X27106250Y-90725000D03*
X25756250Y-89275000D03*
X27106250Y-89275000D03*
%TD*%
D16*
%TO.C,D115*%
X44900000Y-52662000D03*
X45600000Y-51900000D03*
X44900000Y-51200000D03*
D17*
X42350000Y-51900000D03*
X43850000Y-51900000D03*
D18*
X42425000Y-52625000D03*
X43775000Y-52625000D03*
X42425000Y-51175000D03*
X43775000Y-51175000D03*
%TD*%
D16*
%TO.C,D114*%
X35375000Y-33612000D03*
X36075000Y-32850000D03*
X35375000Y-32150000D03*
D17*
X32825000Y-32850000D03*
X34325000Y-32850000D03*
D18*
X32900000Y-33575000D03*
X34250000Y-33575000D03*
X32900000Y-32125000D03*
X34250000Y-32125000D03*
%TD*%
D16*
%TO.C,D113*%
X54425000Y-5037000D03*
X55125000Y-4275000D03*
X54425000Y-3575000D03*
D17*
X51875000Y-4275000D03*
X53375000Y-4275000D03*
D18*
X51950000Y-5000000D03*
X53300000Y-5000000D03*
X51950000Y-3550000D03*
X53300000Y-3550000D03*
%TD*%
D16*
%TO.C,D112*%
X23468750Y-71712000D03*
X24168750Y-70950000D03*
X23468750Y-70250000D03*
D17*
X20918750Y-70950000D03*
X22418750Y-70950000D03*
D18*
X20993750Y-71675000D03*
X22343750Y-71675000D03*
X20993750Y-70225000D03*
X22343750Y-70225000D03*
%TD*%
D16*
%TO.C,D111*%
X21087500Y-52662000D03*
X21787500Y-51900000D03*
X21087500Y-51200000D03*
D17*
X18537500Y-51900000D03*
X20037500Y-51900000D03*
D18*
X18612500Y-52625000D03*
X19962500Y-52625000D03*
X18612500Y-51175000D03*
X19962500Y-51175000D03*
%TD*%
D16*
%TO.C,D110*%
X16325000Y-33612000D03*
X17025000Y-32850000D03*
X16325000Y-32150000D03*
D17*
X13775000Y-32850000D03*
X15275000Y-32850000D03*
D18*
X13850000Y-33575000D03*
X15200000Y-33575000D03*
X13850000Y-32125000D03*
X15200000Y-32125000D03*
%TD*%
D16*
%TO.C,D109*%
X16325000Y-5037000D03*
X17025000Y-4275000D03*
X16325000Y-3575000D03*
D17*
X13775000Y-4275000D03*
X15275000Y-4275000D03*
D18*
X13850000Y-5000000D03*
X15200000Y-5000000D03*
X13850000Y-3550000D03*
X15200000Y-3550000D03*
%TD*%
D19*
%TO.C,SW77*%
X308847500Y-59690000D03*
X302497500Y-62230000D03*
D20*
X305037500Y-57150000D03*
D21*
X310117500Y-57150000D03*
X299957500Y-57150000D03*
%TD*%
D22*
%TO.C,J2*%
X321056000Y-29210000D03*
X318516000Y-29210000D03*
X315976000Y-29210000D03*
X313436000Y-29210000D03*
D23*
X310896000Y-29210000D03*
%TD*%
D19*
%TO.C,SW95*%
X389810000Y-40640000D03*
X383460000Y-43180000D03*
D20*
X386000000Y-38100000D03*
D21*
X391080000Y-38100000D03*
X380920000Y-38100000D03*
%TD*%
D19*
%TO.C,SW85*%
X346947500Y-40640000D03*
X340597500Y-43180000D03*
D20*
X343137500Y-38100000D03*
D21*
X348217500Y-38100000D03*
X338057500Y-38100000D03*
%TD*%
D19*
%TO.C,SW82*%
X327897500Y-97790000D03*
X321547500Y-100330000D03*
D20*
X324087500Y-95250000D03*
D21*
X329167500Y-95250000D03*
X319007500Y-95250000D03*
%TD*%
D24*
%TO.C,SP2*%
X186006750Y-122555000D03*
X85930750Y-122555000D03*
D25*
X186006750Y-107315000D03*
X85930750Y-107315000D03*
%TD*%
D19*
%TO.C,SW92*%
X370760000Y-97790000D03*
X364410000Y-100330000D03*
D20*
X366950000Y-95250000D03*
D21*
X372030000Y-95250000D03*
X361870000Y-95250000D03*
%TD*%
D19*
%TO.C,SW9*%
X56435000Y-12065000D03*
X50085000Y-14605000D03*
D20*
X52625000Y-9525000D03*
D21*
X57705000Y-9525000D03*
X47545000Y-9525000D03*
%TD*%
D26*
%TO.C,H3*%
X293116000Y-5080000D03*
D27*
X293116000Y-5080000D03*
%TD*%
D19*
%TO.C,SW44*%
X175497500Y-97790000D03*
X169147500Y-100330000D03*
D20*
X171687500Y-95250000D03*
D21*
X176767500Y-95250000D03*
X166607500Y-95250000D03*
%TD*%
D19*
%TO.C,SW43*%
X165972500Y-78740000D03*
X159622500Y-81280000D03*
D20*
X162162500Y-76200000D03*
D21*
X167242500Y-76200000D03*
X157082500Y-76200000D03*
%TD*%
D19*
%TO.C,SW42*%
X161210000Y-59690000D03*
X154860000Y-62230000D03*
D20*
X157400000Y-57150000D03*
D21*
X162480000Y-57150000D03*
X152320000Y-57150000D03*
%TD*%
D19*
%TO.C,SW41*%
X170735000Y-40640000D03*
X164385000Y-43180000D03*
D20*
X166925000Y-38100000D03*
D21*
X172005000Y-38100000D03*
X161845000Y-38100000D03*
%TD*%
D19*
%TO.C,SW40*%
X161210000Y-12065000D03*
X154860000Y-14605000D03*
D20*
X157400000Y-9525000D03*
D21*
X162480000Y-9525000D03*
X152320000Y-9525000D03*
%TD*%
D19*
%TO.C,SW107*%
X427910000Y-107315000D03*
X421560000Y-109855000D03*
D20*
X424100000Y-104775000D03*
D21*
X429180000Y-104775000D03*
X419020000Y-104775000D03*
%TD*%
D19*
%TO.C,SW106*%
X427910000Y-69215000D03*
X421560000Y-71755000D03*
D20*
X424100000Y-66675000D03*
D21*
X429180000Y-66675000D03*
X419020000Y-66675000D03*
%TD*%
D19*
%TO.C,SW105*%
X427910000Y-40640000D03*
X421560000Y-43180000D03*
D20*
X424100000Y-38100000D03*
D21*
X429180000Y-38100000D03*
X419020000Y-38100000D03*
%TD*%
D19*
%TO.C,SW104*%
X408860000Y-116840000D03*
X402510000Y-119380000D03*
D20*
X405050000Y-114300000D03*
D21*
X410130000Y-114300000D03*
X399970000Y-114300000D03*
%TD*%
D19*
%TO.C,SW103*%
X408860000Y-97790000D03*
X402510000Y-100330000D03*
D20*
X405050000Y-95250000D03*
D21*
X410130000Y-95250000D03*
X399970000Y-95250000D03*
%TD*%
D19*
%TO.C,SW102*%
X408860000Y-78740000D03*
X402510000Y-81280000D03*
D20*
X405050000Y-76200000D03*
D21*
X410130000Y-76200000D03*
X399970000Y-76200000D03*
%TD*%
D19*
%TO.C,SW101*%
X408860000Y-59690000D03*
X402510000Y-62230000D03*
D20*
X405050000Y-57150000D03*
D21*
X410130000Y-57150000D03*
X399970000Y-57150000D03*
%TD*%
D19*
%TO.C,SW100*%
X408860000Y-40640000D03*
X402510000Y-43180000D03*
D20*
X405050000Y-38100000D03*
D21*
X410130000Y-38100000D03*
X399970000Y-38100000D03*
%TD*%
D19*
%TO.C,SW99*%
X408860000Y-12065000D03*
X402510000Y-14605000D03*
D20*
X405050000Y-9525000D03*
D21*
X410130000Y-9525000D03*
X399970000Y-9525000D03*
%TD*%
D19*
%TO.C,SW98*%
X389810000Y-97790000D03*
X383460000Y-100330000D03*
D20*
X386000000Y-95250000D03*
D21*
X391080000Y-95250000D03*
X380920000Y-95250000D03*
%TD*%
D19*
%TO.C,SW97*%
X389810000Y-78740000D03*
X383460000Y-81280000D03*
D20*
X386000000Y-76200000D03*
D21*
X391080000Y-76200000D03*
X380920000Y-76200000D03*
%TD*%
D19*
%TO.C,SW96*%
X389810000Y-59690000D03*
X383460000Y-62230000D03*
D20*
X386000000Y-57150000D03*
D21*
X391080000Y-57150000D03*
X380920000Y-57150000D03*
%TD*%
D19*
%TO.C,SW94*%
X389810000Y-12065000D03*
X383460000Y-14605000D03*
D20*
X386000000Y-9525000D03*
D21*
X391080000Y-9525000D03*
X380920000Y-9525000D03*
%TD*%
D19*
%TO.C,SW93*%
X380285000Y-116840000D03*
X373935000Y-119380000D03*
D20*
X376475000Y-114300000D03*
D21*
X381555000Y-114300000D03*
X371395000Y-114300000D03*
%TD*%
D19*
%TO.C,SW91*%
X370760000Y-78740000D03*
X364410000Y-81280000D03*
D20*
X366950000Y-76200000D03*
D21*
X372030000Y-76200000D03*
X361870000Y-76200000D03*
%TD*%
D19*
%TO.C,SW90*%
X370760000Y-59690000D03*
X364410000Y-62230000D03*
D20*
X366950000Y-57150000D03*
D21*
X372030000Y-57150000D03*
X361870000Y-57150000D03*
%TD*%
D19*
%TO.C,SW89*%
X370760000Y-40640000D03*
X364410000Y-43180000D03*
D20*
X366950000Y-38100000D03*
D21*
X372030000Y-38100000D03*
X361870000Y-38100000D03*
%TD*%
D19*
%TO.C,SW88*%
X370760000Y-12065000D03*
X364410000Y-14605000D03*
D20*
X366950000Y-9525000D03*
D21*
X372030000Y-9525000D03*
X361870000Y-9525000D03*
%TD*%
D19*
%TO.C,SW87*%
X346947500Y-116840000D03*
X340597500Y-119380000D03*
D20*
X343137500Y-114300000D03*
D21*
X348217500Y-114300000D03*
X338057500Y-114300000D03*
%TD*%
D19*
%TO.C,SW86*%
X346947500Y-59690000D03*
X340597500Y-62230000D03*
D20*
X343137500Y-57150000D03*
D21*
X348217500Y-57150000D03*
X338057500Y-57150000D03*
%TD*%
D19*
%TO.C,SW84*%
X346947500Y-12065000D03*
X340597500Y-14605000D03*
D20*
X343137500Y-9525000D03*
D21*
X348217500Y-9525000D03*
X338057500Y-9525000D03*
%TD*%
D19*
%TO.C,SW83*%
X327897500Y-116840000D03*
X321547500Y-119380000D03*
D20*
X324087500Y-114300000D03*
D21*
X329167500Y-114300000D03*
X319007500Y-114300000D03*
%TD*%
D19*
%TO.C,SW81*%
X327897500Y-59690000D03*
X321547500Y-62230000D03*
D20*
X324087500Y-57150000D03*
D21*
X329167500Y-57150000D03*
X319007500Y-57150000D03*
%TD*%
D19*
%TO.C,SW80*%
X327897500Y-40640000D03*
X321547500Y-43180000D03*
D20*
X324087500Y-38100000D03*
D21*
X329167500Y-38100000D03*
X319007500Y-38100000D03*
%TD*%
D19*
%TO.C,SW79*%
X327897500Y-12065000D03*
X321547500Y-14605000D03*
D20*
X324087500Y-9525000D03*
D21*
X329167500Y-9525000D03*
X319007500Y-9525000D03*
%TD*%
D19*
%TO.C,SW78*%
X308847500Y-116840000D03*
X302497500Y-119380000D03*
D20*
X305037500Y-114300000D03*
D21*
X310117500Y-114300000D03*
X299957500Y-114300000D03*
%TD*%
D19*
%TO.C,SW76*%
X308847500Y-40640000D03*
X302497500Y-43180000D03*
D20*
X305037500Y-38100000D03*
D21*
X310117500Y-38100000D03*
X299957500Y-38100000D03*
%TD*%
D19*
%TO.C,SW75*%
X308847500Y-12065000D03*
X302497500Y-14605000D03*
D20*
X305037500Y-9525000D03*
D21*
X310117500Y-9525000D03*
X299957500Y-9525000D03*
%TD*%
D19*
%TO.C,SW74*%
X282653750Y-116840000D03*
X276303750Y-119380000D03*
D20*
X278843750Y-114300000D03*
D21*
X283923750Y-114300000D03*
X273763750Y-114300000D03*
%TD*%
D19*
%TO.C,SW73*%
X280272500Y-59690000D03*
X273922500Y-62230000D03*
D20*
X276462500Y-57150000D03*
D21*
X281542500Y-57150000D03*
X271382500Y-57150000D03*
%TD*%
D19*
%TO.C,SW72*%
X275510000Y-40640000D03*
X269160000Y-43180000D03*
D20*
X271700000Y-38100000D03*
D21*
X276780000Y-38100000D03*
X266620000Y-38100000D03*
%TD*%
D19*
%TO.C,SW71*%
X285035000Y-12065000D03*
X278685000Y-14605000D03*
D20*
X281225000Y-9525000D03*
D21*
X286305000Y-9525000D03*
X276145000Y-9525000D03*
%TD*%
D19*
%TO.C,SW70*%
X258841250Y-116840000D03*
X252491250Y-119380000D03*
D20*
X255031250Y-114300000D03*
D21*
X260111250Y-114300000D03*
X249951250Y-114300000D03*
%TD*%
D19*
%TO.C,SW69*%
X268366250Y-97790000D03*
X262016250Y-100330000D03*
D20*
X264556250Y-95250000D03*
D21*
X269636250Y-95250000D03*
X259476250Y-95250000D03*
%TD*%
D19*
%TO.C,SW68*%
X273128750Y-78740000D03*
X266778750Y-81280000D03*
D20*
X269318750Y-76200000D03*
D21*
X274398750Y-76200000D03*
X264238750Y-76200000D03*
%TD*%
D19*
%TO.C,SW67*%
X256460000Y-59690000D03*
X250110000Y-62230000D03*
D20*
X252650000Y-57150000D03*
D21*
X257730000Y-57150000D03*
X247570000Y-57150000D03*
%TD*%
D19*
%TO.C,SW66*%
X265985000Y-12065000D03*
X259635000Y-14605000D03*
D20*
X262175000Y-9525000D03*
D21*
X267255000Y-9525000D03*
X257095000Y-9525000D03*
%TD*%
D19*
%TO.C,SW65*%
X242172500Y-78740000D03*
X235822500Y-81280000D03*
D20*
X238362500Y-76200000D03*
D21*
X243442500Y-76200000D03*
X233282500Y-76200000D03*
%TD*%
D19*
%TO.C,SW64*%
X237410000Y-59690000D03*
X231060000Y-62230000D03*
D20*
X233600000Y-57150000D03*
D21*
X238680000Y-57150000D03*
X228520000Y-57150000D03*
%TD*%
D19*
%TO.C,SW63*%
X246935000Y-40640000D03*
X240585000Y-43180000D03*
D20*
X243125000Y-38100000D03*
D21*
X248205000Y-38100000D03*
X238045000Y-38100000D03*
%TD*%
D19*
%TO.C,SW62*%
X246935000Y-12065000D03*
X240585000Y-14605000D03*
D20*
X243125000Y-9525000D03*
D21*
X248205000Y-9525000D03*
X238045000Y-9525000D03*
%TD*%
D19*
%TO.C,SW61*%
X235028750Y-116840000D03*
X228678750Y-119380000D03*
D20*
X231218750Y-114300000D03*
D21*
X236298750Y-114300000D03*
X226138750Y-114300000D03*
%TD*%
D19*
%TO.C,SW60*%
X232647500Y-97790000D03*
X226297500Y-100330000D03*
D20*
X228837500Y-95250000D03*
D21*
X233917500Y-95250000D03*
X223757500Y-95250000D03*
%TD*%
D19*
%TO.C,SW59*%
X223122500Y-78740000D03*
X216772500Y-81280000D03*
D20*
X219312500Y-76200000D03*
D21*
X224392500Y-76200000D03*
X214232500Y-76200000D03*
%TD*%
D19*
%TO.C,SW58*%
X218360000Y-59690000D03*
X212010000Y-62230000D03*
D20*
X214550000Y-57150000D03*
D21*
X219630000Y-57150000D03*
X209470000Y-57150000D03*
%TD*%
D19*
%TO.C,SW57*%
X227885000Y-40640000D03*
X221535000Y-43180000D03*
D20*
X224075000Y-38100000D03*
D21*
X229155000Y-38100000D03*
X218995000Y-38100000D03*
%TD*%
D19*
%TO.C,SW56*%
X227885000Y-12065000D03*
X221535000Y-14605000D03*
D20*
X224075000Y-9525000D03*
D21*
X229155000Y-9525000D03*
X218995000Y-9525000D03*
%TD*%
D19*
%TO.C,SW55*%
X211216250Y-116840000D03*
X204866250Y-119380000D03*
D20*
X207406250Y-114300000D03*
D21*
X212486250Y-114300000D03*
X202326250Y-114300000D03*
%TD*%
D19*
%TO.C,SW54*%
X213597500Y-97790000D03*
X207247500Y-100330000D03*
D20*
X209787500Y-95250000D03*
D21*
X214867500Y-95250000D03*
X204707500Y-95250000D03*
%TD*%
D19*
%TO.C,SW53*%
X204072500Y-78740000D03*
X197722500Y-81280000D03*
D20*
X200262500Y-76200000D03*
D21*
X205342500Y-76200000D03*
X195182500Y-76200000D03*
%TD*%
D19*
%TO.C,SW52*%
X199310000Y-59690000D03*
X192960000Y-62230000D03*
D20*
X195500000Y-57150000D03*
D21*
X200580000Y-57150000D03*
X190420000Y-57150000D03*
%TD*%
D19*
%TO.C,SW51*%
X208835000Y-40640000D03*
X202485000Y-43180000D03*
D20*
X205025000Y-38100000D03*
D21*
X210105000Y-38100000D03*
X199945000Y-38100000D03*
%TD*%
D19*
%TO.C,SW50*%
X199310000Y-12065000D03*
X192960000Y-14605000D03*
D20*
X195500000Y-9525000D03*
D21*
X200580000Y-9525000D03*
X190420000Y-9525000D03*
%TD*%
D19*
%TO.C,SW49*%
X194547500Y-97790000D03*
X188197500Y-100330000D03*
D20*
X190737500Y-95250000D03*
D21*
X195817500Y-95250000D03*
X185657500Y-95250000D03*
%TD*%
D19*
%TO.C,SW48*%
X185022500Y-78740000D03*
X178672500Y-81280000D03*
D20*
X181212500Y-76200000D03*
D21*
X186292500Y-76200000D03*
X176132500Y-76200000D03*
%TD*%
D19*
%TO.C,SW47*%
X180260000Y-59690000D03*
X173910000Y-62230000D03*
D20*
X176450000Y-57150000D03*
D21*
X181530000Y-57150000D03*
X171370000Y-57150000D03*
%TD*%
D19*
%TO.C,SW46*%
X189785000Y-40640000D03*
X183435000Y-43180000D03*
D20*
X185975000Y-38100000D03*
D21*
X191055000Y-38100000D03*
X180895000Y-38100000D03*
%TD*%
D19*
%TO.C,SW45*%
X180260000Y-12065000D03*
X173910000Y-14605000D03*
D20*
X176450000Y-9525000D03*
D21*
X181530000Y-9525000D03*
X171370000Y-9525000D03*
%TD*%
D19*
%TO.C,SW39*%
X156447500Y-97790000D03*
X150097500Y-100330000D03*
D20*
X152637500Y-95250000D03*
D21*
X157717500Y-95250000D03*
X147557500Y-95250000D03*
%TD*%
D19*
%TO.C,SW38*%
X146922500Y-78740000D03*
X140572500Y-81280000D03*
D20*
X143112500Y-76200000D03*
D21*
X148192500Y-76200000D03*
X138032500Y-76200000D03*
%TD*%
D19*
%TO.C,SW37*%
X142160000Y-59690000D03*
X135810000Y-62230000D03*
D20*
X138350000Y-57150000D03*
D21*
X143430000Y-57150000D03*
X133270000Y-57150000D03*
%TD*%
D19*
%TO.C,SW36*%
X151685000Y-40640000D03*
X145335000Y-43180000D03*
D20*
X147875000Y-38100000D03*
D21*
X152955000Y-38100000D03*
X142795000Y-38100000D03*
%TD*%
D19*
%TO.C,SW35*%
X142160000Y-12065000D03*
X135810000Y-14605000D03*
D20*
X138350000Y-9525000D03*
D21*
X143430000Y-9525000D03*
X133270000Y-9525000D03*
%TD*%
D19*
%TO.C,SW34*%
X139778750Y-116840000D03*
X133428750Y-119380000D03*
D20*
X135968750Y-114300000D03*
D21*
X141048750Y-114300000D03*
X130888750Y-114300000D03*
%TD*%
D19*
%TO.C,SW33*%
X137397500Y-97790000D03*
X131047500Y-100330000D03*
D20*
X133587500Y-95250000D03*
D21*
X138667500Y-95250000D03*
X128507500Y-95250000D03*
%TD*%
D19*
%TO.C,SW32*%
X127872500Y-78740000D03*
X121522500Y-81280000D03*
D20*
X124062500Y-76200000D03*
D21*
X129142500Y-76200000D03*
X118982500Y-76200000D03*
%TD*%
D19*
%TO.C,SW31*%
X123110000Y-59690000D03*
X116760000Y-62230000D03*
D20*
X119300000Y-57150000D03*
D21*
X124380000Y-57150000D03*
X114220000Y-57150000D03*
%TD*%
D19*
%TO.C,SW30*%
X132635000Y-40640000D03*
X126285000Y-43180000D03*
D20*
X128825000Y-38100000D03*
D21*
X133905000Y-38100000D03*
X123745000Y-38100000D03*
%TD*%
D19*
%TO.C,SW29*%
X118347500Y-97790000D03*
X111997500Y-100330000D03*
D20*
X114537500Y-95250000D03*
D21*
X119617500Y-95250000D03*
X109457500Y-95250000D03*
%TD*%
D19*
%TO.C,SW28*%
X108822500Y-78740000D03*
X102472500Y-81280000D03*
D20*
X105012500Y-76200000D03*
D21*
X110092500Y-76200000D03*
X99932500Y-76200000D03*
%TD*%
D19*
%TO.C,SW27*%
X104060000Y-59690000D03*
X97710000Y-62230000D03*
D20*
X100250000Y-57150000D03*
D21*
X105330000Y-57150000D03*
X95170000Y-57150000D03*
%TD*%
D19*
%TO.C,SW26*%
X113585000Y-40640000D03*
X107235000Y-43180000D03*
D20*
X109775000Y-38100000D03*
D21*
X114855000Y-38100000D03*
X104695000Y-38100000D03*
%TD*%
D19*
%TO.C,SW25*%
X113585000Y-12065000D03*
X107235000Y-14605000D03*
D20*
X109775000Y-9525000D03*
D21*
X114855000Y-9525000D03*
X104695000Y-9525000D03*
%TD*%
D19*
%TO.C,SW24*%
X99297500Y-97790000D03*
X92947500Y-100330000D03*
D20*
X95487500Y-95250000D03*
D21*
X100567500Y-95250000D03*
X90407500Y-95250000D03*
%TD*%
D19*
%TO.C,SW23*%
X89772500Y-78740000D03*
X83422500Y-81280000D03*
D20*
X85962500Y-76200000D03*
D21*
X91042500Y-76200000D03*
X80882500Y-76200000D03*
%TD*%
D19*
%TO.C,SW22*%
X85010000Y-59690000D03*
X78660000Y-62230000D03*
D20*
X81200000Y-57150000D03*
D21*
X86280000Y-57150000D03*
X76120000Y-57150000D03*
%TD*%
D19*
%TO.C,SW21*%
X94535000Y-40640000D03*
X88185000Y-43180000D03*
D20*
X90725000Y-38100000D03*
D21*
X95805000Y-38100000D03*
X85645000Y-38100000D03*
%TD*%
D19*
%TO.C,SW20*%
X94535000Y-12065000D03*
X88185000Y-14605000D03*
D20*
X90725000Y-9525000D03*
D21*
X95805000Y-9525000D03*
X85645000Y-9525000D03*
%TD*%
D19*
%TO.C,SW19*%
X68341250Y-116840000D03*
X61991250Y-119380000D03*
D20*
X64531250Y-114300000D03*
D21*
X69611250Y-114300000D03*
X59451250Y-114300000D03*
%TD*%
D19*
%TO.C,SW18*%
X80247500Y-97790000D03*
X73897500Y-100330000D03*
D20*
X76437500Y-95250000D03*
D21*
X81517500Y-95250000D03*
X71357500Y-95250000D03*
%TD*%
D19*
%TO.C,SW17*%
X70722500Y-78740000D03*
X64372500Y-81280000D03*
D20*
X66912500Y-76200000D03*
D21*
X71992500Y-76200000D03*
X61832500Y-76200000D03*
%TD*%
D19*
%TO.C,SW16*%
X65960000Y-59690000D03*
X59610000Y-62230000D03*
D20*
X62150000Y-57150000D03*
D21*
X67230000Y-57150000D03*
X57070000Y-57150000D03*
%TD*%
D19*
%TO.C,SW15*%
X75485000Y-40640000D03*
X69135000Y-43180000D03*
D20*
X71675000Y-38100000D03*
D21*
X76755000Y-38100000D03*
X66595000Y-38100000D03*
%TD*%
D19*
%TO.C,SW14*%
X75485000Y-12065000D03*
X69135000Y-14605000D03*
D20*
X71675000Y-9525000D03*
D21*
X76755000Y-9525000D03*
X66595000Y-9525000D03*
%TD*%
D19*
%TO.C,SW13*%
X61197500Y-97790000D03*
X54847500Y-100330000D03*
D20*
X57387500Y-95250000D03*
D21*
X62467500Y-95250000D03*
X52307500Y-95250000D03*
%TD*%
D19*
%TO.C,SW12*%
X51672500Y-78740000D03*
X45322500Y-81280000D03*
D20*
X47862500Y-76200000D03*
D21*
X52942500Y-76200000D03*
X42782500Y-76200000D03*
%TD*%
D19*
%TO.C,SW11*%
X46910000Y-59690000D03*
X40560000Y-62230000D03*
D20*
X43100000Y-57150000D03*
D21*
X48180000Y-57150000D03*
X38020000Y-57150000D03*
%TD*%
D19*
%TO.C,SW10*%
X56435000Y-40640000D03*
X50085000Y-43180000D03*
D20*
X52625000Y-38100000D03*
D21*
X57705000Y-38100000D03*
X47545000Y-38100000D03*
%TD*%
D19*
%TO.C,SW8*%
X44528750Y-116840000D03*
X38178750Y-119380000D03*
D20*
X40718750Y-114300000D03*
D21*
X45798750Y-114300000D03*
X35638750Y-114300000D03*
%TD*%
D19*
%TO.C,SW7*%
X30241250Y-97790000D03*
X23891250Y-100330000D03*
D20*
X26431250Y-95250000D03*
D21*
X31511250Y-95250000D03*
X21351250Y-95250000D03*
%TD*%
D19*
%TO.C,SW6*%
X37385000Y-40640000D03*
X31035000Y-43180000D03*
D20*
X33575000Y-38100000D03*
D21*
X38655000Y-38100000D03*
X28495000Y-38100000D03*
%TD*%
D19*
%TO.C,SW5*%
X20716250Y-116840000D03*
X14366250Y-119380000D03*
D20*
X16906250Y-114300000D03*
D21*
X21986250Y-114300000D03*
X11826250Y-114300000D03*
%TD*%
D19*
%TO.C,SW4*%
X25478750Y-78740000D03*
X19128750Y-81280000D03*
D20*
X21668750Y-76200000D03*
D21*
X26748750Y-76200000D03*
X16588750Y-76200000D03*
%TD*%
D19*
%TO.C,SW3*%
X23097500Y-59690000D03*
X16747500Y-62230000D03*
D20*
X19287500Y-57150000D03*
D21*
X24367500Y-57150000D03*
X14207500Y-57150000D03*
%TD*%
D19*
%TO.C,SW2*%
X18335000Y-40640000D03*
X11985000Y-43180000D03*
D20*
X14525000Y-38100000D03*
D21*
X19605000Y-38100000D03*
X9445000Y-38100000D03*
%TD*%
D19*
%TO.C,SW1*%
X18335000Y-12065000D03*
X11985000Y-14605000D03*
D20*
X14525000Y-9525000D03*
D21*
X19605000Y-9525000D03*
X9445000Y-9525000D03*
%TD*%
D28*
%TO.C,H2*%
X1155000Y-85090000D03*
%TD*%
%TO.C,H1*%
X437630000Y-85090000D03*
%TD*%
D29*
%TO.C,C10*%
X430530000Y-20828000D03*
X430530000Y-22131988D03*
%TD*%
%TO.C,C9*%
X428752000Y-20811006D03*
X428752000Y-22114994D03*
%TD*%
D30*
%TO.C,C8*%
X354211006Y-17272000D03*
X355464994Y-17272000D03*
%TD*%
D25*
%TO.C,SP8*%
X431085000Y-54737000D03*
X431085000Y-78613000D03*
D24*
X415845000Y-54737000D03*
X415845000Y-78613000D03*
%TD*%
D25*
%TO.C,SP7*%
X259762000Y-31115000D03*
X283638000Y-31115000D03*
D24*
X259762000Y-46355000D03*
X283638000Y-46355000D03*
%TD*%
D25*
%TO.C,SP6*%
X364537000Y-107315000D03*
X388413000Y-107315000D03*
D24*
X364537000Y-122555000D03*
X388413000Y-122555000D03*
%TD*%
%TO.C,SP5*%
X276494250Y-103505000D03*
X252618250Y-103505000D03*
D25*
X276494250Y-88265000D03*
X252618250Y-88265000D03*
%TD*%
D24*
%TO.C,SP4*%
X38369250Y-103505000D03*
X14493250Y-103505000D03*
D25*
X38369250Y-88265000D03*
X14493250Y-88265000D03*
%TD*%
%TO.C,SP3*%
X431085000Y-92837000D03*
X431085000Y-116713000D03*
D24*
X415845000Y-92837000D03*
X415845000Y-116713000D03*
%TD*%
%TO.C,SP1*%
X281256750Y-84455000D03*
X257380750Y-84455000D03*
D25*
X281256750Y-69215000D03*
X257380750Y-69215000D03*
%TD*%
D31*
%TO.C,R2*%
X356362000Y-1902499D03*
X356362000Y-3177500D03*
%TD*%
D32*
%TO.C,R14*%
X432181000Y-20910000D03*
X432181000Y-22270000D03*
%TD*%
D33*
%TO.C,R13*%
X435528000Y-20955000D03*
X434168000Y-20955000D03*
%TD*%
D32*
%TO.C,R12*%
X426974000Y-20910000D03*
X426974000Y-22270000D03*
%TD*%
D33*
%TO.C,R11*%
X423500000Y-20955000D03*
X424860000Y-20955000D03*
%TD*%
D22*
%TO.C,J3*%
X351155000Y-17907000D03*
D23*
X351155000Y-15367000D03*
%TD*%
M02*
