M48
; DRILL file {KiCad (5.1.8)-1} date 05/28/21 20:45:27
; FORMAT={-:-/ absolute / metric / decimal}
; #@! TF.CreationDate,2021-05-28T20:45:27-04:00
; #@! TF.GenerationSoftware,Kicad,Pcbnew,(5.1.8)-1
; #@! TF.FileFunction,NonPlated,1,2,NPTH
FMAT,2
METRIC
T1C1.700
T2C3.048
T3C3.988
T4C4.000
%
G90
G05
T1
X21.351Y-95.25
X31.511Y-95.25
X299.957Y-9.525
X310.118Y-9.525
X35.639Y-114.3
X45.799Y-114.3
X273.764Y-114.3
X283.924Y-114.3
X47.545Y-38.1
X57.705Y-38.1
X361.87Y-76.2
X372.03Y-76.2
X85.645Y-9.525
X95.805Y-9.525
X419.02Y-38.1
X429.18Y-38.1
X138.032Y-76.2
X148.192Y-76.2
X361.87Y-38.1
X372.03Y-38.1
X190.42Y-9.525
X200.58Y-9.525
X233.282Y-76.2
X243.442Y-76.2
X204.707Y-95.25
X214.867Y-95.25
X247.57Y-57.15
X257.73Y-57.15
X166.607Y-95.25
X176.767Y-95.25
X299.957Y-57.15
X310.118Y-57.15
X52.307Y-95.25
X62.467Y-95.25
X371.395Y-114.3
X381.555Y-114.3
X104.695Y-9.525
X114.855Y-9.525
X299.957Y-38.1
X310.118Y-38.1
X28.495Y-38.1
X38.655Y-38.1
X161.845Y-38.1
X172.005Y-38.1
X85.645Y-38.1
X95.805Y-38.1
X380.92Y-76.2
X391.08Y-76.2
X99.932Y-76.2
X110.093Y-76.2
X399.97Y-57.15
X410.13Y-57.15
X130.889Y-114.3
X141.049Y-114.3
X114.22Y-57.15
X124.38Y-57.15
X228.52Y-57.15
X238.68Y-57.15
X223.757Y-95.25
X233.917Y-95.25
X66.595Y-9.525
X76.755Y-9.525
X361.87Y-57.15
X372.03Y-57.15
X299.957Y-114.3
X310.118Y-114.3
X38.02Y-57.15
X48.18Y-57.15
X399.97Y-38.1
X410.13Y-38.1
X90.407Y-95.25
X100.567Y-95.25
X380.92Y-9.525
X391.08Y-9.525
X218.995Y-38.1
X229.155Y-38.1
X271.382Y-57.15
X281.542Y-57.15
X176.132Y-76.2
X186.292Y-76.2
X226.139Y-114.3
X236.299Y-114.3
X257.095Y-9.525
X267.255Y-9.525
X238.045Y-38.1
X248.205Y-38.1
X157.082Y-76.2
X167.242Y-76.2
X361.87Y-95.25
X372.03Y-95.25
X80.882Y-76.2
X91.042Y-76.2
X266.62Y-38.1
X276.78Y-38.1
X11.826Y-114.3
X21.986Y-114.3
X319.007Y-38.1
X329.167Y-38.1
X42.782Y-76.2
X52.942Y-76.2
X259.476Y-95.25
X269.636Y-95.25
X95.17Y-57.15
X105.33Y-57.15
X399.97Y-95.25
X410.13Y-95.25
X123.745Y-38.1
X133.905Y-38.1
X338.058Y-114.3
X348.217Y-114.3
X190.42Y-57.15
X200.58Y-57.15
X128.507Y-95.25
X138.667Y-95.25
X218.995Y-9.525
X229.155Y-9.525
X104.695Y-38.1
X114.855Y-38.1
X47.545Y-9.525
X57.705Y-9.525
X319.007Y-95.25
X329.167Y-95.25
X338.058Y-38.1
X348.217Y-38.1
X9.445Y-9.525
X19.605Y-9.525
X380.92Y-57.15
X391.08Y-57.15
X319.007Y-57.15
X329.167Y-57.15
X61.832Y-76.2
X71.992Y-76.2
X249.951Y-114.3
X260.111Y-114.3
X171.37Y-9.525
X181.53Y-9.525
X399.97Y-114.3
X410.13Y-114.3
X118.983Y-76.2
X129.142Y-76.2
X152.32Y-9.525
X162.48Y-9.525
X209.47Y-57.15
X219.63Y-57.15
X142.795Y-38.1
X152.955Y-38.1
X180.895Y-38.1
X191.055Y-38.1
X109.457Y-95.25
X119.617Y-95.25
X380.92Y-38.1
X391.08Y-38.1
X57.07Y-57.15
X67.23Y-57.15
X66.595Y-38.1
X76.755Y-38.1
X399.97Y-76.2
X410.13Y-76.2
X9.445Y-38.1
X19.605Y-38.1
X419.02Y-104.775
X429.18Y-104.775
X76.12Y-57.15
X86.28Y-57.15
X276.145Y-9.525
X286.305Y-9.525
X185.657Y-95.25
X195.817Y-95.25
X380.92Y-95.25
X391.08Y-95.25
X264.239Y-76.2
X274.399Y-76.2
X319.007Y-114.3
X329.167Y-114.3
X133.27Y-9.525
X143.43Y-9.525
X171.37Y-57.15
X181.53Y-57.15
X199.945Y-38.1
X210.105Y-38.1
X202.326Y-114.3
X212.486Y-114.3
X152.32Y-57.15
X162.48Y-57.15
X16.589Y-76.2
X26.749Y-76.2
X399.97Y-9.525
X410.13Y-9.525
X59.451Y-114.3
X69.611Y-114.3
X419.02Y-66.675
X429.18Y-66.675
X14.207Y-57.15
X24.367Y-57.15
X338.058Y-9.525
X348.217Y-9.525
X71.358Y-95.25
X81.517Y-95.25
X319.007Y-9.525
X329.167Y-9.525
X195.183Y-76.2
X205.343Y-76.2
X361.87Y-9.525
X372.03Y-9.525
X238.045Y-9.525
X248.205Y-9.525
X338.058Y-57.15
X348.217Y-57.15
X133.27Y-57.15
X143.43Y-57.15
X147.558Y-95.25
X157.718Y-95.25
X214.232Y-76.2
X224.392Y-76.2
T2
X431.085Y-54.737
X431.085Y-78.613
X431.085Y-92.837
X431.085Y-116.713
X364.537Y-107.315
X388.413Y-107.315
X85.931Y-107.315
X186.007Y-107.315
X14.493Y-88.265
X38.369Y-88.265
X257.381Y-69.215
X281.257Y-69.215
X259.762Y-31.115
X283.638Y-31.115
X252.618Y-88.265
X276.494Y-88.265
T3
X415.845Y-54.737
X415.845Y-78.613
X415.845Y-92.837
X415.845Y-116.713
X364.537Y-122.555
X388.413Y-122.555
X85.931Y-122.555
X186.007Y-122.555
X14.493Y-103.505
X38.369Y-103.505
X257.381Y-84.455
X281.257Y-84.455
X259.762Y-46.355
X283.638Y-46.355
X252.618Y-103.505
X276.494Y-103.505
T4
X386.0Y-38.1
X62.15Y-57.15
X71.675Y-38.1
X405.05Y-76.2
X14.525Y-38.1
X424.1Y-104.775
X81.2Y-57.15
X281.225Y-9.525
X190.737Y-95.25
X386.0Y-95.25
X269.319Y-76.2
X324.087Y-114.3
X138.35Y-9.525
X176.45Y-57.15
X205.025Y-38.1
X207.406Y-114.3
X157.4Y-57.15
X21.669Y-76.2
X405.05Y-9.525
X64.531Y-114.3
X424.1Y-66.675
X19.287Y-57.15
X343.137Y-9.525
X76.438Y-95.25
X324.087Y-9.525
X200.262Y-76.2
X366.95Y-9.525
X243.125Y-9.525
X343.137Y-57.15
X138.35Y-57.15
X152.637Y-95.25
X219.312Y-76.2
X26.431Y-95.25
X305.037Y-9.525
X40.719Y-114.3
X278.844Y-114.3
X52.625Y-38.1
X366.95Y-76.2
X90.725Y-9.525
X424.1Y-38.1
X143.112Y-76.2
X366.95Y-38.1
X195.5Y-9.525
X238.362Y-76.2
X209.787Y-95.25
X252.65Y-57.15
X171.688Y-95.25
X305.037Y-57.15
X57.387Y-95.25
X376.475Y-114.3
X109.775Y-9.525
X305.037Y-38.1
X33.575Y-38.1
X166.925Y-38.1
X90.725Y-38.1
X386.0Y-76.2
X105.012Y-76.2
X405.05Y-57.15
X135.969Y-114.3
X119.3Y-57.15
X233.6Y-57.15
X228.837Y-95.25
X71.675Y-9.525
X366.95Y-57.15
X305.037Y-114.3
X43.1Y-57.15
X405.05Y-38.1
X95.487Y-95.25
X386.0Y-9.525
X224.075Y-38.1
X276.462Y-57.15
X181.213Y-76.2
X231.219Y-114.3
X262.175Y-9.525
X243.125Y-38.1
X162.162Y-76.2
X366.95Y-95.25
X85.962Y-76.2
X271.7Y-38.1
X16.906Y-114.3
X324.087Y-38.1
X47.862Y-76.2
X264.556Y-95.25
X100.25Y-57.15
X405.05Y-95.25
X128.825Y-38.1
X343.137Y-114.3
X195.5Y-57.15
X133.588Y-95.25
X224.075Y-9.525
X109.775Y-38.1
X52.625Y-9.525
X324.087Y-95.25
X343.137Y-38.1
X14.525Y-9.525
X386.0Y-57.15
X324.087Y-57.15
X66.912Y-76.2
X255.031Y-114.3
X176.45Y-9.525
X405.05Y-114.3
X124.062Y-76.2
X157.4Y-9.525
X214.55Y-57.15
X147.875Y-38.1
X185.975Y-38.1
X114.537Y-95.25
T0
M30
