%TF.GenerationSoftware,KiCad,Pcbnew,(5.1.8)-1*%
%TF.CreationDate,2021-05-28T20:45:32-04:00*%
%TF.ProjectId,694200101,36393432-3030-4313-9031-2e6b69636164,rev?*%
%TF.SameCoordinates,Original*%
%TF.FileFunction,Soldermask,Bot*%
%TF.FilePolarity,Negative*%
%FSLAX46Y46*%
G04 Gerber Fmt 4.6, Leading zero omitted, Abs format (unit mm)*
G04 Created by KiCad (PCBNEW (5.1.8)-1) date 2021-05-28 20:45:32*
%MOMM*%
%LPD*%
G01*
G04 APERTURE LIST*
%ADD10R,0.350000X0.750000*%
%ADD11O,0.900000X1.700000*%
%ADD12O,0.900000X2.400000*%
%ADD13C,0.700000*%
%ADD14C,3.786000*%
%ADD15C,1.800000*%
%ADD16R,1.400000X0.600000*%
%ADD17R,0.950000X0.930000*%
%ADD18R,0.930000X0.950000*%
%ADD19R,0.970000X0.900000*%
%ADD20C,0.550000*%
%ADD21R,1.100000X1.100000*%
%ADD22R,0.750000X0.200000*%
%ADD23R,0.200000X0.750000*%
%ADD24R,1.300000X1.700000*%
%ADD25R,1.700000X1.300000*%
%ADD26C,0.558800*%
%ADD27C,2.600000*%
%ADD28C,4.000000*%
%ADD29C,1.700000*%
%ADD30O,1.700000X1.700000*%
%ADD31R,1.700000X1.700000*%
%ADD32C,3.987800*%
%ADD33C,3.048000*%
%ADD34C,7.000000*%
%ADD35C,3.900000*%
%ADD36O,4.500000X3.500000*%
%ADD37R,0.862132X0.690831*%
%ADD38R,2.184400X1.651000*%
%ADD39R,0.708716X0.812132*%
%ADD40R,0.812132X0.708716*%
%ADD41R,0.812132X0.758142*%
%ADD42R,0.812132X0.708142*%
%ADD43R,0.758142X0.812132*%
%ADD44C,0.100000*%
%ADD45R,1.380000X1.010000*%
%ADD46R,1.300000X1.100000*%
%ADD47R,1.340000X3.020000*%
%ADD48R,3.020000X1.340000*%
%ADD49R,1.330000X3.460000*%
%ADD50R,3.460000X1.330000*%
%ADD51R,0.900000X0.970000*%
%ADD52R,1.761200X3.150799*%
%ADD53R,1.761200X0.850800*%
G04 APERTURE END LIST*
D10*
%TO.C,U2*%
X355490400Y-9681600D03*
X354990400Y-9681600D03*
X354490400Y-9681600D03*
X354490400Y-8301600D03*
X354990400Y-8301600D03*
X355490400Y-8301600D03*
%TD*%
D11*
%TO.C,J1*%
X359344000Y-1609000D03*
X350694000Y-1609000D03*
D12*
X359344000Y-4989000D03*
X350694000Y-4989000D03*
D13*
X355444000Y-4619000D03*
X357994000Y-4619000D03*
X357144000Y-4619000D03*
X356294000Y-4619000D03*
X352044000Y-4619000D03*
X353744000Y-4619000D03*
X354594000Y-4619000D03*
X352894000Y-4619000D03*
X357994000Y-5969000D03*
X357144000Y-5969000D03*
X356294000Y-5969000D03*
X355444000Y-5969000D03*
X354594000Y-5969000D03*
X353744000Y-5969000D03*
X352894000Y-5969000D03*
X352044000Y-5969000D03*
%TD*%
D14*
%TO.C,ENC1*%
X435305600Y-9724600D03*
X423905600Y-9724600D03*
D15*
X429605600Y-17224600D03*
X432105600Y-17224600D03*
X427105600Y-17224600D03*
X432105600Y-2724600D03*
X427105600Y-2724600D03*
%TD*%
D16*
%TO.C,U4*%
X336821000Y-23241000D03*
X336821000Y-21971000D03*
X336821000Y-20701000D03*
X336821000Y-19431000D03*
X342121000Y-19431000D03*
X342121000Y-20701000D03*
X342121000Y-21971000D03*
X342121000Y-23241000D03*
%TD*%
D17*
%TO.C,C27*%
X350671000Y-92964000D03*
X352147000Y-92964000D03*
%TD*%
D18*
%TO.C,C26*%
X30734000Y-25043000D03*
X30734000Y-26519000D03*
%TD*%
D19*
%TO.C,R22*%
X355765100Y-11482800D03*
X355765100Y-13002800D03*
%TD*%
%TO.C,R21*%
X354266500Y-11482800D03*
X354266500Y-13002800D03*
%TD*%
%TO.C,C25*%
G36*
G01*
X379280000Y-12733000D02*
X379280000Y-13683000D01*
G75*
G02*
X379030000Y-13933000I-250000J0D01*
G01*
X378530000Y-13933000D01*
G75*
G02*
X378280000Y-13683000I0J250000D01*
G01*
X378280000Y-12733000D01*
G75*
G02*
X378530000Y-12483000I250000J0D01*
G01*
X379030000Y-12483000D01*
G75*
G02*
X379280000Y-12733000I0J-250000D01*
G01*
G37*
G36*
G01*
X381180000Y-12733000D02*
X381180000Y-13683000D01*
G75*
G02*
X380930000Y-13933000I-250000J0D01*
G01*
X380430000Y-13933000D01*
G75*
G02*
X380180000Y-13683000I0J250000D01*
G01*
X380180000Y-12733000D01*
G75*
G02*
X380430000Y-12483000I250000J0D01*
G01*
X380930000Y-12483000D01*
G75*
G02*
X381180000Y-12733000I0J-250000D01*
G01*
G37*
%TD*%
D20*
%TO.C,U6*%
X342351999Y-91212400D03*
X343451999Y-91212400D03*
X344551999Y-91212400D03*
X345651999Y-91212400D03*
X342351999Y-92312400D03*
X343451999Y-92312400D03*
X344551999Y-92312400D03*
X345651999Y-92312400D03*
X342351999Y-93412400D03*
X343451999Y-93412400D03*
X344551999Y-93412400D03*
X345651999Y-93412400D03*
X342351999Y-94512400D03*
X343451999Y-94512400D03*
X344551999Y-94512400D03*
X345651999Y-94512400D03*
D21*
X342351999Y-91212400D03*
X343451999Y-91212400D03*
X344551999Y-91212400D03*
X345651999Y-91212400D03*
X342351999Y-92312400D03*
X343451999Y-92312400D03*
X344551999Y-92312400D03*
X345651999Y-92312400D03*
X342351999Y-93412400D03*
X343451999Y-93412400D03*
X344551999Y-93412400D03*
X345651999Y-93412400D03*
X342351999Y-94512400D03*
X343451999Y-94512400D03*
X344551999Y-94512400D03*
X345651999Y-94512400D03*
D22*
X346926999Y-95062400D03*
X346926999Y-94662400D03*
X346926999Y-94262400D03*
X346926999Y-93862400D03*
X346926999Y-93462400D03*
X346926999Y-93062400D03*
X346926999Y-92662400D03*
X346926999Y-92262400D03*
X346926999Y-91862400D03*
X346926999Y-91462400D03*
X346926999Y-91062400D03*
X346926999Y-90662400D03*
D23*
X346201999Y-89937400D03*
X345801999Y-89937400D03*
X345401999Y-89937400D03*
X345001999Y-89937400D03*
X344601999Y-89937400D03*
X344201999Y-89937400D03*
X343801999Y-89937400D03*
X343401999Y-89937400D03*
X343001999Y-89937400D03*
X342601999Y-89937400D03*
X342201999Y-89937400D03*
X341801999Y-89937400D03*
D22*
X341076999Y-90662400D03*
X341076999Y-91062400D03*
X341076999Y-91462400D03*
X341076999Y-91862400D03*
X341076999Y-92262400D03*
X341076999Y-92662400D03*
X341076999Y-93062400D03*
X341076999Y-93462400D03*
X341076999Y-93862400D03*
X341076999Y-94262400D03*
X341076999Y-94662400D03*
X341076999Y-95062400D03*
D23*
X341801999Y-95787400D03*
X342201999Y-95787400D03*
X342601999Y-95787400D03*
X343001999Y-95787400D03*
X343401999Y-95787400D03*
X343801999Y-95787400D03*
X344201999Y-95787400D03*
X344601999Y-95787400D03*
X345001999Y-95787400D03*
X345401999Y-95787400D03*
X345801999Y-95787400D03*
X346201999Y-95787400D03*
%TD*%
D20*
%TO.C,U5*%
X32384000Y-17273000D03*
X32384000Y-18373000D03*
X32384000Y-19473000D03*
X32384000Y-20573000D03*
X31284000Y-17273000D03*
X31284000Y-18373000D03*
X31284000Y-19473000D03*
X31284000Y-20573000D03*
X30184000Y-17273000D03*
X30184000Y-18373000D03*
X30184000Y-19473000D03*
X30184000Y-20573000D03*
X29084000Y-17273000D03*
X29084000Y-18373000D03*
X29084000Y-19473000D03*
X29084000Y-20573000D03*
D21*
X32384000Y-17273000D03*
X32384000Y-18373000D03*
X32384000Y-19473000D03*
X32384000Y-20573000D03*
X31284000Y-17273000D03*
X31284000Y-18373000D03*
X31284000Y-19473000D03*
X31284000Y-20573000D03*
X30184000Y-17273000D03*
X30184000Y-18373000D03*
X30184000Y-19473000D03*
X30184000Y-20573000D03*
X29084000Y-17273000D03*
X29084000Y-18373000D03*
X29084000Y-19473000D03*
X29084000Y-20573000D03*
D23*
X28534000Y-21848000D03*
X28934000Y-21848000D03*
X29334000Y-21848000D03*
X29734000Y-21848000D03*
X30134000Y-21848000D03*
X30534000Y-21848000D03*
X30934000Y-21848000D03*
X31334000Y-21848000D03*
X31734000Y-21848000D03*
X32134000Y-21848000D03*
X32534000Y-21848000D03*
X32934000Y-21848000D03*
D22*
X33659000Y-21123000D03*
X33659000Y-20723000D03*
X33659000Y-20323000D03*
X33659000Y-19923000D03*
X33659000Y-19523000D03*
X33659000Y-19123000D03*
X33659000Y-18723000D03*
X33659000Y-18323000D03*
X33659000Y-17923000D03*
X33659000Y-17523000D03*
X33659000Y-17123000D03*
X33659000Y-16723000D03*
D23*
X32934000Y-15998000D03*
X32534000Y-15998000D03*
X32134000Y-15998000D03*
X31734000Y-15998000D03*
X31334000Y-15998000D03*
X30934000Y-15998000D03*
X30534000Y-15998000D03*
X30134000Y-15998000D03*
X29734000Y-15998000D03*
X29334000Y-15998000D03*
X28934000Y-15998000D03*
X28534000Y-15998000D03*
D22*
X27809000Y-16723000D03*
X27809000Y-17123000D03*
X27809000Y-17523000D03*
X27809000Y-17923000D03*
X27809000Y-18323000D03*
X27809000Y-18723000D03*
X27809000Y-19123000D03*
X27809000Y-19523000D03*
X27809000Y-19923000D03*
X27809000Y-20323000D03*
X27809000Y-20723000D03*
X27809000Y-21123000D03*
%TD*%
D24*
%TO.C,D108*%
X417750000Y-108000000D03*
X414250000Y-108000000D03*
%TD*%
%TO.C,D107*%
X418000000Y-69750000D03*
X414500000Y-69750000D03*
%TD*%
D25*
%TO.C,D106*%
X428250000Y-44750000D03*
X428250000Y-48250000D03*
%TD*%
D24*
%TO.C,D105*%
X410550000Y-120600000D03*
X407050000Y-120600000D03*
%TD*%
D25*
%TO.C,D104*%
X409250000Y-101750000D03*
X409250000Y-105250000D03*
%TD*%
%TO.C,D103*%
X408750000Y-82250000D03*
X408750000Y-85750000D03*
%TD*%
%TO.C,D102*%
X408750000Y-63500000D03*
X408750000Y-67000000D03*
%TD*%
%TO.C,D101*%
X408962500Y-44750000D03*
X408962500Y-48250000D03*
%TD*%
%TO.C,D100*%
X409287500Y-15650000D03*
X409287500Y-19150000D03*
%TD*%
%TO.C,D99*%
X393065000Y-100485000D03*
X393065000Y-103985000D03*
%TD*%
%TO.C,D98*%
X389787500Y-82250000D03*
X389787500Y-85750000D03*
%TD*%
%TO.C,D97*%
X390000000Y-63500000D03*
X390000000Y-67000000D03*
%TD*%
%TO.C,D96*%
X389890000Y-44732000D03*
X389890000Y-48232000D03*
%TD*%
%TO.C,D95*%
X389750000Y-15650000D03*
X389750000Y-19150000D03*
%TD*%
D24*
%TO.C,D94*%
X421500000Y-4699000D03*
X418000000Y-4699000D03*
%TD*%
%TO.C,D93*%
X383822000Y-116205000D03*
X387322000Y-116205000D03*
%TD*%
D25*
%TO.C,D92*%
X370750000Y-100739000D03*
X370750000Y-104239000D03*
%TD*%
%TO.C,D91*%
X370750000Y-82250000D03*
X370750000Y-85750000D03*
%TD*%
%TO.C,D90*%
X370750000Y-63500000D03*
X370750000Y-67000000D03*
%TD*%
%TO.C,D89*%
X370750000Y-44750000D03*
X370750000Y-48250000D03*
%TD*%
%TO.C,D88*%
X374015000Y-13617000D03*
X374015000Y-17117000D03*
%TD*%
D24*
%TO.C,D87*%
X349350001Y-119500000D03*
X352850001Y-119500000D03*
%TD*%
D25*
%TO.C,D86*%
X349660500Y-59845000D03*
X349660500Y-63345000D03*
%TD*%
%TO.C,D85*%
X347037500Y-44750000D03*
X347037500Y-48250000D03*
%TD*%
%TO.C,D84*%
X344170000Y-12728000D03*
X344170000Y-16228000D03*
%TD*%
D24*
%TO.C,D83*%
X330750000Y-119500000D03*
X334250000Y-119500000D03*
%TD*%
D25*
%TO.C,D82*%
X328250000Y-101750000D03*
X328250000Y-105250000D03*
%TD*%
%TO.C,D81*%
X330708000Y-59845000D03*
X330708000Y-63345000D03*
%TD*%
%TO.C,D80*%
X328000000Y-44750000D03*
X328000000Y-48250000D03*
%TD*%
%TO.C,D79*%
X332060000Y-13110000D03*
X332060000Y-16610000D03*
%TD*%
D24*
%TO.C,D78*%
X312750000Y-119500000D03*
X316250000Y-119500000D03*
%TD*%
D25*
%TO.C,D77*%
X312293000Y-60226000D03*
X312293000Y-63726000D03*
%TD*%
%TO.C,D76*%
X308750000Y-44750000D03*
X308750000Y-48250000D03*
%TD*%
%TO.C,D75*%
X312560000Y-13110000D03*
X312560000Y-16610000D03*
%TD*%
D24*
%TO.C,D74*%
X285750000Y-119500000D03*
X289250000Y-119500000D03*
%TD*%
%TO.C,D73*%
X283365000Y-61468000D03*
X286865000Y-61468000D03*
%TD*%
D25*
%TO.C,D72*%
X275750000Y-44750000D03*
X275750000Y-48250000D03*
%TD*%
%TO.C,D71*%
X288810000Y-13110000D03*
X288810000Y-16610000D03*
%TD*%
D24*
%TO.C,D70*%
X262250000Y-119500000D03*
X265750000Y-119500000D03*
%TD*%
D25*
%TO.C,D69*%
X268500000Y-101750000D03*
X268500000Y-105250000D03*
%TD*%
D24*
%TO.C,D68*%
X277650000Y-77800000D03*
X281150000Y-77800000D03*
%TD*%
D25*
%TO.C,D67*%
X262509000Y-60226000D03*
X262509000Y-63726000D03*
%TD*%
%TO.C,D66*%
X269810000Y-13110000D03*
X269810000Y-16610000D03*
%TD*%
%TO.C,D65*%
X242000000Y-82250000D03*
X242000000Y-85750000D03*
%TD*%
%TO.C,D64*%
X240919000Y-60353000D03*
X240919000Y-63853000D03*
%TD*%
%TO.C,D63*%
X247037500Y-44750000D03*
X247037500Y-48250000D03*
%TD*%
%TO.C,D62*%
X251333000Y-13109000D03*
X251333000Y-16609000D03*
%TD*%
D24*
%TO.C,D61*%
X238000000Y-119500000D03*
X241500000Y-119500000D03*
%TD*%
D25*
%TO.C,D60*%
X232787500Y-101750000D03*
X232787500Y-105250000D03*
%TD*%
%TO.C,D59*%
X223287500Y-82250000D03*
X223287500Y-85750000D03*
%TD*%
%TO.C,D58*%
X221488000Y-60353000D03*
X221488000Y-63853000D03*
%TD*%
%TO.C,D57*%
X227750000Y-44750000D03*
X227750000Y-48250000D03*
%TD*%
%TO.C,D56*%
X231810000Y-13110000D03*
X231810000Y-16610000D03*
%TD*%
D24*
%TO.C,D55*%
X213750000Y-119500000D03*
X217250000Y-119500000D03*
%TD*%
D25*
%TO.C,D54*%
X213712500Y-101750000D03*
X213712500Y-105250000D03*
%TD*%
%TO.C,D53*%
X204250000Y-82250000D03*
X204250000Y-85750000D03*
%TD*%
%TO.C,D52*%
X202057000Y-60226000D03*
X202057000Y-63726000D03*
%TD*%
%TO.C,D51*%
X208750000Y-44750000D03*
X208750000Y-48250000D03*
%TD*%
%TO.C,D50*%
X203560000Y-13110000D03*
X203560000Y-16610000D03*
%TD*%
%TO.C,D49*%
X194500000Y-101750000D03*
X194500000Y-105250000D03*
%TD*%
%TO.C,D48*%
X185250000Y-82250000D03*
X185250000Y-85750000D03*
%TD*%
%TO.C,D47*%
X183134000Y-60226000D03*
X183134000Y-63726000D03*
%TD*%
%TO.C,D46*%
X190000000Y-44750000D03*
X190000000Y-48250000D03*
%TD*%
%TO.C,D45*%
X184310000Y-13110000D03*
X184310000Y-16610000D03*
%TD*%
%TO.C,D44*%
X175500000Y-101750000D03*
X175500000Y-105250000D03*
%TD*%
%TO.C,D43*%
X166000000Y-82250000D03*
X166000000Y-85750000D03*
%TD*%
%TO.C,D42*%
X164592000Y-60226000D03*
X164592000Y-63726000D03*
%TD*%
%TO.C,D41*%
X170750000Y-44750000D03*
X170750000Y-48250000D03*
%TD*%
%TO.C,D40*%
X165060000Y-13110000D03*
X165060000Y-16610000D03*
%TD*%
%TO.C,D39*%
X156500000Y-101750000D03*
X156500000Y-105250000D03*
%TD*%
%TO.C,D38*%
X147000000Y-82250000D03*
X147000000Y-85750000D03*
%TD*%
%TO.C,D37*%
X145669000Y-60353000D03*
X145669000Y-63853000D03*
%TD*%
%TO.C,D36*%
X151750000Y-44750000D03*
X151750000Y-48250000D03*
%TD*%
%TO.C,D35*%
X146060000Y-13110000D03*
X146060000Y-16610000D03*
%TD*%
D24*
%TO.C,D34*%
X143000000Y-119500000D03*
X146500000Y-119500000D03*
%TD*%
D25*
%TO.C,D33*%
X137500000Y-101750000D03*
X137500000Y-105250000D03*
%TD*%
%TO.C,D32*%
X128250000Y-82250000D03*
X128250000Y-85750000D03*
%TD*%
%TO.C,D31*%
X125984000Y-60353000D03*
X125984000Y-63853000D03*
%TD*%
%TO.C,D30*%
X132750000Y-44750000D03*
X132750000Y-48250000D03*
%TD*%
%TO.C,D29*%
X118250000Y-101750000D03*
X118250000Y-105250000D03*
%TD*%
%TO.C,D28*%
X109000000Y-82250000D03*
X109000000Y-85750000D03*
%TD*%
%TO.C,D27*%
X107315000Y-60353000D03*
X107315000Y-63853000D03*
%TD*%
%TO.C,D26*%
X113500000Y-44750000D03*
X113500000Y-48250000D03*
%TD*%
%TO.C,D25*%
X117560000Y-13110000D03*
X117560000Y-16610000D03*
%TD*%
%TO.C,D24*%
X99250000Y-101750000D03*
X99250000Y-105250000D03*
%TD*%
%TO.C,D23*%
X89750000Y-82250000D03*
X89750000Y-85750000D03*
%TD*%
%TO.C,D22*%
X87630000Y-60353000D03*
X87630000Y-63853000D03*
%TD*%
%TO.C,D21*%
X94500000Y-44750000D03*
X94500000Y-48250000D03*
%TD*%
%TO.C,D20*%
X98310000Y-13110000D03*
X98310000Y-16610000D03*
%TD*%
D24*
%TO.C,D19*%
X72250000Y-119500000D03*
X75750000Y-119500000D03*
%TD*%
D25*
%TO.C,D18*%
X80250000Y-101750000D03*
X80250000Y-105250000D03*
%TD*%
%TO.C,D17*%
X70750000Y-82250000D03*
X70750000Y-85750000D03*
%TD*%
%TO.C,D16*%
X69342000Y-60480000D03*
X69342000Y-63980000D03*
%TD*%
%TO.C,D15*%
X75500000Y-44750000D03*
X75500000Y-48250000D03*
%TD*%
%TO.C,D14*%
X79375000Y-13110000D03*
X79375000Y-16610000D03*
%TD*%
%TO.C,D13*%
X61250000Y-101750000D03*
X61250000Y-105250000D03*
%TD*%
%TO.C,D12*%
X51750000Y-82250000D03*
X51750000Y-85750000D03*
%TD*%
%TO.C,D11*%
X50546000Y-60480000D03*
X50546000Y-63980000D03*
%TD*%
%TO.C,D10*%
X56500000Y-44750000D03*
X56500000Y-48250000D03*
%TD*%
%TO.C,D9*%
X60310000Y-13110000D03*
X60310000Y-16610000D03*
%TD*%
D24*
%TO.C,D8*%
X48000000Y-119500000D03*
X51500000Y-119500000D03*
%TD*%
D25*
%TO.C,D7*%
X30250000Y-101750000D03*
X30250000Y-105250000D03*
%TD*%
%TO.C,D6*%
X37500000Y-44750000D03*
X37500000Y-48250000D03*
%TD*%
D24*
%TO.C,D5*%
X24350001Y-119500000D03*
X27850001Y-119500000D03*
%TD*%
D25*
%TO.C,D4*%
X25500000Y-82250000D03*
X25500000Y-85750000D03*
%TD*%
%TO.C,D3*%
X27051000Y-60480000D03*
X27051000Y-63980000D03*
%TD*%
%TO.C,D2*%
X18500000Y-44750000D03*
X18500000Y-48250000D03*
%TD*%
%TO.C,D1*%
X23876000Y-12164000D03*
X23876000Y-8664000D03*
%TD*%
D26*
%TO.C,D124*%
X68712500Y-71712000D03*
X69412500Y-70950000D03*
X68712500Y-70250000D03*
%TD*%
%TO.C,D220*%
X313964550Y-72962000D03*
X314664550Y-72200000D03*
X313964550Y-71500000D03*
%TD*%
%TO.C,D219*%
X406850000Y-5037000D03*
X407550000Y-4275000D03*
X406850000Y-3575000D03*
%TD*%
%TO.C,D218*%
X344937500Y-109812000D03*
X345637500Y-109050000D03*
X344937500Y-108350000D03*
%TD*%
%TO.C,D217*%
X300900000Y-71438000D03*
X300200000Y-72200000D03*
X300900000Y-72900000D03*
%TD*%
%TO.C,D216*%
X324809699Y-72962000D03*
X325509699Y-72200000D03*
X324809699Y-71500000D03*
%TD*%
%TO.C,D215*%
X387800000Y-5037000D03*
X388500000Y-4275000D03*
X387800000Y-3575000D03*
%TD*%
%TO.C,D214*%
X325887500Y-109812000D03*
X326587500Y-109050000D03*
X325887500Y-108350000D03*
%TD*%
%TO.C,D213*%
X325887500Y-90762000D03*
X326587500Y-90000000D03*
X325887500Y-89300000D03*
%TD*%
%TO.C,D212*%
X335654848Y-72962000D03*
X336354848Y-72200000D03*
X335654848Y-71500000D03*
%TD*%
%TO.C,D211*%
X368750000Y-5037000D03*
X369450000Y-4275000D03*
X368750000Y-3575000D03*
%TD*%
%TO.C,D210*%
X306837500Y-109812000D03*
X307537500Y-109050000D03*
X306837500Y-108350000D03*
%TD*%
%TO.C,D209*%
X266356250Y-90762000D03*
X267056250Y-90000000D03*
X266356250Y-89300000D03*
%TD*%
%TO.C,D208*%
X346500000Y-72962000D03*
X347200000Y-72200000D03*
X346500000Y-71500000D03*
%TD*%
%TO.C,D207*%
X368750000Y-33612000D03*
X369450000Y-32850000D03*
X368750000Y-32150000D03*
%TD*%
%TO.C,D206*%
X280643750Y-109812000D03*
X281343750Y-109050000D03*
X280643750Y-108350000D03*
%TD*%
%TO.C,D205*%
X230637500Y-90762000D03*
X231337500Y-90000000D03*
X230637500Y-89300000D03*
%TD*%
%TO.C,D204*%
X425900000Y-33612000D03*
X426600000Y-32850000D03*
X425900000Y-32150000D03*
%TD*%
%TO.C,D203*%
X387800000Y-33612000D03*
X388500000Y-32850000D03*
X387800000Y-32150000D03*
%TD*%
%TO.C,D202*%
X256831250Y-109812000D03*
X257531250Y-109050000D03*
X256831250Y-108350000D03*
%TD*%
%TO.C,D201*%
X211587500Y-90762000D03*
X212287500Y-90000000D03*
X211587500Y-89300000D03*
%TD*%
%TO.C,D200*%
X378275000Y-109812000D03*
X378975000Y-109050000D03*
X378275000Y-108350000D03*
%TD*%
%TO.C,D199*%
X368750000Y-52662000D03*
X369450000Y-51900000D03*
X368750000Y-51200000D03*
%TD*%
%TO.C,D198*%
X233018750Y-109812000D03*
X233718750Y-109050000D03*
X233018750Y-108350000D03*
%TD*%
%TO.C,D197*%
X192537500Y-90762000D03*
X193237500Y-90000000D03*
X192537500Y-89300000D03*
%TD*%
%TO.C,D196*%
X425900000Y-62187000D03*
X426600000Y-61425000D03*
X425900000Y-60725000D03*
%TD*%
%TO.C,D195*%
X406850000Y-52662000D03*
X407550000Y-51900000D03*
X406850000Y-51200000D03*
%TD*%
%TO.C,D194*%
X209206250Y-109812000D03*
X209906250Y-109050000D03*
X209206250Y-108350000D03*
%TD*%
%TO.C,D193*%
X173487500Y-90762000D03*
X174187500Y-90000000D03*
X173487500Y-89300000D03*
%TD*%
%TO.C,D192*%
X425900000Y-100287000D03*
X426600000Y-99525000D03*
X425900000Y-98825000D03*
%TD*%
%TO.C,D191*%
X387800000Y-52662000D03*
X388500000Y-51900000D03*
X387800000Y-51200000D03*
%TD*%
%TO.C,D190*%
X137768750Y-109812000D03*
X138468750Y-109050000D03*
X137768750Y-108350000D03*
%TD*%
%TO.C,D189*%
X154437500Y-90762000D03*
X155137500Y-90000000D03*
X154437500Y-89300000D03*
%TD*%
%TO.C,D188*%
X406850000Y-109812000D03*
X407550000Y-109050000D03*
X406850000Y-108350000D03*
%TD*%
%TO.C,D187*%
X406850000Y-33612000D03*
X407550000Y-32850000D03*
X406850000Y-32150000D03*
%TD*%
%TO.C,D186*%
X116337500Y-90762000D03*
X117037500Y-90000000D03*
X116337500Y-89300000D03*
%TD*%
%TO.C,D185*%
X135387500Y-90762000D03*
X136087500Y-90000000D03*
X135387500Y-89300000D03*
%TD*%
%TO.C,D184*%
X406850000Y-90762000D03*
X407550000Y-90000000D03*
X406850000Y-89300000D03*
%TD*%
%TO.C,D183*%
X406850000Y-71712000D03*
X407550000Y-70950000D03*
X406850000Y-70250000D03*
%TD*%
%TO.C,D182*%
X66331250Y-109812000D03*
X67031250Y-109050000D03*
X66331250Y-108350000D03*
%TD*%
%TO.C,D181*%
X97287500Y-90762000D03*
X97987500Y-90000000D03*
X97287500Y-89300000D03*
%TD*%
%TO.C,D180*%
X387800000Y-90762000D03*
X388500000Y-90000000D03*
X387800000Y-89300000D03*
%TD*%
%TO.C,D179*%
X387800000Y-71712000D03*
X388500000Y-70950000D03*
X387800000Y-70250000D03*
%TD*%
%TO.C,D178*%
X42518750Y-109812000D03*
X43218750Y-109050000D03*
X42518750Y-108350000D03*
%TD*%
%TO.C,D177*%
X78237500Y-90762000D03*
X78937500Y-90000000D03*
X78237500Y-89300000D03*
%TD*%
%TO.C,D176*%
X368750000Y-90762000D03*
X369450000Y-90000000D03*
X368750000Y-89300000D03*
%TD*%
%TO.C,D175*%
X368750000Y-71712000D03*
X369450000Y-70950000D03*
X368750000Y-70250000D03*
%TD*%
%TO.C,D174*%
X18706250Y-109812000D03*
X19406250Y-109050000D03*
X18706250Y-108350000D03*
%TD*%
%TO.C,D173*%
X59187500Y-90762000D03*
X59887500Y-90000000D03*
X59187500Y-89300000D03*
%TD*%
%TO.C,D172*%
X344937500Y-33612000D03*
X345637500Y-32850000D03*
X344937500Y-32150000D03*
%TD*%
%TO.C,D171*%
X325887500Y-52662000D03*
X326587500Y-51900000D03*
X325887500Y-51200000D03*
%TD*%
%TO.C,D170*%
X325887500Y-33612000D03*
X326587500Y-32850000D03*
X325887500Y-32150000D03*
%TD*%
%TO.C,D169*%
X344937500Y-5037000D03*
X345637500Y-4275000D03*
X344937500Y-3575000D03*
%TD*%
%TO.C,D168*%
X344937500Y-52662000D03*
X345637500Y-51900000D03*
X344937500Y-51200000D03*
%TD*%
%TO.C,D167*%
X306837500Y-52662000D03*
X307537500Y-51900000D03*
X306837500Y-51200000D03*
%TD*%
%TO.C,D166*%
X306837500Y-33612000D03*
X307537500Y-32850000D03*
X306837500Y-32150000D03*
%TD*%
%TO.C,D165*%
X325887500Y-5037000D03*
X326587500Y-4275000D03*
X325887500Y-3575000D03*
%TD*%
%TO.C,D164*%
X271118750Y-71712000D03*
X271818750Y-70950000D03*
X271118750Y-70250000D03*
%TD*%
%TO.C,D163*%
X278262500Y-52662000D03*
X278962500Y-51900000D03*
X278262500Y-51200000D03*
%TD*%
%TO.C,D162*%
X273500000Y-33612000D03*
X274200000Y-32850000D03*
X273500000Y-32150000D03*
%TD*%
%TO.C,D161*%
X306837500Y-5037000D03*
X307537500Y-4275000D03*
X306837500Y-3575000D03*
%TD*%
%TO.C,D160*%
X240162500Y-71712000D03*
X240862500Y-70950000D03*
X240162500Y-70250000D03*
%TD*%
%TO.C,D159*%
X254450000Y-52662000D03*
X255150000Y-51900000D03*
X254450000Y-51200000D03*
%TD*%
%TO.C,D158*%
X244925000Y-33612000D03*
X245625000Y-32850000D03*
X244925000Y-32150000D03*
%TD*%
%TO.C,D157*%
X283025000Y-5037000D03*
X283725000Y-4275000D03*
X283025000Y-3575000D03*
%TD*%
%TO.C,D156*%
X221112500Y-71712000D03*
X221812500Y-70950000D03*
X221112500Y-70250000D03*
%TD*%
%TO.C,D155*%
X235400000Y-52662000D03*
X236100000Y-51900000D03*
X235400000Y-51200000D03*
%TD*%
%TO.C,D154*%
X225875000Y-33612000D03*
X226575000Y-32850000D03*
X225875000Y-32150000D03*
%TD*%
%TO.C,D153*%
X263975000Y-5037000D03*
X264675000Y-4275000D03*
X263975000Y-3575000D03*
%TD*%
%TO.C,D152*%
X202062500Y-71712000D03*
X202762500Y-70950000D03*
X202062500Y-70250000D03*
%TD*%
%TO.C,D151*%
X216350000Y-52662000D03*
X217050000Y-51900000D03*
X216350000Y-51200000D03*
%TD*%
%TO.C,D150*%
X206825000Y-33612000D03*
X207525000Y-32850000D03*
X206825000Y-32150000D03*
%TD*%
%TO.C,D149*%
X244925000Y-5037000D03*
X245625000Y-4275000D03*
X244925000Y-3575000D03*
%TD*%
%TO.C,D148*%
X183012500Y-71712000D03*
X183712500Y-70950000D03*
X183012500Y-70250000D03*
%TD*%
%TO.C,D147*%
X197300000Y-52662000D03*
X198000000Y-51900000D03*
X197300000Y-51200000D03*
%TD*%
%TO.C,D146*%
X187775000Y-33612000D03*
X188475000Y-32850000D03*
X187775000Y-32150000D03*
%TD*%
%TO.C,D145*%
X225875000Y-5037000D03*
X226575000Y-4275000D03*
X225875000Y-3575000D03*
%TD*%
%TO.C,D144*%
X163962500Y-71712000D03*
X164662500Y-70950000D03*
X163962500Y-70250000D03*
%TD*%
%TO.C,D143*%
X178250000Y-52662000D03*
X178950000Y-51900000D03*
X178250000Y-51200000D03*
%TD*%
%TO.C,D142*%
X168725000Y-33612000D03*
X169425000Y-32850000D03*
X168725000Y-32150000D03*
%TD*%
%TO.C,D141*%
X197300000Y-5037000D03*
X198000000Y-4275000D03*
X197300000Y-3575000D03*
%TD*%
%TO.C,D140*%
X144912500Y-71712000D03*
X145612500Y-70950000D03*
X144912500Y-70250000D03*
%TD*%
%TO.C,D139*%
X159200000Y-52662000D03*
X159900000Y-51900000D03*
X159200000Y-51200000D03*
%TD*%
%TO.C,D138*%
X149675000Y-33612000D03*
X150375000Y-32850000D03*
X149675000Y-32150000D03*
%TD*%
%TO.C,D137*%
X178250000Y-5037000D03*
X178950000Y-4275000D03*
X178250000Y-3575000D03*
%TD*%
%TO.C,D136*%
X125862500Y-71712000D03*
X126562500Y-70950000D03*
X125862500Y-70250000D03*
%TD*%
%TO.C,D135*%
X140150000Y-52662000D03*
X140850000Y-51900000D03*
X140150000Y-51200000D03*
%TD*%
%TO.C,D134*%
X130625000Y-33612000D03*
X131325000Y-32850000D03*
X130625000Y-32150000D03*
%TD*%
%TO.C,D133*%
X159200000Y-5037000D03*
X159900000Y-4275000D03*
X159200000Y-3575000D03*
%TD*%
%TO.C,D132*%
X106812500Y-71712000D03*
X107512500Y-70950000D03*
X106812500Y-70250000D03*
%TD*%
%TO.C,D131*%
X121100000Y-52662000D03*
X121800000Y-51900000D03*
X121100000Y-51200000D03*
%TD*%
%TO.C,D130*%
X111575000Y-33612000D03*
X112275000Y-32850000D03*
X111575000Y-32150000D03*
%TD*%
%TO.C,D129*%
X140150000Y-5037000D03*
X140850000Y-4275000D03*
X140150000Y-3575000D03*
%TD*%
%TO.C,D128*%
X87762500Y-71712000D03*
X88462500Y-70950000D03*
X87762500Y-70250000D03*
%TD*%
%TO.C,D127*%
X102050000Y-52662000D03*
X102750000Y-51900000D03*
X102050000Y-51200000D03*
%TD*%
%TO.C,D126*%
X92525000Y-33612000D03*
X93225000Y-32850000D03*
X92525000Y-32150000D03*
%TD*%
%TO.C,D125*%
X111575000Y-5037000D03*
X112275000Y-4275000D03*
X111575000Y-3575000D03*
%TD*%
%TO.C,D123*%
X83000000Y-52662000D03*
X83700000Y-51900000D03*
X83000000Y-51200000D03*
%TD*%
%TO.C,D122*%
X73475000Y-33612000D03*
X74175000Y-32850000D03*
X73475000Y-32150000D03*
%TD*%
%TO.C,D121*%
X92525000Y-5037000D03*
X93225000Y-4275000D03*
X92525000Y-3575000D03*
%TD*%
%TO.C,D120*%
X49662500Y-71712000D03*
X50362500Y-70950000D03*
X49662500Y-70250000D03*
%TD*%
%TO.C,D119*%
X63950000Y-52662000D03*
X64650000Y-51900000D03*
X63950000Y-51200000D03*
%TD*%
%TO.C,D118*%
X54425000Y-33612000D03*
X55125000Y-32850000D03*
X54425000Y-32150000D03*
%TD*%
%TO.C,D117*%
X73475000Y-5037000D03*
X74175000Y-4275000D03*
X73475000Y-3575000D03*
%TD*%
%TO.C,D116*%
X28231250Y-90762000D03*
X28931250Y-90000000D03*
X28231250Y-89300000D03*
%TD*%
%TO.C,D115*%
X44900000Y-52662000D03*
X45600000Y-51900000D03*
X44900000Y-51200000D03*
%TD*%
%TO.C,D114*%
X35375000Y-33612000D03*
X36075000Y-32850000D03*
X35375000Y-32150000D03*
%TD*%
%TO.C,D113*%
X54425000Y-5037000D03*
X55125000Y-4275000D03*
X54425000Y-3575000D03*
%TD*%
%TO.C,D112*%
X23468750Y-71712000D03*
X24168750Y-70950000D03*
X23468750Y-70250000D03*
%TD*%
%TO.C,D111*%
X21087500Y-52662000D03*
X21787500Y-51900000D03*
X21087500Y-51200000D03*
%TD*%
%TO.C,D110*%
X16325000Y-33612000D03*
X17025000Y-32850000D03*
X16325000Y-32150000D03*
%TD*%
%TO.C,D109*%
X16325000Y-5037000D03*
X17025000Y-4275000D03*
X16325000Y-3575000D03*
%TD*%
D27*
%TO.C,SW77*%
X308847500Y-59690000D03*
X302497500Y-62230000D03*
D28*
X305037500Y-57150000D03*
D29*
X310117500Y-57150000D03*
X299957500Y-57150000D03*
%TD*%
%TO.C,F1*%
G36*
G01*
X364630000Y-6790000D02*
X364630000Y-4640000D01*
G75*
G02*
X364880000Y-4390000I250000J0D01*
G01*
X365630000Y-4390000D01*
G75*
G02*
X365880000Y-4640000I0J-250000D01*
G01*
X365880000Y-6790000D01*
G75*
G02*
X365630000Y-7040000I-250000J0D01*
G01*
X364880000Y-7040000D01*
G75*
G02*
X364630000Y-6790000I0J250000D01*
G01*
G37*
G36*
G01*
X361830000Y-6790000D02*
X361830000Y-4640000D01*
G75*
G02*
X362080000Y-4390000I250000J0D01*
G01*
X362830000Y-4390000D01*
G75*
G02*
X363080000Y-4640000I0J-250000D01*
G01*
X363080000Y-6790000D01*
G75*
G02*
X362830000Y-7040000I-250000J0D01*
G01*
X362080000Y-7040000D01*
G75*
G02*
X361830000Y-6790000I0J250000D01*
G01*
G37*
%TD*%
D30*
%TO.C,J2*%
X321056000Y-29210000D03*
X318516000Y-29210000D03*
X315976000Y-29210000D03*
X313436000Y-29210000D03*
D31*
X310896000Y-29210000D03*
%TD*%
%TO.C,U3*%
G36*
G01*
X353214910Y-17880478D02*
X354204860Y-18870428D01*
G75*
G02*
X354204860Y-18976494I-53033J-53033D01*
G01*
X354098794Y-19082560D01*
G75*
G02*
X353992728Y-19082560I-53033J53033D01*
G01*
X353002778Y-18092610D01*
G75*
G02*
X353002778Y-17986544I53033J53033D01*
G01*
X353108844Y-17880478D01*
G75*
G02*
X353214910Y-17880478I53033J-53033D01*
G01*
G37*
G36*
G01*
X352861357Y-18234031D02*
X353851307Y-19223981D01*
G75*
G02*
X353851307Y-19330047I-53033J-53033D01*
G01*
X353745241Y-19436113D01*
G75*
G02*
X353639175Y-19436113I-53033J53033D01*
G01*
X352649225Y-18446163D01*
G75*
G02*
X352649225Y-18340097I53033J53033D01*
G01*
X352755291Y-18234031D01*
G75*
G02*
X352861357Y-18234031I53033J-53033D01*
G01*
G37*
G36*
G01*
X352507804Y-18587584D02*
X353497754Y-19577534D01*
G75*
G02*
X353497754Y-19683600I-53033J-53033D01*
G01*
X353391688Y-19789666D01*
G75*
G02*
X353285622Y-19789666I-53033J53033D01*
G01*
X352295672Y-18799716D01*
G75*
G02*
X352295672Y-18693650I53033J53033D01*
G01*
X352401738Y-18587584D01*
G75*
G02*
X352507804Y-18587584I53033J-53033D01*
G01*
G37*
G36*
G01*
X352154250Y-18941138D02*
X353144200Y-19931088D01*
G75*
G02*
X353144200Y-20037154I-53033J-53033D01*
G01*
X353038134Y-20143220D01*
G75*
G02*
X352932068Y-20143220I-53033J53033D01*
G01*
X351942118Y-19153270D01*
G75*
G02*
X351942118Y-19047204I53033J53033D01*
G01*
X352048184Y-18941138D01*
G75*
G02*
X352154250Y-18941138I53033J-53033D01*
G01*
G37*
G36*
G01*
X351800697Y-19294691D02*
X352790647Y-20284641D01*
G75*
G02*
X352790647Y-20390707I-53033J-53033D01*
G01*
X352684581Y-20496773D01*
G75*
G02*
X352578515Y-20496773I-53033J53033D01*
G01*
X351588565Y-19506823D01*
G75*
G02*
X351588565Y-19400757I53033J53033D01*
G01*
X351694631Y-19294691D01*
G75*
G02*
X351800697Y-19294691I53033J-53033D01*
G01*
G37*
G36*
G01*
X351447143Y-19648245D02*
X352437093Y-20638195D01*
G75*
G02*
X352437093Y-20744261I-53033J-53033D01*
G01*
X352331027Y-20850327D01*
G75*
G02*
X352224961Y-20850327I-53033J53033D01*
G01*
X351235011Y-19860377D01*
G75*
G02*
X351235011Y-19754311I53033J53033D01*
G01*
X351341077Y-19648245D01*
G75*
G02*
X351447143Y-19648245I53033J-53033D01*
G01*
G37*
G36*
G01*
X351093590Y-20001798D02*
X352083540Y-20991748D01*
G75*
G02*
X352083540Y-21097814I-53033J-53033D01*
G01*
X351977474Y-21203880D01*
G75*
G02*
X351871408Y-21203880I-53033J53033D01*
G01*
X350881458Y-20213930D01*
G75*
G02*
X350881458Y-20107864I53033J53033D01*
G01*
X350987524Y-20001798D01*
G75*
G02*
X351093590Y-20001798I53033J-53033D01*
G01*
G37*
G36*
G01*
X350740037Y-20355351D02*
X351729987Y-21345301D01*
G75*
G02*
X351729987Y-21451367I-53033J-53033D01*
G01*
X351623921Y-21557433D01*
G75*
G02*
X351517855Y-21557433I-53033J53033D01*
G01*
X350527905Y-20567483D01*
G75*
G02*
X350527905Y-20461417I53033J53033D01*
G01*
X350633971Y-20355351D01*
G75*
G02*
X350740037Y-20355351I53033J-53033D01*
G01*
G37*
G36*
G01*
X350386483Y-20708905D02*
X351376433Y-21698855D01*
G75*
G02*
X351376433Y-21804921I-53033J-53033D01*
G01*
X351270367Y-21910987D01*
G75*
G02*
X351164301Y-21910987I-53033J53033D01*
G01*
X350174351Y-20921037D01*
G75*
G02*
X350174351Y-20814971I53033J53033D01*
G01*
X350280417Y-20708905D01*
G75*
G02*
X350386483Y-20708905I53033J-53033D01*
G01*
G37*
G36*
G01*
X350032930Y-21062458D02*
X351022880Y-22052408D01*
G75*
G02*
X351022880Y-22158474I-53033J-53033D01*
G01*
X350916814Y-22264540D01*
G75*
G02*
X350810748Y-22264540I-53033J53033D01*
G01*
X349820798Y-21274590D01*
G75*
G02*
X349820798Y-21168524I53033J53033D01*
G01*
X349926864Y-21062458D01*
G75*
G02*
X350032930Y-21062458I53033J-53033D01*
G01*
G37*
G36*
G01*
X349679377Y-21416011D02*
X350669327Y-22405961D01*
G75*
G02*
X350669327Y-22512027I-53033J-53033D01*
G01*
X350563261Y-22618093D01*
G75*
G02*
X350457195Y-22618093I-53033J53033D01*
G01*
X349467245Y-21628143D01*
G75*
G02*
X349467245Y-21522077I53033J53033D01*
G01*
X349573311Y-21416011D01*
G75*
G02*
X349679377Y-21416011I53033J-53033D01*
G01*
G37*
G36*
G01*
X349325823Y-21769565D02*
X350315773Y-22759515D01*
G75*
G02*
X350315773Y-22865581I-53033J-53033D01*
G01*
X350209707Y-22971647D01*
G75*
G02*
X350103641Y-22971647I-53033J53033D01*
G01*
X349113691Y-21981697D01*
G75*
G02*
X349113691Y-21875631I53033J53033D01*
G01*
X349219757Y-21769565D01*
G75*
G02*
X349325823Y-21769565I53033J-53033D01*
G01*
G37*
G36*
G01*
X348972270Y-22123118D02*
X349962220Y-23113068D01*
G75*
G02*
X349962220Y-23219134I-53033J-53033D01*
G01*
X349856154Y-23325200D01*
G75*
G02*
X349750088Y-23325200I-53033J53033D01*
G01*
X348760138Y-22335250D01*
G75*
G02*
X348760138Y-22229184I53033J53033D01*
G01*
X348866204Y-22123118D01*
G75*
G02*
X348972270Y-22123118I53033J-53033D01*
G01*
G37*
G36*
G01*
X348618716Y-22476672D02*
X349608666Y-23466622D01*
G75*
G02*
X349608666Y-23572688I-53033J-53033D01*
G01*
X349502600Y-23678754D01*
G75*
G02*
X349396534Y-23678754I-53033J53033D01*
G01*
X348406584Y-22688804D01*
G75*
G02*
X348406584Y-22582738I53033J53033D01*
G01*
X348512650Y-22476672D01*
G75*
G02*
X348618716Y-22476672I53033J-53033D01*
G01*
G37*
G36*
G01*
X348265163Y-22830225D02*
X349255113Y-23820175D01*
G75*
G02*
X349255113Y-23926241I-53033J-53033D01*
G01*
X349149047Y-24032307D01*
G75*
G02*
X349042981Y-24032307I-53033J53033D01*
G01*
X348053031Y-23042357D01*
G75*
G02*
X348053031Y-22936291I53033J53033D01*
G01*
X348159097Y-22830225D01*
G75*
G02*
X348265163Y-22830225I53033J-53033D01*
G01*
G37*
G36*
G01*
X347911610Y-23183778D02*
X348901560Y-24173728D01*
G75*
G02*
X348901560Y-24279794I-53033J-53033D01*
G01*
X348795494Y-24385860D01*
G75*
G02*
X348689428Y-24385860I-53033J53033D01*
G01*
X347699478Y-23395910D01*
G75*
G02*
X347699478Y-23289844I53033J53033D01*
G01*
X347805544Y-23183778D01*
G75*
G02*
X347911610Y-23183778I53033J-53033D01*
G01*
G37*
G36*
G01*
X348795494Y-25906140D02*
X348901560Y-26012206D01*
G75*
G02*
X348901560Y-26118272I-53033J-53033D01*
G01*
X347911610Y-27108222D01*
G75*
G02*
X347805544Y-27108222I-53033J53033D01*
G01*
X347699478Y-27002156D01*
G75*
G02*
X347699478Y-26896090I53033J53033D01*
G01*
X348689428Y-25906140D01*
G75*
G02*
X348795494Y-25906140I53033J-53033D01*
G01*
G37*
G36*
G01*
X349149047Y-26259693D02*
X349255113Y-26365759D01*
G75*
G02*
X349255113Y-26471825I-53033J-53033D01*
G01*
X348265163Y-27461775D01*
G75*
G02*
X348159097Y-27461775I-53033J53033D01*
G01*
X348053031Y-27355709D01*
G75*
G02*
X348053031Y-27249643I53033J53033D01*
G01*
X349042981Y-26259693D01*
G75*
G02*
X349149047Y-26259693I53033J-53033D01*
G01*
G37*
G36*
G01*
X349502600Y-26613246D02*
X349608666Y-26719312D01*
G75*
G02*
X349608666Y-26825378I-53033J-53033D01*
G01*
X348618716Y-27815328D01*
G75*
G02*
X348512650Y-27815328I-53033J53033D01*
G01*
X348406584Y-27709262D01*
G75*
G02*
X348406584Y-27603196I53033J53033D01*
G01*
X349396534Y-26613246D01*
G75*
G02*
X349502600Y-26613246I53033J-53033D01*
G01*
G37*
G36*
G01*
X349856154Y-26966800D02*
X349962220Y-27072866D01*
G75*
G02*
X349962220Y-27178932I-53033J-53033D01*
G01*
X348972270Y-28168882D01*
G75*
G02*
X348866204Y-28168882I-53033J53033D01*
G01*
X348760138Y-28062816D01*
G75*
G02*
X348760138Y-27956750I53033J53033D01*
G01*
X349750088Y-26966800D01*
G75*
G02*
X349856154Y-26966800I53033J-53033D01*
G01*
G37*
G36*
G01*
X350209707Y-27320353D02*
X350315773Y-27426419D01*
G75*
G02*
X350315773Y-27532485I-53033J-53033D01*
G01*
X349325823Y-28522435D01*
G75*
G02*
X349219757Y-28522435I-53033J53033D01*
G01*
X349113691Y-28416369D01*
G75*
G02*
X349113691Y-28310303I53033J53033D01*
G01*
X350103641Y-27320353D01*
G75*
G02*
X350209707Y-27320353I53033J-53033D01*
G01*
G37*
G36*
G01*
X350563261Y-27673907D02*
X350669327Y-27779973D01*
G75*
G02*
X350669327Y-27886039I-53033J-53033D01*
G01*
X349679377Y-28875989D01*
G75*
G02*
X349573311Y-28875989I-53033J53033D01*
G01*
X349467245Y-28769923D01*
G75*
G02*
X349467245Y-28663857I53033J53033D01*
G01*
X350457195Y-27673907D01*
G75*
G02*
X350563261Y-27673907I53033J-53033D01*
G01*
G37*
G36*
G01*
X350916814Y-28027460D02*
X351022880Y-28133526D01*
G75*
G02*
X351022880Y-28239592I-53033J-53033D01*
G01*
X350032930Y-29229542D01*
G75*
G02*
X349926864Y-29229542I-53033J53033D01*
G01*
X349820798Y-29123476D01*
G75*
G02*
X349820798Y-29017410I53033J53033D01*
G01*
X350810748Y-28027460D01*
G75*
G02*
X350916814Y-28027460I53033J-53033D01*
G01*
G37*
G36*
G01*
X351270367Y-28381013D02*
X351376433Y-28487079D01*
G75*
G02*
X351376433Y-28593145I-53033J-53033D01*
G01*
X350386483Y-29583095D01*
G75*
G02*
X350280417Y-29583095I-53033J53033D01*
G01*
X350174351Y-29477029D01*
G75*
G02*
X350174351Y-29370963I53033J53033D01*
G01*
X351164301Y-28381013D01*
G75*
G02*
X351270367Y-28381013I53033J-53033D01*
G01*
G37*
G36*
G01*
X351623921Y-28734567D02*
X351729987Y-28840633D01*
G75*
G02*
X351729987Y-28946699I-53033J-53033D01*
G01*
X350740037Y-29936649D01*
G75*
G02*
X350633971Y-29936649I-53033J53033D01*
G01*
X350527905Y-29830583D01*
G75*
G02*
X350527905Y-29724517I53033J53033D01*
G01*
X351517855Y-28734567D01*
G75*
G02*
X351623921Y-28734567I53033J-53033D01*
G01*
G37*
G36*
G01*
X351977474Y-29088120D02*
X352083540Y-29194186D01*
G75*
G02*
X352083540Y-29300252I-53033J-53033D01*
G01*
X351093590Y-30290202D01*
G75*
G02*
X350987524Y-30290202I-53033J53033D01*
G01*
X350881458Y-30184136D01*
G75*
G02*
X350881458Y-30078070I53033J53033D01*
G01*
X351871408Y-29088120D01*
G75*
G02*
X351977474Y-29088120I53033J-53033D01*
G01*
G37*
G36*
G01*
X352331027Y-29441673D02*
X352437093Y-29547739D01*
G75*
G02*
X352437093Y-29653805I-53033J-53033D01*
G01*
X351447143Y-30643755D01*
G75*
G02*
X351341077Y-30643755I-53033J53033D01*
G01*
X351235011Y-30537689D01*
G75*
G02*
X351235011Y-30431623I53033J53033D01*
G01*
X352224961Y-29441673D01*
G75*
G02*
X352331027Y-29441673I53033J-53033D01*
G01*
G37*
G36*
G01*
X352684581Y-29795227D02*
X352790647Y-29901293D01*
G75*
G02*
X352790647Y-30007359I-53033J-53033D01*
G01*
X351800697Y-30997309D01*
G75*
G02*
X351694631Y-30997309I-53033J53033D01*
G01*
X351588565Y-30891243D01*
G75*
G02*
X351588565Y-30785177I53033J53033D01*
G01*
X352578515Y-29795227D01*
G75*
G02*
X352684581Y-29795227I53033J-53033D01*
G01*
G37*
G36*
G01*
X353038134Y-30148780D02*
X353144200Y-30254846D01*
G75*
G02*
X353144200Y-30360912I-53033J-53033D01*
G01*
X352154250Y-31350862D01*
G75*
G02*
X352048184Y-31350862I-53033J53033D01*
G01*
X351942118Y-31244796D01*
G75*
G02*
X351942118Y-31138730I53033J53033D01*
G01*
X352932068Y-30148780D01*
G75*
G02*
X353038134Y-30148780I53033J-53033D01*
G01*
G37*
G36*
G01*
X353391688Y-30502334D02*
X353497754Y-30608400D01*
G75*
G02*
X353497754Y-30714466I-53033J-53033D01*
G01*
X352507804Y-31704416D01*
G75*
G02*
X352401738Y-31704416I-53033J53033D01*
G01*
X352295672Y-31598350D01*
G75*
G02*
X352295672Y-31492284I53033J53033D01*
G01*
X353285622Y-30502334D01*
G75*
G02*
X353391688Y-30502334I53033J-53033D01*
G01*
G37*
G36*
G01*
X353745241Y-30855887D02*
X353851307Y-30961953D01*
G75*
G02*
X353851307Y-31068019I-53033J-53033D01*
G01*
X352861357Y-32057969D01*
G75*
G02*
X352755291Y-32057969I-53033J53033D01*
G01*
X352649225Y-31951903D01*
G75*
G02*
X352649225Y-31845837I53033J53033D01*
G01*
X353639175Y-30855887D01*
G75*
G02*
X353745241Y-30855887I53033J-53033D01*
G01*
G37*
G36*
G01*
X354098794Y-31209440D02*
X354204860Y-31315506D01*
G75*
G02*
X354204860Y-31421572I-53033J-53033D01*
G01*
X353214910Y-32411522D01*
G75*
G02*
X353108844Y-32411522I-53033J53033D01*
G01*
X353002778Y-32305456D01*
G75*
G02*
X353002778Y-32199390I53033J53033D01*
G01*
X353992728Y-31209440D01*
G75*
G02*
X354098794Y-31209440I53033J-53033D01*
G01*
G37*
G36*
G01*
X355937272Y-31209440D02*
X356927222Y-32199390D01*
G75*
G02*
X356927222Y-32305456I-53033J-53033D01*
G01*
X356821156Y-32411522D01*
G75*
G02*
X356715090Y-32411522I-53033J53033D01*
G01*
X355725140Y-31421572D01*
G75*
G02*
X355725140Y-31315506I53033J53033D01*
G01*
X355831206Y-31209440D01*
G75*
G02*
X355937272Y-31209440I53033J-53033D01*
G01*
G37*
G36*
G01*
X356290825Y-30855887D02*
X357280775Y-31845837D01*
G75*
G02*
X357280775Y-31951903I-53033J-53033D01*
G01*
X357174709Y-32057969D01*
G75*
G02*
X357068643Y-32057969I-53033J53033D01*
G01*
X356078693Y-31068019D01*
G75*
G02*
X356078693Y-30961953I53033J53033D01*
G01*
X356184759Y-30855887D01*
G75*
G02*
X356290825Y-30855887I53033J-53033D01*
G01*
G37*
G36*
G01*
X356644378Y-30502334D02*
X357634328Y-31492284D01*
G75*
G02*
X357634328Y-31598350I-53033J-53033D01*
G01*
X357528262Y-31704416D01*
G75*
G02*
X357422196Y-31704416I-53033J53033D01*
G01*
X356432246Y-30714466D01*
G75*
G02*
X356432246Y-30608400I53033J53033D01*
G01*
X356538312Y-30502334D01*
G75*
G02*
X356644378Y-30502334I53033J-53033D01*
G01*
G37*
G36*
G01*
X356997932Y-30148780D02*
X357987882Y-31138730D01*
G75*
G02*
X357987882Y-31244796I-53033J-53033D01*
G01*
X357881816Y-31350862D01*
G75*
G02*
X357775750Y-31350862I-53033J53033D01*
G01*
X356785800Y-30360912D01*
G75*
G02*
X356785800Y-30254846I53033J53033D01*
G01*
X356891866Y-30148780D01*
G75*
G02*
X356997932Y-30148780I53033J-53033D01*
G01*
G37*
G36*
G01*
X357351485Y-29795227D02*
X358341435Y-30785177D01*
G75*
G02*
X358341435Y-30891243I-53033J-53033D01*
G01*
X358235369Y-30997309D01*
G75*
G02*
X358129303Y-30997309I-53033J53033D01*
G01*
X357139353Y-30007359D01*
G75*
G02*
X357139353Y-29901293I53033J53033D01*
G01*
X357245419Y-29795227D01*
G75*
G02*
X357351485Y-29795227I53033J-53033D01*
G01*
G37*
G36*
G01*
X357705039Y-29441673D02*
X358694989Y-30431623D01*
G75*
G02*
X358694989Y-30537689I-53033J-53033D01*
G01*
X358588923Y-30643755D01*
G75*
G02*
X358482857Y-30643755I-53033J53033D01*
G01*
X357492907Y-29653805D01*
G75*
G02*
X357492907Y-29547739I53033J53033D01*
G01*
X357598973Y-29441673D01*
G75*
G02*
X357705039Y-29441673I53033J-53033D01*
G01*
G37*
G36*
G01*
X358058592Y-29088120D02*
X359048542Y-30078070D01*
G75*
G02*
X359048542Y-30184136I-53033J-53033D01*
G01*
X358942476Y-30290202D01*
G75*
G02*
X358836410Y-30290202I-53033J53033D01*
G01*
X357846460Y-29300252D01*
G75*
G02*
X357846460Y-29194186I53033J53033D01*
G01*
X357952526Y-29088120D01*
G75*
G02*
X358058592Y-29088120I53033J-53033D01*
G01*
G37*
G36*
G01*
X358412145Y-28734567D02*
X359402095Y-29724517D01*
G75*
G02*
X359402095Y-29830583I-53033J-53033D01*
G01*
X359296029Y-29936649D01*
G75*
G02*
X359189963Y-29936649I-53033J53033D01*
G01*
X358200013Y-28946699D01*
G75*
G02*
X358200013Y-28840633I53033J53033D01*
G01*
X358306079Y-28734567D01*
G75*
G02*
X358412145Y-28734567I53033J-53033D01*
G01*
G37*
G36*
G01*
X358765699Y-28381013D02*
X359755649Y-29370963D01*
G75*
G02*
X359755649Y-29477029I-53033J-53033D01*
G01*
X359649583Y-29583095D01*
G75*
G02*
X359543517Y-29583095I-53033J53033D01*
G01*
X358553567Y-28593145D01*
G75*
G02*
X358553567Y-28487079I53033J53033D01*
G01*
X358659633Y-28381013D01*
G75*
G02*
X358765699Y-28381013I53033J-53033D01*
G01*
G37*
G36*
G01*
X359119252Y-28027460D02*
X360109202Y-29017410D01*
G75*
G02*
X360109202Y-29123476I-53033J-53033D01*
G01*
X360003136Y-29229542D01*
G75*
G02*
X359897070Y-29229542I-53033J53033D01*
G01*
X358907120Y-28239592D01*
G75*
G02*
X358907120Y-28133526I53033J53033D01*
G01*
X359013186Y-28027460D01*
G75*
G02*
X359119252Y-28027460I53033J-53033D01*
G01*
G37*
G36*
G01*
X359472805Y-27673907D02*
X360462755Y-28663857D01*
G75*
G02*
X360462755Y-28769923I-53033J-53033D01*
G01*
X360356689Y-28875989D01*
G75*
G02*
X360250623Y-28875989I-53033J53033D01*
G01*
X359260673Y-27886039D01*
G75*
G02*
X359260673Y-27779973I53033J53033D01*
G01*
X359366739Y-27673907D01*
G75*
G02*
X359472805Y-27673907I53033J-53033D01*
G01*
G37*
G36*
G01*
X359826359Y-27320353D02*
X360816309Y-28310303D01*
G75*
G02*
X360816309Y-28416369I-53033J-53033D01*
G01*
X360710243Y-28522435D01*
G75*
G02*
X360604177Y-28522435I-53033J53033D01*
G01*
X359614227Y-27532485D01*
G75*
G02*
X359614227Y-27426419I53033J53033D01*
G01*
X359720293Y-27320353D01*
G75*
G02*
X359826359Y-27320353I53033J-53033D01*
G01*
G37*
G36*
G01*
X360179912Y-26966800D02*
X361169862Y-27956750D01*
G75*
G02*
X361169862Y-28062816I-53033J-53033D01*
G01*
X361063796Y-28168882D01*
G75*
G02*
X360957730Y-28168882I-53033J53033D01*
G01*
X359967780Y-27178932D01*
G75*
G02*
X359967780Y-27072866I53033J53033D01*
G01*
X360073846Y-26966800D01*
G75*
G02*
X360179912Y-26966800I53033J-53033D01*
G01*
G37*
G36*
G01*
X360533466Y-26613246D02*
X361523416Y-27603196D01*
G75*
G02*
X361523416Y-27709262I-53033J-53033D01*
G01*
X361417350Y-27815328D01*
G75*
G02*
X361311284Y-27815328I-53033J53033D01*
G01*
X360321334Y-26825378D01*
G75*
G02*
X360321334Y-26719312I53033J53033D01*
G01*
X360427400Y-26613246D01*
G75*
G02*
X360533466Y-26613246I53033J-53033D01*
G01*
G37*
G36*
G01*
X360887019Y-26259693D02*
X361876969Y-27249643D01*
G75*
G02*
X361876969Y-27355709I-53033J-53033D01*
G01*
X361770903Y-27461775D01*
G75*
G02*
X361664837Y-27461775I-53033J53033D01*
G01*
X360674887Y-26471825D01*
G75*
G02*
X360674887Y-26365759I53033J53033D01*
G01*
X360780953Y-26259693D01*
G75*
G02*
X360887019Y-26259693I53033J-53033D01*
G01*
G37*
G36*
G01*
X361240572Y-25906140D02*
X362230522Y-26896090D01*
G75*
G02*
X362230522Y-27002156I-53033J-53033D01*
G01*
X362124456Y-27108222D01*
G75*
G02*
X362018390Y-27108222I-53033J53033D01*
G01*
X361028440Y-26118272D01*
G75*
G02*
X361028440Y-26012206I53033J53033D01*
G01*
X361134506Y-25906140D01*
G75*
G02*
X361240572Y-25906140I53033J-53033D01*
G01*
G37*
G36*
G01*
X362124456Y-23183778D02*
X362230522Y-23289844D01*
G75*
G02*
X362230522Y-23395910I-53033J-53033D01*
G01*
X361240572Y-24385860D01*
G75*
G02*
X361134506Y-24385860I-53033J53033D01*
G01*
X361028440Y-24279794D01*
G75*
G02*
X361028440Y-24173728I53033J53033D01*
G01*
X362018390Y-23183778D01*
G75*
G02*
X362124456Y-23183778I53033J-53033D01*
G01*
G37*
G36*
G01*
X361770903Y-22830225D02*
X361876969Y-22936291D01*
G75*
G02*
X361876969Y-23042357I-53033J-53033D01*
G01*
X360887019Y-24032307D01*
G75*
G02*
X360780953Y-24032307I-53033J53033D01*
G01*
X360674887Y-23926241D01*
G75*
G02*
X360674887Y-23820175I53033J53033D01*
G01*
X361664837Y-22830225D01*
G75*
G02*
X361770903Y-22830225I53033J-53033D01*
G01*
G37*
G36*
G01*
X361417350Y-22476672D02*
X361523416Y-22582738D01*
G75*
G02*
X361523416Y-22688804I-53033J-53033D01*
G01*
X360533466Y-23678754D01*
G75*
G02*
X360427400Y-23678754I-53033J53033D01*
G01*
X360321334Y-23572688D01*
G75*
G02*
X360321334Y-23466622I53033J53033D01*
G01*
X361311284Y-22476672D01*
G75*
G02*
X361417350Y-22476672I53033J-53033D01*
G01*
G37*
G36*
G01*
X361063796Y-22123118D02*
X361169862Y-22229184D01*
G75*
G02*
X361169862Y-22335250I-53033J-53033D01*
G01*
X360179912Y-23325200D01*
G75*
G02*
X360073846Y-23325200I-53033J53033D01*
G01*
X359967780Y-23219134D01*
G75*
G02*
X359967780Y-23113068I53033J53033D01*
G01*
X360957730Y-22123118D01*
G75*
G02*
X361063796Y-22123118I53033J-53033D01*
G01*
G37*
G36*
G01*
X360710243Y-21769565D02*
X360816309Y-21875631D01*
G75*
G02*
X360816309Y-21981697I-53033J-53033D01*
G01*
X359826359Y-22971647D01*
G75*
G02*
X359720293Y-22971647I-53033J53033D01*
G01*
X359614227Y-22865581D01*
G75*
G02*
X359614227Y-22759515I53033J53033D01*
G01*
X360604177Y-21769565D01*
G75*
G02*
X360710243Y-21769565I53033J-53033D01*
G01*
G37*
G36*
G01*
X360356689Y-21416011D02*
X360462755Y-21522077D01*
G75*
G02*
X360462755Y-21628143I-53033J-53033D01*
G01*
X359472805Y-22618093D01*
G75*
G02*
X359366739Y-22618093I-53033J53033D01*
G01*
X359260673Y-22512027D01*
G75*
G02*
X359260673Y-22405961I53033J53033D01*
G01*
X360250623Y-21416011D01*
G75*
G02*
X360356689Y-21416011I53033J-53033D01*
G01*
G37*
G36*
G01*
X360003136Y-21062458D02*
X360109202Y-21168524D01*
G75*
G02*
X360109202Y-21274590I-53033J-53033D01*
G01*
X359119252Y-22264540D01*
G75*
G02*
X359013186Y-22264540I-53033J53033D01*
G01*
X358907120Y-22158474D01*
G75*
G02*
X358907120Y-22052408I53033J53033D01*
G01*
X359897070Y-21062458D01*
G75*
G02*
X360003136Y-21062458I53033J-53033D01*
G01*
G37*
G36*
G01*
X359649583Y-20708905D02*
X359755649Y-20814971D01*
G75*
G02*
X359755649Y-20921037I-53033J-53033D01*
G01*
X358765699Y-21910987D01*
G75*
G02*
X358659633Y-21910987I-53033J53033D01*
G01*
X358553567Y-21804921D01*
G75*
G02*
X358553567Y-21698855I53033J53033D01*
G01*
X359543517Y-20708905D01*
G75*
G02*
X359649583Y-20708905I53033J-53033D01*
G01*
G37*
G36*
G01*
X359296029Y-20355351D02*
X359402095Y-20461417D01*
G75*
G02*
X359402095Y-20567483I-53033J-53033D01*
G01*
X358412145Y-21557433D01*
G75*
G02*
X358306079Y-21557433I-53033J53033D01*
G01*
X358200013Y-21451367D01*
G75*
G02*
X358200013Y-21345301I53033J53033D01*
G01*
X359189963Y-20355351D01*
G75*
G02*
X359296029Y-20355351I53033J-53033D01*
G01*
G37*
G36*
G01*
X358942476Y-20001798D02*
X359048542Y-20107864D01*
G75*
G02*
X359048542Y-20213930I-53033J-53033D01*
G01*
X358058592Y-21203880D01*
G75*
G02*
X357952526Y-21203880I-53033J53033D01*
G01*
X357846460Y-21097814D01*
G75*
G02*
X357846460Y-20991748I53033J53033D01*
G01*
X358836410Y-20001798D01*
G75*
G02*
X358942476Y-20001798I53033J-53033D01*
G01*
G37*
G36*
G01*
X358588923Y-19648245D02*
X358694989Y-19754311D01*
G75*
G02*
X358694989Y-19860377I-53033J-53033D01*
G01*
X357705039Y-20850327D01*
G75*
G02*
X357598973Y-20850327I-53033J53033D01*
G01*
X357492907Y-20744261D01*
G75*
G02*
X357492907Y-20638195I53033J53033D01*
G01*
X358482857Y-19648245D01*
G75*
G02*
X358588923Y-19648245I53033J-53033D01*
G01*
G37*
G36*
G01*
X358235369Y-19294691D02*
X358341435Y-19400757D01*
G75*
G02*
X358341435Y-19506823I-53033J-53033D01*
G01*
X357351485Y-20496773D01*
G75*
G02*
X357245419Y-20496773I-53033J53033D01*
G01*
X357139353Y-20390707D01*
G75*
G02*
X357139353Y-20284641I53033J53033D01*
G01*
X358129303Y-19294691D01*
G75*
G02*
X358235369Y-19294691I53033J-53033D01*
G01*
G37*
G36*
G01*
X357881816Y-18941138D02*
X357987882Y-19047204D01*
G75*
G02*
X357987882Y-19153270I-53033J-53033D01*
G01*
X356997932Y-20143220D01*
G75*
G02*
X356891866Y-20143220I-53033J53033D01*
G01*
X356785800Y-20037154D01*
G75*
G02*
X356785800Y-19931088I53033J53033D01*
G01*
X357775750Y-18941138D01*
G75*
G02*
X357881816Y-18941138I53033J-53033D01*
G01*
G37*
G36*
G01*
X357528262Y-18587584D02*
X357634328Y-18693650D01*
G75*
G02*
X357634328Y-18799716I-53033J-53033D01*
G01*
X356644378Y-19789666D01*
G75*
G02*
X356538312Y-19789666I-53033J53033D01*
G01*
X356432246Y-19683600D01*
G75*
G02*
X356432246Y-19577534I53033J53033D01*
G01*
X357422196Y-18587584D01*
G75*
G02*
X357528262Y-18587584I53033J-53033D01*
G01*
G37*
G36*
G01*
X357174709Y-18234031D02*
X357280775Y-18340097D01*
G75*
G02*
X357280775Y-18446163I-53033J-53033D01*
G01*
X356290825Y-19436113D01*
G75*
G02*
X356184759Y-19436113I-53033J53033D01*
G01*
X356078693Y-19330047D01*
G75*
G02*
X356078693Y-19223981I53033J53033D01*
G01*
X357068643Y-18234031D01*
G75*
G02*
X357174709Y-18234031I53033J-53033D01*
G01*
G37*
G36*
G01*
X356821156Y-17880478D02*
X356927222Y-17986544D01*
G75*
G02*
X356927222Y-18092610I-53033J-53033D01*
G01*
X355937272Y-19082560D01*
G75*
G02*
X355831206Y-19082560I-53033J53033D01*
G01*
X355725140Y-18976494D01*
G75*
G02*
X355725140Y-18870428I53033J53033D01*
G01*
X356715090Y-17880478D01*
G75*
G02*
X356821156Y-17880478I53033J-53033D01*
G01*
G37*
%TD*%
D27*
%TO.C,SW95*%
X389810000Y-40640000D03*
X383460000Y-43180000D03*
D28*
X386000000Y-38100000D03*
D29*
X391080000Y-38100000D03*
X380920000Y-38100000D03*
%TD*%
D27*
%TO.C,SW85*%
X346947500Y-40640000D03*
X340597500Y-43180000D03*
D28*
X343137500Y-38100000D03*
D29*
X348217500Y-38100000D03*
X338057500Y-38100000D03*
%TD*%
D27*
%TO.C,SW82*%
X327897500Y-97790000D03*
X321547500Y-100330000D03*
D28*
X324087500Y-95250000D03*
D29*
X329167500Y-95250000D03*
X319007500Y-95250000D03*
%TD*%
D32*
%TO.C,SP2*%
X186006750Y-122555000D03*
X85930750Y-122555000D03*
D33*
X186006750Y-107315000D03*
X85930750Y-107315000D03*
%TD*%
D27*
%TO.C,SW92*%
X370760000Y-97790000D03*
X364410000Y-100330000D03*
D28*
X366950000Y-95250000D03*
D29*
X372030000Y-95250000D03*
X361870000Y-95250000D03*
%TD*%
D27*
%TO.C,SW9*%
X56435000Y-12065000D03*
X50085000Y-14605000D03*
D28*
X52625000Y-9525000D03*
D29*
X57705000Y-9525000D03*
X47545000Y-9525000D03*
%TD*%
D34*
%TO.C,H3*%
X293116000Y-5080000D03*
D35*
X293116000Y-5080000D03*
%TD*%
D27*
%TO.C,SW44*%
X175497500Y-97790000D03*
X169147500Y-100330000D03*
D28*
X171687500Y-95250000D03*
D29*
X176767500Y-95250000D03*
X166607500Y-95250000D03*
%TD*%
D27*
%TO.C,SW43*%
X165972500Y-78740000D03*
X159622500Y-81280000D03*
D28*
X162162500Y-76200000D03*
D29*
X167242500Y-76200000D03*
X157082500Y-76200000D03*
%TD*%
D27*
%TO.C,SW42*%
X161210000Y-59690000D03*
X154860000Y-62230000D03*
D28*
X157400000Y-57150000D03*
D29*
X162480000Y-57150000D03*
X152320000Y-57150000D03*
%TD*%
D27*
%TO.C,SW41*%
X170735000Y-40640000D03*
X164385000Y-43180000D03*
D28*
X166925000Y-38100000D03*
D29*
X172005000Y-38100000D03*
X161845000Y-38100000D03*
%TD*%
D27*
%TO.C,SW40*%
X161210000Y-12065000D03*
X154860000Y-14605000D03*
D28*
X157400000Y-9525000D03*
D29*
X162480000Y-9525000D03*
X152320000Y-9525000D03*
%TD*%
D27*
%TO.C,SW107*%
X427910000Y-107315000D03*
X421560000Y-109855000D03*
D28*
X424100000Y-104775000D03*
D29*
X429180000Y-104775000D03*
X419020000Y-104775000D03*
%TD*%
D27*
%TO.C,SW106*%
X427910000Y-69215000D03*
X421560000Y-71755000D03*
D28*
X424100000Y-66675000D03*
D29*
X429180000Y-66675000D03*
X419020000Y-66675000D03*
%TD*%
D27*
%TO.C,SW105*%
X427910000Y-40640000D03*
X421560000Y-43180000D03*
D28*
X424100000Y-38100000D03*
D29*
X429180000Y-38100000D03*
X419020000Y-38100000D03*
%TD*%
D27*
%TO.C,SW104*%
X408860000Y-116840000D03*
X402510000Y-119380000D03*
D28*
X405050000Y-114300000D03*
D29*
X410130000Y-114300000D03*
X399970000Y-114300000D03*
%TD*%
D27*
%TO.C,SW103*%
X408860000Y-97790000D03*
X402510000Y-100330000D03*
D28*
X405050000Y-95250000D03*
D29*
X410130000Y-95250000D03*
X399970000Y-95250000D03*
%TD*%
D27*
%TO.C,SW102*%
X408860000Y-78740000D03*
X402510000Y-81280000D03*
D28*
X405050000Y-76200000D03*
D29*
X410130000Y-76200000D03*
X399970000Y-76200000D03*
%TD*%
D27*
%TO.C,SW101*%
X408860000Y-59690000D03*
X402510000Y-62230000D03*
D28*
X405050000Y-57150000D03*
D29*
X410130000Y-57150000D03*
X399970000Y-57150000D03*
%TD*%
D27*
%TO.C,SW100*%
X408860000Y-40640000D03*
X402510000Y-43180000D03*
D28*
X405050000Y-38100000D03*
D29*
X410130000Y-38100000D03*
X399970000Y-38100000D03*
%TD*%
D27*
%TO.C,SW99*%
X408860000Y-12065000D03*
X402510000Y-14605000D03*
D28*
X405050000Y-9525000D03*
D29*
X410130000Y-9525000D03*
X399970000Y-9525000D03*
%TD*%
D27*
%TO.C,SW98*%
X389810000Y-97790000D03*
X383460000Y-100330000D03*
D28*
X386000000Y-95250000D03*
D29*
X391080000Y-95250000D03*
X380920000Y-95250000D03*
%TD*%
D27*
%TO.C,SW97*%
X389810000Y-78740000D03*
X383460000Y-81280000D03*
D28*
X386000000Y-76200000D03*
D29*
X391080000Y-76200000D03*
X380920000Y-76200000D03*
%TD*%
D27*
%TO.C,SW96*%
X389810000Y-59690000D03*
X383460000Y-62230000D03*
D28*
X386000000Y-57150000D03*
D29*
X391080000Y-57150000D03*
X380920000Y-57150000D03*
%TD*%
D27*
%TO.C,SW94*%
X389810000Y-12065000D03*
X383460000Y-14605000D03*
D28*
X386000000Y-9525000D03*
D29*
X391080000Y-9525000D03*
X380920000Y-9525000D03*
%TD*%
D27*
%TO.C,SW93*%
X380285000Y-116840000D03*
X373935000Y-119380000D03*
D28*
X376475000Y-114300000D03*
D29*
X381555000Y-114300000D03*
X371395000Y-114300000D03*
%TD*%
D27*
%TO.C,SW91*%
X370760000Y-78740000D03*
X364410000Y-81280000D03*
D28*
X366950000Y-76200000D03*
D29*
X372030000Y-76200000D03*
X361870000Y-76200000D03*
%TD*%
D27*
%TO.C,SW90*%
X370760000Y-59690000D03*
X364410000Y-62230000D03*
D28*
X366950000Y-57150000D03*
D29*
X372030000Y-57150000D03*
X361870000Y-57150000D03*
%TD*%
D27*
%TO.C,SW89*%
X370760000Y-40640000D03*
X364410000Y-43180000D03*
D28*
X366950000Y-38100000D03*
D29*
X372030000Y-38100000D03*
X361870000Y-38100000D03*
%TD*%
D27*
%TO.C,SW88*%
X370760000Y-12065000D03*
X364410000Y-14605000D03*
D28*
X366950000Y-9525000D03*
D29*
X372030000Y-9525000D03*
X361870000Y-9525000D03*
%TD*%
D27*
%TO.C,SW87*%
X346947500Y-116840000D03*
X340597500Y-119380000D03*
D28*
X343137500Y-114300000D03*
D29*
X348217500Y-114300000D03*
X338057500Y-114300000D03*
%TD*%
D27*
%TO.C,SW86*%
X346947500Y-59690000D03*
X340597500Y-62230000D03*
D28*
X343137500Y-57150000D03*
D29*
X348217500Y-57150000D03*
X338057500Y-57150000D03*
%TD*%
D27*
%TO.C,SW84*%
X346947500Y-12065000D03*
X340597500Y-14605000D03*
D28*
X343137500Y-9525000D03*
D29*
X348217500Y-9525000D03*
X338057500Y-9525000D03*
%TD*%
D27*
%TO.C,SW83*%
X327897500Y-116840000D03*
X321547500Y-119380000D03*
D28*
X324087500Y-114300000D03*
D29*
X329167500Y-114300000D03*
X319007500Y-114300000D03*
%TD*%
D27*
%TO.C,SW81*%
X327897500Y-59690000D03*
X321547500Y-62230000D03*
D28*
X324087500Y-57150000D03*
D29*
X329167500Y-57150000D03*
X319007500Y-57150000D03*
%TD*%
D27*
%TO.C,SW80*%
X327897500Y-40640000D03*
X321547500Y-43180000D03*
D28*
X324087500Y-38100000D03*
D29*
X329167500Y-38100000D03*
X319007500Y-38100000D03*
%TD*%
D27*
%TO.C,SW79*%
X327897500Y-12065000D03*
X321547500Y-14605000D03*
D28*
X324087500Y-9525000D03*
D29*
X329167500Y-9525000D03*
X319007500Y-9525000D03*
%TD*%
D27*
%TO.C,SW78*%
X308847500Y-116840000D03*
X302497500Y-119380000D03*
D28*
X305037500Y-114300000D03*
D29*
X310117500Y-114300000D03*
X299957500Y-114300000D03*
%TD*%
D27*
%TO.C,SW76*%
X308847500Y-40640000D03*
X302497500Y-43180000D03*
D28*
X305037500Y-38100000D03*
D29*
X310117500Y-38100000D03*
X299957500Y-38100000D03*
%TD*%
D27*
%TO.C,SW75*%
X308847500Y-12065000D03*
X302497500Y-14605000D03*
D28*
X305037500Y-9525000D03*
D29*
X310117500Y-9525000D03*
X299957500Y-9525000D03*
%TD*%
D27*
%TO.C,SW74*%
X282653750Y-116840000D03*
X276303750Y-119380000D03*
D28*
X278843750Y-114300000D03*
D29*
X283923750Y-114300000D03*
X273763750Y-114300000D03*
%TD*%
D27*
%TO.C,SW73*%
X280272500Y-59690000D03*
X273922500Y-62230000D03*
D28*
X276462500Y-57150000D03*
D29*
X281542500Y-57150000D03*
X271382500Y-57150000D03*
%TD*%
D27*
%TO.C,SW72*%
X275510000Y-40640000D03*
X269160000Y-43180000D03*
D28*
X271700000Y-38100000D03*
D29*
X276780000Y-38100000D03*
X266620000Y-38100000D03*
%TD*%
D27*
%TO.C,SW71*%
X285035000Y-12065000D03*
X278685000Y-14605000D03*
D28*
X281225000Y-9525000D03*
D29*
X286305000Y-9525000D03*
X276145000Y-9525000D03*
%TD*%
D27*
%TO.C,SW70*%
X258841250Y-116840000D03*
X252491250Y-119380000D03*
D28*
X255031250Y-114300000D03*
D29*
X260111250Y-114300000D03*
X249951250Y-114300000D03*
%TD*%
D27*
%TO.C,SW69*%
X268366250Y-97790000D03*
X262016250Y-100330000D03*
D28*
X264556250Y-95250000D03*
D29*
X269636250Y-95250000D03*
X259476250Y-95250000D03*
%TD*%
D27*
%TO.C,SW68*%
X273128750Y-78740000D03*
X266778750Y-81280000D03*
D28*
X269318750Y-76200000D03*
D29*
X274398750Y-76200000D03*
X264238750Y-76200000D03*
%TD*%
D27*
%TO.C,SW67*%
X256460000Y-59690000D03*
X250110000Y-62230000D03*
D28*
X252650000Y-57150000D03*
D29*
X257730000Y-57150000D03*
X247570000Y-57150000D03*
%TD*%
D27*
%TO.C,SW66*%
X265985000Y-12065000D03*
X259635000Y-14605000D03*
D28*
X262175000Y-9525000D03*
D29*
X267255000Y-9525000D03*
X257095000Y-9525000D03*
%TD*%
D27*
%TO.C,SW65*%
X242172500Y-78740000D03*
X235822500Y-81280000D03*
D28*
X238362500Y-76200000D03*
D29*
X243442500Y-76200000D03*
X233282500Y-76200000D03*
%TD*%
D27*
%TO.C,SW64*%
X237410000Y-59690000D03*
X231060000Y-62230000D03*
D28*
X233600000Y-57150000D03*
D29*
X238680000Y-57150000D03*
X228520000Y-57150000D03*
%TD*%
D27*
%TO.C,SW63*%
X246935000Y-40640000D03*
X240585000Y-43180000D03*
D28*
X243125000Y-38100000D03*
D29*
X248205000Y-38100000D03*
X238045000Y-38100000D03*
%TD*%
D27*
%TO.C,SW62*%
X246935000Y-12065000D03*
X240585000Y-14605000D03*
D28*
X243125000Y-9525000D03*
D29*
X248205000Y-9525000D03*
X238045000Y-9525000D03*
%TD*%
D27*
%TO.C,SW61*%
X235028750Y-116840000D03*
X228678750Y-119380000D03*
D28*
X231218750Y-114300000D03*
D29*
X236298750Y-114300000D03*
X226138750Y-114300000D03*
%TD*%
D27*
%TO.C,SW60*%
X232647500Y-97790000D03*
X226297500Y-100330000D03*
D28*
X228837500Y-95250000D03*
D29*
X233917500Y-95250000D03*
X223757500Y-95250000D03*
%TD*%
D27*
%TO.C,SW59*%
X223122500Y-78740000D03*
X216772500Y-81280000D03*
D28*
X219312500Y-76200000D03*
D29*
X224392500Y-76200000D03*
X214232500Y-76200000D03*
%TD*%
D27*
%TO.C,SW58*%
X218360000Y-59690000D03*
X212010000Y-62230000D03*
D28*
X214550000Y-57150000D03*
D29*
X219630000Y-57150000D03*
X209470000Y-57150000D03*
%TD*%
D27*
%TO.C,SW57*%
X227885000Y-40640000D03*
X221535000Y-43180000D03*
D28*
X224075000Y-38100000D03*
D29*
X229155000Y-38100000D03*
X218995000Y-38100000D03*
%TD*%
D27*
%TO.C,SW56*%
X227885000Y-12065000D03*
X221535000Y-14605000D03*
D28*
X224075000Y-9525000D03*
D29*
X229155000Y-9525000D03*
X218995000Y-9525000D03*
%TD*%
D27*
%TO.C,SW55*%
X211216250Y-116840000D03*
X204866250Y-119380000D03*
D28*
X207406250Y-114300000D03*
D29*
X212486250Y-114300000D03*
X202326250Y-114300000D03*
%TD*%
D27*
%TO.C,SW54*%
X213597500Y-97790000D03*
X207247500Y-100330000D03*
D28*
X209787500Y-95250000D03*
D29*
X214867500Y-95250000D03*
X204707500Y-95250000D03*
%TD*%
D27*
%TO.C,SW53*%
X204072500Y-78740000D03*
X197722500Y-81280000D03*
D28*
X200262500Y-76200000D03*
D29*
X205342500Y-76200000D03*
X195182500Y-76200000D03*
%TD*%
D27*
%TO.C,SW52*%
X199310000Y-59690000D03*
X192960000Y-62230000D03*
D28*
X195500000Y-57150000D03*
D29*
X200580000Y-57150000D03*
X190420000Y-57150000D03*
%TD*%
D27*
%TO.C,SW51*%
X208835000Y-40640000D03*
X202485000Y-43180000D03*
D28*
X205025000Y-38100000D03*
D29*
X210105000Y-38100000D03*
X199945000Y-38100000D03*
%TD*%
D27*
%TO.C,SW50*%
X199310000Y-12065000D03*
X192960000Y-14605000D03*
D28*
X195500000Y-9525000D03*
D29*
X200580000Y-9525000D03*
X190420000Y-9525000D03*
%TD*%
D27*
%TO.C,SW49*%
X194547500Y-97790000D03*
X188197500Y-100330000D03*
D28*
X190737500Y-95250000D03*
D29*
X195817500Y-95250000D03*
X185657500Y-95250000D03*
%TD*%
D27*
%TO.C,SW48*%
X185022500Y-78740000D03*
X178672500Y-81280000D03*
D28*
X181212500Y-76200000D03*
D29*
X186292500Y-76200000D03*
X176132500Y-76200000D03*
%TD*%
D27*
%TO.C,SW47*%
X180260000Y-59690000D03*
X173910000Y-62230000D03*
D28*
X176450000Y-57150000D03*
D29*
X181530000Y-57150000D03*
X171370000Y-57150000D03*
%TD*%
D27*
%TO.C,SW46*%
X189785000Y-40640000D03*
X183435000Y-43180000D03*
D28*
X185975000Y-38100000D03*
D29*
X191055000Y-38100000D03*
X180895000Y-38100000D03*
%TD*%
D27*
%TO.C,SW45*%
X180260000Y-12065000D03*
X173910000Y-14605000D03*
D28*
X176450000Y-9525000D03*
D29*
X181530000Y-9525000D03*
X171370000Y-9525000D03*
%TD*%
D27*
%TO.C,SW39*%
X156447500Y-97790000D03*
X150097500Y-100330000D03*
D28*
X152637500Y-95250000D03*
D29*
X157717500Y-95250000D03*
X147557500Y-95250000D03*
%TD*%
D27*
%TO.C,SW38*%
X146922500Y-78740000D03*
X140572500Y-81280000D03*
D28*
X143112500Y-76200000D03*
D29*
X148192500Y-76200000D03*
X138032500Y-76200000D03*
%TD*%
D27*
%TO.C,SW37*%
X142160000Y-59690000D03*
X135810000Y-62230000D03*
D28*
X138350000Y-57150000D03*
D29*
X143430000Y-57150000D03*
X133270000Y-57150000D03*
%TD*%
D27*
%TO.C,SW36*%
X151685000Y-40640000D03*
X145335000Y-43180000D03*
D28*
X147875000Y-38100000D03*
D29*
X152955000Y-38100000D03*
X142795000Y-38100000D03*
%TD*%
D27*
%TO.C,SW35*%
X142160000Y-12065000D03*
X135810000Y-14605000D03*
D28*
X138350000Y-9525000D03*
D29*
X143430000Y-9525000D03*
X133270000Y-9525000D03*
%TD*%
D27*
%TO.C,SW34*%
X139778750Y-116840000D03*
X133428750Y-119380000D03*
D28*
X135968750Y-114300000D03*
D29*
X141048750Y-114300000D03*
X130888750Y-114300000D03*
%TD*%
D27*
%TO.C,SW33*%
X137397500Y-97790000D03*
X131047500Y-100330000D03*
D28*
X133587500Y-95250000D03*
D29*
X138667500Y-95250000D03*
X128507500Y-95250000D03*
%TD*%
D27*
%TO.C,SW32*%
X127872500Y-78740000D03*
X121522500Y-81280000D03*
D28*
X124062500Y-76200000D03*
D29*
X129142500Y-76200000D03*
X118982500Y-76200000D03*
%TD*%
D27*
%TO.C,SW31*%
X123110000Y-59690000D03*
X116760000Y-62230000D03*
D28*
X119300000Y-57150000D03*
D29*
X124380000Y-57150000D03*
X114220000Y-57150000D03*
%TD*%
D27*
%TO.C,SW30*%
X132635000Y-40640000D03*
X126285000Y-43180000D03*
D28*
X128825000Y-38100000D03*
D29*
X133905000Y-38100000D03*
X123745000Y-38100000D03*
%TD*%
D27*
%TO.C,SW29*%
X118347500Y-97790000D03*
X111997500Y-100330000D03*
D28*
X114537500Y-95250000D03*
D29*
X119617500Y-95250000D03*
X109457500Y-95250000D03*
%TD*%
D27*
%TO.C,SW28*%
X108822500Y-78740000D03*
X102472500Y-81280000D03*
D28*
X105012500Y-76200000D03*
D29*
X110092500Y-76200000D03*
X99932500Y-76200000D03*
%TD*%
D27*
%TO.C,SW27*%
X104060000Y-59690000D03*
X97710000Y-62230000D03*
D28*
X100250000Y-57150000D03*
D29*
X105330000Y-57150000D03*
X95170000Y-57150000D03*
%TD*%
D27*
%TO.C,SW26*%
X113585000Y-40640000D03*
X107235000Y-43180000D03*
D28*
X109775000Y-38100000D03*
D29*
X114855000Y-38100000D03*
X104695000Y-38100000D03*
%TD*%
D27*
%TO.C,SW25*%
X113585000Y-12065000D03*
X107235000Y-14605000D03*
D28*
X109775000Y-9525000D03*
D29*
X114855000Y-9525000D03*
X104695000Y-9525000D03*
%TD*%
D27*
%TO.C,SW24*%
X99297500Y-97790000D03*
X92947500Y-100330000D03*
D28*
X95487500Y-95250000D03*
D29*
X100567500Y-95250000D03*
X90407500Y-95250000D03*
%TD*%
D27*
%TO.C,SW23*%
X89772500Y-78740000D03*
X83422500Y-81280000D03*
D28*
X85962500Y-76200000D03*
D29*
X91042500Y-76200000D03*
X80882500Y-76200000D03*
%TD*%
D27*
%TO.C,SW22*%
X85010000Y-59690000D03*
X78660000Y-62230000D03*
D28*
X81200000Y-57150000D03*
D29*
X86280000Y-57150000D03*
X76120000Y-57150000D03*
%TD*%
D27*
%TO.C,SW21*%
X94535000Y-40640000D03*
X88185000Y-43180000D03*
D28*
X90725000Y-38100000D03*
D29*
X95805000Y-38100000D03*
X85645000Y-38100000D03*
%TD*%
D27*
%TO.C,SW20*%
X94535000Y-12065000D03*
X88185000Y-14605000D03*
D28*
X90725000Y-9525000D03*
D29*
X95805000Y-9525000D03*
X85645000Y-9525000D03*
%TD*%
D27*
%TO.C,SW19*%
X68341250Y-116840000D03*
X61991250Y-119380000D03*
D28*
X64531250Y-114300000D03*
D29*
X69611250Y-114300000D03*
X59451250Y-114300000D03*
%TD*%
D27*
%TO.C,SW18*%
X80247500Y-97790000D03*
X73897500Y-100330000D03*
D28*
X76437500Y-95250000D03*
D29*
X81517500Y-95250000D03*
X71357500Y-95250000D03*
%TD*%
D27*
%TO.C,SW17*%
X70722500Y-78740000D03*
X64372500Y-81280000D03*
D28*
X66912500Y-76200000D03*
D29*
X71992500Y-76200000D03*
X61832500Y-76200000D03*
%TD*%
D27*
%TO.C,SW16*%
X65960000Y-59690000D03*
X59610000Y-62230000D03*
D28*
X62150000Y-57150000D03*
D29*
X67230000Y-57150000D03*
X57070000Y-57150000D03*
%TD*%
D27*
%TO.C,SW15*%
X75485000Y-40640000D03*
X69135000Y-43180000D03*
D28*
X71675000Y-38100000D03*
D29*
X76755000Y-38100000D03*
X66595000Y-38100000D03*
%TD*%
D27*
%TO.C,SW14*%
X75485000Y-12065000D03*
X69135000Y-14605000D03*
D28*
X71675000Y-9525000D03*
D29*
X76755000Y-9525000D03*
X66595000Y-9525000D03*
%TD*%
D27*
%TO.C,SW13*%
X61197500Y-97790000D03*
X54847500Y-100330000D03*
D28*
X57387500Y-95250000D03*
D29*
X62467500Y-95250000D03*
X52307500Y-95250000D03*
%TD*%
D27*
%TO.C,SW12*%
X51672500Y-78740000D03*
X45322500Y-81280000D03*
D28*
X47862500Y-76200000D03*
D29*
X52942500Y-76200000D03*
X42782500Y-76200000D03*
%TD*%
D27*
%TO.C,SW11*%
X46910000Y-59690000D03*
X40560000Y-62230000D03*
D28*
X43100000Y-57150000D03*
D29*
X48180000Y-57150000D03*
X38020000Y-57150000D03*
%TD*%
D27*
%TO.C,SW10*%
X56435000Y-40640000D03*
X50085000Y-43180000D03*
D28*
X52625000Y-38100000D03*
D29*
X57705000Y-38100000D03*
X47545000Y-38100000D03*
%TD*%
D27*
%TO.C,SW8*%
X44528750Y-116840000D03*
X38178750Y-119380000D03*
D28*
X40718750Y-114300000D03*
D29*
X45798750Y-114300000D03*
X35638750Y-114300000D03*
%TD*%
D27*
%TO.C,SW7*%
X30241250Y-97790000D03*
X23891250Y-100330000D03*
D28*
X26431250Y-95250000D03*
D29*
X31511250Y-95250000D03*
X21351250Y-95250000D03*
%TD*%
D27*
%TO.C,SW6*%
X37385000Y-40640000D03*
X31035000Y-43180000D03*
D28*
X33575000Y-38100000D03*
D29*
X38655000Y-38100000D03*
X28495000Y-38100000D03*
%TD*%
D27*
%TO.C,SW5*%
X20716250Y-116840000D03*
X14366250Y-119380000D03*
D28*
X16906250Y-114300000D03*
D29*
X21986250Y-114300000D03*
X11826250Y-114300000D03*
%TD*%
D27*
%TO.C,SW4*%
X25478750Y-78740000D03*
X19128750Y-81280000D03*
D28*
X21668750Y-76200000D03*
D29*
X26748750Y-76200000D03*
X16588750Y-76200000D03*
%TD*%
D27*
%TO.C,SW3*%
X23097500Y-59690000D03*
X16747500Y-62230000D03*
D28*
X19287500Y-57150000D03*
D29*
X24367500Y-57150000D03*
X14207500Y-57150000D03*
%TD*%
D27*
%TO.C,SW2*%
X18335000Y-40640000D03*
X11985000Y-43180000D03*
D28*
X14525000Y-38100000D03*
D29*
X19605000Y-38100000D03*
X9445000Y-38100000D03*
%TD*%
D27*
%TO.C,SW1*%
X18335000Y-12065000D03*
X11985000Y-14605000D03*
D28*
X14525000Y-9525000D03*
D29*
X19605000Y-9525000D03*
X9445000Y-9525000D03*
%TD*%
D36*
%TO.C,H2*%
X1155000Y-85090000D03*
%TD*%
%TO.C,H1*%
X437630000Y-85090000D03*
%TD*%
D37*
%TO.C,FB1*%
X357886000Y-10411499D03*
X357886000Y-11686500D03*
%TD*%
D38*
%TO.C,CR1*%
X365683800Y-2159000D03*
X362280200Y-2159000D03*
%TD*%
D39*
%TO.C,C6*%
X359647293Y-14605000D03*
X360950707Y-14605000D03*
%TD*%
D40*
%TO.C,C3*%
X363474000Y-18304707D03*
X363474000Y-17001293D03*
%TD*%
D41*
%TO.C,C2*%
X383463800Y-22741006D03*
X383463800Y-23994994D03*
%TD*%
D42*
%TO.C,C5*%
X387756400Y-22716005D03*
X387756400Y-24019993D03*
%TD*%
D41*
%TO.C,C1*%
X357124000Y-7501006D03*
X357124000Y-8754994D03*
%TD*%
D43*
%TO.C,C23*%
X350147006Y-91313000D03*
X351400994Y-91313000D03*
%TD*%
%TO.C,C21*%
X343289006Y-86995000D03*
X344542994Y-86995000D03*
%TD*%
D41*
%TO.C,C12*%
X32385000Y-24773006D03*
X32385000Y-26026994D03*
%TD*%
D43*
%TO.C,C19*%
X336922994Y-90170000D03*
X335669006Y-90170000D03*
%TD*%
D41*
%TO.C,C16*%
X38989000Y-18152994D03*
X38989000Y-16899006D03*
%TD*%
%TO.C,C14*%
X33909000Y-12056994D03*
X33909000Y-10803006D03*
%TD*%
D44*
%TO.C,C7*%
G36*
X360254120Y-20341384D02*
G01*
X360828384Y-19767120D01*
X361364472Y-20303208D01*
X360790208Y-20877472D01*
X360254120Y-20341384D01*
G37*
G36*
X361140824Y-21228088D02*
G01*
X361715088Y-20653824D01*
X362251176Y-21189912D01*
X361676912Y-21764176D01*
X361140824Y-21228088D01*
G37*
%TD*%
D41*
%TO.C,C4*%
X385610100Y-23994994D03*
X385610100Y-22741006D03*
%TD*%
D45*
%TO.C,R8*%
X348234000Y-18095000D03*
X348234000Y-16195000D03*
%TD*%
%TO.C,R7*%
X356743000Y-46416000D03*
X356743000Y-44516000D03*
%TD*%
%TO.C,R6*%
X354584000Y-46416000D03*
X354584000Y-44516000D03*
%TD*%
%TO.C,R5*%
X352425000Y-46416000D03*
X352425000Y-44516000D03*
%TD*%
%TO.C,R4*%
X355219000Y-41463000D03*
X355219000Y-39563000D03*
%TD*%
%TO.C,R3*%
X353060000Y-41463000D03*
X353060000Y-39563000D03*
%TD*%
D33*
%TO.C,SP8*%
X431085000Y-54737000D03*
X431085000Y-78613000D03*
D32*
X415845000Y-54737000D03*
X415845000Y-78613000D03*
%TD*%
D33*
%TO.C,SP7*%
X259762000Y-31115000D03*
X283638000Y-31115000D03*
D32*
X259762000Y-46355000D03*
X283638000Y-46355000D03*
%TD*%
D33*
%TO.C,SP6*%
X364537000Y-107315000D03*
X388413000Y-107315000D03*
D32*
X364537000Y-122555000D03*
X388413000Y-122555000D03*
%TD*%
%TO.C,SP5*%
X276494250Y-103505000D03*
X252618250Y-103505000D03*
D33*
X276494250Y-88265000D03*
X252618250Y-88265000D03*
%TD*%
D32*
%TO.C,SP4*%
X38369250Y-103505000D03*
X14493250Y-103505000D03*
D33*
X38369250Y-88265000D03*
X14493250Y-88265000D03*
%TD*%
%TO.C,SP3*%
X431085000Y-92837000D03*
X431085000Y-116713000D03*
D32*
X415845000Y-92837000D03*
X415845000Y-116713000D03*
%TD*%
%TO.C,SP1*%
X281256750Y-84455000D03*
X257380750Y-84455000D03*
D33*
X281256750Y-69215000D03*
X257380750Y-69215000D03*
%TD*%
D46*
%TO.C,Y1*%
X361703000Y-18222000D03*
X359403000Y-18222000D03*
X359403000Y-16322000D03*
X361703000Y-16322000D03*
%TD*%
D47*
%TO.C,C18*%
X343170000Y-81788000D03*
X340090000Y-81788000D03*
%TD*%
D48*
%TO.C,C17*%
X42418000Y-18050000D03*
X42418000Y-14970000D03*
%TD*%
D18*
%TO.C,C15*%
X37338000Y-18264000D03*
X37338000Y-16788000D03*
%TD*%
D17*
%TO.C,C24*%
X349655000Y-89662000D03*
X351131000Y-89662000D03*
%TD*%
%TO.C,C22*%
X343178000Y-85471000D03*
X344654000Y-85471000D03*
%TD*%
%TO.C,C20*%
X337034000Y-91694000D03*
X335558000Y-91694000D03*
%TD*%
D18*
%TO.C,C13*%
X32385000Y-12168000D03*
X32385000Y-10692000D03*
%TD*%
%TO.C,C11*%
X34036000Y-24408000D03*
X34036000Y-25884000D03*
%TD*%
D37*
%TO.C,R1*%
X352425000Y-9400501D03*
X352425000Y-8125500D03*
%TD*%
D49*
%TO.C,R20*%
X346687000Y-86868000D03*
X352575000Y-86868000D03*
%TD*%
D50*
%TO.C,R17*%
X36830000Y-21567000D03*
X36830000Y-27455000D03*
%TD*%
D51*
%TO.C,R19*%
X350391000Y-94488000D03*
X348871000Y-94488000D03*
%TD*%
%TO.C,R18*%
X348871000Y-96012000D03*
X350391000Y-96012000D03*
%TD*%
D19*
%TO.C,R16*%
X29210000Y-25779000D03*
X29210000Y-24259000D03*
%TD*%
D51*
%TO.C,R15*%
X27684000Y-23749000D03*
X26164000Y-23749000D03*
%TD*%
D19*
%TO.C,R10*%
X345313000Y-17909000D03*
X345313000Y-19429000D03*
%TD*%
%TO.C,R9*%
X345313000Y-22477000D03*
X345313000Y-20957000D03*
%TD*%
D52*
%TO.C,U1*%
X374825400Y-22148800D03*
D53*
X380875400Y-24448800D03*
X380875400Y-22148800D03*
X380875400Y-19848800D03*
%TD*%
D30*
%TO.C,J3*%
X351155000Y-17907000D03*
D31*
X351155000Y-15367000D03*
%TD*%
M02*
