M48
; DRILL file {KiCad (5.1.7)-1} date 04/18/21 18:14:57
; FORMAT={-:-/ absolute / inch / decimal}
; #@! TF.CreationDate,2021-04-18T18:14:57-04:00
; #@! TF.GenerationSoftware,Kicad,Pcbnew,(5.1.7)-1
FMAT,2
INCH
T1C0.0098
T2C0.0100
T3C0.0120
T4C0.0157
T5C0.0160
T6C0.0394
T7C0.0472
T8C0.0551
T9C0.0630
T10C0.0827
T11C0.0984
T12C0.0994
T13C0.1378
T14C0.0669
T15C0.1200
T16C0.1570
T17C0.1575
%
G90
G05
T1
X13.4784Y-3.591
X13.4784Y-3.6343
X13.4784Y-3.6777
X13.4784Y-3.721
X13.5217Y-3.591
X13.5217Y-3.6343
X13.5217Y-3.6777
X13.5217Y-3.721
X13.565Y-3.591
X13.565Y-3.6343
X13.565Y-3.6777
X13.565Y-3.721
X13.6083Y-3.591
X13.6083Y-3.6343
X13.6083Y-3.6777
X13.6083Y-3.721
X1.145Y-0.68
X1.145Y-0.7233
X1.145Y-0.7667
X1.145Y-0.81
X1.1883Y-0.68
X1.1883Y-0.7233
X1.1883Y-0.7667
X1.1883Y-0.81
X1.2317Y-0.68
X1.2317Y-0.7233
X1.2317Y-0.7667
X1.2317Y-0.81
X1.275Y-0.68
X1.275Y-0.7233
X1.275Y-0.7667
X1.275Y-0.81
T2
X0.66Y-2.62
X0.89Y-4.89
X1.0Y-0.3
X1.125Y-0.455
X1.1875Y-2.5775
X1.195Y-0.4907
X1.205Y-0.915
X1.21Y-0.22
X1.2179Y-0.4271
X1.235Y-0.915
X1.26Y-0.905
X1.325Y-4.2
X1.345Y-0.595
X1.36Y-0.575
X1.36Y-0.625
X1.38Y-0.555
X1.385Y-0.65
X1.395Y-0.535
X1.405Y-0.24
X1.405Y-0.67
X1.42Y-0.27
X1.42Y-0.69
X1.595Y-1.095
X1.5969Y-2.5681
X1.62Y-0.98
X1.625Y-1.115
X1.65Y-0.9
X1.65Y-0.96
X1.655Y-0.935
X1.672Y-0.866
X1.6792Y-0.9008
X1.695Y-0.83
X1.71Y-0.875
X1.725Y-0.8
X1.725Y-0.83
X1.76Y-0.805
X1.785Y-0.77
X1.79Y-0.805
X1.825Y-4.87
X1.96Y-0.22
X1.96Y-0.27
X2.37Y-2.565
X2.665Y-0.27
X2.735Y-4.85
X3.115Y-2.555
X3.515Y-0.23
X3.94Y-0.785
X4.205Y-0.79
X4.48Y-3.455
X4.665Y-0.8
X4.98Y-4.83
X5.025Y-0.805
X5.15Y-3.455
X5.52Y-4.81
X5.695Y-0.815
X5.855Y-0.595
X5.87Y-0.82
X6.34Y-0.83
X6.615Y-0.625
X6.65Y-0.835
X7.115Y-0.845
X7.375Y-0.63
X7.4625Y-0.8475
X7.935Y-4.805
X8.035Y-0.86
X8.2037Y-4.12
X8.34Y-0.625
X8.36Y-0.865
X8.7Y-0.875
X8.8875Y-4.1225
X9.04Y-0.615
X9.12Y-0.88
X9.245Y-4.79
X9.585Y-0.89
X9.8275Y-0.6325
X9.925Y-0.895
X10.07Y-4.385
X10.2Y-0.905
X10.255Y-4.355
X10.54Y-0.63
X10.56Y-0.91
X10.6047Y-2.6297
X10.9184Y-4.355
X11.035Y-4.195
X11.42Y-0.92
X11.5Y-1.115
X11.52Y-0.98
X11.555Y-1.01
X11.555Y-1.06
X11.575Y-1.035
X11.595Y-1.01
X11.595Y-1.06
X11.63Y-1.095
X11.91Y-0.925
X11.96Y-4.235
X12.005Y-2.115
X12.025Y-2.795
X12.025Y-3.125
X12.14Y-2.795
X12.155Y-3.13
X12.26Y-3.25
X12.285Y-0.935
X12.32Y-2.93
X12.34Y-1.04
X12.6903Y-2.9247
X12.7328Y-3.6022
X12.7328Y-4.2072
X12.745Y-0.95
X12.79Y-1.15
X12.795Y-1.12
X12.825Y-1.115
X12.83Y-0.98
X12.83Y-1.17
X12.86Y-1.095
X12.955Y-2.6
X12.96Y-1.015
X12.96Y-1.055
X12.98Y-1.035
X12.98Y-2.585
X13.0Y-1.015
X13.0Y-1.055
X13.0Y-2.64
X13.005Y-2.57
X13.005Y-3.425
X13.005Y-3.67
X13.025Y-2.555
X13.025Y-4.355
X13.03Y-2.625
X13.03Y-3.405
X13.03Y-4.175
X13.04Y-4.235
X13.055Y-3.385
X13.055Y-3.715
X13.07Y-2.115
X13.075Y-3.365
X13.075Y-3.735
X13.1Y-3.76
X13.1Y-4.79
X13.1173Y-2.9227
X13.12Y-3.775
X13.12Y-4.81
X13.14Y-3.795
X13.14Y-4.83
X13.165Y-3.83
X13.165Y-4.85
X13.185Y-2.585
X13.185Y-2.61
X13.19Y-3.67
X13.19Y-3.83
X13.19Y-4.87
X13.205Y-2.57
X13.205Y-2.625
X13.215Y-3.83
X13.215Y-4.89
X13.22Y-3.67
X13.22Y-3.7
X13.225Y-2.64
X13.235Y-2.555
X13.24Y-3.83
X13.24Y-4.91
X13.25Y-2.655
X13.3Y-4.385
X13.33Y-3.01
X13.33Y-3.045
X13.3325Y-3.5875
X13.3425Y-3.5625
X13.345Y-3.535
X13.35Y-2.925
X13.355Y-3.025
X13.37Y-1.085
X13.37Y-1.355
X13.37Y-3.52
X13.38Y-3.01
X13.38Y-3.045
X13.38Y-3.365
X13.4Y-3.385
X13.415Y-0.79
X13.415Y-0.84
X13.42Y-3.405
X13.43Y-1.9075
X13.44Y-3.425
X13.4828Y-4.1778
X13.55Y-1.05
X13.56Y-0.975
X13.58Y-1.05
X13.61Y-0.965
X13.61Y-1.05
X13.64Y-1.05
X13.665Y-0.725
X13.67Y-1.05
X13.705Y-3.61
X13.72Y-3.655
X13.735Y-3.6324
X13.7425Y-3.2375
X13.775Y-0.8
X13.7775Y-1.9075
X13.81Y-1.005
X13.83Y-1.065
X13.849Y-0.47
X13.855Y-1.095
X13.9Y-1.085
X13.9Y-1.52
X13.9Y-1.68
X13.9Y-2.5
X13.915Y-1.17
X13.92Y-1.88
X13.9225Y-1.7125
X13.9246Y-3.1554
X13.93Y-1.105
X13.945Y-1.17
X13.9491Y-0.9741
X13.9509Y-3.1241
X13.96Y-1.71
X13.96Y-1.875
X13.985Y-1.52
X13.985Y-1.685
X13.99Y-1.88
X13.9925Y-3.1125
X13.995Y-1.49
X14.005Y-2.555
X14.025Y-2.57
X14.0286Y-0.69
X14.03Y-2.595
X14.045Y-2.615
X14.06Y-2.635
X14.065Y-4.705
X14.075Y-2.655
X14.08Y-2.68
X14.09Y-1.35
X14.095Y-4.15
X14.1Y-1.305
X14.125Y-2.86
X14.125Y-3.91
X14.155Y-2.875
X14.155Y-3.935
X14.1761Y-1.205
X14.1775Y-2.8975
X14.18Y-3.96
X14.204Y-1.205
X14.225Y-2.585
X14.23Y-4.91
X14.2309Y-1.2041
X14.24Y-1.275
X14.29Y-3.08
X14.305Y-3.825
X14.3469Y-1.3869
X14.665Y-0.65
X14.69Y-1.145
X14.775Y-1.04
X14.81Y-4.79
X14.815Y-4.21
X14.8737Y-4.235
X15.0025Y-1.0675
X15.02Y-1.05
X15.125Y-4.89
X15.155Y-4.16
X15.1703Y-1.3797
X15.25Y-0.65
X15.291Y-1.206
X15.37Y-4.12
X15.655Y-4.155
X15.81Y-1.19
X15.95Y-4.87
X16.005Y-4.89
X16.055Y-2.12
X16.54Y-1.17
X16.65Y-1.38
X16.67Y-2.485
X16.7Y-3.645
X16.75Y-4.85
X16.765Y-0.97
X16.785Y-0.97
X16.81Y-0.935
X17.015Y-0.935
X17.0875Y-2.5925
X17.095Y-4.76
T3
X0.135Y-2.075
X0.1617Y-2.0433
X0.2043Y-2.0157
X0.3743Y-2.0157
X0.3767Y-2.0733
X0.4067Y-2.0433
X0.735Y-0.81
X0.765Y-0.775
X0.785Y-0.745
X1.015Y-0.635
X1.015Y-0.84
X1.015Y-0.89
X1.03Y-0.985
X1.045Y-0.585
X1.07Y-1.02
X1.105Y-1.055
X1.155Y-1.08
X1.2143Y-2.7657
X1.215Y-1.105
X1.2567Y-2.7933
X1.275Y-1.08
X1.3067Y-2.8233
X1.355Y-0.39
X1.375Y-0.795
X1.38Y-0.39
X1.405Y-0.39
X1.41Y-0.795
X1.43Y-0.39
X1.43Y-0.755
X1.435Y-0.515
X1.45Y-0.775
X1.46Y-0.515
X1.485Y-0.515
X1.51Y-0.515
X1.63Y-0.53
X1.655Y-0.53
X1.685Y-0.53
X1.71Y-0.53
X1.91Y-0.705
X4.8067Y-4.3233
X4.8467Y-4.2933
X4.885Y-4.265
X11.76Y-3.2
X11.7617Y-3.5733
X11.8Y-3.2
X11.8Y-3.545
X11.8465Y-3.2035
X11.8493Y-3.5157
X13.0443Y-2.5357
X13.2743Y-2.5357
X13.29Y-0.7
X13.305Y-3.8
X13.335Y-0.925
X13.335Y-3.8
X13.36Y-0.905
X13.365Y-3.8
X13.38Y-0.88
X13.38Y-0.925
X13.3817Y-4.3233
X13.4117Y-4.2933
X13.42Y-3.81
X13.435Y-3.78
X13.4393Y-4.2657
X13.46Y-3.91
X13.4883Y-3.9133
X13.515Y-3.91
X13.545Y-0.84
X13.6425Y-0.6875
X13.87Y-3.565
X13.88Y-0.925
X13.885Y-3.48
X13.885Y-3.53
X13.89Y-3.6
X13.9Y-0.905
X13.9Y-3.565
X13.91Y-3.505
X13.925Y-3.66
X13.93Y-3.565
X13.935Y-3.48
X13.935Y-3.53
X13.94Y-3.715
X13.976Y-0.285
X14.129Y-0.937
X14.14Y-1.025
X14.145Y-0.9187
X14.175Y-2.56
X14.175Y-2.585
X14.175Y-2.615
X14.175Y-2.64
X14.26Y-3.4908
X14.3Y-3.4732
X14.36Y-0.885
X14.36Y-0.91
X14.3717Y-3.5733
X14.3767Y-3.5433
X14.4Y-0.805
X14.425Y-0.805
X14.445Y-0.895
X14.445Y-0.92
X14.45Y-0.805
X14.475Y-0.805
X14.605Y-0.88
X14.605Y-0.925
X14.625Y-0.905
X14.645Y-0.88
X14.645Y-0.925
X14.9951Y-0.6449
X14.9951Y-0.6749
X14.9951Y-0.7049
X14.9951Y-0.7349
X14.9967Y-0.1683
X14.9983Y-0.1983
X14.9993Y-0.1407
X15.21Y-2.135
X15.5393Y-0.1407
X15.5393Y-1.2657
X15.5393Y-2.0157
X15.5393Y-2.7657
X15.5443Y-3.5157
X15.5443Y-4.2657
X15.5717Y-0.1683
X15.5717Y-1.2933
X15.5717Y-2.0433
X15.5717Y-2.7933
X15.5867Y-3.5433
X15.5867Y-4.2933
X15.6067Y-0.1983
X15.6067Y-1.3233
X15.6067Y-2.0733
X15.6067Y-2.8233
X15.6217Y-3.5733
X15.6217Y-4.3233
X17.12Y-1.265
X17.12Y-2.39
X17.12Y-3.715
X17.155Y-2.415
X17.155Y-3.73
X17.1567Y-1.2933
X17.19Y-1.325
X17.19Y-2.45
X17.19Y-3.75
X16.0177Y-2.7657
X16.0177Y-2.8233
X16.0453Y-2.7933
X16.0177Y-1.2657
X16.0177Y-1.3233
X16.0453Y-1.2933
X12.0802Y-2.0157
X12.0802Y-2.0733
X12.1078Y-2.0433
X3.8302Y-3.5157
X3.8302Y-3.5733
X3.8578Y-3.5433
X8.3302Y-3.5157
X8.3302Y-3.5733
X8.3578Y-3.5433
X4.3927Y-1.2657
X4.3927Y-1.3233
X4.4203Y-1.2933
X0.8302Y-2.0157
X0.8302Y-2.0733
X0.8578Y-2.0433
X6.6427Y-1.2657
X6.6427Y-1.3233
X6.6703Y-1.2933
X5.7052Y-2.7657
X5.7052Y-2.8233
X5.7328Y-2.7933
X8.5177Y-2.0157
X8.5177Y-2.0733
X8.5453Y-2.0433
X1.9552Y-2.7657
X1.9552Y-2.8233
X1.9828Y-2.7933
X8.7052Y-2.7657
X8.7052Y-2.8233
X8.7328Y-2.7933
X4.0177Y-2.0157
X4.0177Y-2.0733
X4.0453Y-2.0433
X1.7677Y-2.0157
X1.7677Y-2.0733
X1.7953Y-2.0433
X14.5177Y-1.2657
X14.5177Y-1.3233
X14.5453Y-1.2933
X12.8302Y-4.2657
X12.8302Y-4.3233
X12.8578Y-4.2933
X14.5177Y-0.1407
X14.5177Y-0.1983
X14.5453Y-0.1683
X12.8302Y-2.0157
X12.8302Y-2.0733
X12.8578Y-2.0433
X2.6115Y-4.2657
X2.6115Y-4.3233
X2.639Y-4.2933
X2.3302Y-3.5157
X2.3302Y-3.5733
X2.3578Y-3.5433
X16.0177Y-2.0157
X16.0177Y-2.0733
X16.0453Y-2.0433
X9.174Y-4.2657
X9.174Y-4.3233
X9.2015Y-4.2933
X4.7677Y-2.0157
X4.7677Y-2.0733
X4.7953Y-2.0433
X2.1427Y-1.2657
X2.1427Y-1.3233
X2.1703Y-1.2933
X12.0802Y-0.1407
X12.0802Y-0.1983
X12.1078Y-0.1683
X7.7677Y-0.1407
X7.7677Y-0.1983
X7.7953Y-0.1683
X2.8927Y-1.2657
X2.8927Y-1.3233
X2.9203Y-1.2933
X7.9552Y-2.7657
X7.9552Y-2.8233
X7.9828Y-2.7933
X0.6427Y-0.1407
X0.6427Y-0.1983
X0.6703Y-0.1683
X11.1427Y-0.1407
X11.1427Y-0.1983
X11.1703Y-0.1683
X5.5177Y-0.1407
X5.5177Y-0.1983
X5.5453Y-0.1683
X16.7677Y-1.2657
X16.7677Y-1.3233
X16.7953Y-1.2933
X16.0177Y-0.1407
X16.0177Y-0.1983
X16.0453Y-0.1683
X11.8189Y-2.8425
X11.8465Y-2.8125
X11.8465Y-2.8701
X13.5802Y-1.2657
X13.5802Y-1.3233
X13.6078Y-1.2933
X16.7677Y-3.8907
X16.7677Y-3.9483
X16.7953Y-3.9183
X13.5802Y-2.0157
X13.5802Y-2.0733
X13.6078Y-2.0433
X15.2677Y-2.7657
X15.2677Y-2.8233
X15.2953Y-2.7933
X12.0802Y-1.2657
X12.0802Y-1.3233
X12.1078Y-1.2933
X6.4552Y-2.7657
X6.4552Y-2.8233
X6.4828Y-2.7933
X4.2052Y-2.7657
X4.2052Y-2.8233
X4.2328Y-2.7933
X1.1115Y-3.5157
X1.1115Y-3.5733
X1.139Y-3.5433
X8.1427Y-1.2657
X8.1427Y-1.3233
X8.1703Y-1.2933
X9.4552Y-2.7657
X9.4552Y-2.8233
X9.4828Y-2.7933
X10.3927Y-0.1407
X10.3927Y-0.1983
X10.4203Y-0.1683
X2.7052Y-2.7657
X2.7052Y-2.8233
X2.7328Y-2.7933
X3.2677Y-2.0157
X3.2677Y-2.0733
X3.2953Y-2.0433
X10.9552Y-2.0157
X10.9552Y-2.0733
X10.9828Y-2.0433
X13.2148Y-2.815
X13.2148Y-2.8725
X13.2423Y-2.8425
X15.2677Y-0.1407
X15.2677Y-0.1983
X15.2953Y-0.1683
X12.7878Y-2.815
X12.7878Y-2.8725
X12.8153Y-2.8425
X14.5177Y-2.7657
X14.5177Y-2.8233
X14.5453Y-2.7933
X16.0177Y-4.2657
X16.0177Y-4.3233
X16.0453Y-4.2933
X0.7365Y-4.2657
X0.7365Y-4.3233
X0.764Y-4.2933
X16.0177Y-3.5157
X16.0177Y-3.5733
X16.0453Y-3.5433
X13.5802Y-0.1407
X13.5802Y-0.1983
X13.6078Y-0.1683
X7.7677Y-2.0157
X7.7677Y-2.0733
X7.7953Y-2.0433
X12.8302Y-0.1407
X12.8302Y-0.1983
X12.8578Y-0.1683
X1.3927Y-1.2657
X1.3927Y-1.3233
X1.4203Y-1.2933
X5.1427Y-1.2657
X5.1427Y-1.3233
X5.1703Y-1.2933
X7.0177Y-2.0157
X7.0177Y-2.0733
X7.0453Y-2.0433
X2.8927Y-0.1407
X2.8927Y-0.1983
X2.9203Y-0.1683
X10.674Y-2.7657
X10.674Y-2.8233
X10.7015Y-2.7933
X3.6427Y-1.2657
X3.6427Y-1.3233
X3.6703Y-1.2933
X0.6427Y-1.2657
X0.6427Y-1.3233
X0.6703Y-1.2933
X9.0802Y-3.5157
X9.0802Y-3.5733
X9.1078Y-3.5433
X12.0802Y-4.2657
X12.0802Y-4.3233
X12.1078Y-4.2933
X15.2677Y-1.2657
X15.2677Y-1.3233
X15.2953Y-1.2933
X5.3302Y-3.5157
X5.3302Y-3.5733
X5.3578Y-3.5433
X6.8302Y-3.5157
X6.8302Y-3.5733
X6.8578Y-3.5433
X14.8927Y-4.2657
X14.8927Y-4.3233
X14.9203Y-4.2933
X15.2677Y-3.5157
X15.2677Y-3.5733
X15.2953Y-3.5433
X16.7677Y-2.3907
X16.7677Y-2.4483
X16.7953Y-2.4183
X5.8927Y-1.2657
X5.8927Y-1.3233
X5.9203Y-1.2933
X6.2677Y-2.0157
X6.2677Y-2.0733
X6.2953Y-2.0433
X4.3927Y-0.1407
X4.3927Y-0.1983
X4.4203Y-0.1683
X5.5177Y-2.0157
X5.5177Y-2.0733
X5.5453Y-2.0433
X7.3927Y-1.2657
X7.3927Y-1.3233
X7.4203Y-1.2933
X9.2677Y-2.0157
X9.2677Y-2.0733
X9.2953Y-2.0433
X11.049Y-4.2657
X11.049Y-4.3233
X11.0765Y-4.2933
X13.5802Y-4.2657
X13.5802Y-4.3233
X13.6078Y-4.2933
X3.0802Y-3.5157
X3.0802Y-3.5733
X3.1078Y-3.5433
X4.5802Y-3.5157
X4.5802Y-3.5733
X4.6078Y-3.5433
X14.5177Y-2.0157
X14.5177Y-2.0733
X14.5453Y-2.0433
X15.2677Y-2.0157
X15.2677Y-2.0733
X15.2953Y-2.0433
X7.5802Y-3.5157
X7.5802Y-3.5733
X7.6078Y-3.5433
X8.8927Y-1.2657
X8.8927Y-1.3233
X8.9203Y-1.2933
X7.2052Y-2.7657
X7.2052Y-2.8233
X7.2328Y-2.7933
X3.4552Y-2.7657
X3.4552Y-2.8233
X3.4828Y-2.7933
X4.9552Y-2.7657
X4.9552Y-2.8233
X4.9828Y-2.7933
X9.6427Y-1.2657
X9.6427Y-1.3233
X9.6703Y-1.2933
X10.7677Y-1.2657
X10.7677Y-1.3233
X10.7953Y-1.2933
X0.924Y-2.7657
X0.924Y-2.8233
X0.9515Y-2.7933
X12.8302Y-3.5157
X12.8302Y-3.5733
X12.8578Y-3.5433
X13.6417Y-2.815
X13.6417Y-2.8725
X13.6693Y-2.8425
X6.0802Y-3.5157
X6.0802Y-3.5733
X6.1078Y-3.5433
X1.674Y-4.2657
X1.674Y-4.3233
X1.7015Y-4.2933
X5.424Y-4.2657
X5.424Y-4.3233
X5.4515Y-4.2933
X14.5177Y-3.5157
X14.5177Y-3.5733
X14.5453Y-3.5433
X8.2365Y-4.2657
X8.2365Y-4.3233
X8.264Y-4.2933
X12.8302Y-1.2657
X12.8302Y-1.3233
X12.8578Y-1.2933
X6.2677Y-0.1407
X6.2677Y-0.1983
X6.2953Y-0.1683
X8.8927Y-0.1407
X8.8927Y-0.1983
X8.9203Y-0.1683
X7.0177Y-0.1407
X7.0177Y-0.1983
X7.0453Y-0.1683
X3.6427Y-0.1407
X3.6427Y-0.1983
X3.6703Y-0.1683
X9.6427Y-0.1407
X9.6427Y-0.1983
X9.6703Y-0.1683
X12.3608Y-2.815
X12.3608Y-2.8725
X12.3884Y-2.8425
X10.0177Y-2.0157
X10.0177Y-2.0733
X10.0453Y-2.0433
X2.5177Y-2.0157
X2.5177Y-2.0733
X2.5453Y-2.0433
X2.1427Y-0.1407
X2.1427Y-0.1983
X2.1703Y-0.1683
X10.4865Y-3.5157
X10.4865Y-3.5733
X10.514Y-3.5433
X10.1115Y-4.2657
X10.1115Y-4.3233
X10.139Y-4.2933
T4
X13.8593Y-0.1841
X13.8593Y-0.2372
X13.8927Y-0.1841
X13.8927Y-0.2372
X13.9262Y-0.1841
X13.9262Y-0.2372
X13.9596Y-0.1841
X13.9596Y-0.2372
X13.9931Y-0.1841
X13.9931Y-0.2372
X14.0266Y-0.1841
X14.0266Y-0.2372
X14.06Y-0.1841
X14.06Y-0.2372
X14.0935Y-0.1841
X14.0935Y-0.2372
T5
X13.025Y-0.75
X13.065Y-0.75
X13.105Y-0.75
X13.145Y-0.75
T6
X13.825Y-0.605
X13.825Y-0.705
X12.24Y-1.15
X12.34Y-1.15
X12.44Y-1.15
X12.54Y-1.15
X12.64Y-1.15
T7
X16.8152Y-0.1073
X16.8152Y-0.6781
X16.9136Y-0.6781
X17.012Y-0.1073
X17.012Y-0.6781
T9
X4.0344Y-3.2
X4.2844Y-3.1
X8.1594Y-3.95
X8.4094Y-3.85
X6.8469Y-0.575
X7.0969Y-0.475
X8.9094Y-3.95
X9.1594Y-3.85
X5.3469Y-2.45
X5.5969Y-2.35
X3.8469Y-2.45
X4.0969Y-2.35
X6.0969Y-2.45
X6.3469Y-2.35
X12.6594Y-0.575
X12.9094Y-0.475
X11.9094Y-1.7
X12.1594Y-1.6
X11.9094Y-0.575
X12.1594Y-0.475
X11.9094Y-4.7
X12.1594Y-4.6
X13.4094Y-4.7
X13.6594Y-4.6
X0.6594Y-2.45
X0.9094Y-2.35
X15.8469Y-4.7
X16.0969Y-4.6
X2.1594Y-3.95
X2.4094Y-3.85
X4.2219Y-0.575
X4.4719Y-0.475
X8.0656Y-4.7
X8.3156Y-4.6
X7.2219Y-1.7
X7.4719Y-1.6
X7.5969Y-2.45
X7.8469Y-2.35
X5.9094Y-3.95
X6.1594Y-3.85
X8.7219Y-0.575
X8.9719Y-0.475
X13.4094Y-0.575
X13.6594Y-0.475
X12.6594Y-2.45
X12.9094Y-2.35
X13.4094Y-2.45
X13.6594Y-2.35
X12.6594Y-1.7
X12.9094Y-1.6
X10.7844Y-2.45
X11.0344Y-2.35
X0.7531Y-3.2
X1.0031Y-3.1
X2.3469Y-2.45
X2.5969Y-2.35
X4.2219Y-1.7
X4.4719Y-1.6
X5.5344Y-3.2
X5.7844Y-3.1
X9.0969Y-2.45
X9.3469Y-2.35
X4.9719Y-1.7
X5.2219Y-1.6
X3.2844Y-3.2
X3.5344Y-3.1
X8.5344Y-3.2
X8.7844Y-3.1
X14.3469Y-3.95
X14.5969Y-3.85
X11.9094Y-2.45
X12.1594Y-2.35
X1.9719Y-0.575
X2.2219Y-0.475
X15.0969Y-0.575
X15.3469Y-0.475
X15.8469Y-3.2
X16.0969Y-3.1
X14.3469Y-1.7
X14.5969Y-1.6
X14.7219Y-4.7
X14.9719Y-4.6
X10.8781Y-4.7
X11.1281Y-4.6
X0.5656Y-4.7
X0.8156Y-4.6
X2.5344Y-3.2
X2.7844Y-3.1
X4.4094Y-3.95
X4.6594Y-3.85
X7.4094Y-3.95
X7.6594Y-3.85
X7.0344Y-3.2
X7.2844Y-3.1
X6.8469Y-2.45
X7.0969Y-2.35
X7.5969Y-0.575
X7.8469Y-0.475
X9.4719Y-1.7
X9.7219Y-1.6
X15.0969Y-1.7
X15.3469Y-1.6
X6.6594Y-3.95
X6.9094Y-3.85
X12.6594Y-3.95
X12.9094Y-3.85
X15.0969Y-2.45
X15.3469Y-2.35
X9.8469Y-2.45
X10.0969Y-2.35
X15.8469Y-0.575
X16.0969Y-0.475
X10.5031Y-3.2
X10.7531Y-3.1
X0.4719Y-0.575
X0.7219Y-0.475
X14.3469Y-3.2
X14.5969Y-3.1
X1.5031Y-4.7
X1.7531Y-4.6
X3.4719Y-0.575
X3.7219Y-0.475
X4.7844Y-3.2
X5.0344Y-3.1
X7.7844Y-3.2
X8.0344Y-3.1
X7.9719Y-1.7
X8.2219Y-1.6
X10.2219Y-0.575
X10.4719Y-0.475
X2.9094Y-3.95
X3.1594Y-3.85
X4.5969Y-2.45
X4.8469Y-2.35
X6.0969Y-0.575
X6.3469Y-0.475
X15.0969Y-3.95
X15.3469Y-3.85
X12.6594Y-4.7
X12.9094Y-4.6
X14.3469Y-0.575
X14.5969Y-0.475
X16.5969Y-1.7
X16.8469Y-1.6
X0.4719Y-1.7
X0.7219Y-1.6
X16.5969Y-4.325
X16.8469Y-4.225
X1.9719Y-1.7
X2.2219Y-1.6
X3.0969Y-2.45
X3.3469Y-2.35
X5.2531Y-4.7
X5.5031Y-4.6
X8.7219Y-1.7
X8.9719Y-1.6
X8.3469Y-2.45
X8.5969Y-2.35
X2.7219Y-1.7
X2.9719Y-1.6
X3.4719Y-1.7
X3.7219Y-1.6
X5.1594Y-3.95
X5.4094Y-3.85
X6.2844Y-3.2
X6.5344Y-3.1
X13.4094Y-1.7
X13.6594Y-1.6
X16.5969Y-2.825
X16.8469Y-2.725
X10.3156Y-3.95
X10.5656Y-3.85
X14.3469Y-2.45
X14.5969Y-2.35
X9.9406Y-4.7
X10.1906Y-4.6
X2.7219Y-0.575
X2.9719Y-0.475
X15.0969Y-3.2
X15.3469Y-3.1
X1.5969Y-2.45
X1.8469Y-2.35
X3.6594Y-3.95
X3.9094Y-3.85
X5.7219Y-1.7
X5.9719Y-1.6
X9.4719Y-0.575
X9.7219Y-0.475
X9.2844Y-3.2
X9.5344Y-3.1
X2.4406Y-4.7
X2.6906Y-4.6
X5.3469Y-0.575
X5.5969Y-0.475
X9.0031Y-4.7
X9.2531Y-4.6
X6.4719Y-1.7
X6.7219Y-1.6
X15.8469Y-2.45
X16.0969Y-2.35
X10.9719Y-0.575
X11.2219Y-0.475
X10.5969Y-1.7
X10.8469Y-1.6
X0.9406Y-3.95
X1.1906Y-3.85
X15.8469Y-3.95
X16.0969Y-3.85
X1.2219Y-1.7
X1.4719Y-1.6
X15.8469Y-1.7
X16.0969Y-1.6
X1.7844Y-3.2
X2.0344Y-3.1
T12
X16.6892Y-0.3829
X17.138Y-0.3829
T13
X11.54Y-0.2
T14
X8.8094Y-3.75
X9.2094Y-3.75
X5.2469Y-2.25
X5.6469Y-2.25
X3.7469Y-2.25
X4.1469Y-2.25
X5.9969Y-2.25
X6.3969Y-2.25
X12.5594Y-0.375
X12.9594Y-0.375
X11.8094Y-1.5
X12.2094Y-1.5
X11.8094Y-0.375
X12.2094Y-0.375
X11.8094Y-4.5
X12.2094Y-4.5
X13.3094Y-4.5
X13.7094Y-4.5
X0.5594Y-2.25
X0.9594Y-2.25
X15.7469Y-4.5
X16.1469Y-4.5
X2.0594Y-3.75
X2.4594Y-3.75
X4.1219Y-0.375
X4.5219Y-0.375
X7.9656Y-4.5
X8.3656Y-4.5
X7.1219Y-1.5
X7.5219Y-1.5
X7.4969Y-2.25
X7.8969Y-2.25
X5.8094Y-3.75
X6.2094Y-3.75
X8.6219Y-0.375
X9.0219Y-0.375
X13.3094Y-0.375
X13.7094Y-0.375
X12.5594Y-2.25
X12.9594Y-2.25
X13.3094Y-2.25
X13.7094Y-2.25
X12.5594Y-1.5
X12.9594Y-1.5
X10.6844Y-2.25
X11.0844Y-2.25
X0.6531Y-3.0
X1.0531Y-3.0
X2.2469Y-2.25
X2.6469Y-2.25
X4.1219Y-1.5
X4.5219Y-1.5
X5.4344Y-3.0
X5.8344Y-3.0
X8.9969Y-2.25
X9.3969Y-2.25
X4.8719Y-1.5
X5.2719Y-1.5
X3.1844Y-3.0
X3.5844Y-3.0
X8.4344Y-3.0
X8.8344Y-3.0
X14.2469Y-3.75
X14.6469Y-3.75
X11.8094Y-2.25
X12.2094Y-2.25
X1.8719Y-0.375
X2.2719Y-0.375
X14.9969Y-0.375
X15.3969Y-0.375
X15.7469Y-3.0
X16.1469Y-3.0
X14.2469Y-1.5
X14.6469Y-1.5
X14.6219Y-4.5
X15.0219Y-4.5
X10.7781Y-4.5
X11.1781Y-4.5
X0.4656Y-4.5
X0.8656Y-4.5
X2.4344Y-3.0
X2.8344Y-3.0
X4.3094Y-3.75
X4.7094Y-3.75
X7.3094Y-3.75
X7.7094Y-3.75
X6.9344Y-3.0
X7.3344Y-3.0
X6.7469Y-2.25
X7.1469Y-2.25
X7.4969Y-0.375
X7.8969Y-0.375
X9.3719Y-1.5
X9.7719Y-1.5
X14.9969Y-1.5
X15.3969Y-1.5
X6.5594Y-3.75
X6.9594Y-3.75
X12.5594Y-3.75
X12.9594Y-3.75
X14.9969Y-2.25
X15.3969Y-2.25
X9.7469Y-2.25
X10.1469Y-2.25
X15.7469Y-0.375
X16.1469Y-0.375
X10.4031Y-3.0
X10.8031Y-3.0
X0.3719Y-0.375
X0.7719Y-0.375
X14.2469Y-3.0
X14.6469Y-3.0
X1.4031Y-4.5
X1.8031Y-4.5
X3.3719Y-0.375
X3.7719Y-0.375
X4.6844Y-3.0
X5.0844Y-3.0
X7.6844Y-3.0
X8.0844Y-3.0
X7.8719Y-1.5
X8.2719Y-1.5
X10.1219Y-0.375
X10.5219Y-0.375
X2.8094Y-3.75
X3.2094Y-3.75
X4.4969Y-2.25
X4.8969Y-2.25
X5.9969Y-0.375
X6.3969Y-0.375
X14.9969Y-3.75
X15.3969Y-3.75
X12.5594Y-4.5
X12.9594Y-4.5
X14.2469Y-0.375
X14.6469Y-0.375
X16.4969Y-1.5
X16.8969Y-1.5
X0.3719Y-1.5
X0.7719Y-1.5
X16.4969Y-4.125
X16.8969Y-4.125
X1.8719Y-1.5
X2.2719Y-1.5
X2.9969Y-2.25
X3.3969Y-2.25
X5.1531Y-4.5
X5.5531Y-4.5
X8.6219Y-1.5
X9.0219Y-1.5
X8.2469Y-2.25
X8.6469Y-2.25
X2.6219Y-1.5
X3.0219Y-1.5
X3.3719Y-1.5
X3.7719Y-1.5
X5.0594Y-3.75
X5.4594Y-3.75
X6.1844Y-3.0
X6.5844Y-3.0
X13.3094Y-1.5
X13.7094Y-1.5
X16.4969Y-2.625
X16.8969Y-2.625
X10.2156Y-3.75
X10.6156Y-3.75
X14.2469Y-2.25
X14.6469Y-2.25
X9.8406Y-4.5
X10.2406Y-4.5
X2.6219Y-0.375
X3.0219Y-0.375
X14.9969Y-3.0
X15.3969Y-3.0
X1.4969Y-2.25
X1.8969Y-2.25
X3.5594Y-3.75
X3.9594Y-3.75
X5.6219Y-1.5
X6.0219Y-1.5
X9.3719Y-0.375
X9.7719Y-0.375
X9.1844Y-3.0
X9.5844Y-3.0
X2.3406Y-4.5
X2.7406Y-4.5
X5.2469Y-0.375
X5.6469Y-0.375
X8.9031Y-4.5
X9.3031Y-4.5
X6.3719Y-1.5
X6.7719Y-1.5
X15.7469Y-2.25
X16.1469Y-2.25
X10.8719Y-0.375
X11.2719Y-0.375
X10.4969Y-1.5
X10.8969Y-1.5
X0.8406Y-3.75
X1.2406Y-3.75
X15.7469Y-3.75
X16.1469Y-3.75
X1.1219Y-1.5
X1.5219Y-1.5
X15.7469Y-1.5
X16.1469Y-1.5
X1.6844Y-3.0
X2.0844Y-3.0
X3.9344Y-3.0
X4.3344Y-3.0
X8.0594Y-3.75
X8.4594Y-3.75
X6.7469Y-0.375
X7.1469Y-0.375
T15
X3.3831Y-4.225
X7.3231Y-4.225
X0.5706Y-3.475
X1.5106Y-3.475
X16.9719Y-3.655
X16.9719Y-4.595
X9.9456Y-3.475
X10.8856Y-3.475
X10.1331Y-2.725
X11.0731Y-2.725
X14.3519Y-4.225
X15.2919Y-4.225
X10.2269Y-1.225
X11.1669Y-1.225
X16.9719Y-2.155
X16.9719Y-3.095
T16
X16.3719Y-2.155
X16.3719Y-3.095
X3.3831Y-4.825
X7.3231Y-4.825
X0.5706Y-4.075
X1.5106Y-4.075
X16.3719Y-3.655
X16.3719Y-4.595
X9.9456Y-4.075
X10.8856Y-4.075
X10.1331Y-3.325
X11.0731Y-3.325
X14.3519Y-4.825
X15.2919Y-4.825
X10.2269Y-1.825
X11.1669Y-1.825
T17
X9.5719Y-0.375
X9.3844Y-3.0
X2.5406Y-4.5
X5.4469Y-0.375
X9.1031Y-4.5
X6.5719Y-1.5
X15.9469Y-2.25
X11.0719Y-0.375
X10.6969Y-1.5
X1.0406Y-3.75
X15.9469Y-3.75
X1.3219Y-1.5
X15.9469Y-1.5
X1.8844Y-3.0
X4.1344Y-3.0
X8.2594Y-3.75
X6.9469Y-0.375
X9.0094Y-3.75
X5.4469Y-2.25
X3.9469Y-2.25
X6.1969Y-2.25
X12.7594Y-0.375
X12.0094Y-1.5
X12.0094Y-0.375
X12.0094Y-4.5
X13.5094Y-4.5
X0.7594Y-2.25
X15.9469Y-4.5
X2.2594Y-3.75
X4.3219Y-0.375
X8.1656Y-4.5
X7.3219Y-1.5
X7.6969Y-2.25
X6.0094Y-3.75
X8.8219Y-0.375
X13.5094Y-0.375
X12.7594Y-2.25
X13.5094Y-2.25
X12.7594Y-1.5
X10.8844Y-2.25
X0.8531Y-3.0
X2.4469Y-2.25
X4.3219Y-1.5
X5.6344Y-3.0
X9.1969Y-2.25
X5.0719Y-1.5
X3.3844Y-3.0
X8.6344Y-3.0
X14.4469Y-3.75
X12.0094Y-2.25
X2.0719Y-0.375
X15.1969Y-0.375
X15.9469Y-3.0
X14.4469Y-1.5
X14.8219Y-4.5
X10.9781Y-4.5
X0.6656Y-4.5
X2.6344Y-3.0
X4.5094Y-3.75
X7.5094Y-3.75
X7.1344Y-3.0
X6.9469Y-2.25
X7.6969Y-0.375
X9.5719Y-1.5
X15.1969Y-1.5
X6.7594Y-3.75
X12.7594Y-3.75
X15.1969Y-2.25
X9.9469Y-2.25
X15.9469Y-0.375
X10.6031Y-3.0
X0.5719Y-0.375
X14.4469Y-3.0
X1.6031Y-4.5
X3.5719Y-0.375
X4.8844Y-3.0
X7.8844Y-3.0
X8.0719Y-1.5
X10.3219Y-0.375
X3.0094Y-3.75
X4.6969Y-2.25
X6.1969Y-0.375
X15.1969Y-3.75
X12.7594Y-4.5
X14.4469Y-0.375
X16.6969Y-1.5
X0.5719Y-1.5
X16.6969Y-4.125
X2.0719Y-1.5
X3.1969Y-2.25
X5.3531Y-4.5
X8.8219Y-1.5
X8.4469Y-2.25
X2.8219Y-1.5
X3.5719Y-1.5
X5.2594Y-3.75
X6.3844Y-3.0
X13.5094Y-1.5
X16.6969Y-2.625
X10.4156Y-3.75
X14.4469Y-2.25
X10.0406Y-4.5
X2.8219Y-0.375
X15.1969Y-3.0
X1.6969Y-2.25
X3.7594Y-3.75
X5.8219Y-1.5
T8
G00X13.8061Y-0.0656
M15
G01X13.8061Y-0.0656
M16
G05
G00X14.1467Y-0.0656
M15
G01X14.1467Y-0.0656
M16
G05
T10
G00X13.8061Y-0.1986
M15
G01X13.8061Y-0.1986
M16
G05
G00X14.1467Y-0.1986
M15
G01X14.1467Y-0.1986
M16
G05
T11
G00X17.2492Y-3.35
M15
G01X17.2098Y-3.35
M16
G05
G00X0.0258Y-3.35
M15
G01X0.0652Y-3.35
M16
G05
T0
M30
