%TF.GenerationSoftware,KiCad,Pcbnew,(5.1.8)-1*%
%TF.CreationDate,2021-04-20T19:09:35-04:00*%
%TF.ProjectId,694200101,36393432-3030-4313-9031-2e6b69636164,rev?*%
%TF.SameCoordinates,Original*%
%TF.FileFunction,Paste,Bot*%
%TF.FilePolarity,Positive*%
%FSLAX46Y46*%
G04 Gerber Fmt 4.6, Leading zero omitted, Abs format (unit mm)*
G04 Created by KiCad (PCBNEW (5.1.8)-1) date 2021-04-20 19:09:35*
%MOMM*%
%LPD*%
G01*
G04 APERTURE LIST*
%ADD10R,0.350000X0.750000*%
%ADD11R,1.400000X0.600000*%
%ADD12R,0.950000X0.930000*%
%ADD13R,0.930000X0.950000*%
%ADD14R,0.970000X0.900000*%
%ADD15R,0.750000X0.200000*%
%ADD16R,0.200000X0.750000*%
%ADD17R,1.300000X1.700000*%
%ADD18R,1.700000X1.300000*%
%ADD19R,0.862132X0.690831*%
%ADD20R,2.184400X1.651000*%
%ADD21R,0.708716X0.812132*%
%ADD22R,0.812132X0.708716*%
%ADD23R,0.812132X0.758142*%
%ADD24R,0.812132X0.708142*%
%ADD25R,0.758142X0.812132*%
%ADD26C,0.100000*%
%ADD27R,1.380000X1.010000*%
%ADD28R,1.300000X1.100000*%
%ADD29R,1.340000X3.020000*%
%ADD30R,3.020000X1.340000*%
%ADD31R,1.330000X3.460000*%
%ADD32R,3.460000X1.330000*%
%ADD33R,0.900000X0.970000*%
%ADD34R,1.761200X3.150799*%
%ADD35R,1.761200X0.850800*%
G04 APERTURE END LIST*
D10*
%TO.C,U2*%
X355490400Y-9681600D03*
X354990400Y-9681600D03*
X354490400Y-9681600D03*
X354490400Y-8301600D03*
X354990400Y-8301600D03*
X355490400Y-8301600D03*
%TD*%
D11*
%TO.C,U4*%
X336821000Y-23241000D03*
X336821000Y-21971000D03*
X336821000Y-20701000D03*
X336821000Y-19431000D03*
X342121000Y-19431000D03*
X342121000Y-20701000D03*
X342121000Y-21971000D03*
X342121000Y-23241000D03*
%TD*%
D12*
%TO.C,C27*%
X350671000Y-92964000D03*
X352147000Y-92964000D03*
%TD*%
D13*
%TO.C,C26*%
X30734000Y-25043000D03*
X30734000Y-26519000D03*
%TD*%
D14*
%TO.C,R22*%
X355765100Y-11482800D03*
X355765100Y-13002800D03*
%TD*%
%TO.C,R21*%
X354266500Y-11482800D03*
X354266500Y-13002800D03*
%TD*%
%TO.C,C25*%
G36*
G01*
X379280000Y-12733000D02*
X379280000Y-13683000D01*
G75*
G02*
X379030000Y-13933000I-250000J0D01*
G01*
X378530000Y-13933000D01*
G75*
G02*
X378280000Y-13683000I0J250000D01*
G01*
X378280000Y-12733000D01*
G75*
G02*
X378530000Y-12483000I250000J0D01*
G01*
X379030000Y-12483000D01*
G75*
G02*
X379280000Y-12733000I0J-250000D01*
G01*
G37*
G36*
G01*
X381180000Y-12733000D02*
X381180000Y-13683000D01*
G75*
G02*
X380930000Y-13933000I-250000J0D01*
G01*
X380430000Y-13933000D01*
G75*
G02*
X380180000Y-13683000I0J250000D01*
G01*
X380180000Y-12733000D01*
G75*
G02*
X380430000Y-12483000I250000J0D01*
G01*
X380930000Y-12483000D01*
G75*
G02*
X381180000Y-12733000I0J-250000D01*
G01*
G37*
%TD*%
D15*
%TO.C,U6*%
X346926999Y-95062400D03*
X346926999Y-94662400D03*
X346926999Y-94262400D03*
X346926999Y-93862400D03*
X346926999Y-93462400D03*
X346926999Y-93062400D03*
X346926999Y-92662400D03*
X346926999Y-92262400D03*
X346926999Y-91862400D03*
X346926999Y-91462400D03*
X346926999Y-91062400D03*
X346926999Y-90662400D03*
D16*
X346201999Y-89937400D03*
X345801999Y-89937400D03*
X345401999Y-89937400D03*
X345001999Y-89937400D03*
X344601999Y-89937400D03*
X344201999Y-89937400D03*
X343801999Y-89937400D03*
X343401999Y-89937400D03*
X343001999Y-89937400D03*
X342601999Y-89937400D03*
X342201999Y-89937400D03*
X341801999Y-89937400D03*
D15*
X341076999Y-90662400D03*
X341076999Y-91062400D03*
X341076999Y-91462400D03*
X341076999Y-91862400D03*
X341076999Y-92262400D03*
X341076999Y-92662400D03*
X341076999Y-93062400D03*
X341076999Y-93462400D03*
X341076999Y-93862400D03*
X341076999Y-94262400D03*
X341076999Y-94662400D03*
X341076999Y-95062400D03*
D16*
X341801999Y-95787400D03*
X342201999Y-95787400D03*
X342601999Y-95787400D03*
X343001999Y-95787400D03*
X343401999Y-95787400D03*
X343801999Y-95787400D03*
X344201999Y-95787400D03*
X344601999Y-95787400D03*
X345001999Y-95787400D03*
X345401999Y-95787400D03*
X345801999Y-95787400D03*
X346201999Y-95787400D03*
%TD*%
%TO.C,U5*%
X28534000Y-21848000D03*
X28934000Y-21848000D03*
X29334000Y-21848000D03*
X29734000Y-21848000D03*
X30134000Y-21848000D03*
X30534000Y-21848000D03*
X30934000Y-21848000D03*
X31334000Y-21848000D03*
X31734000Y-21848000D03*
X32134000Y-21848000D03*
X32534000Y-21848000D03*
X32934000Y-21848000D03*
D15*
X33659000Y-21123000D03*
X33659000Y-20723000D03*
X33659000Y-20323000D03*
X33659000Y-19923000D03*
X33659000Y-19523000D03*
X33659000Y-19123000D03*
X33659000Y-18723000D03*
X33659000Y-18323000D03*
X33659000Y-17923000D03*
X33659000Y-17523000D03*
X33659000Y-17123000D03*
X33659000Y-16723000D03*
D16*
X32934000Y-15998000D03*
X32534000Y-15998000D03*
X32134000Y-15998000D03*
X31734000Y-15998000D03*
X31334000Y-15998000D03*
X30934000Y-15998000D03*
X30534000Y-15998000D03*
X30134000Y-15998000D03*
X29734000Y-15998000D03*
X29334000Y-15998000D03*
X28934000Y-15998000D03*
X28534000Y-15998000D03*
D15*
X27809000Y-16723000D03*
X27809000Y-17123000D03*
X27809000Y-17523000D03*
X27809000Y-17923000D03*
X27809000Y-18323000D03*
X27809000Y-18723000D03*
X27809000Y-19123000D03*
X27809000Y-19523000D03*
X27809000Y-19923000D03*
X27809000Y-20323000D03*
X27809000Y-20723000D03*
X27809000Y-21123000D03*
%TD*%
D17*
%TO.C,D108*%
X417750000Y-108000000D03*
X414250000Y-108000000D03*
%TD*%
%TO.C,D107*%
X418000000Y-69750000D03*
X414500000Y-69750000D03*
%TD*%
D18*
%TO.C,D106*%
X428250000Y-44750000D03*
X428250000Y-48250000D03*
%TD*%
D17*
%TO.C,D105*%
X410550000Y-120600000D03*
X407050000Y-120600000D03*
%TD*%
D18*
%TO.C,D104*%
X409250000Y-101750000D03*
X409250000Y-105250000D03*
%TD*%
%TO.C,D103*%
X408750000Y-82250000D03*
X408750000Y-85750000D03*
%TD*%
%TO.C,D102*%
X408750000Y-63500000D03*
X408750000Y-67000000D03*
%TD*%
%TO.C,D101*%
X408962500Y-44750000D03*
X408962500Y-48250000D03*
%TD*%
%TO.C,D100*%
X409287500Y-15650000D03*
X409287500Y-19150000D03*
%TD*%
%TO.C,D99*%
X393065000Y-100485000D03*
X393065000Y-103985000D03*
%TD*%
%TO.C,D98*%
X389787500Y-82250000D03*
X389787500Y-85750000D03*
%TD*%
%TO.C,D97*%
X390000000Y-63500000D03*
X390000000Y-67000000D03*
%TD*%
%TO.C,D96*%
X389890000Y-44732000D03*
X389890000Y-48232000D03*
%TD*%
%TO.C,D95*%
X389750000Y-15650000D03*
X389750000Y-19150000D03*
%TD*%
D17*
%TO.C,D94*%
X421500000Y-4699000D03*
X418000000Y-4699000D03*
%TD*%
%TO.C,D93*%
X383822000Y-116205000D03*
X387322000Y-116205000D03*
%TD*%
D18*
%TO.C,D92*%
X370750000Y-100739000D03*
X370750000Y-104239000D03*
%TD*%
%TO.C,D91*%
X370750000Y-82250000D03*
X370750000Y-85750000D03*
%TD*%
%TO.C,D90*%
X370750000Y-63500000D03*
X370750000Y-67000000D03*
%TD*%
%TO.C,D89*%
X370750000Y-44750000D03*
X370750000Y-48250000D03*
%TD*%
%TO.C,D88*%
X374015000Y-13617000D03*
X374015000Y-17117000D03*
%TD*%
D17*
%TO.C,D87*%
X349350001Y-119500000D03*
X352850001Y-119500000D03*
%TD*%
D18*
%TO.C,D86*%
X349660500Y-59845000D03*
X349660500Y-63345000D03*
%TD*%
%TO.C,D85*%
X347037500Y-44750000D03*
X347037500Y-48250000D03*
%TD*%
%TO.C,D84*%
X344170000Y-12728000D03*
X344170000Y-16228000D03*
%TD*%
D17*
%TO.C,D83*%
X330750000Y-119500000D03*
X334250000Y-119500000D03*
%TD*%
D18*
%TO.C,D82*%
X328250000Y-101750000D03*
X328250000Y-105250000D03*
%TD*%
%TO.C,D81*%
X330708000Y-59845000D03*
X330708000Y-63345000D03*
%TD*%
%TO.C,D80*%
X328000000Y-44750000D03*
X328000000Y-48250000D03*
%TD*%
%TO.C,D79*%
X332060000Y-13110000D03*
X332060000Y-16610000D03*
%TD*%
D17*
%TO.C,D78*%
X312750000Y-119500000D03*
X316250000Y-119500000D03*
%TD*%
D18*
%TO.C,D77*%
X312293000Y-60226000D03*
X312293000Y-63726000D03*
%TD*%
%TO.C,D76*%
X308750000Y-44750000D03*
X308750000Y-48250000D03*
%TD*%
%TO.C,D75*%
X312560000Y-13110000D03*
X312560000Y-16610000D03*
%TD*%
D17*
%TO.C,D74*%
X285750000Y-119500000D03*
X289250000Y-119500000D03*
%TD*%
%TO.C,D73*%
X283365000Y-61468000D03*
X286865000Y-61468000D03*
%TD*%
D18*
%TO.C,D72*%
X275750000Y-44750000D03*
X275750000Y-48250000D03*
%TD*%
%TO.C,D71*%
X288810000Y-13110000D03*
X288810000Y-16610000D03*
%TD*%
D17*
%TO.C,D70*%
X262250000Y-119500000D03*
X265750000Y-119500000D03*
%TD*%
D18*
%TO.C,D69*%
X268500000Y-101750000D03*
X268500000Y-105250000D03*
%TD*%
D17*
%TO.C,D68*%
X277650000Y-77800000D03*
X281150000Y-77800000D03*
%TD*%
D18*
%TO.C,D67*%
X262509000Y-60226000D03*
X262509000Y-63726000D03*
%TD*%
%TO.C,D66*%
X269810000Y-13110000D03*
X269810000Y-16610000D03*
%TD*%
%TO.C,D65*%
X242000000Y-82250000D03*
X242000000Y-85750000D03*
%TD*%
%TO.C,D64*%
X240919000Y-60353000D03*
X240919000Y-63853000D03*
%TD*%
%TO.C,D63*%
X247037500Y-44750000D03*
X247037500Y-48250000D03*
%TD*%
%TO.C,D62*%
X251333000Y-13109000D03*
X251333000Y-16609000D03*
%TD*%
D17*
%TO.C,D61*%
X238000000Y-119500000D03*
X241500000Y-119500000D03*
%TD*%
D18*
%TO.C,D60*%
X232787500Y-101750000D03*
X232787500Y-105250000D03*
%TD*%
%TO.C,D59*%
X223287500Y-82250000D03*
X223287500Y-85750000D03*
%TD*%
%TO.C,D58*%
X221488000Y-60353000D03*
X221488000Y-63853000D03*
%TD*%
%TO.C,D57*%
X227750000Y-44750000D03*
X227750000Y-48250000D03*
%TD*%
%TO.C,D56*%
X231810000Y-13110000D03*
X231810000Y-16610000D03*
%TD*%
D17*
%TO.C,D55*%
X213750000Y-119500000D03*
X217250000Y-119500000D03*
%TD*%
D18*
%TO.C,D54*%
X213712500Y-101750000D03*
X213712500Y-105250000D03*
%TD*%
%TO.C,D53*%
X204250000Y-82250000D03*
X204250000Y-85750000D03*
%TD*%
%TO.C,D52*%
X202057000Y-60226000D03*
X202057000Y-63726000D03*
%TD*%
%TO.C,D51*%
X208750000Y-44750000D03*
X208750000Y-48250000D03*
%TD*%
%TO.C,D50*%
X203560000Y-13110000D03*
X203560000Y-16610000D03*
%TD*%
%TO.C,D49*%
X194500000Y-101750000D03*
X194500000Y-105250000D03*
%TD*%
%TO.C,D48*%
X185250000Y-82250000D03*
X185250000Y-85750000D03*
%TD*%
%TO.C,D47*%
X183134000Y-60226000D03*
X183134000Y-63726000D03*
%TD*%
%TO.C,D46*%
X190000000Y-44750000D03*
X190000000Y-48250000D03*
%TD*%
%TO.C,D45*%
X184310000Y-13110000D03*
X184310000Y-16610000D03*
%TD*%
%TO.C,D44*%
X175500000Y-101750000D03*
X175500000Y-105250000D03*
%TD*%
%TO.C,D43*%
X166000000Y-82250000D03*
X166000000Y-85750000D03*
%TD*%
%TO.C,D42*%
X164592000Y-60226000D03*
X164592000Y-63726000D03*
%TD*%
%TO.C,D41*%
X170750000Y-44750000D03*
X170750000Y-48250000D03*
%TD*%
%TO.C,D40*%
X165060000Y-13110000D03*
X165060000Y-16610000D03*
%TD*%
%TO.C,D39*%
X156500000Y-101750000D03*
X156500000Y-105250000D03*
%TD*%
%TO.C,D38*%
X147000000Y-82250000D03*
X147000000Y-85750000D03*
%TD*%
%TO.C,D37*%
X145669000Y-60353000D03*
X145669000Y-63853000D03*
%TD*%
%TO.C,D36*%
X151750000Y-44750000D03*
X151750000Y-48250000D03*
%TD*%
%TO.C,D35*%
X146060000Y-13110000D03*
X146060000Y-16610000D03*
%TD*%
D17*
%TO.C,D34*%
X143000000Y-119500000D03*
X146500000Y-119500000D03*
%TD*%
D18*
%TO.C,D33*%
X137500000Y-101750000D03*
X137500000Y-105250000D03*
%TD*%
%TO.C,D32*%
X128250000Y-82250000D03*
X128250000Y-85750000D03*
%TD*%
%TO.C,D31*%
X125984000Y-60353000D03*
X125984000Y-63853000D03*
%TD*%
%TO.C,D30*%
X132750000Y-44750000D03*
X132750000Y-48250000D03*
%TD*%
%TO.C,D29*%
X118250000Y-101750000D03*
X118250000Y-105250000D03*
%TD*%
%TO.C,D28*%
X109000000Y-82250000D03*
X109000000Y-85750000D03*
%TD*%
%TO.C,D27*%
X107315000Y-60353000D03*
X107315000Y-63853000D03*
%TD*%
%TO.C,D26*%
X113500000Y-44750000D03*
X113500000Y-48250000D03*
%TD*%
%TO.C,D25*%
X117560000Y-13110000D03*
X117560000Y-16610000D03*
%TD*%
%TO.C,D24*%
X99250000Y-101750000D03*
X99250000Y-105250000D03*
%TD*%
%TO.C,D23*%
X89750000Y-82250000D03*
X89750000Y-85750000D03*
%TD*%
%TO.C,D22*%
X87630000Y-60353000D03*
X87630000Y-63853000D03*
%TD*%
%TO.C,D21*%
X94500000Y-44750000D03*
X94500000Y-48250000D03*
%TD*%
%TO.C,D20*%
X98310000Y-13110000D03*
X98310000Y-16610000D03*
%TD*%
D17*
%TO.C,D19*%
X72250000Y-119500000D03*
X75750000Y-119500000D03*
%TD*%
D18*
%TO.C,D18*%
X80250000Y-101750000D03*
X80250000Y-105250000D03*
%TD*%
%TO.C,D17*%
X70750000Y-82250000D03*
X70750000Y-85750000D03*
%TD*%
%TO.C,D16*%
X69342000Y-60480000D03*
X69342000Y-63980000D03*
%TD*%
%TO.C,D15*%
X75500000Y-44750000D03*
X75500000Y-48250000D03*
%TD*%
%TO.C,D14*%
X79375000Y-13110000D03*
X79375000Y-16610000D03*
%TD*%
%TO.C,D13*%
X61250000Y-101750000D03*
X61250000Y-105250000D03*
%TD*%
%TO.C,D12*%
X51750000Y-82250000D03*
X51750000Y-85750000D03*
%TD*%
%TO.C,D11*%
X50546000Y-60480000D03*
X50546000Y-63980000D03*
%TD*%
%TO.C,D10*%
X56500000Y-44750000D03*
X56500000Y-48250000D03*
%TD*%
%TO.C,D9*%
X60310000Y-13110000D03*
X60310000Y-16610000D03*
%TD*%
D17*
%TO.C,D8*%
X48000000Y-119500000D03*
X51500000Y-119500000D03*
%TD*%
D18*
%TO.C,D7*%
X30250000Y-101750000D03*
X30250000Y-105250000D03*
%TD*%
%TO.C,D6*%
X37500000Y-44750000D03*
X37500000Y-48250000D03*
%TD*%
D17*
%TO.C,D5*%
X24350001Y-119500000D03*
X27850001Y-119500000D03*
%TD*%
D18*
%TO.C,D4*%
X25500000Y-82250000D03*
X25500000Y-85750000D03*
%TD*%
%TO.C,D3*%
X27051000Y-60480000D03*
X27051000Y-63980000D03*
%TD*%
%TO.C,D2*%
X18500000Y-44750000D03*
X18500000Y-48250000D03*
%TD*%
%TO.C,D1*%
X23876000Y-12164000D03*
X23876000Y-8664000D03*
%TD*%
%TO.C,F1*%
G36*
G01*
X364630000Y-6790000D02*
X364630000Y-4640000D01*
G75*
G02*
X364880000Y-4390000I250000J0D01*
G01*
X365630000Y-4390000D01*
G75*
G02*
X365880000Y-4640000I0J-250000D01*
G01*
X365880000Y-6790000D01*
G75*
G02*
X365630000Y-7040000I-250000J0D01*
G01*
X364880000Y-7040000D01*
G75*
G02*
X364630000Y-6790000I0J250000D01*
G01*
G37*
G36*
G01*
X361830000Y-6790000D02*
X361830000Y-4640000D01*
G75*
G02*
X362080000Y-4390000I250000J0D01*
G01*
X362830000Y-4390000D01*
G75*
G02*
X363080000Y-4640000I0J-250000D01*
G01*
X363080000Y-6790000D01*
G75*
G02*
X362830000Y-7040000I-250000J0D01*
G01*
X362080000Y-7040000D01*
G75*
G02*
X361830000Y-6790000I0J250000D01*
G01*
G37*
%TD*%
%TO.C,U3*%
G36*
G01*
X353214910Y-17880478D02*
X354204860Y-18870428D01*
G75*
G02*
X354204860Y-18976494I-53033J-53033D01*
G01*
X354098794Y-19082560D01*
G75*
G02*
X353992728Y-19082560I-53033J53033D01*
G01*
X353002778Y-18092610D01*
G75*
G02*
X353002778Y-17986544I53033J53033D01*
G01*
X353108844Y-17880478D01*
G75*
G02*
X353214910Y-17880478I53033J-53033D01*
G01*
G37*
G36*
G01*
X352861357Y-18234031D02*
X353851307Y-19223981D01*
G75*
G02*
X353851307Y-19330047I-53033J-53033D01*
G01*
X353745241Y-19436113D01*
G75*
G02*
X353639175Y-19436113I-53033J53033D01*
G01*
X352649225Y-18446163D01*
G75*
G02*
X352649225Y-18340097I53033J53033D01*
G01*
X352755291Y-18234031D01*
G75*
G02*
X352861357Y-18234031I53033J-53033D01*
G01*
G37*
G36*
G01*
X352507804Y-18587584D02*
X353497754Y-19577534D01*
G75*
G02*
X353497754Y-19683600I-53033J-53033D01*
G01*
X353391688Y-19789666D01*
G75*
G02*
X353285622Y-19789666I-53033J53033D01*
G01*
X352295672Y-18799716D01*
G75*
G02*
X352295672Y-18693650I53033J53033D01*
G01*
X352401738Y-18587584D01*
G75*
G02*
X352507804Y-18587584I53033J-53033D01*
G01*
G37*
G36*
G01*
X352154250Y-18941138D02*
X353144200Y-19931088D01*
G75*
G02*
X353144200Y-20037154I-53033J-53033D01*
G01*
X353038134Y-20143220D01*
G75*
G02*
X352932068Y-20143220I-53033J53033D01*
G01*
X351942118Y-19153270D01*
G75*
G02*
X351942118Y-19047204I53033J53033D01*
G01*
X352048184Y-18941138D01*
G75*
G02*
X352154250Y-18941138I53033J-53033D01*
G01*
G37*
G36*
G01*
X351800697Y-19294691D02*
X352790647Y-20284641D01*
G75*
G02*
X352790647Y-20390707I-53033J-53033D01*
G01*
X352684581Y-20496773D01*
G75*
G02*
X352578515Y-20496773I-53033J53033D01*
G01*
X351588565Y-19506823D01*
G75*
G02*
X351588565Y-19400757I53033J53033D01*
G01*
X351694631Y-19294691D01*
G75*
G02*
X351800697Y-19294691I53033J-53033D01*
G01*
G37*
G36*
G01*
X351447143Y-19648245D02*
X352437093Y-20638195D01*
G75*
G02*
X352437093Y-20744261I-53033J-53033D01*
G01*
X352331027Y-20850327D01*
G75*
G02*
X352224961Y-20850327I-53033J53033D01*
G01*
X351235011Y-19860377D01*
G75*
G02*
X351235011Y-19754311I53033J53033D01*
G01*
X351341077Y-19648245D01*
G75*
G02*
X351447143Y-19648245I53033J-53033D01*
G01*
G37*
G36*
G01*
X351093590Y-20001798D02*
X352083540Y-20991748D01*
G75*
G02*
X352083540Y-21097814I-53033J-53033D01*
G01*
X351977474Y-21203880D01*
G75*
G02*
X351871408Y-21203880I-53033J53033D01*
G01*
X350881458Y-20213930D01*
G75*
G02*
X350881458Y-20107864I53033J53033D01*
G01*
X350987524Y-20001798D01*
G75*
G02*
X351093590Y-20001798I53033J-53033D01*
G01*
G37*
G36*
G01*
X350740037Y-20355351D02*
X351729987Y-21345301D01*
G75*
G02*
X351729987Y-21451367I-53033J-53033D01*
G01*
X351623921Y-21557433D01*
G75*
G02*
X351517855Y-21557433I-53033J53033D01*
G01*
X350527905Y-20567483D01*
G75*
G02*
X350527905Y-20461417I53033J53033D01*
G01*
X350633971Y-20355351D01*
G75*
G02*
X350740037Y-20355351I53033J-53033D01*
G01*
G37*
G36*
G01*
X350386483Y-20708905D02*
X351376433Y-21698855D01*
G75*
G02*
X351376433Y-21804921I-53033J-53033D01*
G01*
X351270367Y-21910987D01*
G75*
G02*
X351164301Y-21910987I-53033J53033D01*
G01*
X350174351Y-20921037D01*
G75*
G02*
X350174351Y-20814971I53033J53033D01*
G01*
X350280417Y-20708905D01*
G75*
G02*
X350386483Y-20708905I53033J-53033D01*
G01*
G37*
G36*
G01*
X350032930Y-21062458D02*
X351022880Y-22052408D01*
G75*
G02*
X351022880Y-22158474I-53033J-53033D01*
G01*
X350916814Y-22264540D01*
G75*
G02*
X350810748Y-22264540I-53033J53033D01*
G01*
X349820798Y-21274590D01*
G75*
G02*
X349820798Y-21168524I53033J53033D01*
G01*
X349926864Y-21062458D01*
G75*
G02*
X350032930Y-21062458I53033J-53033D01*
G01*
G37*
G36*
G01*
X349679377Y-21416011D02*
X350669327Y-22405961D01*
G75*
G02*
X350669327Y-22512027I-53033J-53033D01*
G01*
X350563261Y-22618093D01*
G75*
G02*
X350457195Y-22618093I-53033J53033D01*
G01*
X349467245Y-21628143D01*
G75*
G02*
X349467245Y-21522077I53033J53033D01*
G01*
X349573311Y-21416011D01*
G75*
G02*
X349679377Y-21416011I53033J-53033D01*
G01*
G37*
G36*
G01*
X349325823Y-21769565D02*
X350315773Y-22759515D01*
G75*
G02*
X350315773Y-22865581I-53033J-53033D01*
G01*
X350209707Y-22971647D01*
G75*
G02*
X350103641Y-22971647I-53033J53033D01*
G01*
X349113691Y-21981697D01*
G75*
G02*
X349113691Y-21875631I53033J53033D01*
G01*
X349219757Y-21769565D01*
G75*
G02*
X349325823Y-21769565I53033J-53033D01*
G01*
G37*
G36*
G01*
X348972270Y-22123118D02*
X349962220Y-23113068D01*
G75*
G02*
X349962220Y-23219134I-53033J-53033D01*
G01*
X349856154Y-23325200D01*
G75*
G02*
X349750088Y-23325200I-53033J53033D01*
G01*
X348760138Y-22335250D01*
G75*
G02*
X348760138Y-22229184I53033J53033D01*
G01*
X348866204Y-22123118D01*
G75*
G02*
X348972270Y-22123118I53033J-53033D01*
G01*
G37*
G36*
G01*
X348618716Y-22476672D02*
X349608666Y-23466622D01*
G75*
G02*
X349608666Y-23572688I-53033J-53033D01*
G01*
X349502600Y-23678754D01*
G75*
G02*
X349396534Y-23678754I-53033J53033D01*
G01*
X348406584Y-22688804D01*
G75*
G02*
X348406584Y-22582738I53033J53033D01*
G01*
X348512650Y-22476672D01*
G75*
G02*
X348618716Y-22476672I53033J-53033D01*
G01*
G37*
G36*
G01*
X348265163Y-22830225D02*
X349255113Y-23820175D01*
G75*
G02*
X349255113Y-23926241I-53033J-53033D01*
G01*
X349149047Y-24032307D01*
G75*
G02*
X349042981Y-24032307I-53033J53033D01*
G01*
X348053031Y-23042357D01*
G75*
G02*
X348053031Y-22936291I53033J53033D01*
G01*
X348159097Y-22830225D01*
G75*
G02*
X348265163Y-22830225I53033J-53033D01*
G01*
G37*
G36*
G01*
X347911610Y-23183778D02*
X348901560Y-24173728D01*
G75*
G02*
X348901560Y-24279794I-53033J-53033D01*
G01*
X348795494Y-24385860D01*
G75*
G02*
X348689428Y-24385860I-53033J53033D01*
G01*
X347699478Y-23395910D01*
G75*
G02*
X347699478Y-23289844I53033J53033D01*
G01*
X347805544Y-23183778D01*
G75*
G02*
X347911610Y-23183778I53033J-53033D01*
G01*
G37*
G36*
G01*
X348795494Y-25906140D02*
X348901560Y-26012206D01*
G75*
G02*
X348901560Y-26118272I-53033J-53033D01*
G01*
X347911610Y-27108222D01*
G75*
G02*
X347805544Y-27108222I-53033J53033D01*
G01*
X347699478Y-27002156D01*
G75*
G02*
X347699478Y-26896090I53033J53033D01*
G01*
X348689428Y-25906140D01*
G75*
G02*
X348795494Y-25906140I53033J-53033D01*
G01*
G37*
G36*
G01*
X349149047Y-26259693D02*
X349255113Y-26365759D01*
G75*
G02*
X349255113Y-26471825I-53033J-53033D01*
G01*
X348265163Y-27461775D01*
G75*
G02*
X348159097Y-27461775I-53033J53033D01*
G01*
X348053031Y-27355709D01*
G75*
G02*
X348053031Y-27249643I53033J53033D01*
G01*
X349042981Y-26259693D01*
G75*
G02*
X349149047Y-26259693I53033J-53033D01*
G01*
G37*
G36*
G01*
X349502600Y-26613246D02*
X349608666Y-26719312D01*
G75*
G02*
X349608666Y-26825378I-53033J-53033D01*
G01*
X348618716Y-27815328D01*
G75*
G02*
X348512650Y-27815328I-53033J53033D01*
G01*
X348406584Y-27709262D01*
G75*
G02*
X348406584Y-27603196I53033J53033D01*
G01*
X349396534Y-26613246D01*
G75*
G02*
X349502600Y-26613246I53033J-53033D01*
G01*
G37*
G36*
G01*
X349856154Y-26966800D02*
X349962220Y-27072866D01*
G75*
G02*
X349962220Y-27178932I-53033J-53033D01*
G01*
X348972270Y-28168882D01*
G75*
G02*
X348866204Y-28168882I-53033J53033D01*
G01*
X348760138Y-28062816D01*
G75*
G02*
X348760138Y-27956750I53033J53033D01*
G01*
X349750088Y-26966800D01*
G75*
G02*
X349856154Y-26966800I53033J-53033D01*
G01*
G37*
G36*
G01*
X350209707Y-27320353D02*
X350315773Y-27426419D01*
G75*
G02*
X350315773Y-27532485I-53033J-53033D01*
G01*
X349325823Y-28522435D01*
G75*
G02*
X349219757Y-28522435I-53033J53033D01*
G01*
X349113691Y-28416369D01*
G75*
G02*
X349113691Y-28310303I53033J53033D01*
G01*
X350103641Y-27320353D01*
G75*
G02*
X350209707Y-27320353I53033J-53033D01*
G01*
G37*
G36*
G01*
X350563261Y-27673907D02*
X350669327Y-27779973D01*
G75*
G02*
X350669327Y-27886039I-53033J-53033D01*
G01*
X349679377Y-28875989D01*
G75*
G02*
X349573311Y-28875989I-53033J53033D01*
G01*
X349467245Y-28769923D01*
G75*
G02*
X349467245Y-28663857I53033J53033D01*
G01*
X350457195Y-27673907D01*
G75*
G02*
X350563261Y-27673907I53033J-53033D01*
G01*
G37*
G36*
G01*
X350916814Y-28027460D02*
X351022880Y-28133526D01*
G75*
G02*
X351022880Y-28239592I-53033J-53033D01*
G01*
X350032930Y-29229542D01*
G75*
G02*
X349926864Y-29229542I-53033J53033D01*
G01*
X349820798Y-29123476D01*
G75*
G02*
X349820798Y-29017410I53033J53033D01*
G01*
X350810748Y-28027460D01*
G75*
G02*
X350916814Y-28027460I53033J-53033D01*
G01*
G37*
G36*
G01*
X351270367Y-28381013D02*
X351376433Y-28487079D01*
G75*
G02*
X351376433Y-28593145I-53033J-53033D01*
G01*
X350386483Y-29583095D01*
G75*
G02*
X350280417Y-29583095I-53033J53033D01*
G01*
X350174351Y-29477029D01*
G75*
G02*
X350174351Y-29370963I53033J53033D01*
G01*
X351164301Y-28381013D01*
G75*
G02*
X351270367Y-28381013I53033J-53033D01*
G01*
G37*
G36*
G01*
X351623921Y-28734567D02*
X351729987Y-28840633D01*
G75*
G02*
X351729987Y-28946699I-53033J-53033D01*
G01*
X350740037Y-29936649D01*
G75*
G02*
X350633971Y-29936649I-53033J53033D01*
G01*
X350527905Y-29830583D01*
G75*
G02*
X350527905Y-29724517I53033J53033D01*
G01*
X351517855Y-28734567D01*
G75*
G02*
X351623921Y-28734567I53033J-53033D01*
G01*
G37*
G36*
G01*
X351977474Y-29088120D02*
X352083540Y-29194186D01*
G75*
G02*
X352083540Y-29300252I-53033J-53033D01*
G01*
X351093590Y-30290202D01*
G75*
G02*
X350987524Y-30290202I-53033J53033D01*
G01*
X350881458Y-30184136D01*
G75*
G02*
X350881458Y-30078070I53033J53033D01*
G01*
X351871408Y-29088120D01*
G75*
G02*
X351977474Y-29088120I53033J-53033D01*
G01*
G37*
G36*
G01*
X352331027Y-29441673D02*
X352437093Y-29547739D01*
G75*
G02*
X352437093Y-29653805I-53033J-53033D01*
G01*
X351447143Y-30643755D01*
G75*
G02*
X351341077Y-30643755I-53033J53033D01*
G01*
X351235011Y-30537689D01*
G75*
G02*
X351235011Y-30431623I53033J53033D01*
G01*
X352224961Y-29441673D01*
G75*
G02*
X352331027Y-29441673I53033J-53033D01*
G01*
G37*
G36*
G01*
X352684581Y-29795227D02*
X352790647Y-29901293D01*
G75*
G02*
X352790647Y-30007359I-53033J-53033D01*
G01*
X351800697Y-30997309D01*
G75*
G02*
X351694631Y-30997309I-53033J53033D01*
G01*
X351588565Y-30891243D01*
G75*
G02*
X351588565Y-30785177I53033J53033D01*
G01*
X352578515Y-29795227D01*
G75*
G02*
X352684581Y-29795227I53033J-53033D01*
G01*
G37*
G36*
G01*
X353038134Y-30148780D02*
X353144200Y-30254846D01*
G75*
G02*
X353144200Y-30360912I-53033J-53033D01*
G01*
X352154250Y-31350862D01*
G75*
G02*
X352048184Y-31350862I-53033J53033D01*
G01*
X351942118Y-31244796D01*
G75*
G02*
X351942118Y-31138730I53033J53033D01*
G01*
X352932068Y-30148780D01*
G75*
G02*
X353038134Y-30148780I53033J-53033D01*
G01*
G37*
G36*
G01*
X353391688Y-30502334D02*
X353497754Y-30608400D01*
G75*
G02*
X353497754Y-30714466I-53033J-53033D01*
G01*
X352507804Y-31704416D01*
G75*
G02*
X352401738Y-31704416I-53033J53033D01*
G01*
X352295672Y-31598350D01*
G75*
G02*
X352295672Y-31492284I53033J53033D01*
G01*
X353285622Y-30502334D01*
G75*
G02*
X353391688Y-30502334I53033J-53033D01*
G01*
G37*
G36*
G01*
X353745241Y-30855887D02*
X353851307Y-30961953D01*
G75*
G02*
X353851307Y-31068019I-53033J-53033D01*
G01*
X352861357Y-32057969D01*
G75*
G02*
X352755291Y-32057969I-53033J53033D01*
G01*
X352649225Y-31951903D01*
G75*
G02*
X352649225Y-31845837I53033J53033D01*
G01*
X353639175Y-30855887D01*
G75*
G02*
X353745241Y-30855887I53033J-53033D01*
G01*
G37*
G36*
G01*
X354098794Y-31209440D02*
X354204860Y-31315506D01*
G75*
G02*
X354204860Y-31421572I-53033J-53033D01*
G01*
X353214910Y-32411522D01*
G75*
G02*
X353108844Y-32411522I-53033J53033D01*
G01*
X353002778Y-32305456D01*
G75*
G02*
X353002778Y-32199390I53033J53033D01*
G01*
X353992728Y-31209440D01*
G75*
G02*
X354098794Y-31209440I53033J-53033D01*
G01*
G37*
G36*
G01*
X355937272Y-31209440D02*
X356927222Y-32199390D01*
G75*
G02*
X356927222Y-32305456I-53033J-53033D01*
G01*
X356821156Y-32411522D01*
G75*
G02*
X356715090Y-32411522I-53033J53033D01*
G01*
X355725140Y-31421572D01*
G75*
G02*
X355725140Y-31315506I53033J53033D01*
G01*
X355831206Y-31209440D01*
G75*
G02*
X355937272Y-31209440I53033J-53033D01*
G01*
G37*
G36*
G01*
X356290825Y-30855887D02*
X357280775Y-31845837D01*
G75*
G02*
X357280775Y-31951903I-53033J-53033D01*
G01*
X357174709Y-32057969D01*
G75*
G02*
X357068643Y-32057969I-53033J53033D01*
G01*
X356078693Y-31068019D01*
G75*
G02*
X356078693Y-30961953I53033J53033D01*
G01*
X356184759Y-30855887D01*
G75*
G02*
X356290825Y-30855887I53033J-53033D01*
G01*
G37*
G36*
G01*
X356644378Y-30502334D02*
X357634328Y-31492284D01*
G75*
G02*
X357634328Y-31598350I-53033J-53033D01*
G01*
X357528262Y-31704416D01*
G75*
G02*
X357422196Y-31704416I-53033J53033D01*
G01*
X356432246Y-30714466D01*
G75*
G02*
X356432246Y-30608400I53033J53033D01*
G01*
X356538312Y-30502334D01*
G75*
G02*
X356644378Y-30502334I53033J-53033D01*
G01*
G37*
G36*
G01*
X356997932Y-30148780D02*
X357987882Y-31138730D01*
G75*
G02*
X357987882Y-31244796I-53033J-53033D01*
G01*
X357881816Y-31350862D01*
G75*
G02*
X357775750Y-31350862I-53033J53033D01*
G01*
X356785800Y-30360912D01*
G75*
G02*
X356785800Y-30254846I53033J53033D01*
G01*
X356891866Y-30148780D01*
G75*
G02*
X356997932Y-30148780I53033J-53033D01*
G01*
G37*
G36*
G01*
X357351485Y-29795227D02*
X358341435Y-30785177D01*
G75*
G02*
X358341435Y-30891243I-53033J-53033D01*
G01*
X358235369Y-30997309D01*
G75*
G02*
X358129303Y-30997309I-53033J53033D01*
G01*
X357139353Y-30007359D01*
G75*
G02*
X357139353Y-29901293I53033J53033D01*
G01*
X357245419Y-29795227D01*
G75*
G02*
X357351485Y-29795227I53033J-53033D01*
G01*
G37*
G36*
G01*
X357705039Y-29441673D02*
X358694989Y-30431623D01*
G75*
G02*
X358694989Y-30537689I-53033J-53033D01*
G01*
X358588923Y-30643755D01*
G75*
G02*
X358482857Y-30643755I-53033J53033D01*
G01*
X357492907Y-29653805D01*
G75*
G02*
X357492907Y-29547739I53033J53033D01*
G01*
X357598973Y-29441673D01*
G75*
G02*
X357705039Y-29441673I53033J-53033D01*
G01*
G37*
G36*
G01*
X358058592Y-29088120D02*
X359048542Y-30078070D01*
G75*
G02*
X359048542Y-30184136I-53033J-53033D01*
G01*
X358942476Y-30290202D01*
G75*
G02*
X358836410Y-30290202I-53033J53033D01*
G01*
X357846460Y-29300252D01*
G75*
G02*
X357846460Y-29194186I53033J53033D01*
G01*
X357952526Y-29088120D01*
G75*
G02*
X358058592Y-29088120I53033J-53033D01*
G01*
G37*
G36*
G01*
X358412145Y-28734567D02*
X359402095Y-29724517D01*
G75*
G02*
X359402095Y-29830583I-53033J-53033D01*
G01*
X359296029Y-29936649D01*
G75*
G02*
X359189963Y-29936649I-53033J53033D01*
G01*
X358200013Y-28946699D01*
G75*
G02*
X358200013Y-28840633I53033J53033D01*
G01*
X358306079Y-28734567D01*
G75*
G02*
X358412145Y-28734567I53033J-53033D01*
G01*
G37*
G36*
G01*
X358765699Y-28381013D02*
X359755649Y-29370963D01*
G75*
G02*
X359755649Y-29477029I-53033J-53033D01*
G01*
X359649583Y-29583095D01*
G75*
G02*
X359543517Y-29583095I-53033J53033D01*
G01*
X358553567Y-28593145D01*
G75*
G02*
X358553567Y-28487079I53033J53033D01*
G01*
X358659633Y-28381013D01*
G75*
G02*
X358765699Y-28381013I53033J-53033D01*
G01*
G37*
G36*
G01*
X359119252Y-28027460D02*
X360109202Y-29017410D01*
G75*
G02*
X360109202Y-29123476I-53033J-53033D01*
G01*
X360003136Y-29229542D01*
G75*
G02*
X359897070Y-29229542I-53033J53033D01*
G01*
X358907120Y-28239592D01*
G75*
G02*
X358907120Y-28133526I53033J53033D01*
G01*
X359013186Y-28027460D01*
G75*
G02*
X359119252Y-28027460I53033J-53033D01*
G01*
G37*
G36*
G01*
X359472805Y-27673907D02*
X360462755Y-28663857D01*
G75*
G02*
X360462755Y-28769923I-53033J-53033D01*
G01*
X360356689Y-28875989D01*
G75*
G02*
X360250623Y-28875989I-53033J53033D01*
G01*
X359260673Y-27886039D01*
G75*
G02*
X359260673Y-27779973I53033J53033D01*
G01*
X359366739Y-27673907D01*
G75*
G02*
X359472805Y-27673907I53033J-53033D01*
G01*
G37*
G36*
G01*
X359826359Y-27320353D02*
X360816309Y-28310303D01*
G75*
G02*
X360816309Y-28416369I-53033J-53033D01*
G01*
X360710243Y-28522435D01*
G75*
G02*
X360604177Y-28522435I-53033J53033D01*
G01*
X359614227Y-27532485D01*
G75*
G02*
X359614227Y-27426419I53033J53033D01*
G01*
X359720293Y-27320353D01*
G75*
G02*
X359826359Y-27320353I53033J-53033D01*
G01*
G37*
G36*
G01*
X360179912Y-26966800D02*
X361169862Y-27956750D01*
G75*
G02*
X361169862Y-28062816I-53033J-53033D01*
G01*
X361063796Y-28168882D01*
G75*
G02*
X360957730Y-28168882I-53033J53033D01*
G01*
X359967780Y-27178932D01*
G75*
G02*
X359967780Y-27072866I53033J53033D01*
G01*
X360073846Y-26966800D01*
G75*
G02*
X360179912Y-26966800I53033J-53033D01*
G01*
G37*
G36*
G01*
X360533466Y-26613246D02*
X361523416Y-27603196D01*
G75*
G02*
X361523416Y-27709262I-53033J-53033D01*
G01*
X361417350Y-27815328D01*
G75*
G02*
X361311284Y-27815328I-53033J53033D01*
G01*
X360321334Y-26825378D01*
G75*
G02*
X360321334Y-26719312I53033J53033D01*
G01*
X360427400Y-26613246D01*
G75*
G02*
X360533466Y-26613246I53033J-53033D01*
G01*
G37*
G36*
G01*
X360887019Y-26259693D02*
X361876969Y-27249643D01*
G75*
G02*
X361876969Y-27355709I-53033J-53033D01*
G01*
X361770903Y-27461775D01*
G75*
G02*
X361664837Y-27461775I-53033J53033D01*
G01*
X360674887Y-26471825D01*
G75*
G02*
X360674887Y-26365759I53033J53033D01*
G01*
X360780953Y-26259693D01*
G75*
G02*
X360887019Y-26259693I53033J-53033D01*
G01*
G37*
G36*
G01*
X361240572Y-25906140D02*
X362230522Y-26896090D01*
G75*
G02*
X362230522Y-27002156I-53033J-53033D01*
G01*
X362124456Y-27108222D01*
G75*
G02*
X362018390Y-27108222I-53033J53033D01*
G01*
X361028440Y-26118272D01*
G75*
G02*
X361028440Y-26012206I53033J53033D01*
G01*
X361134506Y-25906140D01*
G75*
G02*
X361240572Y-25906140I53033J-53033D01*
G01*
G37*
G36*
G01*
X362124456Y-23183778D02*
X362230522Y-23289844D01*
G75*
G02*
X362230522Y-23395910I-53033J-53033D01*
G01*
X361240572Y-24385860D01*
G75*
G02*
X361134506Y-24385860I-53033J53033D01*
G01*
X361028440Y-24279794D01*
G75*
G02*
X361028440Y-24173728I53033J53033D01*
G01*
X362018390Y-23183778D01*
G75*
G02*
X362124456Y-23183778I53033J-53033D01*
G01*
G37*
G36*
G01*
X361770903Y-22830225D02*
X361876969Y-22936291D01*
G75*
G02*
X361876969Y-23042357I-53033J-53033D01*
G01*
X360887019Y-24032307D01*
G75*
G02*
X360780953Y-24032307I-53033J53033D01*
G01*
X360674887Y-23926241D01*
G75*
G02*
X360674887Y-23820175I53033J53033D01*
G01*
X361664837Y-22830225D01*
G75*
G02*
X361770903Y-22830225I53033J-53033D01*
G01*
G37*
G36*
G01*
X361417350Y-22476672D02*
X361523416Y-22582738D01*
G75*
G02*
X361523416Y-22688804I-53033J-53033D01*
G01*
X360533466Y-23678754D01*
G75*
G02*
X360427400Y-23678754I-53033J53033D01*
G01*
X360321334Y-23572688D01*
G75*
G02*
X360321334Y-23466622I53033J53033D01*
G01*
X361311284Y-22476672D01*
G75*
G02*
X361417350Y-22476672I53033J-53033D01*
G01*
G37*
G36*
G01*
X361063796Y-22123118D02*
X361169862Y-22229184D01*
G75*
G02*
X361169862Y-22335250I-53033J-53033D01*
G01*
X360179912Y-23325200D01*
G75*
G02*
X360073846Y-23325200I-53033J53033D01*
G01*
X359967780Y-23219134D01*
G75*
G02*
X359967780Y-23113068I53033J53033D01*
G01*
X360957730Y-22123118D01*
G75*
G02*
X361063796Y-22123118I53033J-53033D01*
G01*
G37*
G36*
G01*
X360710243Y-21769565D02*
X360816309Y-21875631D01*
G75*
G02*
X360816309Y-21981697I-53033J-53033D01*
G01*
X359826359Y-22971647D01*
G75*
G02*
X359720293Y-22971647I-53033J53033D01*
G01*
X359614227Y-22865581D01*
G75*
G02*
X359614227Y-22759515I53033J53033D01*
G01*
X360604177Y-21769565D01*
G75*
G02*
X360710243Y-21769565I53033J-53033D01*
G01*
G37*
G36*
G01*
X360356689Y-21416011D02*
X360462755Y-21522077D01*
G75*
G02*
X360462755Y-21628143I-53033J-53033D01*
G01*
X359472805Y-22618093D01*
G75*
G02*
X359366739Y-22618093I-53033J53033D01*
G01*
X359260673Y-22512027D01*
G75*
G02*
X359260673Y-22405961I53033J53033D01*
G01*
X360250623Y-21416011D01*
G75*
G02*
X360356689Y-21416011I53033J-53033D01*
G01*
G37*
G36*
G01*
X360003136Y-21062458D02*
X360109202Y-21168524D01*
G75*
G02*
X360109202Y-21274590I-53033J-53033D01*
G01*
X359119252Y-22264540D01*
G75*
G02*
X359013186Y-22264540I-53033J53033D01*
G01*
X358907120Y-22158474D01*
G75*
G02*
X358907120Y-22052408I53033J53033D01*
G01*
X359897070Y-21062458D01*
G75*
G02*
X360003136Y-21062458I53033J-53033D01*
G01*
G37*
G36*
G01*
X359649583Y-20708905D02*
X359755649Y-20814971D01*
G75*
G02*
X359755649Y-20921037I-53033J-53033D01*
G01*
X358765699Y-21910987D01*
G75*
G02*
X358659633Y-21910987I-53033J53033D01*
G01*
X358553567Y-21804921D01*
G75*
G02*
X358553567Y-21698855I53033J53033D01*
G01*
X359543517Y-20708905D01*
G75*
G02*
X359649583Y-20708905I53033J-53033D01*
G01*
G37*
G36*
G01*
X359296029Y-20355351D02*
X359402095Y-20461417D01*
G75*
G02*
X359402095Y-20567483I-53033J-53033D01*
G01*
X358412145Y-21557433D01*
G75*
G02*
X358306079Y-21557433I-53033J53033D01*
G01*
X358200013Y-21451367D01*
G75*
G02*
X358200013Y-21345301I53033J53033D01*
G01*
X359189963Y-20355351D01*
G75*
G02*
X359296029Y-20355351I53033J-53033D01*
G01*
G37*
G36*
G01*
X358942476Y-20001798D02*
X359048542Y-20107864D01*
G75*
G02*
X359048542Y-20213930I-53033J-53033D01*
G01*
X358058592Y-21203880D01*
G75*
G02*
X357952526Y-21203880I-53033J53033D01*
G01*
X357846460Y-21097814D01*
G75*
G02*
X357846460Y-20991748I53033J53033D01*
G01*
X358836410Y-20001798D01*
G75*
G02*
X358942476Y-20001798I53033J-53033D01*
G01*
G37*
G36*
G01*
X358588923Y-19648245D02*
X358694989Y-19754311D01*
G75*
G02*
X358694989Y-19860377I-53033J-53033D01*
G01*
X357705039Y-20850327D01*
G75*
G02*
X357598973Y-20850327I-53033J53033D01*
G01*
X357492907Y-20744261D01*
G75*
G02*
X357492907Y-20638195I53033J53033D01*
G01*
X358482857Y-19648245D01*
G75*
G02*
X358588923Y-19648245I53033J-53033D01*
G01*
G37*
G36*
G01*
X358235369Y-19294691D02*
X358341435Y-19400757D01*
G75*
G02*
X358341435Y-19506823I-53033J-53033D01*
G01*
X357351485Y-20496773D01*
G75*
G02*
X357245419Y-20496773I-53033J53033D01*
G01*
X357139353Y-20390707D01*
G75*
G02*
X357139353Y-20284641I53033J53033D01*
G01*
X358129303Y-19294691D01*
G75*
G02*
X358235369Y-19294691I53033J-53033D01*
G01*
G37*
G36*
G01*
X357881816Y-18941138D02*
X357987882Y-19047204D01*
G75*
G02*
X357987882Y-19153270I-53033J-53033D01*
G01*
X356997932Y-20143220D01*
G75*
G02*
X356891866Y-20143220I-53033J53033D01*
G01*
X356785800Y-20037154D01*
G75*
G02*
X356785800Y-19931088I53033J53033D01*
G01*
X357775750Y-18941138D01*
G75*
G02*
X357881816Y-18941138I53033J-53033D01*
G01*
G37*
G36*
G01*
X357528262Y-18587584D02*
X357634328Y-18693650D01*
G75*
G02*
X357634328Y-18799716I-53033J-53033D01*
G01*
X356644378Y-19789666D01*
G75*
G02*
X356538312Y-19789666I-53033J53033D01*
G01*
X356432246Y-19683600D01*
G75*
G02*
X356432246Y-19577534I53033J53033D01*
G01*
X357422196Y-18587584D01*
G75*
G02*
X357528262Y-18587584I53033J-53033D01*
G01*
G37*
G36*
G01*
X357174709Y-18234031D02*
X357280775Y-18340097D01*
G75*
G02*
X357280775Y-18446163I-53033J-53033D01*
G01*
X356290825Y-19436113D01*
G75*
G02*
X356184759Y-19436113I-53033J53033D01*
G01*
X356078693Y-19330047D01*
G75*
G02*
X356078693Y-19223981I53033J53033D01*
G01*
X357068643Y-18234031D01*
G75*
G02*
X357174709Y-18234031I53033J-53033D01*
G01*
G37*
G36*
G01*
X356821156Y-17880478D02*
X356927222Y-17986544D01*
G75*
G02*
X356927222Y-18092610I-53033J-53033D01*
G01*
X355937272Y-19082560D01*
G75*
G02*
X355831206Y-19082560I-53033J53033D01*
G01*
X355725140Y-18976494D01*
G75*
G02*
X355725140Y-18870428I53033J53033D01*
G01*
X356715090Y-17880478D01*
G75*
G02*
X356821156Y-17880478I53033J-53033D01*
G01*
G37*
%TD*%
D19*
%TO.C,FB1*%
X357886000Y-10411499D03*
X357886000Y-11686500D03*
%TD*%
D20*
%TO.C,CR1*%
X365683800Y-2159000D03*
X362280200Y-2159000D03*
%TD*%
D21*
%TO.C,C6*%
X359647293Y-14605000D03*
X360950707Y-14605000D03*
%TD*%
D22*
%TO.C,C3*%
X363474000Y-18304707D03*
X363474000Y-17001293D03*
%TD*%
D23*
%TO.C,C2*%
X383463800Y-22741006D03*
X383463800Y-23994994D03*
%TD*%
D24*
%TO.C,C5*%
X387756400Y-22716005D03*
X387756400Y-24019993D03*
%TD*%
D23*
%TO.C,C1*%
X357124000Y-7501006D03*
X357124000Y-8754994D03*
%TD*%
D25*
%TO.C,C23*%
X350147006Y-91313000D03*
X351400994Y-91313000D03*
%TD*%
%TO.C,C21*%
X343289006Y-86995000D03*
X344542994Y-86995000D03*
%TD*%
D23*
%TO.C,C12*%
X32385000Y-24773006D03*
X32385000Y-26026994D03*
%TD*%
D25*
%TO.C,C19*%
X336922994Y-90170000D03*
X335669006Y-90170000D03*
%TD*%
D23*
%TO.C,C16*%
X38989000Y-18152994D03*
X38989000Y-16899006D03*
%TD*%
%TO.C,C14*%
X33909000Y-12056994D03*
X33909000Y-10803006D03*
%TD*%
D26*
%TO.C,C7*%
G36*
X360254120Y-20341384D02*
G01*
X360828384Y-19767120D01*
X361364472Y-20303208D01*
X360790208Y-20877472D01*
X360254120Y-20341384D01*
G37*
G36*
X361140824Y-21228088D02*
G01*
X361715088Y-20653824D01*
X362251176Y-21189912D01*
X361676912Y-21764176D01*
X361140824Y-21228088D01*
G37*
%TD*%
D23*
%TO.C,C4*%
X385610100Y-23994994D03*
X385610100Y-22741006D03*
%TD*%
D27*
%TO.C,R8*%
X348234000Y-18095000D03*
X348234000Y-16195000D03*
%TD*%
%TO.C,R7*%
X356743000Y-46416000D03*
X356743000Y-44516000D03*
%TD*%
%TO.C,R6*%
X354584000Y-46416000D03*
X354584000Y-44516000D03*
%TD*%
%TO.C,R5*%
X352425000Y-46416000D03*
X352425000Y-44516000D03*
%TD*%
%TO.C,R4*%
X355219000Y-41463000D03*
X355219000Y-39563000D03*
%TD*%
%TO.C,R3*%
X353060000Y-41463000D03*
X353060000Y-39563000D03*
%TD*%
D28*
%TO.C,Y1*%
X361703000Y-18222000D03*
X359403000Y-18222000D03*
X359403000Y-16322000D03*
X361703000Y-16322000D03*
%TD*%
D29*
%TO.C,C18*%
X343170000Y-81788000D03*
X340090000Y-81788000D03*
%TD*%
D30*
%TO.C,C17*%
X42418000Y-18050000D03*
X42418000Y-14970000D03*
%TD*%
D13*
%TO.C,C15*%
X37338000Y-18264000D03*
X37338000Y-16788000D03*
%TD*%
D12*
%TO.C,C24*%
X349655000Y-89662000D03*
X351131000Y-89662000D03*
%TD*%
%TO.C,C22*%
X343178000Y-85471000D03*
X344654000Y-85471000D03*
%TD*%
%TO.C,C20*%
X337034000Y-91694000D03*
X335558000Y-91694000D03*
%TD*%
D13*
%TO.C,C13*%
X32385000Y-12168000D03*
X32385000Y-10692000D03*
%TD*%
%TO.C,C11*%
X34036000Y-24408000D03*
X34036000Y-25884000D03*
%TD*%
D19*
%TO.C,R1*%
X352425000Y-9400501D03*
X352425000Y-8125500D03*
%TD*%
D31*
%TO.C,R20*%
X346687000Y-86868000D03*
X352575000Y-86868000D03*
%TD*%
D32*
%TO.C,R17*%
X36830000Y-21567000D03*
X36830000Y-27455000D03*
%TD*%
D33*
%TO.C,R19*%
X350391000Y-94488000D03*
X348871000Y-94488000D03*
%TD*%
%TO.C,R18*%
X348871000Y-96012000D03*
X350391000Y-96012000D03*
%TD*%
D14*
%TO.C,R16*%
X29210000Y-25779000D03*
X29210000Y-24259000D03*
%TD*%
D33*
%TO.C,R15*%
X27684000Y-23749000D03*
X26164000Y-23749000D03*
%TD*%
D14*
%TO.C,R10*%
X345313000Y-17909000D03*
X345313000Y-19429000D03*
%TD*%
%TO.C,R9*%
X345313000Y-22477000D03*
X345313000Y-20957000D03*
%TD*%
D34*
%TO.C,U1*%
X374825400Y-22148800D03*
D35*
X380875400Y-24448800D03*
X380875400Y-22148800D03*
X380875400Y-19848800D03*
%TD*%
M02*
